<svg width="90" height="111" viewBox="0 0 90 111" fill="none" xmlns="http://www.w3.org/2000/svg">
<path d="M85 35.6289C82.134 35.6289 78 42.6289 78 42.6289V64.6289L86 72.6289C86 72.6289 90 58.6289 90 49.6289C90 43.8233 88 35.6289 85 35.6289Z" fill="#04307B"/>
<path d="M5 35.6289C7.86599 35.6289 12 42.6289 12 42.6289V64.6289L4 72.6289C4 72.6289 0 58.6289 0 49.6289C0 43.8233 2 35.6289 5 35.6289Z" fill="#04307B"/>
<path d="M79.6088 63.8804C79.8665 61.1888 80.0001 58.4334 80.0001 55.6289C80.0001 25.2532 64.3301 0.628906 45.0001 0.628906C25.6702 0.628906 10.0001 25.2532 10.0001 55.6289C10.0001 58.4334 10.1337 61.1888 10.3914 63.8804C-0.367128 71.6699 0.898985 82.278 0.994932 83.0813C0.998228 83.1089 1.00012 83.1249 1.00012 83.1289C1.00012 100.317 20.6996 110.629 45.0001 110.629C69.3007 110.629 89.0001 100.317 89.0001 83.1289C89.0001 83.1249 89.002 83.1089 89.0053 83.0813C89.1013 82.278 90.3674 71.6699 79.6088 63.8804Z" fill="#0961F6"/>
<path d="M45 106.629C7.58332 106.629 3 91.6289 3 91.6289C3 91.6289 6 87.6289 17 87.6289C26.3909 87.6289 45 88.6289 45 88.6289C45 88.6289 63.6091 87.6289 73 87.6289C84 87.6289 87 91.6289 87 91.6289C87 91.6289 82.4167 106.629 45 106.629Z" fill="#84B0FB"/>
<path d="M7 93.7576C7 93.1592 7.51801 92.6954 8.11184 92.7689C12.8942 93.361 32.0571 95.6289 45 95.6289C57.9429 95.6289 77.1058 93.361 81.8882 92.7689C82.482 92.6954 83 93.1592 83 93.7576V93.7576C83 94.256 82.6434 94.6749 82.1488 94.7365C77.8478 95.2726 58.1927 97.6289 45 97.6289C31.8073 97.6289 12.1522 95.2726 7.85116 94.7365C7.35664 94.6749 7 94.256 7 93.7576V93.7576Z" fill="#04307B"/>
<path d="M64 67.6277C64 73.6277 53 76.6277 53 76.6277C53 76.6277 51 72.6277 51 69.6277C51 65.6277 52 63.6277 57 63.6277C60.1485 63.6277 64 64.6277 64 67.6277Z" fill="#84B0FB"/>
<path d="M56 75.6277C55 76.1277 53 76.6277 53 76.6277V71.6277C53 69.1271 54 66.6277 57 66.6277C58.5 66.6277 60 66.6277 60 68.6277C60 71.7762 58.8161 74.2195 56 75.6277Z" fill="#04307B"/>
<path d="M28 67.6277C28 73.6277 39 76.6277 39 76.6277C39 76.6277 41 72.6277 41 69.6277C41 65.6277 40 63.6277 35 63.6277C31.8515 63.6277 28 64.6277 28 67.6277Z" fill="#84B0FB"/>
<path d="M36 75.6277C37 76.1277 39 76.6277 39 76.6277V71.6277C39 69.1271 38 66.6277 35 66.6277C33.5 66.6277 32 66.6277 32 68.6277C32 71.7762 33.1839 74.2195 36 75.6277Z" fill="#04307B"/>
<ellipse cx="59" cy="50.6277" rx="8" ry="6" fill="#04307B"/>
<ellipse cx="58" cy="48.6277" rx="3" ry="2" fill="#84B0FB"/>
<ellipse rx="8" ry="6" transform="matrix(-1 0 0 1 31 50.6277)" fill="#04307B"/>
<ellipse rx="3" ry="2" transform="matrix(-1 0 0 1 32 48.6277)" fill="#84B0FB"/>
</svg>
