<svg width="116" height="98" viewBox="0 0 116 98" fill="none" xmlns="http://www.w3.org/2000/svg">
<path d="M78 5.00026C78 5.00026 76.0505 0.0416388 58 0.000263978C39.5698 -0.041981 37 5.00026 37 5.00026L26 3.00026L13 13.0003L1 9.00026C1 9.00026 1.03099 16.682 4 20.0003C6.09941 22.3467 11 24.0003 11 24.0003L0 25.0003C0 25.0003 4.67281 38.2955 12 41.0003C17.5076 43.0334 27 40.0003 27 40.0003C27 40.0003 13 55.0003 13 60.0003V70.0003C13 75.0003 23 89.0003 26 91.0003C36.5031 98.0024 44.981 98.0015 57.495 98.0003L58 98.0003L58.505 98.0003C71.019 98.0015 79.4969 98.0024 90 91.0003C93 89.0003 103 75.0003 103 70.0003V60.0003C103 55.0003 89 40.0003 89 40.0003C89 40.0003 98.5 43.0003 104 41.0003C111.34 38.3311 113 32.0003 116 25.0003L105 24.0003C105 24.0003 109.901 22.3467 112 20.0003C114.969 16.682 115 9.00026 115 9.00026L103 13.0003L90 3.00026L78 5.00026Z" fill="#0961F6"/>
<path d="M103 70.0003V60.0003C103 58.2229 101.231 55.1818 98.9503 52C96.6698 48.8183 91 49 86 49C69.2518 49 58 60 58 60C58 60 46.7482 49 30 49C24.5 49 19.3302 48.8183 17.0497 52C14.7692 55.1818 13 58.2229 13 60.0003V70.0003C13 75.0003 23 89.0003 26 91.0003C36.6438 98.0962 45.2077 98.0003 58 98.0003C70.7923 98.0003 79.3562 98.0962 90 91.0003C93 89.0003 103 75.0003 103 70.0003Z" fill="#84B0FB"/>
<path d="M90 3.00024L78 5.00024C78 5.00024 81.835 9.50511 83 13.0002L86 22.0002L105 24.0002C105 24.0002 109.901 22.3466 112 20.0002C114.969 16.6819 115 9.00024 115 9.00024L103 13.0002L90 3.00024Z" fill="#04307B"/>
<path d="M13 13.0002L1 9.00024C1 9.00024 1.03099 16.6819 4 20.0002C6.09941 22.3466 11 24.0002 11 24.0002L30 22.0002C30 22.0002 31 16.0002 32 13.0002C33.165 9.50511 37 5.00024 37 5.00024L26 3.00024L13 13.0002Z" fill="#04307B"/>
<path d="M19 41L18 27H29L27 40L23 41H19Z" fill="#04307B"/>
<path d="M18 27H6C6 27 8.5 41 19 41C23.5 41 26 37.1513 26 33C26 29.5 22 27 18 27Z" fill="#04307B"/>
<path d="M17 28H9C9 28 12.8239 39 18.5 39C21 39 23 36 23 33C23 29.9499 19.5 28 17 28Z" fill="#84B0FB"/>
<path d="M97 41L98 27H87L89 40L93 41H97Z" fill="#04307B"/>
<path d="M98 27H110C110 27 107.5 41 97 41C92.5 41 90 37.1513 90 33C90 29.5 94 27 98 27Z" fill="#04307B"/>
<path d="M99 28H107C107 28 103.176 39 97.5 39C95 39 93 36 93 33C93 29.9499 96.5 28 99 28Z" fill="#84B0FB"/>
<path d="M89 40H27C27 40 27.422 34.4888 28 31C28.5885 27.448 30 22 30 22H86C86 22 87.4115 27.448 88 31C88.578 34.4888 89 40 89 40Z" fill="#0961F6"/>
<path d="M72 69C72 72.5 74.0474 72 76 72C78 72 96 68.5649 96 63C96 58.5 93 54.0001 89 54C85.1462 53.9999 72 60.1462 72 69Z" fill="#04307B"/>
<path d="M44 69C44 72.5 41.9526 72 40 72C38 72 20 68.5649 20 63C20 58.5 23 54.0001 27 54C30.8538 53.9999 44 60.1462 44 69Z" fill="#04307B"/>
<path fill-rule="evenodd" clip-rule="evenodd" d="M102.286 73.0462C99.3544 77.0262 86.9958 91 58.0001 91C29.0043 91 16.6458 77.0262 13.7139 73.0462C14.4462 74.9777 15.6773 77.2947 17.1004 79.6181C22.8973 84.9513 35.3911 93 58.0001 93C80.6091 93 93.1029 84.9513 98.8998 79.6181C100.323 77.2947 101.554 74.9777 102.286 73.0462Z" fill="#04307B"/>
<circle cx="73.5" cy="29.5" r="4.5" fill="#04307B"/>
<circle cx="42.5" cy="29.5" r="4.5" fill="#04307B"/>
</svg>
