<svg width="121" height="91" viewBox="0 0 121 91" fill="none" xmlns="http://www.w3.org/2000/svg">
<path d="M57.0001 0.628906C52.0001 0.628906 53.0001 8.62891 53.0001 8.62891C44.1453 11.3026 39.8379 15.0538 33.0001 24.6289H24.0001C24.0001 24.6289 20.9707 15.6289 15.0001 15.6289C6.00015 15.6289 8.00015 31.6289 8.00015 31.6289C8.00015 31.6289 0.0349181 37.5781 0.000148936 50.6289C-0.0467544 68.2343 11.0001 72.6289 11.0001 72.6289V77.6289C11.0001 77.6289 13.5072 81.6289 19.0001 81.6289C26.0001 81.6289 26.0001 76.6289 26.0001 76.6289C29 79.1277 30.5 79.1277 33.0001 80.6289V86.6289C33.0001 86.6289 36.5072 90.6289 41.0001 90.6289C47.5001 90.6289 47.0001 83.6289 47.0001 83.6289C47.0001 83.6289 52.6546 83.7747 56.0001 82.6289C59.4856 81.4352 64.0002 77.6289 64.0002 77.6289C64.0002 77.6289 99.603 79.4349 100 45.6289C100.056 40.8783 98.0002 33.6289 98.0002 33.6289C111.429 32.9648 119 26.1289 121 12.6289C107.927 10.4729 102.134 12.8781 92.0002 17.6289C84.0001 8.12891 74.5001 5.62891 64.0001 6.62891C64.0001 6.62891 60.6006 0.628906 57.0001 0.628906Z" fill="#0961F6"/>
<path d="M47 81.6289C47 81.6289 48.5 90.6289 41 90.6289C36.507 90.6289 33 86.6289 33 86.6289V80.6289C30.1654 80.7807 28.6327 79.9063 26 76.6289C26 76.6289 26 81.6289 19 81.6289C13.507 81.6289 11 77.6289 11 77.6289V72.6289C11 72.6289 21 71.6289 24 74.6289L26 76.6289C28.6327 79.9063 30.1654 80.7807 33 80.6289C33 80.6289 37.2455 81.4341 40 81.6289C41.9073 81.7637 47 80.6654 47 80.6654V81.6289Z" fill="#84B0FB"/>
<path d="M97 32.6289C97 22.6289 103.5 18.6289 116 18.6289C116 26.6289 108 32.6289 97 32.6289Z" fill="#84B0FB"/>
<path d="M14.9999 15.6289C5.9999 15.6289 7.9999 31.6289 7.9999 31.6289L19.9999 26.6289C19.9999 26.6289 20.9705 15.6289 14.9999 15.6289Z" fill="#84B0FB"/>
<path d="M48.9999 42.6289L31.9999 32.6289C31.9999 32.6289 30.9999 21.6289 40.9999 21.6289C47.6503 21.6289 53.9999 24.6289 53.9999 32.6289C53.9999 38.6289 48.9999 42.6289 48.9999 42.6289Z" fill="#84B0FB"/>
<path d="M14.9999 15.6289C5.9999 15.6289 7.9999 31.6289 7.9999 31.6289L19.9999 26.6289C19.9999 26.6289 20.9705 15.6289 14.9999 15.6289Z" fill="#84B0FB"/>
<path d="M48.9999 42.6289L31.9999 32.6289C31.9999 32.6289 30.9999 21.6289 40.9999 21.6289C47.6503 21.6289 53.9999 24.6289 53.9999 32.6289C53.9999 38.6289 48.9999 42.6289 48.9999 42.6289Z" fill="#84B0FB"/>
<path d="M11.0004 30.6289L15.0001 29.1289C15.0001 29.1289 16.0005 21.6289 13.0004 21.6289C10.0002 21.6289 11.0004 30.6289 11.0004 30.6289Z" fill="#04307B"/>
<path d="M45 40.6289L35 34.6289C35 34.6289 35.5001 27.6289 41.0001 27.6289C45.6006 27.6289 48.0001 30.0285 48.0001 33.6289C48.0001 36.6289 45 40.6289 45 40.6289Z" fill="#04307B"/>
<ellipse cx="86" cy="42.1277" rx="6" ry="10.5" transform="rotate(-10 86 42.1277)" fill="#04307B"/>
<ellipse cx="85.5" cy="38.1276" rx="2.5" ry="4.5" transform="rotate(-10 85.5 38.1276)" fill="#84B0FB"/>
<path fill-rule="evenodd" clip-rule="evenodd" d="M67 51.6277C67 51.6277 69 57.6277 69 61.6277C69 78.5307 56.903 81.6277 40 81.6277C31.7437 81.6277 26.2109 77.7995 22.6456 73.674C12.7351 74.9366 8.44829 72.8175 3 64.6277C4.39466 65.2467 5.49535 65.7739 6.43085 66.2219C10.3846 68.1155 11.3879 68.596 19.1636 68.6261C17.6138 65.7953 17 63.6277 17 63.6277C17 63.6277 24.8171 75.6277 43 75.6277C67 75.6277 67 51.6277 67 51.6277Z" fill="#04307B"/>
</svg>
