<svg width="100" height="112" viewBox="0 0 100 112" fill="none" xmlns="http://www.w3.org/2000/svg">
<path d="M26.8358 0.524902C48.644 0.524844 44.7263 39.9869 44.7263 39.9869L28.8236 55.472C28.8236 55.472 0 57.6851 0 33.4931C0 16.01 12.424 0.524941 26.8358 0.524902Z" fill="#0961F6"/>
<path d="M30.0637 51.1324C30.5426 50.5062 31.0934 49.7903 31.6715 49.047C32.9804 47.3642 34.5001 45.4483 35.6403 44.1398C35.3958 43.3562 35.2664 42.5068 35.1836 41.7048C35.0323 40.2377 35.0041 38.4859 35.008 36.6301C35.0097 35.8366 35.0171 35.0191 35.0246 34.1837C35.0531 31.0347 35.0839 27.6321 34.819 24.3088C34.4822 20.0823 33.6833 16.3239 32.0166 13.6654C30.4501 11.1664 28.0567 9.52491 24.0002 9.5249C19.3461 9.5249 15.1173 13.2246 11.8955 18.4496C8.70813 23.6188 7.00024 29.5063 7.00024 32.5249C7.00024 39.9749 9.52705 43.7633 12.7117 45.8239C16.0741 47.9995 20.5721 48.5249 25.0002 48.5249C27.3397 48.5249 29.0721 50.0195 30.0637 51.1324Z" fill="#84B0FB" stroke="#04307B" stroke-width="4"/>
<path d="M30 45.5249C29.5001 46.5249 25 46.5249 25 46.5249L29 50.5249H34V35.5249H33C33 35.5249 33 39.5249 32 39.5249C29.0001 39.5249 29.0001 34.5249 25 34.5249C24.0001 34.5249 23.0001 35.0249 23 36.5249C22.9998 39.5249 31.2039 43.1164 30 45.5249Z" fill="#04307B"/>
<path d="M73.1642 0.524902C51.356 0.524844 55.2737 39.9869 55.2737 39.9869L71.1764 55.472C71.1764 55.472 100 57.6851 100 33.4931C100 16.01 87.576 0.524941 73.1642 0.524902Z" fill="#0961F6"/>
<path d="M69.9363 51.1324C69.4574 50.5062 68.9066 49.7903 68.3285 49.047C67.0196 47.3642 65.4999 45.4483 64.3597 44.1398C64.6042 43.3562 64.7336 42.5068 64.8164 41.7048C64.9677 40.2377 64.9959 38.4859 64.992 36.6301C64.9903 35.8366 64.9829 35.0191 64.9754 34.1837C64.9469 31.0347 64.9161 27.6321 65.181 24.3088C65.5178 20.0823 66.3167 16.3239 67.9834 13.6654C69.5499 11.1664 71.9433 9.52491 75.9998 9.5249C80.6539 9.5249 84.8827 13.2246 88.1045 18.4496C91.2919 23.6188 92.9998 29.5063 92.9998 32.5249C92.9998 39.9749 90.4729 43.7633 87.2883 45.8239C83.9259 47.9995 79.4279 48.5249 74.9998 48.5249C72.6603 48.5249 70.9279 50.0195 69.9363 51.1324Z" fill="#84B0FB" stroke="#04307B" stroke-width="4"/>
<path d="M70 45.5249C70.4999 46.5249 75 46.5249 75 46.5249L71 50.5249H66V35.5249H67C67 35.5249 67 39.5249 68 39.5249C70.9999 39.5249 70.9999 34.5249 75 34.5249C75.9999 34.5249 76.9999 35.0249 77 36.5249C77.0002 39.5249 68.7961 43.1164 70 45.5249Z" fill="#04307B"/>
<path d="M82.1313 85.0249C82.1313 100.183 67.8045 111.525 50.1313 111.525C32.4582 111.525 18.1313 100.183 18.1313 85.0249C18.1313 64.8665 37.4582 38.5249 50.1313 38.5249C62.8045 38.5249 82.1313 64.8665 82.1313 85.0249Z" fill="#0961F6"/>
<circle cx="50.1313" cy="96.5249" r="8" fill="#04307B"/>
<circle cx="47" cy="94.5249" r="3" fill="#84B0FB"/>
<rect x="53" y="56.5249" width="4" height="15" rx="2" fill="#04307B"/>
<rect x="43" y="56.5249" width="4" height="15" rx="2" fill="#04307B"/>
<path d="M32 100.927C32 99.9603 33.1357 99.3941 33.9278 99.9481C37.2149 102.247 44.12 106.525 50 106.525C55.88 106.525 62.7851 102.247 66.0722 99.9481C66.8643 99.3941 68 99.9603 68 100.927V100.927C68 101.302 67.8213 101.65 67.5087 101.857C65.4094 103.248 56.982 108.525 50 108.525C43.018 108.525 34.5906 103.248 32.4913 101.857C32.1787 101.65 32 101.302 32 100.927V100.927Z" fill="#04307B"/>
</svg>
