<svg width="107" height="95" viewBox="0 0 107 95" fill="none" xmlns="http://www.w3.org/2000/svg">
<path d="M78.0027 1C65.0496 1 64.0027 12 64.0027 12C64.0027 12 61.0027 4.10971e-06 47.0027 0C35.8018 -3.28803e-06 35.0027 9.5 35.0027 14C35.0027 24.5 37.0027 26 37.0027 26L24.0027 45C24.0027 45 19.0027 43 15.0027 43C5.71291 43 1.00269 51.5 1.00269 64C1.00269 90.8602 15.5027 95 44.0027 95C64.5027 95 106.003 88.9982 106.003 59C106.003 43.5 100.717 46.3456 98.0027 38C96.7416 34.1227 95.0027 28 95.0027 28C95.0027 28 97.0027 22 97.0027 16C97.0027 4.5 87.5027 1 78.0027 1Z" fill="#0961F6"/>
<path d="M15.0026 43C5.71285 43 0.870855 51.5007 1.00262 64C1.03568 67.1358 1.07731 68.8919 1.50262 72L24.0026 77H34.0026C34.0026 77 43.0026 70.9224 43.0026 56C43.0026 51.5 41.5569 46 37.0026 46C31.5026 46 23.0026 53 23.0026 53C23.0026 53 20.2924 43 15.0026 43Z" fill="#84B0FB"/>
<path d="M36.0027 61C36.0027 64.3137 35.0403 67 32.0027 67C28.9651 67 25.0027 66.3137 25.0027 63C25.0027 59.6863 27.9651 55 31.0027 55C34.0403 55 36.0027 57.6863 36.0027 61Z" fill="#04307B"/>
<path d="M12.0027 58.5C12.0027 62.0899 10.2118 64 8.00269 64C5.79355 64 4.00269 62.5899 4.00269 59C4.00269 56.4101 6.79355 52 9.00269 52C11.2118 52 12.0027 54.9101 12.0027 58.5Z" fill="#04307B"/>
<path d="M58.0027 60L52.0027 75L65.0027 73L58.0027 60Z" fill="#84B0FB"/>
<path d="M1.00269 72C1.00269 72 19.9542 76.9468 32.5027 77.5C51.4016 78.3331 80.0027 69 80.0027 69" stroke="#04307B" stroke-width="2"/>
<path d="M88.3253 16.4969C87.3768 21.8761 81.5821 25.4622 75.2635 24.348C68.9449 23.2339 64.7262 17.8822 65.6747 12.503C66.6232 7.12375 72.4179 3.53773 78.7365 4.65187C85.0551 5.76601 89.2738 11.1177 88.3253 16.4969Z" fill="#84B0FB" stroke="#04307B"/>
<ellipse cx="75.9999" cy="14" rx="4" ry="9" transform="rotate(10 75.9999 14)" fill="#04307B"/>
<ellipse cx="43.4999" cy="12.9999" rx="7.5" ry="10" transform="rotate(10 43.4999 12.9999)" fill="#84B0FB" stroke="#04307B"/>
<ellipse cx="42.5" cy="12.5" rx="2.5" ry="8.5" fill="#04307B"/>
</svg>
