<svg width="90" height="89" viewBox="0 0 90 89" fill="none" xmlns="http://www.w3.org/2000/svg">
<path d="M82 27C82 27 89 24.0918 89 16C89 6.5 83 0 74 0C61.0909 0 61 12 61 12L82 27Z" fill="#78DD62"/>
<path d="M85 15C85 20.2242 79 24 79 24L65 13C65 13 65.9988 5 75 5C80.5 5 85 7.5 85 15Z" fill="#BBEEB0"/>
<path d="M8 27C8 27 1 24.0918 1 16C1 6.5 7 0 16 0C28.9091 0 29 12 29 12L8 27Z" fill="#78DD62"/>
<path d="M5 15C5 20.2242 11 24 11 24L25 13C25 13 24.0012 5 15 5C9.5 5 5 7.5 5 15Z" fill="#BBEEB0"/>
<path d="M90 54C90 76.0914 68.4051 89 45 89C21.5949 89 0 76.0914 0 54C0 25.9086 17.5949 9 45 9C72.4051 9 90 25.9086 90 54Z" fill="#78DD62"/>
<ellipse cx="45" cy="70" rx="9" ry="5" fill="#BBEEB0"/>
<path d="M36 77.3321C36 76.3352 37.111 75.7406 37.9404 76.2936L43.8906 80.2604C44.5624 80.7083 45.4376 80.7083 46.1094 80.2604L51.8165 76.4556C52.7499 75.8334 54 76.5025 54 77.6242V77.6242C54 77.859 53.8827 78.0782 53.6873 78.2085L46.1094 83.2604C45.4376 83.7083 44.5624 83.7083 43.8906 83.2604L36.5558 78.3705C36.2086 78.139 36 77.7493 36 77.3321V77.3321Z" fill="#2F831C"/>
<path d="M30 59C30 63.9706 27.3137 68 24 68C20.6863 68 18 63.9706 18 59C18 54.0294 20.6863 50 24 50C27.3137 50 30 54.0294 30 59Z" fill="#2F831C"/>
<path d="M72 59C72 63.9706 69.3137 68 66 68C62.6863 68 60 63.9706 60 59C60 54.0294 62.6863 50 66 50C69.3137 50 72 54.0294 72 59Z" fill="#2F831C"/>
</svg>
