<svg width="92" height="114" viewBox="0 0 92 114" fill="none" xmlns="http://www.w3.org/2000/svg">
<path d="M81.0002 26C81.0002 36.6592 77.0002 53 77.0002 53L51.0002 43C51.0002 43 50.0002 32.6847 50.0002 26C50.0002 14.5 51.5002 0 65.0002 0C78.9224 0 81.0002 14.5 81.0002 26Z" fill="#78DD62"/>
<path d="M56.0005 18C56.0006 28.1536 56.0005 44 56.0005 44L72.0005 50C72.0005 50 76.0005 39.0457 76.0005 22C76.0005 15 76.0004 7 66.0005 7C58.1949 7 56.0004 12 56.0005 18Z" fill="#BBEEB0"/>
<path d="M11.0002 26C11.0002 36.6592 15.0002 53 15.0002 53L41.0002 43C41.0002 43 42.0002 32.6847 42.0002 26C42.0003 14.5 40.5002 0 27.0002 0C13.0781 0 11.0002 14.5 11.0002 26Z" fill="#78DD62"/>
<path d="M36 18C35.9998 28.1536 36 44 36 44L20 50C20 50 16 39.0457 16 22C16 15 16.0001 7 26 7C33.8056 7 36.0001 12 36 18Z" fill="#BBEEB0"/>
<path d="M92.0002 78C92.0002 97.8823 83.4053 114 46.0002 114C8.59515 114 0.000244141 97.8823 0.000244141 78C0.000244141 61.1177 20.5951 42 46.0002 42C71.4053 42 92.0002 61.1177 92.0002 78Z" fill="#78DD62"/>
<ellipse cx="24.557" cy="69.4999" rx="7.5" ry="12.5" transform="rotate(10 24.557 69.4999)" fill="#BBEEB0"/>
<ellipse cx="24.5569" cy="69.5" rx="5.5" ry="8.5" transform="rotate(10 24.5569 69.5)" fill="#2F831C"/>
<ellipse rx="7.5" ry="12.5" transform="matrix(-0.984808 0.173648 0.173648 0.984808 67.67 69.4999)" fill="#BBEEB0"/>
<ellipse rx="5.5" ry="8.5" transform="matrix(-0.984808 0.173648 0.173648 0.984808 67.6702 69.5)" fill="#2F831C"/>
<path fill-rule="evenodd" clip-rule="evenodd" d="M56.0002 86.5C56.0002 88.6771 52.5647 90.493 48.0002 90.91V96.9453C49.8964 97.7541 52.7774 98.751 55.0002 98.5C57.5586 98.2111 60.4349 95.744 62.2322 93.9344C62.8498 93.3126 64.0002 93.7451 64.0002 94.6215C64.0002 94.8642 63.9083 95.0945 63.734 95.2634C62.6591 96.3054 58.5275 100.102 55.0002 100.5C52.3189 100.803 48.6797 99.2896 46.967 98.4814C46.3562 98.1932 45.6443 98.1932 45.0335 98.4814C43.3208 99.2896 39.6816 100.803 37.0002 100.5C33.473 100.102 29.3413 96.3054 28.2664 95.2634C28.0922 95.0945 28.0002 94.8642 28.0002 94.6215C28.0002 93.7451 29.1507 93.3126 29.7683 93.9344C31.5656 95.744 34.4419 98.2111 37.0002 98.5C39.2231 98.751 42.1041 97.7541 44.0002 96.9453V90.91C39.4358 90.493 36.0002 88.6771 36.0002 86.5C36.0002 84.0147 40.4774 82 46.0002 82C51.5231 82 56.0002 84.0147 56.0002 86.5Z" fill="#2F831C"/>
<ellipse cx="43.5002" cy="86" rx="2.5" ry="2" fill="#BBEEB0"/>
</svg>
