<svg width="107" height="106" viewBox="0 0 107 106" fill="none" xmlns="http://www.w3.org/2000/svg">
<path d="M76 14C87.7727 9.83541 107 4 107 4C104.441 17.5785 99.5255 27.9536 86 32C89.4001 37.0226 88.6762 41.506 88.9492 47.578C89.3501 56.4929 85.6647 62.2134 79.8017 68.9061C75.072 74.3052 68.949 73.262 64.3214 78.7499C60.6376 83.1185 60.5528 86.8573 57.8033 91.875C51.2853 103.77 48.4336 105 34.1754 105C23.8947 105 24.1058 105.37 16.7328 98.1562C14.0592 97.5 3.5592 91.5 0.770474 80.3905C-0.243185 76.3524 -0.270374 73.757 0.770474 69.7264C1.77369 65.8416 2.91483 63.6148 5.659 60.703C8.02794 58.1893 12.5748 59.2131 12.9918 55.7811C15.4674 35.4053 17.2589 27.9362 21.1393 21.3282C23.686 17.0549 26.1747 14.1626 30 11V0L39 5C40.6295 4.17965 46 3.92153 51.2853 3.92153C57.4634 3.92153 63.4009 5.11811 68.7656 8.20279C72.4828 10.3402 73.5 11 76 14Z" fill="#78DD62"/>
<path d="M33 3.5L36 7L33 9V3.5Z" fill="#BBEEB0"/>
<path d="M30 0L39 5L36 7L30 0Z" fill="#2F831C"/>
<path d="M34.1753 100.899C48.4335 100.899 55.0588 96 57.8032 91.875C59.5327 89.2753 60.0105 86.7792 60.9418 84.4925C60.9418 84.4925 64.265 75.9091 61.8769 71.3674C58.2105 64.3947 57.2034 64.1876 53.7294 60.7033C42.5588 49.5 24.0588 53 20.3244 54.9611C16.4876 56.9761 9.73261 58.2377 9.73261 58.2377C8.36352 58.8507 6.92614 59.3583 5.65885 60.703C2.91468 63.6148 1.77354 65.8416 0.770324 69.7265C-0.270524 73.757 -0.0821101 76.3154 0.770324 80.3905C2.15356 87.0033 10.2827 96.2198 16.7326 98.1562C24.1057 100.37 23.8945 100.899 34.1753 100.899Z" fill="#BBEEB0"/>
<ellipse cx="37.0591" cy="83.5" rx="5.5" ry="9.5" fill="#2F831C"/>
<path d="M12.0166 77.8005C12.0166 82.9164 16.1678 85.601 13.8615 87.5511C8.78782 89.9888 5.5591 81.9413 5.5591 76.8254C5.5591 71.7096 5.52445 70 8.32659 70C11.1287 70 12.0166 72.6846 12.0166 77.8005Z" fill="#2F831C"/>
<path d="M84 30L78 18L100 9C96.8 18.9928 93.5 24.5 84 30Z" fill="#BBEEB0"/>
<path d="M76 14L107 4L106.5 7L76 20V14Z" fill="#2F831C"/>
<path d="M76 32H86C86 32 83.841 26.377 82 23C79.9781 19.2912 76 14 76 14V32Z" fill="#78DD62"/>
<ellipse cx="65.0001" cy="38.5" rx="10" ry="12.5" transform="rotate(20 65.0001 38.5)" fill="#BBEEB0"/>
<ellipse cx="65" cy="38.4999" rx="7" ry="8.5" transform="rotate(20 65 38.4999)" fill="#2F831C"/>
<path fill-rule="evenodd" clip-rule="evenodd" d="M15.0496 40.9633C16.3754 33.0054 17.7419 28.1373 19.6718 24.0882C20.5937 23.3505 21.5614 23.0097 22.4971 23.1746C25.4885 23.7021 27.0195 29.2002 25.9166 35.455C24.8137 41.7098 21.4946 46.3527 18.5032 45.8252C16.8198 45.5284 15.5988 43.6574 15.0496 40.9633Z" fill="#BBEEB0"/>
<ellipse cx="20.5" cy="34.5" rx="2.5" ry="7.5" transform="rotate(10 20.5 34.5)" fill="#2F831C"/>
</svg>
