<svg width="90" height="114" viewBox="0 0 90 114" fill="none" xmlns="http://www.w3.org/2000/svg">
<path d="M40 42L4 64C4 64 17.6961 -0.000464757 21 0C21.6494 9.13592e-05 22.1345 5.84261e-05 22.7448 1.6993e-05L23 0C26.3039 -0.000211688 40 42 40 42Z" fill="#78DD62"/>
<path d="M33.7498 45.996V40.272L24.1525 14.6788L12.5 53.2218V54.7589L33.7498 45.996Z" fill="#BBEEB0" stroke="#2F831C" stroke-width="3"/>
<path d="M50 42L86 64C86 64 72.3039 -0.000464757 69 0C68.3506 9.13592e-05 67.8655 5.84261e-05 67.2552 1.6993e-05L67 0C63.6961 -0.000211688 50 42 50 42Z" fill="#78DD62"/>
<path d="M56.2502 45.996V40.272L65.8475 14.6788L77.5 53.2218V54.7589L56.2502 45.996Z" fill="#BBEEB0" stroke="#2F831C" stroke-width="3"/>
<path d="M90 80.9932C90 102.023 69.7735 114 45.6521 114C21.5307 114 0 102.023 0 81.0179C0 59.728 17.0155 39.0086 45.5 39.0086C72.9845 39.0086 90 59.7033 90 80.9932Z" fill="#78DD62"/>
<circle cx="69" cy="74" r="11" fill="#BBEEB0"/>
<circle cx="69" cy="74" r="7" fill="#2F831C"/>
<circle cx="21" cy="74" r="11" fill="#BBEEB0"/>
<circle cx="21" cy="74" r="7" fill="#2F831C"/>
<path d="M28 94.5264C28 93.3788 29.5387 92.8145 30.3576 93.6186C31.9632 95.1951 34.1285 96.9149 36 97C38.3405 97.1064 41.169 95.599 43.0226 94.4043C44.2128 93.6373 45.7872 93.6373 46.9774 94.4043C48.831 95.599 51.6595 97.1064 54 97C55.8715 96.9149 58.0368 95.1951 59.6424 93.6186C60.4613 92.8145 62 93.3788 62 94.5264V94.5264C62 94.8308 61.886 95.1226 61.6711 95.338C60.5712 96.4402 56.9264 99.867 54 100C51.6595 100.106 48.831 98.599 46.9774 97.4043C45.7872 96.6373 44.2128 96.6373 43.0226 97.4043C41.169 98.599 38.3405 100.106 36 100C33.0736 99.867 29.4288 96.4402 28.3289 95.338C28.114 95.1226 28 94.8308 28 94.5264V94.5264Z" fill="#2F831C"/>
</svg>
