<svg width="116" height="104" viewBox="0 0 116 104" fill="none" xmlns="http://www.w3.org/2000/svg">
<path d="M32.2455 17.4352L32.2461 17.4357L32.2465 17.436L32.2466 17.436L32.2471 17.4364L32.263 17.4491L32.2802 17.4634L37.3742 21.7077L44 19.131V11.198C43.9873 11.1375 43.9707 11.0612 43.9501 10.9706C43.889 10.7014 43.7927 10.3089 43.6562 9.83454C43.381 8.87849 42.9522 7.62663 42.3361 6.39442C41.0334 3.78899 39.2895 2 37 2C34.4776 2 31.9215 3.04523 29.997 4.65792C28.0467 6.29229 27 8.27886 27 10C27 10.6002 27.2206 11.3551 27.6973 12.2381C28.1661 13.1062 28.8161 13.9761 29.5081 14.7704C30.1948 15.5587 30.8876 16.2328 31.4113 16.711C31.6717 16.9489 31.8869 17.1353 32.0342 17.2598C32.1077 17.3221 32.164 17.3687 32.2003 17.3984L32.2391 17.43L32.2455 17.4352Z" fill="#BBEEB0" stroke="#2F831C" stroke-width="4"/>
<path d="M31.6228 18.2176L31.623 18.2178L31.623 18.2178L31.6232 18.2179L31.6315 18.2246L31.6401 18.2317L37.1871 22.8534L45 19.8151V11.0961C44.9987 11.0896 44.9973 11.0827 44.9958 11.0754C44.9809 11.0019 44.9576 10.8913 44.9253 10.749C44.8605 10.464 44.7596 10.0529 44.6172 9.55789C44.3311 8.56424 43.8824 7.25081 43.2306 5.94721C41.8917 3.26949 39.8948 0.999997 37 1C34.2138 1 31.4357 2.14761 29.3547 3.89146C27.2608 5.64615 26 7.88943 26 10C26 10.8281 26.2978 11.7508 26.8174 12.7132C27.333 13.6681 28.0331 14.5996 28.754 15.4272C29.4724 16.2519 30.1938 16.9534 30.7369 17.4494C31.0077 17.6968 31.2325 17.8915 31.3882 18.0232C31.466 18.089 31.5263 18.139 31.5664 18.1719L31.611 18.2081L31.6211 18.2162L31.6228 18.2176Z" stroke="#78DD62" stroke-width="2"/>
<path d="M83.7545 17.4352L83.7539 17.4357L83.7535 17.436L83.7534 17.436L83.7529 17.4364L83.737 17.4491L83.7198 17.4634L78.6258 21.7077L72 19.131V11.198C72.0127 11.1375 72.0293 11.0612 72.0499 10.9706C72.111 10.7014 72.2073 10.3089 72.3438 9.83454C72.619 8.87849 73.0478 7.62663 73.6639 6.39442C74.9666 3.78899 76.7105 2 79 2C81.5224 2 84.0785 3.04523 86.003 4.65792C87.9533 6.29229 89 8.27886 89 10C89 10.6002 88.7794 11.3551 88.3027 12.2381C87.8339 13.1062 87.1839 13.9761 86.4919 14.7704C85.8052 15.5587 85.1124 16.2328 84.5887 16.711C84.3283 16.9489 84.1131 17.1353 83.9658 17.2598C83.8923 17.3221 83.836 17.3687 83.7997 17.3984L83.7609 17.43L83.7545 17.4352Z" fill="#BBEEB0" stroke="#2F831C" stroke-width="4"/>
<path d="M84.3772 18.2176L84.377 18.2178L84.377 18.2178L84.3768 18.2179L84.3685 18.2246L84.3599 18.2317L78.8129 22.8534L71 19.8151V11.0961C71.0013 11.0896 71.0027 11.0827 71.0042 11.0754C71.0191 11.0019 71.0424 10.8913 71.0747 10.749C71.1395 10.464 71.2404 10.0529 71.3828 9.55789C71.6689 8.56424 72.1176 7.25081 72.7694 5.94721C74.1083 3.26949 76.1052 0.999997 79 1C81.7862 1 84.5643 2.14761 86.6453 3.89146C88.7392 5.64615 90 7.88943 90 10C90 10.8281 89.7022 11.7508 89.1826 12.7132C88.667 13.6681 87.9669 14.5996 87.246 15.4272C86.5276 16.2519 85.8062 16.9534 85.2631 17.4494C84.9923 17.6968 84.7675 17.8915 84.6118 18.0232C84.534 18.089 84.4737 18.139 84.4336 18.1719L84.389 18.2081L84.3789 18.2162L84.3772 18.2176Z" stroke="#78DD62" stroke-width="2"/>
<path d="M103 57C107.62 57.2266 109.838 56.8263 113 55L94 36C94 36 101 37 101 32C94 30 87.2311 9 58 9C28.7689 9 22 30 15 32C15 37 22 36 22 36L3 55C7.04056 56.9456 9.22868 57.3494 13 57C10.0001 63.967 6.6165 66.6042 0 73C4.53783 76.5687 7.68431 77.2746 14 77L7 91L30 96H86L109 91L102 77C108.271 77.4377 111.359 76.6333 116 73C108.117 65.3691 104.394 62.3376 103 57Z" fill="#2F831C"/>
<path d="M89 50.5C89 36.4167 85.1208 19 58 19C30.8792 19 27 36.4167 27 50.5L19 66.0278C17.7017 68.853 17 71.8686 17 75C17 91.0163 35.3564 104 58 104C80.6436 104 99 91.0163 99 75C99 71.8686 98.2983 68.853 97 66.0278L89 50.5Z" fill="#78DD62"/>
<path d="M30 82.7159C30 81.5725 32.0117 80.9405 32.7964 81.7721C36.4185 85.6108 43.9972 91 58 91C72.0028 91 79.5815 85.6108 83.2036 81.7721C83.9883 80.9405 86 81.5725 86 82.7159V82.7159C86 82.9021 85.9546 83.0804 85.8517 83.2357C84.7938 84.8321 77.8546 94 58 94C38.1454 94 31.2062 84.8321 30.1483 83.2357C30.0454 83.0804 30 82.9021 30 82.7159V82.7159Z" fill="#2F831C"/>
<path d="M47.0001 65C61.84 65 54.1602 65 69.0001 65C74.0001 65 80.8579 80 75.0001 80C67.0001 80 49 80 41.0001 80C35.1422 80 42 65 47.0001 65Z" fill="#BBEEB0"/>
<path d="M79.5 55.5C81.245 55.5 82.7571 54.4074 83.8089 52.782C84.8638 51.1516 85.5 48.9292 85.5 46.5C85.5 44.0708 84.8638 41.8484 83.8089 40.218C82.7571 38.5926 81.245 37.5 79.5 37.5C77.755 37.5 76.2429 38.5926 75.1911 40.218C74.1362 41.8484 73.5 44.0708 73.5 46.5C73.5 48.9292 74.1362 51.1516 75.1911 52.782C76.2429 54.4074 77.755 55.5 79.5 55.5Z" fill="#BBEEB0" stroke="#2F831C"/>
<ellipse cx="79.5" cy="46.5" rx="3.5" ry="6.5" fill="#2F831C"/>
<path d="M37.5 55.5C39.245 55.5 40.7571 54.4074 41.8089 52.782C42.8638 51.1516 43.5 48.9292 43.5 46.5C43.5 44.0708 42.8638 41.8484 41.8089 40.218C40.7571 38.5926 39.245 37.5 37.5 37.5C35.755 37.5 34.2429 38.5926 33.1911 40.218C32.1362 41.8484 31.5 44.0708 31.5 46.5C31.5 48.9292 32.1362 51.1516 33.1911 52.782C34.2429 54.4074 35.755 55.5 37.5 55.5Z" fill="#BBEEB0" stroke="#2F831C"/>
<ellipse cx="37.5" cy="46.5" rx="3.5" ry="6.5" fill="#2F831C"/>
<path d="M68.9999 80H61.9999C58.9999 80 64.4994 76 66.9999 76C69 76 69.9999 77 69.9999 79C69.9999 80 68.9999 80 68.9999 80Z" fill="#2F831C"/>
<path d="M48.1275 80H55.1275C58.1275 80 52.6281 76 50.1275 76C48.1275 76 47.1275 77 47.1275 79C47.1275 80 48.1275 80 48.1275 80Z" fill="#2F831C"/>
</svg>
