<svg width="127" height="90" viewBox="0 0 127 90" fill="none" xmlns="http://www.w3.org/2000/svg">
<path d="M87.9863 2.39308C82.5003 5.00499 78.9846 12.8935 78.9846 12.8935L99.9887 46.8935C99.9887 46.8935 108.973 49.2255 114.491 47.8935C119.249 46.7453 121.428 46.2079 124.493 42.3931C129.632 35.9977 125.494 21.893 123.493 18.8931C118.248 11.0273 119.992 10.8932 111.491 3.89326C105.461 -1.07188 95.0395 -0.964906 87.9863 2.39308Z" fill="#78DD62"/>
<path fill-rule="evenodd" clip-rule="evenodd" d="M120.868 14.678C120.576 14.3883 120.284 14.1258 119.992 13.8929C115.489 10.2908 109.991 7.39297 100.989 12.8931C91.9871 18.3931 93.9875 27.8929 93.9875 27.8929L100.699 47.0645C102.927 47.5773 109.906 49.0003 114.491 47.8936C119.249 46.7453 121.428 46.2079 124.493 42.3931C125.103 41.6337 125.583 40.7656 125.95 39.8203C126.547 37.9186 126.848 36.1596 126.951 34.4814C127.197 28.0927 124.852 20.9309 123.493 18.8931C122.342 17.1673 121.528 15.8136 120.868 14.678Z" fill="#2F831C"/>
<path d="M124.493 42.3931C126.248 40.2099 126.921 37.1283 126.967 33.8968C125.186 36.479 121.719 34.6238 115.969 31.8931C115.969 31.8931 121.875 40.9404 117.969 42.8931C113.969 44.8931 105.969 40.8931 105.969 40.8931C105.969 40.8931 107.831 44.0977 106.969 45.8931C105.778 48.3761 99.9888 46.8935 99.9888 46.8935C99.9888 46.8935 108.973 49.2255 114.492 47.8935C119.249 46.7453 121.428 46.2079 124.493 42.3931Z" fill="#BBEEB0"/>
<path d="M124.493 42.3931C126.248 40.2099 126.921 37.1283 126.967 33.8968C125.186 36.479 121.719 34.6238 115.969 31.8931C115.969 31.8931 121.875 40.9404 117.969 42.8931C113.969 44.8931 105.969 40.8931 105.969 40.8931C105.969 40.8931 107.831 44.0977 106.969 45.8931C105.778 48.3761 99.9888 46.8935 99.9888 46.8935C99.9888 46.8935 108.973 49.2255 114.492 47.8935C119.249 46.7453 121.428 46.2079 124.493 42.3931Z" fill="#BBEEB0"/>
<path d="M39.9675 2.39308C45.4536 5.00499 48.9692 12.8935 48.9692 12.8935L27.9652 46.8935C27.9652 46.8935 18.981 49.2255 13.4624 47.8935C8.70488 46.7453 6.52556 46.2079 3.46049 42.3931C-1.67796 35.9977 2.4603 21.893 4.46069 18.8931C9.7057 11.0273 7.96136 10.8932 16.463 3.89326C22.4933 -1.07188 32.9144 -0.964906 39.9675 2.39308Z" fill="#78DD62"/>
<path fill-rule="evenodd" clip-rule="evenodd" d="M7.08583 14.678C7.3774 14.3883 7.67024 14.1258 7.96138 13.8929C12.4647 10.2908 17.9633 7.39297 26.965 12.8931C35.9668 18.3931 33.9664 27.8929 33.9664 27.8929L27.2551 47.0645C25.0266 47.5773 18.0481 49.0003 13.4625 47.8936C8.70496 46.7453 6.52564 46.2079 3.46058 42.3931C2.85043 41.6337 2.37108 40.7656 2.00342 39.8203C1.40672 37.9186 1.10602 36.1596 1.00265 34.4814C0.756656 28.0927 3.10195 20.9309 4.46077 18.8931C5.61158 17.1673 6.42592 15.8136 7.08583 14.678Z" fill="#2F831C"/>
<path d="M3.46063 42.3931C1.70653 40.2099 1.03346 37.1283 0.987347 33.8968C2.76825 36.479 6.2346 34.6238 11.9847 31.8931C11.9847 31.8931 6.0795 40.9404 9.98474 42.8931C13.9847 44.8931 21.9847 40.8931 21.9847 40.8931C21.9847 40.8931 20.1234 44.0977 20.9847 45.8931C22.1759 48.3761 27.9653 46.8935 27.9653 46.8935C27.9653 46.8935 18.9812 49.2255 13.4625 47.8935C8.70501 46.7453 6.52569 46.2079 3.46063 42.3931Z" fill="#BBEEB0"/>
<path d="M3.46063 42.3931C1.70653 40.2099 1.03346 37.1283 0.987347 33.8968C2.76825 36.479 6.2346 34.6238 11.9847 31.8931C11.9847 31.8931 6.0795 40.9404 9.98474 42.8931C13.9847 44.8931 21.9847 40.8931 21.9847 40.8931C21.9847 40.8931 20.1234 44.0977 20.9847 45.8931C22.1759 48.3761 27.9653 46.8935 27.9653 46.8935C27.9653 46.8935 18.9812 49.2255 13.4625 47.8935C8.70501 46.7453 6.52569 46.2079 3.46063 42.3931Z" fill="#BBEEB0"/>
<path d="M103.231 49.8928C105.231 71.9842 96.3207 89.8928 64.2231 89.8928C32.1256 89.8928 22.215 71.9842 24.2154 49.8928C27.216 27.8014 40.1271 9.89282 64.2231 9.89282C88.3191 9.89282 100.23 27.8014 103.231 49.8928Z" fill="#78DD62"/>
<path d="M53.7068 46.1488C54.5528 41.3732 58.7035 37.8931 63.5535 37.8931H63.9692H64.385C69.2349 37.8931 73.3857 41.3732 74.2317 46.1488L76.8888 61.1488C77.9739 67.2741 73.2628 72.8931 67.0421 72.8931H60.8964C54.6757 72.8931 49.9646 67.2741 51.0497 61.1488L53.7068 46.1488Z" fill="#BBEEB0"/>
<path d="M48.9587 73.3922C48.9587 73.3922 54.4767 79.8922 63.9276 79.8922C73.3786 79.8922 78.8965 73.3922 78.8965 73.3922L79.4692 75.3922C79.4692 75.3922 73.3786 81.8922 63.9276 81.8922C54.4767 81.8922 48.4692 75.3922 48.4692 75.3922L48.9587 73.3922Z" fill="#2F831C"/>
<path d="M77.1894 70.7388C77.6846 70.3225 78.4478 70.5115 78.7198 71.0988C79.1776 72.0875 79.886 73.4658 80.6419 74.3685C81.3977 75.2712 82.6293 76.2096 83.5214 76.8331C84.0514 77.2035 84.1046 77.9895 83.6095 78.4058V78.4058C83.2977 78.668 82.8545 78.7012 82.5156 78.4756C81.6556 77.903 80.0324 76.7521 79.1129 75.6541C78.1935 74.5561 77.3443 72.7543 76.9309 71.8062C76.768 71.4326 76.8776 71.001 77.1894 70.7388V70.7388Z" fill="#2F831C"/>
<path d="M50.7493 70.7388C50.2542 70.3225 49.4909 70.5115 49.219 71.0988C48.7611 72.0875 48.0528 73.4658 47.2969 74.3685C46.541 75.2712 45.3094 76.2096 44.4173 76.8331C43.8874 77.2035 43.8341 77.9895 44.3292 78.4058V78.4058C44.6411 78.668 45.0842 78.7012 45.4231 78.4756C46.2831 77.903 47.9063 76.7521 48.8258 75.6541C49.7452 74.5561 50.5944 72.7543 51.0078 71.8062C51.1707 71.4326 51.0611 71.001 50.7493 70.7388V70.7388Z" fill="#2F831C"/>
<path d="M65.9692 69.8931C65.9692 70.8931 66.8442 70.8931 67.7192 70.8931C69.1281 70.893 70.3442 70.393 71.2192 69.8931C72.0942 69.3931 72.9692 68.9976 72.9692 67.8931C72.9692 66.8931 72.9692 65.8931 72.0942 65.8931C70.6853 65.8931 69.4692 66.3321 68.5942 66.8931C67.7192 67.454 65.9692 68.2362 65.9692 69.8931Z" fill="#2F831C"/>
<path d="M61.9692 69.8931C61.9692 70.8931 61.0942 70.8931 60.2192 70.8931C58.8103 70.893 57.5942 70.393 56.7192 69.8931C55.8442 69.3931 54.9692 68.9976 54.9692 67.8931C54.9692 66.8931 54.9692 65.8931 55.8442 65.8931C57.2531 65.8931 58.4692 66.3321 59.3442 66.8931C60.2192 67.454 61.9692 68.2362 61.9692 69.8931Z" fill="#2F831C"/>
<ellipse cx="86.4692" cy="48.3931" rx="7.5" ry="8.5" fill="#BBEEB0"/>
<ellipse cx="86.4692" cy="48.3922" rx="4.5" ry="5.5" fill="#2F831C"/>
<ellipse cx="41.4692" cy="48.3931" rx="7.5" ry="8.5" fill="#BBEEB0"/>
<ellipse cx="41.4692" cy="48.3922" rx="4.5" ry="5.5" fill="#2F831C"/>
</svg>
