<svg width="90" height="102" viewBox="0 0 90 102" fill="none" xmlns="http://www.w3.org/2000/svg">
<path d="M72 0.371094C57.5 0.371083 55 16.3711 55 16.3711L77 33.3711C77 33.3711 90 26.3711 90 16.3711C90 6.96603 81.4051 0.371101 72 0.371094Z" fill="#3FD8E0"/>
<path d="M18 0.371094C32.5 0.371083 35 16.3711 35 16.3711L13 33.3711C13 33.3711 0 26.3711 0 16.3711C0 6.96603 8.59493 0.371101 18 0.371094Z" fill="#3FD8E0"/>
<g filter="url(#filter0_i)">
<path d="M83 16.371C83 9.56547 77.8056 5.37101 73 5.37103C61 5.3711 61 19.371 61 19.371L73 28.371C73 28.371 83 24.3711 83 16.371Z" fill="#9FEBF0"/>
</g>
<g filter="url(#filter1_i)">
<path d="M7 15.371C7 8.56547 12.1944 4.37101 17 4.37103C29 4.3711 29 18.371 29 18.371L17 27.371C17 27.371 7 23.3711 7 15.371Z" fill="#9FEBF0"/>
</g>
<path d="M90 73.8711C90 97.8955 69.8528 101.371 45 101.371C20.1472 101.371 0 97.8955 0 73.8711C0 49.8467 15.1472 14.3711 45 14.3711C74.8528 14.3711 90 49.8467 90 73.8711Z" fill="#3FD8E0"/>
<path d="M45 94.3711C43 94.3711 41 91.3711 41 91.3711L46 87.3711L51 91.3711C51 91.3711 49 94.3711 47 94.3711H45Z" fill="#9FEBF0"/>
<path fill-rule="evenodd" clip-rule="evenodd" d="M47 84.3089C49.8377 83.9518 52 82.1008 52 79.8711C52 77.3858 49.3137 75.3711 46 75.3711C42.6863 75.3711 40 77.3858 40 79.8711C40 82.1008 42.1623 83.9518 45 84.3089V86.1638C44.6707 86.2984 44.3693 86.5031 44.1252 86.778C42.663 88.4241 40.5437 90.3184 38.5 90.3711C36.3971 90.4253 34.0398 88.7059 32.539 87.377C31.9743 86.877 31 87.2724 31 88.0267C31 88.247 31.0864 88.456 31.2487 88.6049C32.1954 89.4736 35.6636 92.4604 38.5 92.3711C40.5834 92.3055 42.8292 90.5644 44.3145 89.1551C45.234 88.2828 46.766 88.2828 47.6855 89.1551C49.1708 90.5644 51.4166 92.3055 53.5 92.3711C56.3364 92.4604 59.8046 89.4736 60.7513 88.6049C60.9136 88.456 61 88.247 61 88.0267C61 87.2724 60.0257 86.877 59.461 87.377C57.9602 88.7059 55.6029 90.4253 53.5 90.3711C51.4563 90.3184 49.337 88.4241 47.8748 86.778C47.6307 86.5031 47.3293 86.2984 47 86.1638V84.3089Z" fill="#14767C"/>
<ellipse cx="67" cy="60.3711" rx="6" ry="8" fill="#14767C"/>
<ellipse cx="23" cy="60.3711" rx="6" ry="8" fill="#14767C"/>
<ellipse cx="68" cy="61.3711" rx="9" ry="10" fill="#14767C"/>
<ellipse cx="68" cy="59.8699" rx="3" ry="3.5" fill="#9FEBF0"/>
<ellipse cx="22" cy="61.3711" rx="9" ry="10" fill="#14767C"/>
<ellipse rx="3" ry="3.5" transform="matrix(-1 0 0 1 22 59.8699)" fill="#9FEBF0"/>
<defs>
<filter id="filter0_i" x="61" y="5.37103" width="22" height="23" filterUnits="userSpaceOnUse" color-interpolation-filters="sRGB">
<feFlood flood-opacity="0" result="BackgroundImageFix"/>
<feBlend mode="normal" in="SourceGraphic" in2="BackgroundImageFix" result="shape"/>
<feColorMatrix in="SourceAlpha" type="matrix" values="0 0 0 0 0 0 0 0 0 0 0 0 0 0 0 0 0 0 127 0" result="hardAlpha"/>
<feOffset dx="-2" dy="2"/>
<feComposite in2="hardAlpha" operator="arithmetic" k2="-1" k3="1"/>
<feColorMatrix type="matrix" values="0 0 0 0 0.0784314 0 0 0 0 0.462745 0 0 0 0 0.486275 0 0 0 1 0"/>
<feBlend mode="normal" in2="shape" result="effect1_innerShadow"/>
</filter>
<filter id="filter1_i" x="7" y="4.37103" width="22" height="23" filterUnits="userSpaceOnUse" color-interpolation-filters="sRGB">
<feFlood flood-opacity="0" result="BackgroundImageFix"/>
<feBlend mode="normal" in="SourceGraphic" in2="BackgroundImageFix" result="shape"/>
<feColorMatrix in="SourceAlpha" type="matrix" values="0 0 0 0 0 0 0 0 0 0 0 0 0 0 0 0 0 0 127 0" result="hardAlpha"/>
<feOffset dx="2" dy="2"/>
<feComposite in2="hardAlpha" operator="arithmetic" k2="-1" k3="1"/>
<feColorMatrix type="matrix" values="0 0 0 0 0.0784314 0 0 0 0 0.462745 0 0 0 0 0.486275 0 0 0 1 0"/>
<feBlend mode="normal" in2="shape" result="effect1_innerShadow"/>
</filter>
</defs>
</svg>
