<svg width="107" height="106" viewBox="0 0 107 106" fill="none" xmlns="http://www.w3.org/2000/svg">
<path d="M76 14.3711C87.7727 10.2065 107 4.37109 107 4.37109C104.441 17.9496 99.5255 28.3247 86 32.3711C89.4001 37.3937 88.6762 41.8771 88.9492 47.9491C89.3501 56.864 85.6647 62.5845 79.8017 69.2772C75.072 74.6763 68.949 73.633 64.3214 79.121C60.6376 83.4896 60.5528 87.2284 57.8033 92.246C51.2853 104.141 48.4336 105.371 34.1754 105.371C23.8947 105.371 24.1058 105.741 16.7328 98.5273C14.0592 97.8711 3.5592 91.8711 0.770474 80.7616C-0.243185 76.7235 -0.270374 74.1281 0.770474 70.0975C1.77369 66.2127 2.91483 63.9859 5.659 61.0741C8.02794 58.5604 12.5748 59.5842 12.9918 56.1522C15.4674 35.7764 17.2589 28.3073 21.1393 21.6993C23.686 17.4259 26.1747 14.5337 30 11.3711V0.371094L39 5.37109C40.6295 4.55075 46 4.29262 51.2853 4.29262C57.4634 4.29262 63.4009 5.48921 68.7656 8.57388C72.4828 10.7112 73.5 11.3711 76 14.3711Z" fill="#3FD8E0"/>
<path d="M33 3.87109L36 7.37109L33 9.37109V3.87109Z" fill="#9FEBF0"/>
<path d="M30 0.371094L39 5.37109L36 7.37109L30 0.371094Z" fill="#14767C"/>
<path d="M34.1753 101.27C48.4335 101.27 55.0588 96.3711 57.8032 92.2461C59.5327 89.6464 60.0105 87.1503 60.9418 84.8636C60.9418 84.8636 64.265 76.2802 61.8769 71.7385C58.2105 64.7658 57.2034 64.5587 53.7294 61.0744C42.5588 49.8711 24.0588 53.3711 20.3244 55.3322C16.4876 57.3472 9.73261 58.6088 9.73261 58.6088C8.36352 59.2218 6.92614 59.7294 5.65885 61.0741C2.91468 63.9859 1.77354 66.2127 0.770324 70.0975C-0.270524 74.1281 -0.0821101 76.6864 0.770324 80.7616C2.15356 87.3744 10.2827 96.5909 16.7326 98.5273C24.1057 100.741 23.8945 101.27 34.1753 101.27Z" fill="#9FEBF0"/>
<ellipse cx="37.0591" cy="83.8711" rx="5.5" ry="9.5" fill="#14767C"/>
<path d="M12.0166 78.1716C12.0166 83.2874 16.1678 85.9721 13.8615 87.9222C8.78782 90.3599 5.5591 82.3124 5.5591 77.1965C5.5591 72.0807 5.52445 70.3711 8.32659 70.3711C11.1287 70.3711 12.0166 73.0557 12.0166 78.1716Z" fill="#14767C"/>
<path d="M84 30.3711L78 18.3711L100 9.37109C96.8 19.3639 93.5 24.8711 84 30.3711Z" fill="#9FEBF0"/>
<path d="M76 14.3711L107 4.37109L106.5 7.37109L76 20.3711V14.3711Z" fill="#14767C"/>
<path d="M76 32.3711H86C86 32.3711 83.841 26.7481 82 23.3711C79.9781 19.6623 76 14.3711 76 14.3711V32.3711Z" fill="#3FD8E0"/>
<ellipse cx="65.0001" cy="38.8711" rx="10" ry="12.5" transform="rotate(20 65.0001 38.8711)" fill="#9FEBF0"/>
<ellipse cx="65" cy="38.871" rx="7" ry="8.5" transform="rotate(20 65 38.871)" fill="#14767C"/>
<path fill-rule="evenodd" clip-rule="evenodd" d="M15.0496 41.3344C16.3754 33.3765 17.7419 28.5084 19.6718 24.4593C20.5937 23.7216 21.5614 23.3807 22.4971 23.5457C25.4885 24.0732 27.0195 29.5713 25.9166 35.8261C24.8137 42.0809 21.4946 46.7238 18.5032 46.1963C16.8198 45.8995 15.5988 44.0285 15.0496 41.3344Z" fill="#9FEBF0"/>
<ellipse cx="20.5" cy="34.8711" rx="2.5" ry="7.5" transform="rotate(10 20.5 34.8711)" fill="#14767C"/>
</svg>
