<svg width="127" height="90" viewBox="0 0 127 90" fill="none" xmlns="http://www.w3.org/2000/svg">
<path d="M87.971 2.39308C82.4849 5.00499 78.9692 12.8935 78.9692 12.8935L99.9733 46.8935C99.9733 46.8935 108.957 49.2255 114.476 47.8935C119.234 46.7453 121.413 46.2079 124.478 42.3931C129.616 35.9977 125.478 21.893 123.478 18.8931C118.233 11.0273 119.977 10.8932 111.475 3.89326C105.445 -1.07188 95.0241 -0.964906 87.971 2.39308Z" fill="#3FD8E0"/>
<path fill-rule="evenodd" clip-rule="evenodd" d="M120.853 14.678C120.561 14.3883 120.268 14.1258 119.977 13.8929C115.474 10.2908 109.975 7.39297 100.973 12.8931C91.9717 18.3931 93.9721 27.8929 93.9721 27.8929L100.683 47.0645C102.912 47.5773 109.89 49.0003 114.476 47.8936C119.234 46.7453 121.413 46.2079 124.478 42.3931C125.088 41.6337 125.567 40.7656 125.935 39.8203C126.532 37.9186 126.832 36.1596 126.936 34.4814C127.182 28.0927 124.837 20.9309 123.478 18.8931C122.327 17.1673 121.513 15.8136 120.853 14.678Z" fill="#14767C"/>
<path d="M124.478 42.3931C126.232 40.2099 126.905 37.1283 126.951 33.8968C125.17 36.479 121.704 34.6238 115.954 31.8931C115.954 31.8931 121.859 40.9404 117.954 42.8931C113.954 44.8931 105.954 40.8931 105.954 40.8931C105.954 40.8931 107.815 44.0977 106.954 45.8931C105.763 48.3761 99.9731 46.8935 99.9731 46.8935C99.9731 46.8935 108.957 49.2255 114.476 47.8935C119.233 46.7453 121.413 46.2079 124.478 42.3931Z" fill="#9FEBF0"/>
<path d="M124.478 42.3931C126.232 40.2099 126.905 37.1283 126.951 33.8968C125.17 36.479 121.704 34.6238 115.954 31.8931C115.954 31.8931 121.859 40.9404 117.954 42.8931C113.954 44.8931 105.954 40.8931 105.954 40.8931C105.954 40.8931 107.815 44.0977 106.954 45.8931C105.763 48.3761 99.9731 46.8935 99.9731 46.8935C99.9731 46.8935 108.957 49.2255 114.476 47.8935C119.233 46.7453 121.413 46.2079 124.478 42.3931Z" fill="#9FEBF0"/>
<path d="M39.9521 2.39308C45.4382 5.00499 48.9539 12.8935 48.9539 12.8935L27.9498 46.8935C27.9498 46.8935 18.9657 49.2255 13.447 47.8935C8.6895 46.7453 6.51018 46.2079 3.44511 42.3931C-1.69334 35.9977 2.44492 21.893 4.4453 18.8931C9.69032 11.0273 7.94598 10.8932 16.4476 3.89326C22.478 -1.07188 32.899 -0.964906 39.9521 2.39308Z" fill="#3FD8E0"/>
<path fill-rule="evenodd" clip-rule="evenodd" d="M7.07045 14.678C7.36202 14.3883 7.65486 14.1258 7.946 13.8929C12.4493 10.2908 17.9479 7.39297 26.9497 12.8931C35.9514 18.3931 33.951 27.8929 33.951 27.8929L27.2397 47.0645C25.0112 47.5773 18.0328 49.0003 13.4471 47.8936C8.68958 46.7453 6.51026 46.2079 3.4452 42.3931C2.83505 41.6337 2.3557 40.7656 1.98804 39.8203C1.39134 37.9186 1.09064 36.1596 0.987266 34.4814C0.741275 28.0927 3.08657 20.9309 4.44539 18.8931C5.5962 17.1673 6.41053 15.8136 7.07045 14.678Z" fill="#14767C"/>
<path d="M3.445 42.3931C1.69091 40.2099 1.01784 37.1283 0.971722 33.8968C2.75262 36.479 6.21898 34.6238 11.9691 31.8931C11.9691 31.8931 6.06387 40.9404 9.96912 42.8931C13.9691 44.8931 21.9691 40.8931 21.9691 40.8931C21.9691 40.8931 20.1078 44.0977 20.9691 45.8931C22.1603 48.3761 27.9497 46.8935 27.9497 46.8935C27.9497 46.8935 18.9655 49.2255 13.4469 47.8935C8.68938 46.7453 6.51007 46.2079 3.445 42.3931Z" fill="#9FEBF0"/>
<path d="M3.445 42.3931C1.69091 40.2099 1.01784 37.1283 0.971722 33.8968C2.75262 36.479 6.21898 34.6238 11.9691 31.8931C11.9691 31.8931 6.06387 40.9404 9.96912 42.8931C13.9691 44.8931 21.9691 40.8931 21.9691 40.8931C21.9691 40.8931 20.1078 44.0977 20.9691 45.8931C22.1603 48.3761 27.9497 46.8935 27.9497 46.8935C27.9497 46.8935 18.9655 49.2255 13.4469 47.8935C8.68938 46.7453 6.51007 46.2079 3.445 42.3931Z" fill="#9FEBF0"/>
<path d="M103.215 49.8928C105.216 71.9842 96.3053 89.8928 64.2077 89.8928C32.1102 89.8928 22.1997 71.9842 24.2 49.8928C27.2006 27.8014 40.1117 9.89282 64.2077 9.89282C88.3038 9.89282 100.215 27.8014 103.215 49.8928Z" fill="#3FD8E0"/>
<path d="M53.6914 46.1488C54.5374 41.3732 58.6882 37.8931 63.5381 37.8931H63.9539H64.3696C69.2196 37.8931 73.3703 41.3732 74.2163 46.1488L76.8734 61.1488C77.9585 67.2741 73.2474 72.8931 67.0267 72.8931H60.881C54.6603 72.8931 49.9492 67.2741 51.0343 61.1488L53.6914 46.1488Z" fill="#9FEBF0"/>
<path d="M48.9434 73.3922C48.9434 73.3922 54.4613 79.8922 63.9123 79.8922C73.3632 79.8922 78.8812 73.3922 78.8812 73.3922L79.4539 75.3922C79.4539 75.3922 73.3632 81.8922 63.9123 81.8922C54.4613 81.8922 48.4539 75.3922 48.4539 75.3922L48.9434 73.3922Z" fill="#14767C"/>
<path d="M77.1738 70.7388C77.6689 70.3225 78.4322 70.5115 78.7041 71.0988C79.162 72.0875 79.8703 73.4658 80.6262 74.3685C81.3821 75.2712 82.6137 76.2096 83.5058 76.8331C84.0357 77.2035 84.089 77.9895 83.5938 78.4058V78.4058C83.282 78.668 82.8389 78.7012 82.5 78.4756C81.64 77.903 80.0167 76.7521 79.0973 75.6541C78.1779 74.5561 77.3287 72.7543 76.9153 71.8062C76.7524 71.4326 76.862 71.001 77.1738 70.7388V70.7388Z" fill="#14767C"/>
<path d="M50.7339 70.7388C50.2388 70.3225 49.4756 70.5115 49.2036 71.0988C48.7458 72.0875 48.0374 73.4658 47.2815 74.3685C46.5256 75.2712 45.294 76.2096 44.4019 76.8331C43.872 77.2035 43.8187 77.9895 44.3139 78.4058V78.4058C44.6257 78.668 45.0688 78.7012 45.4078 78.4756C46.2677 77.903 47.891 76.7521 48.8104 75.6541C49.7298 74.5561 50.579 72.7543 50.9924 71.8062C51.1553 71.4326 51.0457 71.001 50.7339 70.7388V70.7388Z" fill="#14767C"/>
<path d="M65.9539 69.8931C65.9539 70.8931 66.8289 70.8931 67.7039 70.8931C69.1128 70.893 70.3289 70.393 71.2039 69.8931C72.0789 69.3931 72.9539 68.9976 72.9539 67.8931C72.9539 66.8931 72.9539 65.8931 72.0789 65.8931C70.67 65.8931 69.4539 66.3321 68.5789 66.8931C67.7039 67.454 65.9539 68.2362 65.9539 69.8931Z" fill="#14767C"/>
<path d="M61.9539 69.8931C61.9539 70.8931 61.0789 70.8931 60.2039 70.8931C58.795 70.893 57.5789 70.393 56.7039 69.8931C55.8289 69.3931 54.9539 68.9976 54.9539 67.8931C54.9539 66.8931 54.9539 65.8931 55.8289 65.8931C57.2378 65.8931 58.4539 66.3321 59.3289 66.8931C60.2039 67.454 61.9539 68.2362 61.9539 69.8931Z" fill="#14767C"/>
<ellipse cx="86.4539" cy="48.3931" rx="7.5" ry="8.5" fill="#9FEBF0"/>
<ellipse cx="86.4539" cy="48.3922" rx="4.5" ry="5.5" fill="#14767C"/>
<ellipse cx="41.4539" cy="48.3931" rx="7.5" ry="8.5" fill="#9FEBF0"/>
<ellipse cx="41.4539" cy="48.3922" rx="4.5" ry="5.5" fill="#14767C"/>
</svg>
