<svg width="100" height="112" viewBox="0 0 100 112" fill="none" xmlns="http://www.w3.org/2000/svg">
<path d="M26.8358 0.475098C48.644 0.475039 44.7263 39.9371 44.7263 39.9371L28.8236 55.4222C28.8236 55.4222 0 57.6353 0 33.4433C0 15.9602 12.424 0.475136 26.8358 0.475098Z" fill="#3FD8E0"/>
<path d="M30.0637 51.0826C30.5426 50.4564 31.0934 49.7405 31.6715 48.9972C32.9804 47.3144 34.5001 45.3985 35.6403 44.09C35.3958 43.3064 35.2664 42.457 35.1836 41.655C35.0323 40.1879 35.0041 38.4361 35.008 36.5803C35.0097 35.7868 35.0171 34.9693 35.0246 34.1339C35.0531 30.9849 35.0839 27.5823 34.819 24.259C34.4822 20.0325 33.6833 16.2741 32.0166 13.6155C30.4501 11.1166 28.0567 9.4751 24.0002 9.4751C19.3461 9.47509 15.1173 13.1748 11.8955 18.3998C8.70813 23.569 7.00024 29.4565 7.00024 32.4751C7.00024 39.9251 9.52705 43.7135 12.7117 45.7741C16.0741 47.9497 20.5721 48.4751 25.0002 48.4751C27.3397 48.4751 29.0721 49.9697 30.0637 51.0826Z" fill="#9FEBF0" stroke="#14767C" stroke-width="4"/>
<path d="M30 45.4751C29.5001 46.4751 25 46.4751 25 46.4751L29 50.4751H34V35.4751H33C33 35.4751 33 39.4751 32 39.4751C29.0001 39.4751 29.0001 34.4751 25 34.4751C24.0001 34.4751 23.0001 34.9751 23 36.4751C22.9998 39.4751 31.2039 43.0666 30 45.4751Z" fill="#14767C"/>
<path d="M73.1642 0.475098C51.356 0.475039 55.2737 39.9371 55.2737 39.9371L71.1764 55.4222C71.1764 55.4222 100 57.6353 100 33.4433C100 15.9602 87.576 0.475136 73.1642 0.475098Z" fill="#3FD8E0"/>
<path d="M69.9363 51.0826C69.4574 50.4564 68.9066 49.7405 68.3285 48.9972C67.0196 47.3144 65.4999 45.3985 64.3597 44.09C64.6042 43.3064 64.7336 42.457 64.8164 41.655C64.9677 40.1879 64.9959 38.4361 64.992 36.5803C64.9903 35.7868 64.9829 34.9693 64.9754 34.1339C64.9469 30.9849 64.9161 27.5823 65.181 24.259C65.5178 20.0325 66.3167 16.2741 67.9834 13.6155C69.5499 11.1166 71.9433 9.4751 75.9998 9.4751C80.6539 9.47509 84.8827 13.1748 88.1045 18.3998C91.2919 23.569 92.9998 29.4565 92.9998 32.4751C92.9998 39.9251 90.4729 43.7135 87.2883 45.7741C83.9259 47.9497 79.4279 48.4751 74.9998 48.4751C72.6603 48.4751 70.9279 49.9697 69.9363 51.0826Z" fill="#9FEBF0" stroke="#14767C" stroke-width="4"/>
<path d="M70 45.4751C70.4999 46.4751 75 46.4751 75 46.4751L71 50.4751H66V35.4751H67C67 35.4751 67 39.4751 68 39.4751C70.9999 39.4751 70.9999 34.4751 75 34.4751C75.9999 34.4751 76.9999 34.9751 77 36.4751C77.0002 39.4751 68.7961 43.0666 70 45.4751Z" fill="#14767C"/>
<path d="M82.1313 84.9751C82.1313 100.133 67.8045 111.475 50.1313 111.475C32.4582 111.475 18.1313 100.133 18.1313 84.9751C18.1313 64.8167 37.4582 38.4751 50.1313 38.4751C62.8045 38.4751 82.1313 64.8167 82.1313 84.9751Z" fill="#3FD8E0"/>
<circle cx="50.1313" cy="96.4751" r="8" fill="#14767C"/>
<circle cx="47" cy="94.4751" r="3" fill="#9FEBF0"/>
<rect x="53" y="56.4751" width="4" height="15" rx="2" fill="#14767C"/>
<rect x="43" y="56.4751" width="4" height="15" rx="2" fill="#14767C"/>
<path d="M32 100.877C32 99.9105 33.1357 99.3443 33.9278 99.8983C37.2149 102.198 44.12 106.475 50 106.475C55.88 106.475 62.7851 102.198 66.0722 99.8983C66.8643 99.3443 68 99.9105 68 100.877V100.877C68 101.252 67.8213 101.601 67.5087 101.808C65.4094 103.198 56.982 108.475 50 108.475C43.018 108.475 34.5906 103.198 32.4913 101.808C32.1787 101.601 32 101.252 32 100.877V100.877Z" fill="#14767C"/>
</svg>
