<svg width="90" height="114" viewBox="0 0 90 114" fill="none" xmlns="http://www.w3.org/2000/svg">
<path d="M40 41.9996L4 63.9996C4 63.9996 17.6961 -0.000830968 21 -0.000366211C21.6494 -0.000274852 22.1345 -0.000307785 22.7448 -0.000349218L23 -0.000366211C26.3039 -0.000577899 40 41.9996 40 41.9996Z" fill="#3FD8E0"/>
<path d="M33.7498 45.9957V40.2716L24.1525 14.6785L12.5 53.2214V54.7585L33.7498 45.9957Z" fill="#9FEBF0" stroke="#14767C" stroke-width="3"/>
<path d="M50 41.9996L86 63.9996C86 63.9996 72.3039 -0.000830968 69 -0.000366211C68.3506 -0.000274852 67.8655 -0.000307785 67.2552 -0.000349218L67 -0.000366211C63.6961 -0.000577899 50 41.9996 50 41.9996Z" fill="#3FD8E0"/>
<path d="M56.2502 45.9957V40.2716L65.8475 14.6785L77.5 53.2214V54.7585L56.2502 45.9957Z" fill="#9FEBF0" stroke="#14767C" stroke-width="3"/>
<path d="M90 80.9928C90 102.022 69.7735 114 45.6521 114C21.5307 114 0 102.022 0 81.0175C0 59.7276 17.0155 39.0082 45.5 39.0082C72.9845 39.0082 90 59.7029 90 80.9928Z" fill="#3FD8E0"/>
<circle cx="69" cy="73.9996" r="11" fill="#9FEBF0"/>
<circle cx="69" cy="73.9996" r="7" fill="#14767C"/>
<circle cx="21" cy="73.9996" r="11" fill="#9FEBF0"/>
<circle cx="21" cy="73.9996" r="7" fill="#14767C"/>
<path d="M28 94.526C28 93.3784 29.5387 92.8141 30.3576 93.6182C31.9632 95.1947 34.1285 96.9146 36 96.9996C38.3405 97.106 41.169 95.5986 43.0226 94.404C44.2128 93.6369 45.7872 93.6369 46.9774 94.404C48.831 95.5986 51.6595 97.106 54 96.9996C55.8715 96.9146 58.0368 95.1947 59.6424 93.6182C60.4613 92.8141 62 93.3784 62 94.526V94.526C62 94.8304 61.886 95.1222 61.6711 95.3376C60.5712 96.4398 56.9264 99.8666 54 99.9996C51.6595 100.106 48.831 98.5986 46.9774 97.404C45.7872 96.6369 44.2128 96.6369 43.0226 97.404C41.169 98.5986 38.3405 100.106 36 99.9996C33.0736 99.8666 29.4288 96.4398 28.3289 95.3376C28.114 95.1222 28 94.8304 28 94.526V94.526Z" fill="#14767C"/>
</svg>
