<svg width="100" height="112" viewBox="0 0 100 112" fill="none" xmlns="http://www.w3.org/2000/svg">
<path d="M26.8358 0.950195C48.644 0.950137 44.7263 40.4122 44.7263 40.4122L28.8236 55.8973C28.8236 55.8973 0 58.1104 0 33.9184C0 16.4353 12.424 0.950234 26.8358 0.950195Z" fill="#FFD00D"/>
<path d="M30.0637 51.5577C30.5426 50.9314 31.0934 50.2156 31.6715 49.4723C32.9804 47.7895 34.5001 45.8736 35.6403 44.5651C35.3958 43.7815 35.2664 42.9321 35.1836 42.1301C35.0323 40.663 35.0041 38.9112 35.008 37.0554C35.0097 36.2619 35.0171 35.4444 35.0246 34.609C35.0531 31.46 35.0839 28.0574 34.819 24.7341C34.4822 20.5076 33.6833 16.7492 32.0166 14.0906C30.4501 11.5917 28.0567 9.9502 24.0002 9.9502C19.3461 9.95019 15.1173 13.6499 11.8955 18.8749C8.70813 24.0441 7.00024 29.9316 7.00024 32.9502C7.00024 40.4002 9.52705 44.1886 12.7117 46.2492C16.0741 48.4248 20.5721 48.9502 25.0002 48.9502C27.3397 48.9502 29.0721 50.4448 30.0637 51.5577Z" fill="#FFE886" stroke="#866C00" stroke-width="4"/>
<path d="M30 45.9502C29.5001 46.9502 25 46.9502 25 46.9502L29 50.9502H34V35.9502H33C33 35.9502 33 39.9502 32 39.9502C29.0001 39.9502 29.0001 34.9502 25 34.9502C24.0001 34.9502 23.0001 35.4502 23 36.9502C22.9998 39.9502 31.2039 43.5417 30 45.9502Z" fill="#866C00"/>
<path d="M73.1642 0.950195C51.356 0.950137 55.2737 40.4122 55.2737 40.4122L71.1764 55.8973C71.1764 55.8973 100 58.1104 100 33.9184C100 16.4353 87.576 0.950234 73.1642 0.950195Z" fill="#FFD00D"/>
<path d="M69.9363 51.5577C69.4574 50.9314 68.9066 50.2156 68.3285 49.4723C67.0196 47.7895 65.4999 45.8736 64.3597 44.5651C64.6042 43.7815 64.7336 42.9321 64.8164 42.1301C64.9677 40.663 64.9959 38.9112 64.992 37.0554C64.9903 36.2619 64.9829 35.4444 64.9754 34.609C64.9469 31.46 64.9161 28.0574 65.181 24.7341C65.5178 20.5076 66.3167 16.7492 67.9834 14.0906C69.5499 11.5917 71.9433 9.9502 75.9998 9.9502C80.6539 9.95019 84.8827 13.6499 88.1045 18.8749C91.2919 24.0441 92.9998 29.9316 92.9998 32.9502C92.9998 40.4002 90.4729 44.1886 87.2883 46.2492C83.9259 48.4248 79.4279 48.9502 74.9998 48.9502C72.6603 48.9502 70.9279 50.4448 69.9363 51.5577Z" fill="#FFE886" stroke="#866C00" stroke-width="4"/>
<path d="M70 45.9502C70.4999 46.9502 75 46.9502 75 46.9502L71 50.9502H66V35.9502H67C67 35.9502 67 39.9502 68 39.9502C70.9999 39.9502 70.9999 34.9502 75 34.9502C75.9999 34.9502 76.9999 35.4502 77 36.9502C77.0002 39.9502 68.7961 43.5417 70 45.9502Z" fill="#866C00"/>
<path d="M82.1313 85.4502C82.1313 100.609 67.8045 111.95 50.1313 111.95C32.4582 111.95 18.1313 100.609 18.1313 85.4502C18.1313 65.2918 37.4582 38.9502 50.1313 38.9502C62.8045 38.9502 82.1313 65.2918 82.1313 85.4502Z" fill="#FFD00D"/>
<circle cx="50.1313" cy="96.9502" r="8" fill="#866C00"/>
<circle cx="47" cy="94.9502" r="3" fill="#FFE886"/>
<rect x="53" y="56.9502" width="4" height="15" rx="2" fill="#866C00"/>
<rect x="43" y="56.9502" width="4" height="15" rx="2" fill="#866C00"/>
<path d="M32 101.352C32 100.386 33.1357 99.8193 33.9278 100.373C37.2149 102.673 44.12 106.95 50 106.95C55.88 106.95 62.7851 102.673 66.0722 100.373C66.8643 99.8193 68 100.386 68 101.352V101.352C68 101.727 67.8213 102.076 67.5087 102.283C65.4094 103.673 56.982 108.95 50 108.95C43.018 108.95 34.5906 103.673 32.4913 102.283C32.1787 102.076 32 101.727 32 101.352V101.352Z" fill="#866C00"/>
</svg>
