<svg width="90" height="114" viewBox="0 0 90 114" fill="none" xmlns="http://www.w3.org/2000/svg">
<path d="M40 41.9993L4 63.9993C4 63.9993 17.6961 -0.00119718 21 -0.000732422C21.6494 -0.000641063 22.1345 -0.000673996 22.7448 -0.000715429L23 -0.000732422C26.3039 -0.00094411 40 41.9993 40 41.9993Z" fill="#FFD00D"/>
<path d="M33.7498 45.9953V40.2713L24.1525 14.6781L12.5 53.2211V54.7582L33.7498 45.9953Z" fill="#FFE886" stroke="#866C00" stroke-width="3"/>
<path d="M50 41.9993L86 63.9993C86 63.9993 72.3039 -0.00119718 69 -0.000732422C68.3506 -0.000641063 67.8655 -0.000673996 67.2552 -0.000715429L67 -0.000732422C63.6961 -0.00094411 50 41.9993 50 41.9993Z" fill="#FFD00D"/>
<path d="M56.2502 45.9953V40.2713L65.8475 14.6781L77.5 53.2211V54.7582L56.2502 45.9953Z" fill="#FFE886" stroke="#866C00" stroke-width="3"/>
<path d="M90 80.9925C90 102.022 69.7735 113.999 45.6521 113.999C21.5307 113.999 0 102.022 0 81.0171C0 59.7272 17.0155 39.0079 45.5 39.0079C72.9845 39.0079 90 59.7025 90 80.9925Z" fill="#FFD00D"/>
<circle cx="69" cy="73.9993" r="11" fill="#FFE886"/>
<circle cx="69" cy="73.9993" r="7" fill="#866C00"/>
<circle cx="21" cy="73.9993" r="11" fill="#FFE886"/>
<circle cx="21" cy="73.9993" r="7" fill="#866C00"/>
<path d="M28 94.5257C28 93.3781 29.5387 92.8138 30.3576 93.6178C31.9632 95.1943 34.1285 96.9142 36 96.9993C38.3405 97.1057 41.169 95.5982 43.0226 94.4036C44.2128 93.6366 45.7872 93.6366 46.9774 94.4036C48.831 95.5982 51.6595 97.1057 54 96.9993C55.8715 96.9142 58.0368 95.1944 59.6424 93.6178C60.4613 92.8138 62 93.3781 62 94.5257V94.5257C62 94.83 61.886 95.1218 61.6711 95.3373C60.5712 96.4395 56.9264 99.8662 54 99.9993C51.6595 100.106 48.831 98.5982 46.9774 97.4036C45.7872 96.6366 44.2128 96.6366 43.0226 97.4036C41.169 98.5982 38.3405 100.106 36 99.9993C33.0736 99.8662 29.4288 96.4395 28.3289 95.3373C28.114 95.1218 28 94.83 28 94.5257V94.5257Z" fill="#866C00"/>
</svg>
