<svg width="121" height="90" viewBox="0 0 121 90" fill="none" xmlns="http://www.w3.org/2000/svg">
<path d="M57.0001 0C52.0001 0 53.0001 8 53.0001 8C44.1453 10.6737 39.8379 14.4249 33.0001 24H24.0001C24.0001 24 20.9707 15 15.0001 15C6.00015 15 8.00015 31 8.00015 31C8.00015 31 0.0349181 36.9492 0.000148936 50C-0.0467544 67.6054 11.0001 72 11.0001 72V77C11.0001 77 13.5072 81 19.0001 81C26.0001 81 26.0001 76 26.0001 76C29 78.4988 30.5 78.4988 33.0001 80V86C33.0001 86 36.5072 90 41.0001 90C47.5001 90 47.0001 83 47.0001 83C47.0001 83 52.6546 83.1458 56.0001 82C59.4856 80.8063 64.0002 77 64.0002 77C64.0002 77 99.603 78.8059 100 45C100.056 40.2494 98.0002 33 98.0002 33C111.429 32.3359 119 25.5 121 12C107.927 9.84402 102.134 12.2491 92.0002 17C84.0001 7.5 74.5001 5 64.0001 6C64.0001 6 60.6006 0 57.0001 0Z" fill="#FFD00D"/>
<path d="M47 81C47 81 48.5 90 41 90C36.507 90 33 86 33 86V80C30.1654 80.1518 28.6327 79.2774 26 76C26 76 26 81 19 81C13.507 81 11 77 11 77V72C11 72 21 71 24 74L26 76C28.6327 79.2774 30.1654 80.1518 33 80C33 80 37.2455 80.8052 40 81C41.9073 81.1348 47 80.0365 47 80.0365V81Z" fill="#FFE886"/>
<path d="M97 32C97 22 103.5 18 116 18C116 26 108 32 97 32Z" fill="#FFE886"/>
<path d="M14.9999 15C5.9999 15 7.9999 31 7.9999 31L19.9999 26C19.9999 26 20.9705 15 14.9999 15Z" fill="#FFE886"/>
<path d="M48.9999 42L31.9999 32C31.9999 32 30.9999 21 40.9999 21C47.6503 21 53.9999 24 53.9999 32C53.9999 38 48.9999 42 48.9999 42Z" fill="#FFE886"/>
<path d="M14.9999 15C5.9999 15 7.9999 31 7.9999 31L19.9999 26C19.9999 26 20.9705 15 14.9999 15Z" fill="#FFE886"/>
<path d="M48.9999 42L31.9999 32C31.9999 32 30.9999 21 40.9999 21C47.6503 21 53.9999 24 53.9999 32C53.9999 38 48.9999 42 48.9999 42Z" fill="#FFE886"/>
<path d="M11.0004 30L15.0001 28.5C15.0001 28.5 16.0005 21 13.0004 21C10.0002 21 11.0004 30 11.0004 30Z" fill="#866C00"/>
<path d="M45 40L35 34C35 34 35.5001 27 41.0001 27C45.6006 27 48.0001 29.3995 48.0001 33C48.0001 36 45 40 45 40Z" fill="#866C00"/>
<ellipse cx="86" cy="41.4988" rx="6" ry="10.5" transform="rotate(-10 86 41.4988)" fill="#866C00"/>
<ellipse cx="85.5" cy="37.4987" rx="2.5" ry="4.5" transform="rotate(-10 85.5 37.4987)" fill="#FFE886"/>
<path fill-rule="evenodd" clip-rule="evenodd" d="M67 50.9988C67 50.9988 69 56.9988 69 60.9988C69 77.9018 56.903 80.9988 40 80.9988C31.7437 80.9988 26.2109 77.1706 22.6456 73.0451C12.7351 74.3077 8.44829 72.1886 3 63.9988C4.39466 64.6178 5.49535 65.1449 6.43085 65.593C10.3846 67.4866 11.3879 67.9671 19.1636 67.9972C17.6138 65.1664 17 62.9988 17 62.9988C17 62.9988 24.8171 74.9988 43 74.9988C67 74.9988 67 50.9988 67 50.9988Z" fill="#866C00"/>
</svg>
