<svg width="117" height="117" viewBox="0 0 117 117" fill="none" xmlns="http://www.w3.org/2000/svg">
<path d="M74.9773 0L62.9773 39H58.9773H53.9773L34.9773 0L31.9773 46C26.9773 48.5 19.9773 70 19.9773 75L8.97727 83C8.97727 83 -3.52262 85.5 0.97727 91C-3.52271 106 9.97727 105 9.97727 105C9.97727 105 10.423 111 19.9773 111H36.9773C36.9773 111 45.6682 117 51.9773 117C60.9773 117 73.9773 111 73.9773 111H113.977L96.9773 85H116.977L90.9773 50L74.9773 0Z" fill="#FFD00D"/>
<path d="M34.9926 47.6998L34.9775 45.0399L37.6138 14.2838L47.9773 40.1926V44.232L34.9926 47.6998Z" fill="#866C00" stroke="#FFE886" stroke-width="2"/>
<path d="M74.5897 13.4587L79.9773 52.0694V54.1958L65.9773 45.4458V40.1573L74.5897 13.4587Z" fill="#866C00" stroke="#FFE886" stroke-width="2"/>
<path d="M113.977 111L96.9773 85C96.9773 61.5 69.9773 39 62.9773 39H58.9773H53.9773C45.9773 39 36.4773 43.75 31.9773 46C26.9773 48.5 19.9773 70 19.9773 75L8.97727 83C8.97727 83 -3.52262 85.5 0.97727 91C-3.52271 106 9.97727 105 9.97727 105C9.97727 105 10.423 111 19.9773 111H36.9773C36.9773 111 45.6682 117 51.9773 117C60.9773 117 73.9773 111 73.9773 111H113.977Z" fill="#FFD00D"/>
<path d="M51.9772 117C60.9772 117 73.9772 111 73.9772 111C73.9772 111 76.9677 104.455 76.9999 100C77.0712 90.1294 58.8706 81 43.9999 81C28.9999 81 17.9999 87 17.9999 87L0.977197 91C-3.52278 106 9.9772 105 9.9772 105C9.9772 105 10.4229 111 19.9772 111H36.9772C36.9772 111 45.6681 117 51.9772 117Z" fill="#FFE886"/>
<path d="M61.9773 100V101C61.9773 101 38.4773 106 23.9773 106C17.9773 106 13.2273 105.5 9.97729 105C5.97729 105 4.97729 104 4.97729 104V103H7.97729C7.66148 97.4744 7.33093 94.7823 5.97729 92H9.97729C9.40417 96.9689 9.86933 98.524 10.9773 103C21 105.958 42.4773 102.5 61.9773 100Z" fill="#866C00"/>
<path d="M8.97727 83C8.97727 83 -3.52262 85.5 0.97727 91C0.97727 91 2.97729 93 9.97729 93C14.4773 93 19.9773 91.5543 19.9773 87C19.9773 83 8.97727 83 8.97727 83Z" fill="#866C00"/>
<path d="M117 85L105 69C105 69 106.746 75.507 105 79C103.254 82.493 97 85 97 85H117Z" fill="#FFE886"/>
<path d="M103.5 95L114 111H95C95 111 99.0957 108.351 101.25 105C103.5 101.5 103.5 95 103.5 95Z" fill="#FFE886"/>
<path d="M71.997 82.3253C74.3514 81.9102 75.9515 79.996 76.8068 77.7636C77.6746 75.4987 77.9047 72.6388 77.3861 69.6977C76.8675 66.7565 75.6732 64.1478 74.0831 62.3163C72.5158 60.511 70.3575 59.2596 68.0031 59.6747C65.6487 60.0899 64.0486 62.004 63.1933 64.2365C62.3255 66.5014 62.0954 69.3612 62.614 72.3024C63.1326 75.2436 64.327 77.8522 65.9171 79.6838C67.4843 81.489 69.6426 82.7405 71.997 82.3253Z" fill="#FFE886" stroke="#866C00" stroke-width="3"/>
<ellipse cx="69.5001" cy="71.5" rx="3.5" ry="6.5" transform="rotate(-10 69.5001 71.5)" fill="#866C00"/>
</svg>
