<svg width="127" height="90" viewBox="0 0 127 90" fill="none" xmlns="http://www.w3.org/2000/svg">
<path d="M87.9556 2.39308C82.4695 5.00499 78.9539 12.8935 78.9539 12.8935L99.9579 46.8935C99.9579 46.8935 108.942 49.2255 114.461 47.8935C119.218 46.7453 121.398 46.2079 124.463 42.3931C129.601 35.9977 125.463 21.893 123.462 18.8931C118.217 11.0273 119.962 10.8932 111.46 3.89326C105.43 -1.07188 95.0087 -0.964906 87.9556 2.39308Z" fill="#FFD00D"/>
<path fill-rule="evenodd" clip-rule="evenodd" d="M120.837 14.678C120.546 14.3883 120.253 14.1258 119.962 13.8929C115.458 10.2908 109.96 7.39297 100.958 12.8931C91.9563 18.3931 93.9567 27.8929 93.9567 27.8929L100.668 47.0645C102.897 47.5773 109.875 49.0003 114.461 47.8936C119.218 46.7453 121.397 46.2079 124.463 42.3931C125.073 41.6337 125.552 40.7656 125.92 39.8203C126.516 37.9186 126.817 36.1596 126.92 34.4814C127.166 28.0927 124.821 20.9309 123.462 18.8931C122.312 17.1673 121.497 15.8136 120.837 14.678Z" fill="#866C00"/>
<path d="M124.463 42.3931C126.217 40.2099 126.89 37.1283 126.936 33.8968C125.155 36.479 121.689 34.6238 115.939 31.8931C115.939 31.8931 121.844 40.9404 117.939 42.8931C113.939 44.8931 105.939 40.8931 105.939 40.8931C105.939 40.8931 107.8 44.0977 106.939 45.8931C105.747 48.3761 99.958 46.8935 99.958 46.8935C99.958 46.8935 108.942 49.2255 114.461 47.8935C119.218 46.7453 121.398 46.2079 124.463 42.3931Z" fill="#FFE886"/>
<path d="M124.463 42.3931C126.217 40.2099 126.89 37.1283 126.936 33.8968C125.155 36.479 121.689 34.6238 115.939 31.8931C115.939 31.8931 121.844 40.9404 117.939 42.8931C113.939 44.8931 105.939 40.8931 105.939 40.8931C105.939 40.8931 107.8 44.0977 106.939 45.8931C105.747 48.3761 99.958 46.8935 99.958 46.8935C99.958 46.8935 108.942 49.2255 114.461 47.8935C119.218 46.7453 121.398 46.2079 124.463 42.3931Z" fill="#FFE886"/>
<path d="M39.9367 2.39308C45.4228 5.00499 48.9385 12.8935 48.9385 12.8935L27.9344 46.8935C27.9344 46.8935 18.9503 49.2255 13.4317 47.8935C8.67412 46.7453 6.4948 46.2079 3.42973 42.3931C-1.70872 35.9977 2.42954 21.893 4.42992 18.8931C9.67494 11.0273 7.9306 10.8932 16.4322 3.89326C22.4626 -1.07188 32.8836 -0.964906 39.9367 2.39308Z" fill="#FFD00D"/>
<path fill-rule="evenodd" clip-rule="evenodd" d="M7.05507 14.678C7.34663 14.3883 7.63948 14.1258 7.93062 13.8929C12.4339 10.2908 17.9326 7.39297 26.9343 12.8931C35.936 18.3931 33.9356 27.8929 33.9356 27.8929L27.2243 47.0645C24.9958 47.5773 18.0174 49.0003 13.4317 47.8936C8.6742 46.7453 6.49488 46.2079 3.42982 42.3931C2.81967 41.6337 2.34032 40.7656 1.97266 39.8203C1.37596 37.9186 1.07526 36.1596 0.971885 34.4814C0.725894 28.0927 3.07119 20.9309 4.43001 18.8931C5.58082 17.1673 6.39515 15.8136 7.05507 14.678Z" fill="#866C00"/>
<path d="M3.42986 42.3931C1.67577 40.2099 1.0027 37.1283 0.956585 33.8968C2.73748 36.479 6.20384 34.6238 11.954 31.8931C11.954 31.8931 6.04874 40.9404 9.95398 42.8931C13.954 44.8931 21.954 40.8931 21.954 40.8931C21.954 40.8931 20.0927 44.0977 20.954 45.8931C22.1452 48.3761 27.9346 46.8935 27.9346 46.8935C27.9346 46.8935 18.9504 49.2255 13.4318 47.8935C8.67425 46.7453 6.49493 46.2079 3.42986 42.3931Z" fill="#FFE886"/>
<path d="M3.42986 42.3931C1.67577 40.2099 1.0027 37.1283 0.956585 33.8968C2.73748 36.479 6.20384 34.6238 11.954 31.8931C11.954 31.8931 6.04874 40.9404 9.95398 42.8931C13.954 44.8931 21.954 40.8931 21.954 40.8931C21.954 40.8931 20.0927 44.0977 20.954 45.8931C22.1452 48.3761 27.9346 46.8935 27.9346 46.8935C27.9346 46.8935 18.9504 49.2255 13.4318 47.8935C8.67425 46.7453 6.49493 46.2079 3.42986 42.3931Z" fill="#FFE886"/>
<path d="M103.2 49.8928C105.2 71.9842 96.2899 89.8928 64.1924 89.8928C32.0948 89.8928 22.1843 71.9842 24.1847 49.8928C27.1852 27.8014 40.0963 9.89282 64.1924 9.89282C88.2884 9.89282 100.199 27.8014 103.2 49.8928Z" fill="#FFD00D"/>
<path d="M53.676 46.1488C54.522 41.3732 58.6728 37.8931 63.5227 37.8931H63.9385H64.3542C69.2042 37.8931 73.355 41.3732 74.2009 46.1488L76.8581 61.1488C77.9431 67.2741 73.232 72.8931 67.0114 72.8931H60.8656C54.6449 72.8931 49.9338 67.2741 51.0189 61.1488L53.676 46.1488Z" fill="#FFE886"/>
<path d="M48.928 73.3922C48.928 73.3922 54.446 79.8922 63.8969 79.8922C73.3478 79.8922 78.8658 73.3922 78.8658 73.3922L79.4385 75.3922C79.4385 75.3922 73.3478 81.8922 63.8969 81.8922C54.446 81.8922 48.4385 75.3922 48.4385 75.3922L48.928 73.3922Z" fill="#866C00"/>
<path d="M77.1587 70.7388C77.6538 70.3225 78.417 70.5115 78.689 71.0988C79.1468 72.0875 79.8552 73.4658 80.6111 74.3685C81.367 75.2712 82.5986 76.2096 83.4906 76.8331C84.0206 77.2035 84.0738 77.9895 83.5787 78.4058V78.4058C83.2669 78.668 82.8237 78.7012 82.4848 78.4756C81.6248 77.903 80.0016 76.7521 79.0822 75.6541C78.1628 74.5561 77.3136 72.7543 76.9002 71.8062C76.7373 71.4326 76.8468 71.001 77.1587 70.7388V70.7388Z" fill="#866C00"/>
<path d="M50.7185 70.7388C50.2234 70.3225 49.4602 70.5115 49.1882 71.0988C48.7304 72.0875 48.022 73.4658 47.2661 74.3685C46.5102 75.2712 45.2786 76.2096 44.3866 76.8331C43.8566 77.2035 43.8033 77.9895 44.2985 78.4058V78.4058C44.6103 78.668 45.0535 78.7012 45.3924 78.4756C46.2524 77.903 47.8756 76.7521 48.795 75.6541C49.7144 74.5561 50.5636 72.7543 50.977 71.8062C51.1399 71.4326 51.0304 71.001 50.7185 70.7388V70.7388Z" fill="#866C00"/>
<path d="M65.9385 69.8931C65.9385 70.8931 66.8135 70.8931 67.6885 70.8931C69.0974 70.893 70.3135 70.393 71.1885 69.8931C72.0635 69.3931 72.9385 68.9976 72.9385 67.8931C72.9385 66.8931 72.9385 65.8931 72.0635 65.8931C70.6546 65.8931 69.4385 66.3321 68.5635 66.8931C67.6885 67.454 65.9385 68.2362 65.9385 69.8931Z" fill="#866C00"/>
<path d="M61.9385 69.8931C61.9385 70.8931 61.0635 70.8931 60.1885 70.8931C58.7796 70.893 57.5635 70.393 56.6885 69.8931C55.8135 69.3931 54.9385 68.9976 54.9385 67.8931C54.9385 66.8931 54.9385 65.8931 55.8135 65.8931C57.2224 65.8931 58.4385 66.3321 59.3135 66.8931C60.1885 67.454 61.9385 68.2362 61.9385 69.8931Z" fill="#866C00"/>
<ellipse cx="86.4385" cy="48.3931" rx="7.5" ry="8.5" fill="#FFE886"/>
<ellipse cx="86.4385" cy="48.3922" rx="4.5" ry="5.5" fill="#866C00"/>
<ellipse cx="41.4385" cy="48.3931" rx="7.5" ry="8.5" fill="#FFE886"/>
<ellipse cx="41.4385" cy="48.3922" rx="4.5" ry="5.5" fill="#866C00"/>
</svg>
