<svg width="107" height="106" viewBox="0 0 107 106" fill="none" xmlns="http://www.w3.org/2000/svg">
<path d="M76 14.7422C87.7727 10.5776 107 4.74219 107 4.74219C104.441 18.3207 99.5255 28.6958 86 32.7422C89.4001 37.7648 88.6762 42.2482 88.9492 48.3202C89.3501 57.2351 85.6647 62.9556 79.8017 69.6483C75.072 75.0474 68.949 74.0041 64.3214 79.4921C60.6376 83.8607 60.5528 87.5995 57.8033 92.6171C51.2853 104.512 48.4336 105.742 34.1754 105.742C23.8947 105.742 24.1058 106.112 16.7328 98.8984C14.0592 98.2422 3.5592 92.2422 0.770474 81.1327C-0.243185 77.0946 -0.270374 74.4992 0.770474 70.4686C1.77369 66.5838 2.91483 64.357 5.659 61.4452C8.02794 58.9315 12.5748 59.9553 12.9918 56.5233C15.4674 36.1475 17.2589 28.6784 21.1393 22.0704C23.686 17.797 26.1747 14.9048 30 11.7422V0.742188L39 5.74219C40.6295 4.92184 46 4.66372 51.2853 4.66372C57.4634 4.66372 63.4009 5.8603 68.7656 8.94498C72.4828 11.0823 73.5 11.7422 76 14.7422Z" fill="#FFD00D"/>
<path d="M33 4.24219L36 7.74219L33 9.74219V4.24219Z" fill="#FFE886"/>
<path d="M30 0.742188L39 5.74219L36 7.74219L30 0.742188Z" fill="#866C00"/>
<path d="M34.1753 101.641C48.4335 101.641 55.0588 96.7422 57.8032 92.6172C59.5327 90.0175 60.0105 87.5214 60.9418 85.2347C60.9418 85.2347 64.265 76.6512 61.8769 72.1096C58.2105 65.1369 57.2034 64.9298 53.7294 61.4455C42.5588 50.2422 24.0588 53.7422 20.3244 55.7033C16.4876 57.7182 9.73261 58.9799 9.73261 58.9799C8.36352 59.5928 6.92614 60.1005 5.65885 61.4452C2.91468 64.357 1.77354 66.5838 0.770324 70.4686C-0.270524 74.4992 -0.0821101 77.0575 0.770324 81.1327C2.15356 87.7455 10.2827 96.962 16.7326 98.8984C24.1057 101.112 23.8945 101.641 34.1753 101.641Z" fill="#FFE886"/>
<ellipse cx="37.0591" cy="84.2422" rx="5.5" ry="9.5" fill="#866C00"/>
<path d="M12.0166 78.5427C12.0166 83.6585 16.1678 86.3432 13.8615 88.2933C8.78782 90.7309 5.5591 82.6835 5.5591 77.5676C5.5591 72.4518 5.52445 70.7422 8.32659 70.7422C11.1287 70.7422 12.0166 73.4268 12.0166 78.5427Z" fill="#866C00"/>
<path d="M84 30.7422L78 18.7422L100 9.74219C96.8 19.735 93.5 25.2422 84 30.7422Z" fill="#FFE886"/>
<path d="M76 14.7422L107 4.74219L106.5 7.74219L76 20.7422V14.7422Z" fill="#866C00"/>
<path d="M76 32.7422H86C86 32.7422 83.841 27.1192 82 23.7422C79.9781 20.0334 76 14.7422 76 14.7422V32.7422Z" fill="#FFD00D"/>
<ellipse cx="65.0001" cy="39.2422" rx="10" ry="12.5" transform="rotate(20 65.0001 39.2422)" fill="#FFE886"/>
<ellipse cx="65" cy="39.2421" rx="7" ry="8.5" transform="rotate(20 65 39.2421)" fill="#866C00"/>
<path fill-rule="evenodd" clip-rule="evenodd" d="M15.0496 41.7055C16.3754 33.7476 17.7419 28.8795 19.6718 24.8304C20.5937 24.0927 21.5614 23.7518 22.4971 23.9168C25.4885 24.4443 27.0195 29.9424 25.9166 36.1972C24.8137 42.452 21.4946 47.0949 18.5032 46.5674C16.8198 46.2706 15.5988 44.3996 15.0496 41.7055Z" fill="#FFE886"/>
<ellipse cx="20.5" cy="35.2422" rx="2.5" ry="7.5" transform="rotate(10 20.5 35.2422)" fill="#866C00"/>
</svg>
