<svg width="104" height="76" viewBox="0 0 104 76" fill="none" xmlns="http://www.w3.org/2000/svg">
<path d="M100.517 38C100.517 58.9868 98.3554 76 51.0173 76C3.67924 76 1.51733 58.9868 1.51733 38C1.51733 17.0132 23.6792 0 51.0173 0C78.3554 0 100.517 17.0132 100.517 38Z" fill="#FFD00D"/>
<path d="M51.5173 69C39.9093 69 23.5247 59 23.5247 59C23.5247 59 22.2996 45 51.5173 45C80.735 45 79.51 59 79.51 59C79.51 59 63.1254 69 51.5173 69Z" fill="#FFE886"/>
<path d="M51.5173 69C39.9062 69 23.5173 59 23.5173 59C23.5173 59 40.0317 67 51.5173 67C63.003 67 79.5173 59 79.5173 59C79.5173 59 63.1285 69 51.5173 69Z" fill="#866C00"/>
<ellipse cx="66.4324" cy="50.549" rx="2.5" ry="1.5" transform="rotate(30 66.4324 50.549)" fill="#866C00"/>
<ellipse rx="2.5" ry="1.5" transform="matrix(-0.866025 0.5 0.5 0.866025 36.4323 50.549)" fill="#866C00"/>
<ellipse cx="85.6883" cy="34.9699" rx="13" ry="16" transform="rotate(-20 85.6883 34.9699)" fill="#FFE886"/>
<ellipse cx="86.5174" cy="34.5" rx="10" ry="12.5" transform="rotate(-20 86.5174 34.5)" fill="#866C00"/>
<ellipse rx="13" ry="16" transform="matrix(-0.939693 -0.34202 -0.34202 0.939693 17.6884 34.9699)" fill="#FFE886"/>
<ellipse rx="10" ry="12.5" transform="matrix(-0.939693 -0.34202 -0.34202 0.939693 16.8593 34.5)" fill="#866C00"/>
</svg>
