<svg width="107" height="106" viewBox="0 0 107 106" fill="none" xmlns="http://www.w3.org/2000/svg">
<path d="M76 14.1133C87.7727 9.94869 107 4.11328 107 4.11328C104.441 17.6918 99.5255 28.0669 86 32.1133C89.4001 37.1358 88.6762 41.6193 88.9492 47.6913C89.3501 56.6062 85.6647 62.3267 79.8017 69.0194C75.072 74.4184 68.949 73.3752 64.3214 78.8632C60.6376 83.2318 60.5528 86.9706 57.8033 91.9882C51.2853 103.883 48.4336 105.113 34.1754 105.113C23.8947 105.113 24.1058 105.483 16.7328 98.2695C14.0592 97.6133 3.5592 91.6133 0.770474 80.5038C-0.243185 76.4657 -0.270374 73.8703 0.770474 69.8397C1.77369 65.9549 2.91483 63.7281 5.659 60.8163C8.02794 58.3026 12.5748 59.3264 12.9918 55.8944C15.4674 35.5186 17.2589 28.0495 21.1393 21.4415C23.686 17.1681 26.1747 14.2759 30 11.1133V0.113281L39 5.11328C40.6295 4.29293 46 4.03481 51.2853 4.03481C57.4634 4.03481 63.4009 5.23139 68.7656 8.31607C72.4828 10.4534 73.5 11.1133 76 14.1133Z" fill="#F993CE"/>
<path d="M33 3.61328L36 7.11328L33 9.11328V3.61328Z" fill="#FCC9E6"/>
<path d="M30 0.113281L39 5.11328L36 7.11328L30 0.113281Z" fill="#BC0A71"/>
<path d="M34.1753 101.012C48.4335 101.012 55.0588 96.1133 57.8032 91.9883C59.5327 89.3886 60.0105 86.8925 60.9418 84.6058C60.9418 84.6058 64.265 76.0223 61.8769 71.4807C58.2105 64.508 57.2034 64.3009 53.7294 60.8166C42.5588 49.6133 24.0588 53.1133 20.3244 55.0744C16.4876 57.0893 9.73261 58.351 9.73261 58.351C8.36352 58.9639 6.92614 59.4716 5.65885 60.8163C2.91468 63.7281 1.77354 65.9549 0.770324 69.8397C-0.270524 73.8703 -0.0821101 76.4286 0.770324 80.5038C2.15356 87.1166 10.2827 96.3331 16.7326 98.2695C24.1057 100.483 23.8945 101.012 34.1753 101.012Z" fill="#FCC9E6"/>
<ellipse cx="37.0591" cy="83.6133" rx="5.5" ry="9.5" fill="#BC0A71"/>
<path d="M12.0166 77.9138C12.0166 83.0296 16.1678 85.7143 13.8615 87.6644C8.78782 90.102 5.5591 82.0546 5.5591 76.9387C5.5591 71.8229 5.52445 70.1133 8.32659 70.1133C11.1287 70.1133 12.0166 72.7979 12.0166 77.9138Z" fill="#BC0A71"/>
<path d="M84 30.1133L78 18.1133L100 9.11328C96.8 19.1061 93.5 24.6133 84 30.1133Z" fill="#FCC9E6"/>
<path d="M76 14.1133L107 4.11328L106.5 7.11328L76 20.1133V14.1133Z" fill="#BC0A71"/>
<path d="M76 32.1133H86C86 32.1133 83.841 26.4903 82 23.1133C79.9781 19.4045 76 14.1133 76 14.1133V32.1133Z" fill="#F993CE"/>
<ellipse cx="64.9996" cy="38.6133" rx="10" ry="12.5" transform="rotate(20 64.9996 38.6133)" fill="#FCC9E6"/>
<ellipse cx="64.9998" cy="38.6132" rx="7" ry="8.5" transform="rotate(20 64.9998 38.6132)" fill="#BC0A71"/>
<path fill-rule="evenodd" clip-rule="evenodd" d="M15.0493 41.0766C16.3752 33.1187 17.7417 28.2506 19.6716 24.2015C20.5935 23.4638 21.5612 23.1229 22.4968 23.2879C25.4883 23.8154 27.0192 29.3135 25.9163 35.5683C24.8134 41.8231 21.4943 46.466 18.5029 45.9385C16.8195 45.6417 15.5986 43.7707 15.0493 41.0766Z" fill="#FCC9E6"/>
<ellipse cx="20.5" cy="34.6133" rx="2.5" ry="7.5" transform="rotate(10 20.5 34.6133)" fill="#BC0A71"/>
</svg>
