<svg width="94" height="88" viewBox="0 0 94 88" fill="none" xmlns="http://www.w3.org/2000/svg">
<path d="M94 54C94 83.3005 52.9574 88 47 88C41.0426 88 0 83.3005 0 54C0 34.6995 14.0426 0 47 0C80.9574 0 94 34.6995 94 54Z" fill="#F993CE"/>
<path d="M66 82C66 82 64.7811 88 47 88C29.2189 88 28 82 28 82C28 82 24.0605 82.1819 22 81C19.8309 79.7558 18 76 18 76C18 76 22.4241 62 47 62C71.5759 62 76 76 76 76C76 76 74.1691 79.7558 72 81C69.9395 82.1819 66 82 66 82Z" fill="#FCC9E6"/>
<path d="M59.2239 67C60.2988 68 60.5233 70 58.1493 70C55.7752 70 53.8507 70 52.7761 69C51.7012 68 51.4767 66 53.8507 66C56.2247 66 58.149 66 59.2239 67Z" fill="#BC0A71"/>
<path d="M32.7761 67C31.7012 68 31.4767 70 33.8507 70C36.2248 70 38.1493 70 39.2239 69C40.2988 68 40.5233 66 38.1493 66C35.7753 66 33.851 66 32.7761 67Z" fill="#BC0A71"/>
<path d="M27.9512 80.9991C27.9926 80.9992 39.5368 79.9991 46.9756 79.9991C54.4144 79.9991 65.9752 80.9991 66 80.9991C67 80.9991 67 81.9991 67 81.9991L66 81.9991C66 81.9991 54.4144 80.9991 46.9756 80.9991C39.5368 80.9991 27.9512 81.9991 27.9512 81.9991H27C27 81.9991 27 80.9989 27.9512 80.9991Z" fill="#BC0A71"/>
<ellipse cx="70" cy="49.9992" rx="10" ry="13" transform="rotate(-10 70 49.9992)" fill="#FCC9E6"/>
<ellipse cx="70.0004" cy="49.9991" rx="7" ry="9" transform="rotate(-10 70.0004 49.9991)" fill="#BC0A71"/>
<ellipse rx="10" ry="13" transform="matrix(-0.984808 -0.173648 -0.173648 0.984808 26 49.9992)" fill="#FCC9E6"/>
<ellipse rx="7" ry="9" transform="matrix(-0.984808 -0.173648 -0.173648 0.984808 25.9996 49.9991)" fill="#BC0A71"/>
</svg>
