<svg width="107" height="102" viewBox="0 0 107 102" fill="none" xmlns="http://www.w3.org/2000/svg">
<path d="M88.9888 58.8353C92.1836 62.8924 94 68.5488 94 73.5C94 89.2401 75.6436 102 53 102C30.3564 102 12 89.2401 12 73.5C12 68.5485 13.8167 62.8919 17.0117 58.8346C19.5806 21.9962 29.4373 18.1454 38.8345 13.5206C44.1804 10.8896 49.3777 8.33185 53.0002 0C56.6228 8.33185 61.8201 10.8897 67.1658 13.5206C76.5632 18.1455 86.4199 21.9963 88.9888 58.8353Z" fill="#F993CE"/>
<path d="M95 61C92.5301 61 89 59 89 59L84 32C84 32 89.1538 28 93 28C101.5 28 106.083 36.6428 106 45C105.924 52.5822 102.5 61 95 61Z" fill="#F993CE"/>
<path d="M87.8657 44.2717C87.8626 44.1702 87.8603 44.0648 87.8589 43.9559C87.844 42.7919 87.9348 41.266 88.3403 39.76C88.746 38.2529 89.4505 36.8247 90.6203 35.7758C91.7722 34.7431 93.4618 34 95.9996 34C97.7998 34 99.288 35.3062 100.379 37.6692C101.457 40.004 102 43.1022 102 46C102 49.128 101.388 51.1013 100.415 52.2844C99.4763 53.4253 98.0579 54 95.9996 54C93.8367 54 92.3704 53.5864 91.3753 53.0325C90.3897 52.4839 89.8123 51.7681 89.4662 51.0606C89.2148 50.5468 89.0806 50.0261 89.0132 49.5642C89.5525 49.7662 90.2052 49.9614 90.8781 50.0438C91.7437 50.1498 92.8156 50.0886 93.6816 49.4051C94.5753 48.6999 94.9996 47.5354 94.9996 46C94.9996 45.2682 94.873 44.6145 94.5714 44.0758C94.2571 43.5146 93.7886 43.144 93.2422 42.9489C92.237 42.5899 91.072 42.8587 90.1633 43.1833C89.3286 43.4814 88.5122 43.901 87.8657 44.2717Z" fill="#FCC9E6" stroke="#BC0A71" stroke-width="2"/>
<path d="M11.001 61C13.4709 61 17.001 59 17.001 59L22.001 32C22.001 32 16.8472 28 13.001 28C4.50098 28 -0.0823708 36.6428 0.000976562 45C0.0765953 52.5822 3.50098 61 11.001 61Z" fill="#F993CE"/>
<path d="M18.1353 44.2717C18.1383 44.1702 18.1406 44.0648 18.142 43.9559C18.157 42.7919 18.0662 41.266 17.6607 39.76C17.255 38.2529 16.5505 36.8247 15.3807 35.7758C14.2287 34.7431 12.5392 34 10.0013 34C8.20116 34 6.71298 35.3062 5.62198 37.6692C4.54401 40.004 4.00133 43.1022 4.00133 46C4.00133 49.128 4.61275 51.1013 5.58608 52.2844C6.52464 53.4253 7.94309 54 10.0013 54C12.1642 54 13.6306 53.5864 14.6257 53.0325C15.6113 52.4839 16.1887 51.7681 16.5348 51.0606C16.7861 50.5468 16.9204 50.0261 16.9877 49.5642C16.4485 49.7662 15.7958 49.9614 15.1229 50.0438C14.2573 50.1498 13.1854 50.0886 12.3193 49.4051C11.4257 48.6999 11.0013 47.5354 11.0013 46C11.0013 45.2682 11.128 44.6145 11.4296 44.0758C11.7439 43.5146 12.2124 43.144 12.7587 42.9489C13.7639 42.5899 14.929 42.8587 15.8377 43.1833C16.6723 43.4814 17.4888 43.901 18.1353 44.2717Z" fill="#FCC9E6" stroke="#BC0A71" stroke-width="2"/>
<circle cx="73" cy="45" r="10" fill="#FCC9E6"/>
<circle cx="73" cy="45" r="6" fill="#BC0A71"/>
<circle cx="33" cy="45" r="10" fill="#FCC9E6"/>
<circle cx="33" cy="45" r="6" fill="#BC0A71"/>
<rect x="51" y="58" width="4" height="25" fill="#FCC9E6"/>
<path d="M40 80.9693C40 79.3651 41.8966 78.4112 43.2535 79.2671C45.9477 80.9664 49.8333 83 53 83C56.1667 83 60.0523 80.9664 62.7465 79.2671C64.1034 78.4112 66 79.3651 66 80.9693V80.9693C66 81.6129 65.6807 82.211 65.1301 82.5443C62.9892 83.8399 57.3243 87 53 87C48.6757 87 43.0108 83.8399 40.8699 82.5443C40.3193 82.211 40 81.6129 40 80.9693V80.9693Z" fill="#FCC9E6"/>
<ellipse cx="53" cy="56.5" rx="8" ry="2.5" fill="#BC0A71"/>
</svg>
