<svg width="118" height="95" viewBox="0 0 118 95" fill="none" xmlns="http://www.w3.org/2000/svg">
<path d="M62.125 1V30L44.125 34L23.125 35C23.125 35 14.8926 33.2121 10.125 35C-1.87499 39.5 0.124998 53 0.124998 53V62C0.125044 79.1628 21.125 85 21.125 85C21.125 85 26.125 95 38.125 95H56.125C70.125 95 95.125 70.5 95.125 58V43C95.125 43 117.625 44 117.625 17C117.625 10.1658 116.125 3 107.125 3C97.8242 3 81.125 25 81.125 25C81.125 25 71.9315 -9.50039e-06 64.125 0C63.125 0 62.125 1 62.125 1Z" fill="#FF791F"/>
<path d="M10.125 35C-1.87499 39.5 0.124998 53 0.124998 53C0.124998 53 6.03319 60 11.125 60C20.125 60 31.125 53.0023 31.125 44C31.125 37.5 23.125 35 23.125 35C23.125 35 14.8926 33.2122 10.125 35Z" fill="#8F3900"/>
<path d="M62.125 87C46.751 88.5276 37.9228 88.6301 21.125 85C21.125 85 22.375 87.5 25.125 90C34.7044 94.9793 43.5827 93.3409 62.125 87Z" fill="#8F3900"/>
<path d="M102.125 37H87.125C87.125 37 94.1423 8 108.125 8C115.625 8 115.125 13.5 115.125 18C115.125 36.9905 102.125 37 102.125 37Z" fill="#FFBC8F"/>
<path d="M17 38.5C17 41.5376 12.3137 46 9 46C5.68629 46 5 44.5376 5 41.5C5 38.4624 9.68629 35 13 35C16.3137 35 17 35.4624 17 38.5Z" fill="#FFBC8F"/>
<path d="M79.1393 47.804C81.406 54.0317 80.6072 60.0399 76.1959 61.6455C71.7846 63.251 66.371 59.504 64.1042 53.2763C61.8375 47.0486 62.6364 41.0404 67.0477 39.4348C71.459 37.8293 76.8726 41.5763 79.1393 47.804Z" fill="#FFBC8F"/>
<path d="M77.3545 48.353C79.0545 53.0238 78.4554 57.5299 75.1469 58.7341C71.8384 59.9383 67.7782 57.128 66.0782 52.4572C64.3781 47.7864 64.9773 43.2803 68.2858 42.0761C71.5943 40.8719 75.6545 43.6822 77.3545 48.353Z" fill="#8F3900"/>
</svg>
