<svg width="100" height="111" viewBox="0 0 100 111" fill="none" xmlns="http://www.w3.org/2000/svg">
<path d="M26.8358 0C48.644 -5.83992e-05 44.7263 39.462 44.7263 39.462L28.8236 54.9471C28.8236 54.9471 0 57.1602 0 32.9682C0 15.4851 12.424 3.85927e-05 26.8358 0Z" fill="#FF4040"/>
<path d="M30.0634 50.6075C30.5424 49.9813 31.0931 49.2654 31.6713 48.5221C32.9801 46.8393 34.4998 44.9234 35.6401 43.6149C35.3955 42.8313 35.2661 41.9819 35.1834 41.1799C35.032 39.7128 35.0039 37.961 35.0078 36.1052C35.0094 35.3117 35.0168 34.4942 35.0244 33.6588C35.0529 30.5098 35.0837 27.1072 34.8188 23.7839C34.4819 19.5574 33.6831 15.799 32.0164 13.1404C30.4498 10.6415 28.0564 9 24 9C19.3459 8.99999 15.117 12.6997 11.8953 17.9247C8.70789 23.0939 7 28.9814 7 32C7 39.45 9.52681 43.2384 12.7114 45.299C16.0738 47.4746 20.5719 48 25 48C27.3395 48 29.0719 49.4946 30.0634 50.6075Z" fill="#FFA0A0" stroke="#A00000" stroke-width="4"/>
<path d="M30 45C29.5001 46 25 46 25 46L29 50H34V35H33C33 35 33 39 32 39C29.0001 39 29.0001 34 25 34C24.0001 34 23.0001 34.5 23 36C22.9998 39 31.2039 42.5915 30 45Z" fill="#A00000"/>
<path d="M73.1642 0C51.356 -5.83992e-05 55.2737 39.462 55.2737 39.462L71.1764 54.9471C71.1764 54.9471 100 57.1602 100 32.9682C100 15.4851 87.576 3.85927e-05 73.1642 0Z" fill="#FF4040"/>
<path d="M69.9366 50.6075C69.4576 49.9813 68.9069 49.2654 68.3287 48.5221C67.0199 46.8393 65.5002 44.9234 64.3599 43.6149C64.6045 42.8313 64.7339 41.9819 64.8166 41.1799C64.968 39.7128 64.9961 37.961 64.9922 36.1052C64.9906 35.3117 64.9832 34.4942 64.9756 33.6588C64.9471 30.5098 64.9163 27.1072 65.1812 23.7839C65.5181 19.5574 66.3169 15.799 67.9836 13.1404C69.5502 10.6415 71.9436 9 76 9C80.6541 8.99999 84.883 12.6997 88.1047 17.9247C91.2921 23.0939 93 28.9814 93 32C93 39.45 90.4732 43.2384 87.2886 45.299C83.9262 47.4746 79.4281 48 75 48C72.6605 48 70.9281 49.4946 69.9366 50.6075Z" fill="#FFA0A0" stroke="#A00000" stroke-width="4"/>
<path d="M70 45C70.4999 46 75 46 75 46L71 50H66V35H67C67 35 67 39 68 39C70.9999 39 70.9999 34 75 34C75.9999 34 76.9999 34.5 77 36C77.0002 39 68.7961 42.5915 70 45Z" fill="#A00000"/>
<path d="M82.1313 84.5C82.1313 99.6584 67.8045 111 50.1313 111C32.4582 111 18.1313 99.6584 18.1313 84.5C18.1313 64.3416 37.4582 38 50.1313 38C62.8045 38 82.1313 64.3416 82.1313 84.5Z" fill="#FF4040"/>
<circle cx="50.1313" cy="96" r="8" fill="#A00000"/>
<circle cx="47" cy="94" r="3" fill="#FFA0A0"/>
<rect x="53" y="56" width="4" height="15" rx="2" fill="#A00000"/>
<rect x="43" y="56" width="4" height="15" rx="2" fill="#A00000"/>
<path d="M32 100.402C32 99.4354 33.1357 98.8692 33.9278 99.4232C37.2149 101.723 44.12 106 50 106C55.88 106 62.7851 101.723 66.0722 99.4232C66.8643 98.8692 68 99.4354 68 100.402V100.402C68 100.777 67.8213 101.125 67.5087 101.332C65.4094 102.723 56.982 108 50 108C43.018 108 34.5906 102.723 32.4913 101.332C32.1787 101.125 32 100.777 32 100.402V100.402Z" fill="#A00000"/>
</svg>
