<svg width="111" height="97" viewBox="0 0 111 97" fill="none" xmlns="http://www.w3.org/2000/svg">
<path d="M75.223 87.6276C80.2227 98.1276 97.7227 97.1276 96.223 85.6276C101.723 93.1276 110.223 90.1276 110.223 81.1276V76.6276C87.7981 49.2847 83.2385 33.7435 90.223 5.62764C69.1741 -1.96703 55.9748 -1.78417 30.2231 5.62764L27.2231 14.6276C27.2231 14.6276 11.2226 18.1276 5.22305 23.6276C-0.776905 29.128 3.22304 72.6276 3.22304 72.6276H5.22305C-3.27736 78.1276 -0.27736 83.1276 6.22305 77.6276C-1.96384 86.7202 8.22264 90.6276 19.2231 85.6276C16.2227 95.6276 39.2227 97.1276 47.2231 88.6276C47.2231 88.6276 43.9259 96.6662 61.2227 96.6276C78.7218 96.5887 75.223 87.6276 75.223 87.6276Z" fill="#FF4040"/>
<path d="M3.22309 72.6276H5.2231C12.9602 67.5645 23.682 65.1865 52.2227 61.6276C55.7227 61.6276 57.8126 60.5146 61.2227 56.6276V53.6276C53.9316 42.3351 50.2686 35.554 49.2227 17.6276L39.2227 10.6276L27.2231 14.6276C27.2231 14.6276 11.2226 18.1276 5.2231 23.6276C-0.776855 29.128 3.22309 72.6276 3.22309 72.6276Z" fill="#FFA0A0"/>
<path d="M3.22309 72.6277H5.2231C10.228 69.3524 16.4819 67.2008 28 65.1263C28 65.1263 17.5 33 14 30C10.7551 27.2186 3.24046 28 3.24046 28C0.272825 40.5434 3.22309 72.6277 3.22309 72.6277Z" fill="#A00000"/>
<path d="M75.223 87.6276C80.2227 98.1276 97.7227 97.1276 96.223 85.6276C101.723 93.1276 110.223 90.1276 110.223 81.1276V76.6276L101.223 65.6276C110.723 82.1276 103.223 87.6276 94.2227 76.6276C96.1615 88.6276 80.7227 90.1276 73.2227 79.6276C72.2227 92.1276 48.2227 93.1276 52.2227 79.6276C41.7227 89.6276 26.2227 89.1276 25.2227 79.6276C12.2227 83.1276 6.22266 81.1276 16.2227 70.6276C8.24381 74.7181 3.60089 76.8425 9 70.5L7 71.5L5.22305 72.6276C-3.27736 78.1276 -0.27736 83.1276 6.22305 77.6276C-1.96384 86.7202 8.22264 90.6276 19.2231 85.6276C16.2227 95.6276 39.2227 97.1276 47.2231 88.6276C47.2231 88.6276 43.9259 96.6661 61.2227 96.6276C78.7218 96.5887 75.223 87.6276 75.223 87.6276Z" fill="#A00000"/>
<ellipse cx="37" cy="29" rx="2" ry="5" fill="#A00000"/>
<path d="M79.5 29C79.5 36.0086 74.9284 41.5 69.5 41.5C64.0716 41.5 59.5 36.0086 59.5 29C59.5 21.9914 64.0716 16.5 69.5 16.5C74.9284 16.5 79.5 21.9914 79.5 29Z" fill="#FFA0A0" stroke="#A00000"/>
<ellipse cx="68" cy="30" rx="5" ry="6" fill="#A00000"/>
</svg>
