<svg width="90" height="111" viewBox="0 0 90 111" fill="none" xmlns="http://www.w3.org/2000/svg">
<path d="M85 35.3711C82.134 35.3711 78 42.3711 78 42.3711V64.3711L86 72.3711C86 72.3711 90 58.3711 90 49.3711C90 43.5655 88 35.3711 85 35.3711Z" fill="#A00000"/>
<path d="M5 35.3711C7.86599 35.3711 12 42.3711 12 42.3711V64.3711L4 72.3711C4 72.3711 0 58.3711 0 49.3711C0 43.5655 2 35.3711 5 35.3711Z" fill="#A00000"/>
<path d="M79.6088 63.6226C79.8665 60.931 80.0001 58.1756 80.0001 55.3711C80.0001 24.9954 64.3301 0.371094 45.0001 0.371094C25.6702 0.371094 10.0001 24.9954 10.0001 55.3711C10.0001 58.1756 10.1337 60.931 10.3914 63.6226C-0.367128 71.412 0.898985 82.0201 0.994932 82.8235C0.998228 82.8511 1.00012 82.8671 1.00012 82.8711C1.00012 100.059 20.6996 110.371 45.0001 110.371C69.3007 110.371 89.0001 100.059 89.0001 82.8711C89.0001 82.8671 89.002 82.8511 89.0053 82.8235C89.1013 82.0201 90.3674 71.412 79.6088 63.6226Z" fill="#FF4040"/>
<path d="M45 106.371C7.58332 106.371 3 91.3711 3 91.3711C3 91.3711 6 87.3711 17 87.3711C26.3909 87.3711 45 88.3711 45 88.3711C45 88.3711 63.6091 87.3711 73 87.3711C84 87.3711 87 91.3711 87 91.3711C87 91.3711 82.4167 106.371 45 106.371Z" fill="#FFA0A0"/>
<path d="M7 93.4998C7 92.9014 7.51801 92.4376 8.11184 92.5111C12.8942 93.1032 32.0571 95.3711 45 95.3711C57.9429 95.3711 77.1058 93.1032 81.8882 92.5111C82.482 92.4376 83 92.9014 83 93.4998V93.4998C83 93.9982 82.6434 94.4171 82.1488 94.4787C77.8478 95.0148 58.1927 97.3711 45 97.3711C31.8073 97.3711 12.1522 95.0148 7.85116 94.4787C7.35664 94.4171 7 93.9982 7 93.4998V93.4998Z" fill="#A00000"/>
<path d="M64 67.3699C64 73.3699 53 76.3699 53 76.3699C53 76.3699 51 72.3699 51 69.3699C51 65.3699 52 63.3699 57 63.3699C60.1485 63.3699 64 64.3699 64 67.3699Z" fill="#FFA0A0"/>
<path d="M56 75.3699C55 75.8699 53 76.3699 53 76.3699V71.3699C53 68.8693 54 66.3699 57 66.3699C58.5 66.3699 60 66.3699 60 68.3699C60 71.5184 58.8161 73.9617 56 75.3699Z" fill="#A00000"/>
<path d="M28 67.3699C28 73.3699 39 76.3699 39 76.3699C39 76.3699 41 72.3699 41 69.3699C41 65.3699 40 63.3699 35 63.3699C31.8515 63.3699 28 64.3699 28 67.3699Z" fill="#FFA0A0"/>
<path d="M36 75.3699C37 75.8699 39 76.3699 39 76.3699V71.3699C39 68.8693 38 66.3699 35 66.3699C33.5 66.3699 32 66.3699 32 68.3699C32 71.5184 33.1839 73.9617 36 75.3699Z" fill="#A00000"/>
<ellipse cx="59" cy="50.3699" rx="8" ry="6" fill="#A00000"/>
<ellipse cx="58" cy="48.3699" rx="3" ry="2" fill="#FFA0A0"/>
<ellipse rx="8" ry="6" transform="matrix(-1 0 0 1 31 50.3699)" fill="#A00000"/>
<ellipse rx="3" ry="2" transform="matrix(-1 0 0 1 32 48.3699)" fill="#FFA0A0"/>
</svg>
