<svg width="90" height="115" viewBox="0 0 90 115" fill="none" xmlns="http://www.w3.org/2000/svg">
<path d="M40 42.9978L4 64.9978C4 64.9978 17.6961 0.997338 21 0.997803C21.6494 0.997894 22.1345 0.997861 22.7448 0.99782L23 0.997803C26.3039 0.997591 40 42.9978 40 42.9978Z" fill="#A06FCE"/>
<path d="M33.7495 46.9938V41.2698L24.1523 15.6766L12.4998 54.2196V55.7567L33.7495 46.9938Z" fill="#D0B7E6" stroke="#502876" stroke-width="3"/>
<path d="M50 42.9978L86 64.9978C86 64.9978 72.3039 0.997338 69 0.997803C68.3506 0.997894 67.8655 0.997861 67.2552 0.99782L67 0.997803C63.6961 0.997591 50 42.9978 50 42.9978Z" fill="#A06FCE"/>
<path d="M56.2505 46.9938V41.2698L65.8477 15.6766L77.5002 54.2196V55.7567L56.2505 46.9938Z" fill="#D0B7E6" stroke="#502876" stroke-width="3"/>
<path d="M90 81.991C90 103.02 69.7735 114.998 45.6521 114.998C21.5307 114.998 0 103.02 0 82.0157C0 60.7258 17.0155 40.0064 45.5 40.0064C72.9845 40.0064 90 60.7011 90 81.991Z" fill="#A06FCE"/>
<circle cx="69" cy="74.9978" r="11" fill="#D0B7E6"/>
<circle cx="69" cy="74.9978" r="7" fill="#502876"/>
<circle cx="21" cy="74.9978" r="11" fill="#D0B7E6"/>
<circle cx="21" cy="74.9978" r="7" fill="#502876"/>
<path d="M28 95.5242C28 94.3766 29.5387 93.8123 30.3576 94.6164C31.9632 96.1929 34.1285 97.9127 36 97.9978C38.3405 98.1042 41.169 96.5968 43.0226 95.4021C44.2128 94.6351 45.7872 94.6351 46.9774 95.4021C48.831 96.5968 51.6595 98.1042 54 97.9978C55.8715 97.9127 58.0368 96.1929 59.6424 94.6164C60.4613 93.8123 62 94.3766 62 95.5242V95.5242C62 95.8286 61.886 96.1204 61.6711 96.3358C60.5712 97.438 56.9264 100.865 54 100.998C51.6595 101.104 48.831 99.5968 46.9774 98.4021C45.7872 97.6351 44.2128 97.6351 43.0226 98.4021C41.169 99.5968 38.3405 101.104 36 100.998C33.0736 100.865 29.4288 97.438 28.3289 96.3358C28.114 96.1204 28 95.8286 28 95.5242V95.5242Z" fill="#502876"/>
</svg>
