<svg width="127" height="90" viewBox="0 0 127 90" fill="none" xmlns="http://www.w3.org/2000/svg">
<path d="M87.9705 2.39308C82.4844 5.00499 78.9688 12.8935 78.9688 12.8935L99.9728 46.8935C99.9728 46.8935 108.957 49.2255 114.476 47.8935C119.233 46.7453 121.412 46.2079 124.477 42.3931C129.616 35.9977 125.478 21.893 123.477 18.8931C118.232 11.0273 119.977 10.8932 111.475 3.89326C105.445 -1.07188 95.0236 -0.964906 87.9705 2.39308Z" fill="#A06FCE"/>
<path fill-rule="evenodd" clip-rule="evenodd" d="M120.852 14.678C120.561 14.3883 120.268 14.1258 119.977 13.8929C115.473 10.2908 109.975 7.39297 100.973 12.8931C91.9712 18.3931 93.9716 27.8929 93.9716 27.8929L100.683 47.0645C102.911 47.5773 109.89 49.0003 114.475 47.8936C119.233 46.7453 121.412 46.2079 124.477 42.3931C125.088 41.6337 125.567 40.7656 125.935 39.8203C126.531 37.9186 126.832 36.1596 126.935 34.4814C127.181 28.0927 124.836 20.9309 123.477 18.8931C122.326 17.1673 121.512 15.8136 120.852 14.678Z" fill="#502876"/>
<path d="M124.477 42.3931C126.231 40.2099 126.905 37.1283 126.951 33.8968C125.17 36.479 121.703 34.6238 115.953 31.8931C115.953 31.8931 121.858 40.9404 117.953 42.8931C113.953 44.8931 105.953 40.8931 105.953 40.8931C105.953 40.8931 107.815 44.0977 106.953 45.8931C105.762 48.3761 99.9727 46.8935 99.9727 46.8935C99.9727 46.8935 108.957 49.2255 114.475 47.8935C119.233 46.7453 121.412 46.2079 124.477 42.3931Z" fill="#D0B7E6"/>
<path d="M124.477 42.3931C126.231 40.2099 126.905 37.1283 126.951 33.8968C125.17 36.479 121.703 34.6238 115.953 31.8931C115.953 31.8931 121.858 40.9404 117.953 42.8931C113.953 44.8931 105.953 40.8931 105.953 40.8931C105.953 40.8931 107.815 44.0977 106.953 45.8931C105.762 48.3761 99.9727 46.8935 99.9727 46.8935C99.9727 46.8935 108.957 49.2255 114.475 47.8935C119.233 46.7453 121.412 46.2079 124.477 42.3931Z" fill="#D0B7E6"/>
<path d="M39.9514 2.39308C45.4374 5.00499 48.9531 12.8935 48.9531 12.8935L27.9491 46.8935C27.9491 46.8935 18.9649 49.2255 13.4463 47.8935C8.68877 46.7453 6.50945 46.2079 3.44438 42.3931C-1.69407 35.9977 2.44419 21.893 4.44457 18.8931C9.68959 11.0273 7.94525 10.8932 16.4469 3.89326C22.4772 -1.07188 32.8983 -0.964906 39.9514 2.39308Z" fill="#A06FCE"/>
<path fill-rule="evenodd" clip-rule="evenodd" d="M7.06971 14.678C7.36128 14.3883 7.65413 14.1258 7.94527 13.8929C12.4486 10.2908 17.9472 7.39297 26.9489 12.8931C35.9506 18.3931 33.9503 27.8929 33.9503 27.8929L27.239 47.0645C25.0105 47.5773 18.032 49.0003 13.4464 47.8936C8.68885 46.7453 6.50953 46.2079 3.44446 42.3931C2.83432 41.6337 2.35497 40.7656 1.9873 39.8203C1.39061 37.9186 1.08991 36.1596 0.986533 34.4814C0.740542 28.0927 3.08583 20.9309 4.44466 18.8931C5.59547 17.1673 6.4098 15.8136 7.06971 14.678Z" fill="#502876"/>
<path d="M3.44451 42.3931C1.69042 40.2099 1.01735 37.1283 0.971233 33.8968C2.75213 36.479 6.21849 34.6238 11.9686 31.8931C11.9686 31.8931 6.06339 40.9404 9.96863 42.8931C13.9686 44.8931 21.9686 40.8931 21.9686 40.8931C21.9686 40.8931 20.1073 44.0977 20.9686 45.8931C22.1598 48.3761 27.9492 46.8935 27.9492 46.8935C27.9492 46.8935 18.9651 49.2255 13.4464 47.8935C8.6889 46.7453 6.50958 46.2079 3.44451 42.3931Z" fill="#D0B7E6"/>
<path d="M3.44451 42.3931C1.69042 40.2099 1.01735 37.1283 0.971233 33.8968C2.75213 36.479 6.21849 34.6238 11.9686 31.8931C11.9686 31.8931 6.06339 40.9404 9.96863 42.8931C13.9686 44.8931 21.9686 40.8931 21.9686 40.8931C21.9686 40.8931 20.1073 44.0977 20.9686 45.8931C22.1598 48.3761 27.9492 46.8935 27.9492 46.8935C27.9492 46.8935 18.9651 49.2255 13.4464 47.8935C8.6889 46.7453 6.50958 46.2079 3.44451 42.3931Z" fill="#D0B7E6"/>
<path d="M103.215 49.8928C105.215 71.9842 96.305 89.8928 64.2075 89.8928C32.1099 89.8928 22.1994 71.9842 24.1998 49.8928C27.2004 27.8014 40.1115 9.89282 64.2075 9.89282C88.3035 9.89282 100.214 27.8014 103.215 49.8928Z" fill="#A06FCE"/>
<path d="M53.6907 46.1488C54.5366 41.3732 58.6874 37.8931 63.5374 37.8931H63.9531H64.3689C69.2188 37.8931 73.3696 41.3732 74.2156 46.1488L76.8727 61.1488C77.9578 67.2741 73.2467 72.8931 67.026 72.8931H60.8802C54.6596 72.8931 49.9485 67.2741 51.0335 61.1488L53.6907 46.1488Z" fill="#D0B7E6"/>
<path d="M48.9426 73.3922C48.9426 73.3922 54.4606 79.8922 63.9115 79.8922C73.3624 79.8922 78.8804 73.3922 78.8804 73.3922L79.4531 75.3922C79.4531 75.3922 73.3624 81.8922 63.9115 81.8922C54.4606 81.8922 48.4531 75.3922 48.4531 75.3922L48.9426 73.3922Z" fill="#502876"/>
<path d="M77.1733 70.7388C77.6685 70.3225 78.4317 70.5115 78.7037 71.0988C79.1615 72.0875 79.8699 73.4658 80.6257 74.3685C81.3816 75.2712 82.6132 76.2096 83.5053 76.8331C84.0353 77.2035 84.0885 77.9895 83.5934 78.4058V78.4058C83.2815 78.668 82.8384 78.7012 82.4995 78.4756C81.6395 77.903 80.0163 76.7521 79.0968 75.6541C78.1774 74.5561 77.3282 72.7543 76.9148 71.8062C76.7519 71.4326 76.8615 71.001 77.1733 70.7388V70.7388Z" fill="#502876"/>
<path d="M50.7329 70.7388C50.2378 70.3225 49.4746 70.5115 49.2026 71.0988C48.7448 72.0875 48.0364 73.4658 47.2805 74.3685C46.5246 75.2712 45.293 76.2096 44.401 76.8331C43.871 77.2035 43.8178 77.9895 44.3129 78.4058V78.4058C44.6247 78.668 45.0679 78.7012 45.4068 78.4756C46.2668 77.903 47.89 76.7521 48.8094 75.6541C49.7288 74.5561 50.578 72.7543 50.9914 71.8062C51.1543 71.4326 51.0448 71.001 50.7329 70.7388V70.7388Z" fill="#502876"/>
<path d="M65.9531 69.8931C65.9531 70.8931 66.8281 70.8931 67.7031 70.8931C69.112 70.893 70.3281 70.393 71.2031 69.8931C72.0781 69.3931 72.9531 68.9976 72.9531 67.8931C72.9531 66.8931 72.9531 65.8931 72.0781 65.8931C70.6692 65.8931 69.4531 66.3321 68.5781 66.8931C67.7031 67.454 65.9531 68.2362 65.9531 69.8931Z" fill="#502876"/>
<path d="M61.9531 69.8931C61.9531 70.8931 61.0781 70.8931 60.2031 70.8931C58.7942 70.893 57.5781 70.393 56.7031 69.8931C55.8281 69.3931 54.9531 68.9976 54.9531 67.8931C54.9531 66.8931 54.9531 65.8931 55.8281 65.8931C57.237 65.8931 58.4531 66.3321 59.3281 66.8931C60.2031 67.454 61.9531 68.2362 61.9531 69.8931Z" fill="#502876"/>
<ellipse cx="86.4531" cy="48.3931" rx="7.5" ry="8.5" fill="#D0B7E6"/>
<ellipse cx="86.4531" cy="48.3922" rx="4.5" ry="5.5" fill="#502876"/>
<ellipse cx="41.4531" cy="48.3931" rx="7.5" ry="8.5" fill="#D0B7E6"/>
<ellipse cx="41.4531" cy="48.3922" rx="4.5" ry="5.5" fill="#502876"/>
</svg>
