<svg width="117" height="117" viewBox="0 0 117 117" fill="none" xmlns="http://www.w3.org/2000/svg">
<path d="M74.9773 0L62.9773 39H58.9773H53.9773L34.9773 0L31.9773 46C26.9773 48.5 19.9773 70 19.9773 75L8.97727 83C8.97727 83 -3.52262 85.5 0.97727 91C-3.52271 106 9.97727 105 9.97727 105C9.97727 105 10.423 111 19.9773 111H36.9773C36.9773 111 45.6682 117 51.9773 117C60.9773 117 73.9773 111 73.9773 111H113.977L96.9773 85H116.977L90.9773 50L74.9773 0Z" fill="#A06FCE"/>
<path d="M34.9929 47.6998L34.9778 45.0399L37.614 14.2838L47.9775 40.1926V44.232L34.9929 47.6998Z" fill="#502876" stroke="#D0B7E6" stroke-width="2"/>
<path d="M74.59 13.4587L79.9775 52.0694V54.1958L65.9775 45.4458V40.1573L74.59 13.4587Z" fill="#502876" stroke="#D0B7E6" stroke-width="2"/>
<path d="M113.977 111L96.9773 85C96.9773 61.5 69.9773 39 62.9773 39H58.9773H53.9773C45.9773 39 36.4773 43.75 31.9773 46C26.9773 48.5 19.9773 70 19.9773 75L8.97727 83C8.97727 83 -3.52262 85.5 0.97727 91C-3.52271 106 9.97727 105 9.97727 105C9.97727 105 10.423 111 19.9773 111H36.9773C36.9773 111 45.6682 117 51.9773 117C60.9773 117 73.9773 111 73.9773 111H113.977Z" fill="#A06FCE"/>
<path d="M51.9774 117C60.9774 117 73.9774 111 73.9774 111C73.9774 111 76.9679 104.455 77.0001 100C77.0715 90.1294 58.8708 81 44.0001 81C29.0001 81 18.0001 87 18.0001 87L0.977441 91C-3.52253 106 9.97744 105 9.97744 105C9.97744 105 10.4232 111 19.9774 111H36.9774C36.9774 111 45.6683 117 51.9774 117Z" fill="#D0B7E6"/>
<path d="M61.9775 100V101C61.9775 101 38.4775 106 23.9775 106C17.9775 106 13.2275 105.5 9.97754 105C5.97754 105 4.97754 104 4.97754 104V103H7.97754C7.66172 97.4744 7.33118 94.7823 5.97754 92H9.97754C9.40441 96.9689 9.86958 98.524 10.9775 103C21.0002 105.958 42.4775 102.5 61.9775 100Z" fill="#502876"/>
<path d="M8.97727 83C8.97727 83 -3.52262 85.5 0.97727 91C0.97727 91 2.97729 93 9.97729 93C14.4773 93 19.9773 91.5543 19.9773 87C19.9773 83 8.97727 83 8.97727 83Z" fill="#502876"/>
<path d="M117 85L105 69C105 69 106.746 75.507 105 79C103.254 82.493 97 85 97 85H117Z" fill="#D0B7E6"/>
<path d="M103.5 95L114 111H95C95 111 99.0957 108.351 101.25 105C103.5 101.5 103.5 95 103.5 95Z" fill="#D0B7E6"/>
<path d="M71.9968 82.3253C74.3512 81.9102 75.9513 79.996 76.8066 77.7636C77.6744 75.4987 77.9045 72.6388 77.3859 69.6977C76.8673 66.7565 75.6729 64.1478 74.0828 62.3163C72.5155 60.511 70.3573 59.2596 68.0029 59.6747C65.6484 60.0899 64.0484 62.004 63.193 64.2365C62.3253 66.5014 62.0952 69.3612 62.6138 72.3024C63.1324 75.2436 64.3267 77.8522 65.9168 79.6838C67.4841 81.489 69.6424 82.7405 71.9968 82.3253Z" fill="#D0B7E6" stroke="#502876" stroke-width="3"/>
<ellipse cx="69.4999" cy="71.5" rx="3.5" ry="6.5" transform="rotate(-10 69.4999 71.5)" fill="#502876"/>
</svg>
