<svg width="107" height="95" viewBox="0 0 107 95" fill="none" xmlns="http://www.w3.org/2000/svg">
<path d="M78.0024 1C65.0494 1 64.0024 12 64.0024 12C64.0024 12 61.0024 4.10971e-06 47.0024 0C35.8015 -3.28803e-06 35.0024 9.5 35.0024 14C35.0024 24.5 37.0024 26 37.0024 26L24.0024 45C24.0024 45 19.0024 43 15.0024 43C5.71266 43 1.00244 51.5 1.00244 64C1.00244 90.8602 15.5024 95 44.0024 95C64.5024 95 106.002 88.9982 106.002 59C106.002 43.5 100.717 46.3456 98.0024 38C96.7414 34.1227 95.0024 28 95.0024 28C95.0024 28 97.0024 22 97.0024 16C97.0024 4.5 87.5024 1 78.0024 1Z" fill="#A06FCE"/>
<path d="M15.0026 43C5.71285 43 0.870855 51.5007 1.00262 64C1.03568 67.1358 1.07731 68.8919 1.50262 72L24.0026 77H34.0026C34.0026 77 43.0026 70.9224 43.0026 56C43.0026 51.5 41.5569 46 37.0026 46C31.5026 46 23.0026 53 23.0026 53C23.0026 53 20.2924 43 15.0026 43Z" fill="#D0B7E6"/>
<path d="M36.0024 61C36.0024 64.3137 35.04 67 32.0024 67C28.9649 67 25.0024 66.3137 25.0024 63C25.0024 59.6863 27.9649 55 31.0024 55C34.04 55 36.0024 57.6863 36.0024 61Z" fill="#502876"/>
<path d="M12.0024 58.5C12.0024 62.0899 10.2116 64 8.00244 64C5.7933 64 4.00244 62.5899 4.00244 59C4.00244 56.4101 6.7933 52 9.00244 52C11.2116 52 12.0024 54.9101 12.0024 58.5Z" fill="#502876"/>
<path d="M58.0024 60L52.0024 75L65.0024 73L58.0024 60Z" fill="#D0B7E6"/>
<path d="M1.00244 72C1.00244 72 19.9539 76.9468 32.5024 77.5C51.4014 78.3331 80.0024 69 80.0024 69" stroke="#502876" stroke-width="2"/>
<path d="M88.325 16.4969C87.3765 21.8761 81.5819 25.4622 75.2633 24.348C68.9447 23.2339 64.726 17.8822 65.6745 12.503C66.623 7.12375 72.4176 3.53773 78.7362 4.65187C85.0548 5.76601 89.2736 11.1177 88.325 16.4969Z" fill="#D0B7E6" stroke="#502876"/>
<ellipse cx="75.9999" cy="14" rx="4" ry="9" transform="rotate(10 75.9999 14)" fill="#502876"/>
<ellipse cx="43.5002" cy="12.9999" rx="7.5" ry="10" transform="rotate(10 43.5002 12.9999)" fill="#D0B7E6" stroke="#502876"/>
<ellipse cx="42.5" cy="12.5" rx="2.5" ry="8.5" fill="#502876"/>
</svg>
