<svg width="107" height="106" viewBox="0 0 107 106" fill="none" xmlns="http://www.w3.org/2000/svg">
<path d="M76 14.2266C87.7727 10.062 107 4.22656 107 4.22656C104.441 17.805 99.5255 28.1802 86 32.2266C89.4001 37.2491 88.6762 41.7325 88.9492 47.8046C89.3501 56.7195 85.6647 62.44 79.8017 69.1327C75.072 74.5317 68.949 73.4885 64.3214 78.9765C60.6376 83.345 60.5528 87.0839 57.8033 92.1015C51.2853 103.996 48.4336 105.227 34.1754 105.227C23.8947 105.227 24.1058 105.596 16.7328 98.3828C14.0592 97.7266 3.5592 91.7266 0.770474 80.6171C-0.243185 76.579 -0.270374 73.9836 0.770474 69.953C1.77369 66.0682 2.91483 63.8414 5.659 60.9295C8.02794 58.4159 12.5748 59.4396 12.9918 56.0076C15.4674 35.6319 17.2589 28.1628 21.1393 21.5548C23.686 17.2814 26.1747 14.3891 30 11.2266V0.226562L39 5.22656C40.6295 4.40621 46 4.14809 51.2853 4.14809C57.4634 4.14809 63.4009 5.34468 68.7656 8.42935C72.4828 10.5667 73.5 11.2266 76 14.2266Z" fill="#A06FCE"/>
<path d="M33 3.72656L36 7.22656L33 9.22656V3.72656Z" fill="#D0B7E6"/>
<path d="M30 0.226562L39 5.22656L36 7.22656L30 0.226562Z" fill="#502876"/>
<path d="M34.1753 101.125C48.4335 101.125 55.0588 96.2265 57.8032 92.1015C59.5327 89.5019 60.0105 87.0058 60.9418 84.719C60.9418 84.719 64.265 76.1356 61.8769 71.594C58.2105 64.6213 57.2034 64.4141 53.7294 60.9299C42.5588 49.7266 24.0588 53.2266 20.3244 55.1877C16.4876 57.2026 9.73261 58.4642 9.73261 58.4642C8.36352 59.0772 6.92614 59.5848 5.65885 60.9296C2.91468 63.8414 1.77354 66.0682 0.770324 69.953C-0.270524 73.9836 -0.0821101 76.5419 0.770324 80.6171C2.15356 87.2299 10.2827 96.4464 16.7326 98.3828C24.1057 100.596 23.8945 101.125 34.1753 101.125Z" fill="#D0B7E6"/>
<ellipse cx="37.0591" cy="83.7266" rx="5.5" ry="9.5" fill="#502876"/>
<path d="M12.0166 78.0271C12.0166 83.1429 16.1678 85.8275 13.8615 87.7777C8.78782 90.2153 5.5591 82.1679 5.5591 77.052C5.5591 71.9361 5.52445 70.2266 8.32659 70.2266C11.1287 70.2266 12.0166 72.9112 12.0166 78.0271Z" fill="#502876"/>
<path d="M84 30.2266L78 18.2266L100 9.22656C96.8 19.2194 93.5 24.7266 84 30.2266Z" fill="#D0B7E6"/>
<path d="M76 14.2266L107 4.22656L106.5 7.22656L76 20.2266V14.2266Z" fill="#502876"/>
<path d="M76 32.2266H86C86 32.2266 83.841 26.6035 82 23.2266C79.9781 19.5177 76 14.2266 76 14.2266V32.2266Z" fill="#A06FCE"/>
<ellipse cx="64.9996" cy="38.7265" rx="10" ry="12.5" transform="rotate(20 64.9996 38.7265)" fill="#D0B7E6"/>
<ellipse cx="64.9998" cy="38.7265" rx="7" ry="8.5" transform="rotate(20 64.9998 38.7265)" fill="#502876"/>
<path fill-rule="evenodd" clip-rule="evenodd" d="M15.0493 41.1899C16.3752 33.232 17.7417 28.3639 19.6716 24.3148C20.5935 23.577 21.5612 23.2362 22.4968 23.4012C25.4883 23.9287 27.0192 29.4268 25.9163 35.6815C24.8134 41.9363 21.4943 46.5792 18.5029 46.0518C16.8195 45.7549 15.5986 43.884 15.0493 41.1899Z" fill="#D0B7E6"/>
<ellipse cx="20.5" cy="34.7266" rx="2.5" ry="7.5" transform="rotate(10 20.5 34.7266)" fill="#502876"/>
</svg>
