<svg width="100" height="112" viewBox="0 0 100 112" fill="none" xmlns="http://www.w3.org/2000/svg">
<path d="M26.8358 0.475098C48.644 0.475039 44.7263 39.9371 44.7263 39.9371L28.8236 55.4222C28.8236 55.4222 0 57.6353 0 33.4433C0 15.9602 12.424 0.475136 26.8358 0.475098Z" fill="#A06FCE"/>
<path d="M30.0634 51.0826C30.5424 50.4564 31.0931 49.7405 31.6713 48.9972C32.9801 47.3144 34.4998 45.3985 35.6401 44.09C35.3955 43.3064 35.2661 42.457 35.1834 41.655C35.032 40.1879 35.0039 38.4361 35.0078 36.5803C35.0094 35.7868 35.0168 34.9693 35.0244 34.1339C35.0529 30.9849 35.0837 27.5823 34.8188 24.259C34.4819 20.0325 33.6831 16.2741 32.0164 13.6155C30.4498 11.1166 28.0564 9.4751 24 9.4751C19.3459 9.47509 15.117 13.1748 11.8953 18.3998C8.70789 23.569 7 29.4565 7 32.4751C7 39.9251 9.52681 43.7135 12.7114 45.7741C16.0738 47.9497 20.5719 48.4751 25 48.4751C27.3395 48.4751 29.0719 49.9697 30.0634 51.0826Z" fill="#D0B7E6" stroke="#502876" stroke-width="4"/>
<path d="M30 45.4751C29.5001 46.4751 25 46.4751 25 46.4751L29 50.4751H34V35.4751H33C33 35.4751 33 39.4751 32 39.4751C29.0001 39.4751 29.0001 34.4751 25 34.4751C24.0001 34.4751 23.0001 34.9751 23 36.4751C22.9998 39.4751 31.2039 43.0666 30 45.4751Z" fill="#502876"/>
<path d="M73.1642 0.475098C51.356 0.475039 55.2737 39.9371 55.2737 39.9371L71.1764 55.4222C71.1764 55.4222 100 57.6353 100 33.4433C100 15.9602 87.576 0.475136 73.1642 0.475098Z" fill="#A06FCE"/>
<path d="M69.9366 51.0826C69.4576 50.4564 68.9069 49.7405 68.3287 48.9972C67.0199 47.3144 65.5002 45.3985 64.3599 44.09C64.6045 43.3064 64.7339 42.457 64.8166 41.655C64.968 40.1879 64.9961 38.4361 64.9922 36.5803C64.9906 35.7868 64.9832 34.9693 64.9756 34.1339C64.9471 30.9849 64.9163 27.5823 65.1812 24.259C65.5181 20.0325 66.3169 16.2741 67.9836 13.6155C69.5502 11.1166 71.9436 9.4751 76 9.4751C80.6541 9.47509 84.883 13.1748 88.1047 18.3998C91.2921 23.569 93 29.4565 93 32.4751C93 39.9251 90.4732 43.7135 87.2886 45.7741C83.9262 47.9497 79.4281 48.4751 75 48.4751C72.6605 48.4751 70.9281 49.9697 69.9366 51.0826Z" fill="#D0B7E6" stroke="#502876" stroke-width="4"/>
<path d="M70 45.4751C70.4999 46.4751 75 46.4751 75 46.4751L71 50.4751H66V35.4751H67C67 35.4751 67 39.4751 68 39.4751C70.9999 39.4751 70.9999 34.4751 75 34.4751C75.9999 34.4751 76.9999 34.9751 77 36.4751C77.0002 39.4751 68.7961 43.0666 70 45.4751Z" fill="#502876"/>
<path d="M82.1313 84.9751C82.1313 100.133 67.8045 111.475 50.1313 111.475C32.4582 111.475 18.1313 100.133 18.1313 84.9751C18.1313 64.8167 37.4582 38.4751 50.1313 38.4751C62.8045 38.4751 82.1313 64.8167 82.1313 84.9751Z" fill="#A06FCE"/>
<circle cx="50.1313" cy="96.4751" r="8" fill="#502876"/>
<circle cx="47" cy="94.4751" r="3" fill="#D0B7E6"/>
<rect x="53" y="56.4751" width="4" height="15" rx="2" fill="#502876"/>
<rect x="43" y="56.4751" width="4" height="15" rx="2" fill="#502876"/>
<path d="M32 100.877C32 99.9105 33.1357 99.3443 33.9278 99.8983C37.2149 102.198 44.12 106.475 50 106.475C55.88 106.475 62.7851 102.198 66.0722 99.8983C66.8643 99.3443 68 99.9105 68 100.877V100.877C68 101.252 67.8213 101.601 67.5087 101.808C65.4094 103.198 56.982 108.475 50 108.475C43.018 108.475 34.5906 103.198 32.4913 101.808C32.1787 101.601 32 101.252 32 100.877V100.877Z" fill="#502876"/>
</svg>
