<svg width="60" height="70" viewBox="0 0 60 70" fill="none" xmlns="http://www.w3.org/2000/svg">
<path d="M21.3098 5.97535C20.4911 6.65602 19.7653 7.33372 19.1731 7.92029C18.7233 7.35161 18.2579 6.79671 17.7984 6.30077C17.3086 5.77195 16.7762 5.25594 16.2367 4.85715C15.7771 4.51737 14.9731 4.00001 14 4C13.0635 3.99999 12.4245 4.56166 12.1851 4.78763C11.8636 5.09111 11.5803 5.46236 11.3371 5.82362C10.8419 6.55907 10.3142 7.55366 9.77982 8.70418C8.70219 11.0244 7.48506 14.2244 6.34215 17.8576C4.06498 25.0965 1.99997 34.3182 2 42C2.00003 48.9344 3.27199 55.541 7.6373 60.3992C12.0388 65.2977 19.1981 68 29.9999 68C40.8018 68 47.9611 65.2977 52.3627 60.3993C56.728 55.5411 58 48.9344 58 42C58 34.3182 55.935 25.0965 53.6578 17.8576C52.5149 14.2244 51.2978 11.0244 50.2201 8.70417C49.6858 7.55366 49.1581 6.55906 48.6628 5.8236C48.4196 5.46234 48.1363 5.09109 47.8148 4.7876C47.5754 4.56161 46.9363 4 45.9999 4C45.0268 4 44.2228 4.51739 43.7632 4.85714C43.2238 5.25592 42.6914 5.77191 42.2015 6.30072C41.7421 6.79665 41.2767 7.35154 40.8269 7.92022C40.2347 7.33365 39.5088 6.65593 38.6901 5.97526C37.5671 5.04158 36.2298 4.06911 34.7899 3.3224C33.3651 2.58351 31.7146 1.99999 29.9999 2C28.2852 2.00001 26.6348 2.58356 25.21 3.32246C23.7701 4.06919 22.4329 5.04167 21.3098 5.97535Z" fill="#471929" stroke="#3F1926" stroke-width="4"/>
<path d="M56 42C56 27.2206 48 6 45.9999 6C44 6 38.9999 14 38.9999 14C38.9999 14 33.7711 11 30 11C26.2289 11 20.9999 14 20.9999 14C20.9999 14 16 6.00001 13.9999 6C12 5.99999 3.99994 27.2206 4 42C4.00006 55.5 8.99987 66 29.9999 66C51 66 56 55.5 56 42Z" fill="#542232"/>
<path d="M46 60C48 60 55 51 55 51V58L48 64L31 68L16 66L5 58V51C5 51 9 58 11 58C12 58 12.7651 57 14 57C17 57 16.9499 62 20 62C23.0501 62 22 57 26 57C29 57 29 62 33 62C37 62 38 54 41 54C44 54 44 60 46 60Z" fill="#7F5965"/>
<path d="M48 41C48 54.8071 41.5464 63 30.0139 63C18.4814 63 11 54.8071 11 41C11 27.1929 21.7314 13 30.0139 13C38.2964 13 48 27.1929 48 41Z" fill="white" fill-opacity="0.1"/>
<path d="M21.3098 5.97535C20.4911 6.65602 19.7653 7.33372 19.1731 7.92029C18.7233 7.35161 18.2579 6.79671 17.7984 6.30077C17.3086 5.77195 16.7762 5.25594 16.2367 4.85715C15.7771 4.51737 14.9731 4.00001 14 4C13.0635 3.99999 12.4245 4.56166 12.1851 4.78763C11.8636 5.09111 11.5803 5.46236 11.3371 5.82362C10.8419 6.55907 10.3142 7.55366 9.77982 8.70418C8.70219 11.0244 7.48506 14.2244 6.34215 17.8576C4.06498 25.0965 1.99997 34.3182 2 42C2.00003 48.9344 3.27199 55.541 7.6373 60.3992C12.0388 65.2977 19.1981 68 29.9999 68C40.8018 68 47.9611 65.2977 52.3627 60.3993C56.728 55.5411 58 48.9344 58 42C58 34.3182 55.935 25.0965 53.6578 17.8576C52.5149 14.2244 51.2978 11.0244 50.2201 8.70417C49.6858 7.55366 49.1581 6.55906 48.6628 5.8236C48.4196 5.46234 48.1363 5.09109 47.8148 4.7876C47.5754 4.56161 46.9363 4 45.9999 4C45.0268 4 44.2228 4.51739 43.7632 4.85714C43.2238 5.25592 42.6914 5.77191 42.2015 6.30072C41.7421 6.79665 41.2767 7.35154 40.8269 7.92022C40.2347 7.33365 39.5088 6.65593 38.6901 5.97526C37.5671 5.04158 36.2298 4.06911 34.7899 3.3224C33.3651 2.58351 31.7146 1.99999 29.9999 2C28.2852 2.00001 26.6348 2.58356 25.21 3.32246C23.7701 4.06919 22.4329 5.04167 21.3098 5.97535Z" stroke="#3F1926" stroke-width="4"/>
</svg>
