<svg width="72" height="61" viewBox="0 0 72 61" fill="none" xmlns="http://www.w3.org/2000/svg">
<path d="M2.03091 26.65C1.92965 27.2192 2.0797 27.8045 2.44237 28.2547C2.44248 28.2549 2.44259 28.255 2.4427 28.2552L2.44531 28.2584L2.46412 28.2821C2.48182 28.3046 2.50954 28.3399 2.54585 28.3869C2.61856 28.4811 2.72519 28.6215 2.85436 28.7981C3.11421 29.1534 3.4578 29.6454 3.79799 30.1966C4.14165 30.7535 4.46025 31.3363 4.68745 31.8769C4.92775 32.4487 5 32.8207 5 33.0002C5 34.6183 5.47797 36.2668 6.07774 37.7828C6.68336 39.3137 7.47923 40.8675 8.22683 42.3004C8.31094 42.4616 8.39431 42.621 8.47679 42.7788C9.1473 44.0612 9.75885 45.2308 10.2277 46.3117C10.7687 47.5592 11 48.431 11 49.0002C11 50.2585 11.3027 51.7071 11.5597 52.7353C11.6939 53.272 11.8277 53.7401 11.9281 54.0749C11.9785 54.2428 12.0208 54.3784 12.0512 54.4738C12.0664 54.5216 12.0786 54.5593 12.0873 54.5861L12.0978 54.618L12.1009 54.6275L12.102 54.6307L12.1023 54.6318L12.1025 54.6323C12.1026 54.6325 12.1026 54.6327 14 54.0002L12.1026 54.6327C12.3749 55.4494 13.1391 56.0002 14 56.0002H22.2289C22.6015 56.3188 23.1293 56.7402 23.7656 57.1644C24.9902 57.9808 26.8989 59.0003 29.0001 59.0002L43 59.0001L48.6875 59.0002L50.3828 59.0002L50.8408 59.0002L50.9596 59.0002H50.9898H50.9974H50.9993H50.9998C50.9999 59.0002 51 59.0002 51 57.0002L51 59.0002C51.5304 59.0002 52.0391 58.7895 52.4142 58.4145C52.7893 58.0394 53 57.5307 53 57.0002C53 56.7711 53.0847 56.3292 53.3923 55.6228C53.6893 54.9406 54.1364 54.1408 54.7163 53.2337C55.8805 51.4127 57.4489 49.3593 59.0887 47.215L59.1236 47.1693C60.7232 45.0776 62.3897 42.8983 63.6538 40.9212C64.2926 39.922 64.8612 38.925 65.2751 37.9744C65.6785 37.048 66 36.0211 66 35.0002C66 34.6425 66.1331 34.0567 66.4683 33.2606C66.7897 32.4972 67.234 31.686 67.7033 30.9234C68.1691 30.1664 68.6384 29.4916 68.9925 29.0047C69.1688 28.7623 69.3147 28.569 69.415 28.4383C69.4651 28.373 69.5036 28.3235 69.5288 28.2914L69.5561 28.2568L69.5617 28.2497C69.5618 28.2495 69.5619 28.2494 69.562 28.2493C70.1983 27.4535 70.1347 26.3065 69.4142 25.586L64.7205 20.8924L58.8727 5.298C58.5601 4.46446 57.7342 3.93786 56.8466 4.00614L44.6374 4.9453C43.9321 4.45954 43.0945 4.08913 42.2186 3.79304C40.9566 3.36642 39.4235 3.03183 37.6681 2.77175C34.155 2.25125 29.5452 2.00012 24 2.00024C23.4695 2.00026 22.9608 2.21097 22.5858 2.58603C19.4394 5.73246 16.8324 9.38478 15.005 12.648C14.0903 14.2815 13.3552 15.8453 12.8433 17.2275C12.5171 18.1081 12.2543 18.9861 12.1133 19.7999L2.97101 25.2853C2.47506 25.5828 2.13221 26.0805 2.03091 26.65Z" fill="#3860FF" stroke="#233373" stroke-width="4" stroke-linejoin="round"/>
<path d="M63 22.0002C63 22.0002 58 16.0002 51 16.0002C51 16.0002 48 7 44 7.00024C42 5.00024 35 4 24 4.00024C18 10.0002 14 18.0002 14 21.0002C10 25 12.9055 28.7113 13 34C11 36 11 39 11 43.2987C12.1016 45.4553 13 47.4524 13 49.0002C13 51.0002 14 54.0002 14 54.0002H23C23 54.0002 23.4491 54.4493 24.1735 55C36 55 47 49 47 46C52 46 64 38.0005 64 35.0002C64 32 68 27.0002 68 27.0002L63 22.0002Z" fill="#2246E6"/>
<path d="M39 11C32.3995 11 32 17 32 17L29 18C29 18 26.5 17 25 17C18 17 17 27 11 27C11 27 13 30 13 34C13 38 17 42 17 42L23 44C22.7174 46.5417 22 48 25 51L46 48L57 34L54 31L55 25C55 21 50.5677 14.5638 47 8C47 8 44 11 39 11Z" fill="#1539C3"/>
<path d="M49 21.9999C47.7651 21.9998 46 22.9999 46 22.9999C46 22.9999 43 16.0001 38 15.9999C34.4853 15.9997 29 15.9999 29 15.9999C29 18 22 25 22 28.9999C22 31.3753 23 34.9999 23 34.9999C18.8862 37.1561 17.6192 39.1659 17 43.9999C17 43.9999 24.9082 44.9999 30 44.9999C52 44.9999 57 23.9999 57 23.9999C57 23.9999 51 22 49 21.9999Z" fill="#3150F5"/>
<ellipse cx="36.317" cy="30.8168" rx="11.5" ry="9.5" transform="rotate(-30 36.317 30.8168)" fill="#0E36BB"/>
<g filter="url(#filter0_i)">
<path d="M26 35C26 28 42 26 42 26C42 26 37 40 32 40C29.5 40 26 38 26 35Z" fill="#2745DE"/>
</g>
<defs>
<filter id="filter0_i" x="26" y="26" width="16" height="14" filterUnits="userSpaceOnUse" color-interpolation-filters="sRGB">
<feFlood flood-opacity="0" result="BackgroundImageFix"/>
<feBlend mode="normal" in="SourceGraphic" in2="BackgroundImageFix" result="shape"/>
<feColorMatrix in="SourceAlpha" type="matrix" values="0 0 0 0 0 0 0 0 0 0 0 0 0 0 0 0 0 0 127 0" result="hardAlpha"/>
<feOffset dx="4" dy="-5"/>
<feComposite in2="hardAlpha" operator="arithmetic" k2="-1" k3="1"/>
<feColorMatrix type="matrix" values="0 0 0 0 0.0705882 0 0 0 0 0.235294 0 0 0 0 0.780392 0 0 0 1 0"/>
<feBlend mode="normal" in2="shape" result="effect1_innerShadow"/>
</filter>
</defs>
</svg>
