<svg width="85" height="64" viewBox="0 0 85 64" fill="none" xmlns="http://www.w3.org/2000/svg">
<path d="M79.0008 38.0427C79.0001 38.0262 78.9999 38.0119 78.9999 38C78.9999 37.9667 79.0018 37.9492 79.0012 37.9491C79.0003 37.949 78.9947 37.9833 78.9723 38.0563C78.4717 38.297 77.907 38.599 77.312 38.9172C75.5045 39.8838 73.4174 41 71.9999 41H69.8854L79.0008 38.0427ZM79.0008 38.0427C79.031 38.0282 79.061 38.014 79.0907 38C80.224 37.4668 80.9999 37.2808 80.9999 38C80.9999 38.3661 80.8324 38.8997 80.5219 39.5273M79.0008 38.0427L80.5219 39.5273M80.5219 39.5273C80.5817 39.5284 80.6288 39.5246 80.6602 39.5204M80.5219 39.5273L80.5 39.5712M80.5 39.5712C79.0918 42.3766 74.8761 47 69.9999 47C69.9999 47 66.488 51.2143 62.4074 52.5791C61.9442 52.734 61.4736 52.8522 60.9999 52.9233C60.6676 52.9733 60.3338 53 59.9999 53C58.9999 53 53.9999 51 53.9999 51C56.1527 53.1527 57.2756 53.7607 58.8466 53.9324C58.9436 53.7435 59.0117 53.5906 59.0542 53.4886C59.078 53.4315 59.0935 53.3909 59.1014 53.3697L59.1075 53.353M80.5 39.5712L60.9999 54.9408M80.5 39.5712C80.5365 39.5581 80.5711 39.5466 80.6037 39.5366C80.6266 39.5295 80.6453 39.5243 80.6602 39.5204M59.1075 53.353C59.1074 53.3533 59.107 53.3544 59.1064 53.3562L59.1048 53.3608L59.1038 53.3639L59.1032 53.3657C59.103 53.3664 59.1027 53.3671 59.9999 53.6665C60.2543 53.7514 60.5808 53.8603 60.9999 54V54.9408M59.1075 53.353L59.1075 53.3529L59.1075 53.353ZM60.9999 54.9408C60.8522 54.9581 60.7038 54.9718 60.5546 54.9816C60.3957 55.2789 60.19 55.6256 59.931 55.9953C60.2276 56.0005 60.5249 56.0003 60.823 56.0001C60.8819 56 60.9409 56 60.9999 56V54.9408ZM80.6602 39.5204C80.6882 39.5167 80.7037 39.5127 80.7045 39.5116C80.7052 39.5105 80.6912 39.5124 80.6602 39.5204ZM31.3245 6.50147C31.2451 6.43123 31.1594 6.36684 31.0682 6.30919C30.4881 5.94271 29.7607 5.89916 29.1411 6.1938L29.9894 7.97787C29.1411 6.1938 29.1405 6.19408 29.1399 6.19437L29.1386 6.195L29.1356 6.1964L29.1285 6.19984L29.1091 6.20922C29.094 6.21659 29.0746 6.2262 29.0509 6.23806C29.0037 6.26178 28.9396 6.29454 28.8606 6.33648C28.7026 6.42031 28.4839 6.54112 28.2183 6.69995C27.6882 7.017 26.965 7.48927 26.1611 8.1261C24.6021 9.36124 22.6809 11.2623 21.3119 13.9074C21.2953 13.9222 21.2755 13.9395 21.2523 13.9595C21.0996 14.0907 20.9059 14.2439 20.6396 14.4545C20.581 14.5008 20.519 14.5499 20.453 14.6021C19.761 15.1506 18.8116 15.9171 17.8681 16.9021C16.0989 18.7493 14.2648 21.4573 14.0261 25.1791C13.3097 24.6936 12.55 24.2295 11.8815 23.943C11.5235 23.7895 10.8012 23.5059 10.0179 23.6178C9.53898 23.6862 8.94167 23.9194 8.49985 24.4875C8.08438 25.0216 7.99994 25.6059 7.99994 26C7.99994 27.4122 8.62811 29.9652 9.92921 32.8276C10.646 34.4045 11.5923 36.1326 12.8101 37.8898C11.8923 37.5957 10.9697 37.2745 10.0719 36.9619C9.97494 36.9282 9.8783 36.8945 9.78198 36.861C8.38984 36.3768 6.96565 35.8853 5.88293 35.6651C5.38644 35.5641 4.66606 35.4519 3.97838 35.5989C3.60068 35.6796 3.06747 35.8732 2.62793 36.3527C2.15812 36.8652 1.99994 37.4791 1.99994 38C1.99994 38.6782 2.23283 39.3184 2.45193 39.7955C2.69119 40.3166 3.0167 40.8597 3.39273 41.3969C4.1464 42.4736 5.1908 43.6511 6.42121 44.7448C8.61537 46.6952 11.7 48.6388 15.0573 48.9552C15.1203 49.0228 15.1878 49.0941 15.2597 49.1687C15.7622 49.6904 16.4897 50.3857 17.3965 51.0843C18.7798 52.1501 20.7211 53.3323 23.0103 53.7969C22.9819 54.075 23.0117 54.3598 23.1026 54.6325L24.9999 54C23.1026 54.6325 23.1029 54.6335 23.1032 54.6345L23.104 54.6366L23.1056 54.6414L23.1094 54.6526L23.1194 54.6815C23.1273 54.7037 23.1373 54.7317 23.1497 54.7651C23.1746 54.8317 23.2088 54.9201 23.2534 55.027C23.3424 55.2406 23.4733 55.5304 23.653 55.871C24.0108 56.5489 24.5729 57.4485 25.4006 58.3515C27.0869 60.191 29.8466 62 33.9999 62C34.9917 62 35.8517 61.6338 36.4977 61.2462C37.1544 60.8522 37.7209 60.3575 38.1642 59.9142C38.1851 59.8933 38.2058 59.8724 38.2263 59.8516C38.3309 59.9337 38.4389 60.0167 38.5499 60.1C39.1041 60.5156 39.7723 60.966 40.4805 61.3201C41.1562 61.658 42.0468 62 42.9999 62C43.9531 62 44.8437 61.658 45.5194 61.3201C46.2275 60.966 46.8957 60.5156 47.4499 60.1C47.561 60.0167 47.669 59.9337 47.7735 59.8516C47.7941 59.8724 47.8148 59.8933 47.8357 59.9142C48.279 60.3575 48.8455 60.8522 49.5022 61.2462C50.1482 61.6338 51.0082 62 51.9999 62C56.1533 62 58.913 60.191 60.5992 58.3515C61.427 57.4485 61.9891 56.5489 62.3468 55.871C62.5266 55.5304 62.6575 55.2406 62.7465 55.027C62.791 54.9201 62.8253 54.8317 62.8501 54.7651C62.8625 54.7317 62.8726 54.7037 62.8804 54.6815L62.8905 54.6526L62.8943 54.6414L62.8959 54.6366L62.8966 54.6345C62.8968 54.634 62.8969 54.6336 62.7259 54.5762C62.7264 54.576 62.7268 54.5759 62.7272 54.5758L62.8973 54.6325C62.9107 54.5923 62.9228 54.5518 62.9335 54.5112C64.9768 53.8501 66.7881 52.6307 68.1243 51.5617C69.143 50.7468 69.9862 49.9368 70.5745 49.3317C70.7065 49.196 70.8261 49.07 70.9328 48.9558C74.2945 48.6378 77.1738 46.6546 79.1641 44.6642C80.2752 43.5532 81.19 42.3621 81.8399 41.279C82.1647 40.7378 82.4392 40.197 82.6381 39.684C82.8239 39.2048 82.9999 38.6091 82.9999 38C82.9999 37.6431 82.9353 37.148 82.6392 36.6626C82.3181 36.1362 81.8391 35.8086 81.349 35.6509C80.5461 35.3925 79.7751 35.6065 79.4274 35.7134C78.5946 35.9697 77.5638 36.5159 76.6838 36.9853C76.5791 37.0411 76.4746 37.097 76.3703 37.1527C75.5094 37.6129 74.6642 38.0648 73.8595 38.4224C72.9039 38.8471 72.2982 39 71.9999 39H71.8928C72.519 38.3483 73.1642 37.6443 73.7798 36.9133C74.8312 35.6646 75.8643 34.2631 76.642 32.7961C77.4122 31.3433 77.9999 29.6994 77.9999 28C77.9999 26.6621 77.6938 24.7813 75.9402 24.0689C75.1534 23.7493 74.3834 23.8256 73.8165 23.9707C73.2426 24.1176 72.7049 24.3775 72.2422 24.6474C72.1606 24.695 72.0786 24.7446 71.9964 24.796C71.9242 22.7003 70.7559 20.5298 69.4509 18.6656C68.0435 16.655 66.2026 14.6242 64.4142 12.8358C62.6169 11.0386 60.8264 9.44034 59.489 8.29399C58.819 7.71972 58.2598 7.25628 57.8663 6.93505C57.6694 6.77439 57.5139 6.64915 57.4066 6.56326C57.3529 6.52031 57.3112 6.48719 57.2824 6.46438L57.249 6.43796L57.2398 6.43066L57.237 6.42851L57.2361 6.42781C57.2358 6.42757 57.2356 6.42736 55.9999 8L57.2356 6.42736C56.6335 5.95433 55.8143 5.86652 55.1257 6.20121C54.866 6.32744 54.642 6.50541 54.4638 6.71921C54.227 6.49477 53.9844 6.2664 53.7396 6.03786C52.7928 5.15424 51.7883 4.24585 50.9432 3.54986C50.5249 3.20538 50.1096 2.88293 49.7402 2.63665C49.5577 2.515 49.346 2.38465 49.124 2.27748C48.9672 2.20179 48.538 1.99996 47.9998 2C47.5517 2.00003 47.1899 2.13142 46.9815 2.22206C46.7527 2.32155 46.551 2.44252 46.3886 2.55079C46.0645 2.76687 45.7424 3.03695 45.4515 3.30141C44.862 3.83729 44.216 4.52025 43.6384 5.16209C43.2281 5.6179 42.8358 6.07153 42.5 6.46754C42.1641 6.07152 41.7718 5.61789 41.3616 5.16207C40.7839 4.52023 40.1379 3.83725 39.5484 3.30136C39.2575 3.0369 38.9354 2.76681 38.6113 2.55073C38.4489 2.44245 38.2471 2.32148 38.0183 2.222C37.8098 2.13135 37.4481 2 36.9999 2C36.4419 2 36.0067 2.21452 35.8359 2.3031C35.6083 2.42111 35.3992 2.56282 35.2256 2.69066C34.8745 2.94937 34.493 3.28314 34.1197 3.63164C33.3638 4.33707 32.4818 5.25341 31.6593 6.1391C31.5469 6.26014 31.4352 6.38111 31.3245 6.50147ZM10.1561 27.5647C10.1558 27.5641 10.1649 27.5661 10.1845 27.5725C10.1662 27.5685 10.1564 27.5653 10.1561 27.5647ZM21.3867 13.8373C21.3858 13.8383 21.3845 13.8396 21.3828 13.8413C21.3909 13.8323 21.3929 13.8308 21.3867 13.8373Z" fill="#B4DA00" stroke="#60730A" stroke-width="4" stroke-linejoin="round"/>
<g filter="url(#filter0_i)">
<path d="M68.9999 29C68.9999 40.0457 56.8071 50 42.9999 50C29.1928 50 16.9999 40.0457 16.9999 29C16.9999 17.9543 26.1928 8 42.9999 8C59.8071 8 68.9999 17.9543 68.9999 29Z" fill="#D4F44C"/>
<path d="M68.9999 29C68.9999 40.0457 56.8071 50 42.9999 50C29.1928 50 16.9999 40.0457 16.9999 29C16.9999 17.9543 26.1928 8 42.9999 8C59.8071 8 68.9999 17.9543 68.9999 29Z" fill="url(#paint0_linear)"/>
</g>
<ellipse cx="42.9999" cy="24.5" rx="2" ry="2.5" fill="#EEFA7E"/>
<path d="M53.1812 24.2499C52.4712 25.096 50.1007 24.2758 48.8315 23.2108C47.5623 22.1458 47.1089 20.5965 47.8189 19.7504C48.5289 18.9042 50.1334 19.0816 51.4026 20.1466C52.6718 21.2116 53.8912 23.4037 53.1812 24.2499Z" fill="#EEFA7E"/>
<path d="M38.1811 19.7501C37.4711 18.904 35.8666 19.0814 34.5974 20.1464C33.3282 21.2114 32.1088 23.4035 32.8188 24.2496C33.5288 25.0958 35.8993 24.2756 37.1685 23.2106C38.4378 22.1456 38.8911 20.5963 38.1811 19.7501Z" fill="#EEFA7E"/>
<ellipse cx="29.383" cy="18.6789" rx="1" ry="3.5" transform="rotate(50 29.383 18.6789)" fill="#EEFA7E"/>
<ellipse rx="1" ry="3.5" transform="matrix(-0.642788 0.766044 0.766044 0.642788 56.383 18.6789)" fill="#EEFA7E"/>
<ellipse cx="27.9999" cy="14.5" rx="2" ry="0.5" fill="#EEFA7E"/>
<ellipse cx="57.9999" cy="14.5" rx="2" ry="0.5" fill="#EEFA7E"/>
<path fill-rule="evenodd" clip-rule="evenodd" d="M54.9131 10.001C55.6303 10.2705 56.3214 10.5645 56.986 10.8815C56.9952 10.9204 56.9999 10.9599 56.9999 11.0001C56.9999 11.5523 56.1045 12.0001 54.9999 12.0001C53.8954 12.0001 52.9999 11.5523 52.9999 11.0001C52.9999 10.4623 53.8488 10.0237 54.9131 10.001ZM29.0139 10.8815C29.6785 10.5645 30.3696 10.2705 31.0868 10.001C32.1511 10.0237 32.9999 10.4623 32.9999 11.0001C32.9999 11.5523 32.1045 12.0001 30.9999 12.0001C29.8954 12.0001 28.9999 11.5523 28.9999 11.0001C28.9999 10.9599 29.0047 10.9204 29.0139 10.8815Z" fill="#EEFA7E"/>
<g filter="url(#filter1_d)">
<path d="M16.9999 30.0002V23.0002C16.9999 19.095 22.4999 16.0002 22.9999 15.0002C23.4999 14.5001 24.6263 14.0006 25.9999 14.0002C26.9999 14 27.9999 15.0002 27.9999 15.0002C23.9999 15.0002 21.9999 22 21.9999 29.0002C21.9999 29.0002 24.9498 24.001 27.9999 24.0002C28.9999 24 29.6174 25.3828 28.9999 26.0002C26.2613 28.7389 26.4394 41.8962 29.1544 46.8293L29.9999 48C29.6953 47.6953 29.4133 47.2997 29.1544 46.8293L16.9999 30.0002Z" fill="#CDE62E"/>
</g>
<g filter="url(#filter2_d)">
<path d="M69.101 30.0002V23.0002C69.101 19.095 63.601 16.0002 63.101 15.0002C62.601 14.5001 61.4746 14.0006 60.101 14.0002C59.101 14 58.101 15.0002 58.101 15.0002C62.101 15.0002 64.101 22 64.101 29.0002C64.101 29.0002 61.151 24.001 58.101 24.0002C57.101 24 56.4835 25.3828 57.101 26.0002C59.8291 28.7284 59.815 41.5451 56.9434 46.7037L55.9999 48C56.3429 47.6556 56.6573 47.2177 56.9434 46.7037L69.101 30.0002Z" fill="#CDE62E"/>
</g>
<g filter="url(#filter3_dd)">
<path d="M42 38V50L31 48V38C31.0001 33 34.1068 26.9998 37 27C40 27.0002 42.0001 34 42 38Z" fill="#CDE62E"/>
</g>
<g filter="url(#filter4_dd)">
<path d="M44 38V50L55 48V38C55 33 51.8933 26.9998 49 27C46 27.0002 44 34 44 38Z" fill="#CDE62E"/>
</g>
<path d="M43.9999 50V41.9827C48.3951 41.8296 52.0198 40.6705 54.9999 38.9575V48.3917V50L43.9999 50Z" fill="#BEDD22"/>
<path d="M41.9999 49.9913V41.9827C37.6047 41.8296 33.98 40.6705 30.9999 38.9575V48.3917C33.9884 49.3237 37.6105 49.9135 41.9999 49.9913Z" fill="#BEDD22"/>
<path d="M69.9999 25C69.9999 27.0386 68.9999 30 68.9999 30C68.9999 30 70.1798 43.036 55.9999 48.059C58.059 46 58.9999 40 58.9999 36C67.4092 29.5365 67.9999 20 67.9999 20C67.9999 20 69.9999 22 69.9999 25Z" fill="#BEDD22"/>
<path d="M16.9999 20H17.9999C17.9999 20 18.5299 29.5432 26.9999 36C26.9999 39 27.9409 46 29.9999 48.059C15.8201 43.036 16.9999 30 16.9999 30L16.9999 20Z" fill="#BEDD22"/>
<path d="M59.9999 53C64.9999 53 68.0503 51.1159 69.9999 47C70.6892 45.5448 70.9999 43 70.9999 43C64.9999 43 60.9999 51 53.9999 51C53.9999 51 58.9999 53 59.9999 53Z" fill="#D4F23D"/>
<path d="M51.9999 60C58.9999 60 60.9999 54 60.9999 54C57.9999 57 51.9999 57 47.9999 57C47.9999 57 49.9999 60 51.9999 60Z" fill="#D4F23D"/>
<path d="M33.9999 60C35.9999 60 37.9999 57 37.9999 57C33.9999 57 27.9999 57 24.9999 54C24.9999 54 26.9999 60 33.9999 60Z" fill="#D4F23D"/>
<path d="M24.9999 52C29.9999 52 31.9999 51 31.9999 51C24.9999 51 20.9999 43 14.9999 43C14.9999 43 15.2697 45.5649 15.9999 47C17.8233 50.5835 19.9792 52 24.9999 52Z" fill="#D4F23D"/>
<path d="M47.9999 56.5C47.9999 58.9853 45.7614 60 42.9999 60C40.2385 60 37.9999 58.9853 37.9999 56.5C37.9999 54.0147 40.2385 51 42.9999 51C45.7614 51 47.9999 54.0147 47.9999 56.5Z" fill="#D4F23D"/>
<path d="M22.3795 45.241C22.6847 44.6305 23.5186 44.4724 24.0699 44.8749C26.3504 46.54 32.3685 50 42.9999 50C53.6314 50 59.6495 46.54 61.93 44.8749C62.4813 44.4724 63.3152 44.6305 63.6204 45.241L63.6508 45.3017C63.856 45.7121 63.757 46.2028 63.3829 46.4685C61.3944 47.8807 54.6001 52 42.9999 52C31.3998 52 24.6055 47.8807 22.617 46.4685C22.2429 46.2028 22.1439 45.7121 22.3491 45.3017L22.3795 45.241Z" fill="#839918"/>
<path d="M30.6044 8.70415C30.5688 8.73878 30.534 8.7727 30.4999 8.80587V8C30.4999 7.82847 30.412 7.66891 30.267 7.5773C30.122 7.48568 29.9401 7.47479 29.7852 7.54845L29.9999 8C29.7852 7.54845 29.7851 7.54853 29.7849 7.54861L29.7844 7.54882L29.7832 7.5494L29.7796 7.55116L29.7673 7.55711C29.7625 7.55944 29.7569 7.56222 29.7503 7.56547C29.7426 7.56927 29.7337 7.57371 29.7236 7.57879C29.6861 7.59759 29.6322 7.62514 29.5636 7.66154C29.4264 7.73433 29.2302 7.8426 28.9882 7.9873C28.5046 8.27652 27.8369 8.71217 27.0926 9.30185C25.6064 10.4792 23.7994 12.283 22.5527 14.7764C22.5529 14.7761 22.5528 14.7762 22.5525 14.7767C22.5499 14.7808 22.5314 14.8101 22.4759 14.8687C22.4176 14.9302 22.3367 15.0055 22.2298 15.0973C22.0517 15.2502 21.8279 15.4272 21.5605 15.6386C21.5039 15.6834 21.4452 15.7297 21.3847 15.7777C20.7019 16.3188 19.82 17.0327 18.9513 17.9397C17.2115 19.7562 15.4999 22.3736 15.4999 26C15.4999 26.943 15.5952 27.7052 15.7318 28.3131C15.1534 27.8541 14.4728 27.3305 13.7906 26.8431C12.9135 26.2167 12.0007 25.626 11.2906 25.3217C10.955 25.1778 10.5694 25.0542 10.23 25.1027C10.0385 25.13 9.83278 25.2169 9.68388 25.4084C9.54156 25.5913 9.49994 25.8077 9.49994 26C9.49994 27.1031 10.032 29.4288 11.2948 32.2069C12.4352 34.7158 14.1884 37.6321 16.739 40.407C15.8471 40.2869 14.8629 40.0584 13.8391 39.7689C12.4145 39.3659 10.9476 38.8552 9.58767 38.3816C9.48758 38.3468 9.38807 38.3121 9.2892 38.2778C7.86304 37.7817 6.54605 37.3307 5.58397 37.135C5.11414 37.0395 4.65573 36.988 4.29191 37.0657C4.10154 37.1064 3.8939 37.1914 3.73366 37.3662C3.56585 37.5493 3.49994 37.776 3.49994 38C3.49994 38.3571 3.62847 38.7632 3.81508 39.1696C4.00673 39.587 4.28147 40.0509 4.62157 40.5367C5.30218 41.509 6.2664 42.6003 7.41776 43.6237C9.64805 45.6062 12.6662 47.4084 15.7635 47.4966C15.7759 47.5112 15.7891 47.5265 15.8031 47.5425C15.9267 47.6851 16.1076 47.8869 16.34 48.1281C16.8043 48.6101 17.4769 49.2527 18.312 49.8961C19.971 51.1743 22.3287 52.5 24.9999 52.5C27.2715 52.5 28.9426 52.2963 30.1025 52.0678C29.4198 52.6246 28.8644 52.9543 28.3244 53.1568C27.4253 53.494 26.5224 53.5 24.9999 53.5C24.8392 53.5 24.6883 53.5773 24.5943 53.7077C24.5003 53.838 24.4748 54.0056 24.5256 54.1581L24.9999 54C24.5256 54.1581 24.5257 54.1584 24.5258 54.1587L24.526 54.1594L24.5266 54.1612L24.5284 54.1664L24.5343 54.1833C24.5371 54.1913 24.5406 54.2011 24.5448 54.2127C24.548 54.2214 24.5515 54.2311 24.5555 54.2418C24.574 54.2914 24.6012 54.3619 24.638 54.4501C24.7115 54.6266 24.8234 54.8748 24.9796 55.1709C25.2917 55.7622 25.7838 56.5496 26.5064 57.3379C27.9592 58.9228 30.3366 60.5 33.9999 60.5C34.6229 60.5 35.2129 60.2678 35.7259 59.96C36.2417 59.6506 36.7114 59.2456 37.1035 58.8536C37.4972 58.4599 37.8234 58.0682 38.0509 57.7757C38.0569 57.768 38.0628 57.7603 38.0687 57.7527C38.0995 57.7808 38.1318 57.8101 38.1655 57.8404C38.4855 58.1285 38.9348 58.5136 39.4499 58.9C39.9635 59.2852 40.5524 59.679 41.1513 59.9785C41.7421 60.2739 42.3867 60.5 42.9999 60.5C43.6132 60.5 44.2577 60.2739 44.8485 59.9785C45.4475 59.679 46.0364 59.2852 46.5499 58.9C47.0651 58.5136 47.5144 58.1285 47.8344 57.8404C47.8681 57.8101 47.9004 57.7808 47.9312 57.7527C47.9371 57.7603 47.943 57.768 47.949 57.7757C48.1765 58.0682 48.5027 58.4599 48.8964 58.8536C49.2885 59.2456 49.7582 59.6506 50.2739 59.96C50.787 60.2678 51.377 60.5 51.9999 60.5C55.6633 60.5 58.0407 58.9228 59.4935 57.3379C60.2161 56.5496 60.7082 55.7622 61.0203 55.1709C61.1765 54.8748 61.2884 54.6266 61.3619 54.4501C61.3986 54.3619 61.4259 54.2914 61.4444 54.2418C61.4536 54.217 61.4607 54.1974 61.4656 54.1833L61.4715 54.1664L61.4733 54.1612L61.4739 54.1594L61.4741 54.1587C61.4742 54.1584 61.4743 54.1581 60.9999 54L61.4743 54.1581C61.5251 54.0056 61.4995 53.838 61.4056 53.7077C61.3116 53.5773 61.1607 53.5 60.9999 53.5C60.7115 53.5 60.4453 53.4998 60.1971 53.4972C62.8069 53.4218 65.3403 51.868 67.1873 50.3904C68.1451 49.6242 68.9418 48.8592 69.4991 48.286C69.778 47.9992 69.9977 47.7595 70.1483 47.5908C70.179 47.5565 70.2068 47.5251 70.2317 47.4968C73.3291 47.4099 76.11 45.597 78.1035 43.6036C79.1312 42.5758 79.9693 41.4812 80.5537 40.5073C80.8458 40.0204 81.0785 39.5571 81.2395 39.1417C81.3973 38.7348 81.4999 38.3398 81.4999 38C81.4999 37.817 81.4662 37.62 81.3587 37.4437C81.2449 37.2572 81.0757 37.1387 80.8894 37.0787C80.5613 36.9731 80.184 37.0501 79.8685 37.1471C79.2033 37.3518 78.3128 37.8165 77.3896 38.3088C77.2859 38.3641 77.1815 38.42 77.0763 38.4762C76.2229 38.9326 75.3268 39.4117 74.4687 39.7931C73.4915 40.2274 72.637 40.5 71.9999 40.5H68.2372C68.2377 40.4995 68.2383 40.499 68.2388 40.4985C69.3887 39.4016 71.0898 37.7789 72.6324 35.9471C73.6453 34.7443 74.6067 33.433 75.3167 32.0936C76.0249 30.7577 76.4999 29.3623 76.4999 28C76.4999 26.728 76.189 25.7891 75.3756 25.4586C74.9914 25.3026 74.5763 25.3246 74.1885 25.4238C73.7989 25.5235 73.3949 25.7116 72.998 25.9431C72.0012 26.5246 70.9111 27.4654 69.9961 28.3268C70.2444 27.3262 70.4999 26.049 70.4999 25C70.4999 23.3354 69.5433 21.4132 68.222 19.5258C66.8858 17.6169 65.1131 15.6561 63.3535 13.8964C61.5917 12.1346 59.8316 10.5632 58.5128 9.43287C57.8532 8.86743 57.3032 8.41172 56.9177 8.09704C56.7249 7.93969 56.5733 7.81756 56.4695 7.73457C56.4176 7.69307 56.3777 7.66135 56.3507 7.6399L56.3198 7.61549L56.3118 7.60917L56.3097 7.6075L56.3091 7.60705C56.309 7.60692 56.3089 7.60684 55.9999 8L56.3089 7.60684C56.1583 7.48858 55.9535 7.46663 55.7814 7.5503C55.6092 7.63397 55.4999 7.80859 55.4999 8V8.92112C55.4096 8.84517 55.3133 8.76429 55.2115 8.67914C54.538 8.11524 53.6287 7.36271 52.6873 6.60961C51.7473 5.85764 50.7694 5.10027 49.9602 4.52907C49.5566 4.24415 49.1862 3.99933 48.8789 3.82373C48.7257 3.73616 48.579 3.66052 48.4458 3.6054C48.326 3.55581 48.1647 3.50002 48 3.5C47.7663 3.49997 47.531 3.5828 47.3314 3.67488C47.1215 3.77177 46.8985 3.90414 46.6757 4.05267C46.2295 4.35014 45.7433 4.73996 45.2995 5.12033C44.8537 5.50245 44.4411 5.88345 44.1404 6.16827C43.9978 6.30341 43.8799 6.41733 43.7952 6.5H41.2047C41.12 6.41733 41.0021 6.30342 40.8595 6.16827C40.5588 5.88346 40.1462 5.50246 39.7004 5.12035C39.2566 4.73998 38.7704 4.35017 38.3242 4.05269C38.1014 3.90416 37.8784 3.77179 37.6685 3.6749C37.4689 3.58281 37.2336 3.49998 36.9999 3.5C36.8309 3.50001 36.6712 3.55816 36.5534 3.61049C36.4242 3.66792 36.286 3.74605 36.145 3.83509C35.8624 4.0136 35.5294 4.26113 35.1719 4.5471C34.455 5.12068 33.601 5.88008 32.7858 6.63262C31.969 7.3866 31.1844 8.13984 30.6044 8.70415ZM57.6755 53.1568C57.2714 53.0053 56.8588 52.7826 56.3906 52.4468C56.4117 52.4545 56.4329 52.4622 56.4541 52.4699C57.1447 52.721 57.8725 52.9743 58.4935 53.1654C58.8038 53.2609 59.0929 53.3425 59.3405 53.4008C59.5132 53.4414 59.6855 53.4756 59.8388 53.4911C58.965 53.4699 58.3193 53.3983 57.6755 53.1568Z" stroke="#60730A" stroke-linejoin="round"/>
<defs>
<filter id="filter0_i" x="16.9999" y="4" width="52" height="46" filterUnits="userSpaceOnUse" color-interpolation-filters="sRGB">
<feFlood flood-opacity="0" result="BackgroundImageFix"/>
<feBlend mode="normal" in="SourceGraphic" in2="BackgroundImageFix" result="shape"/>
<feColorMatrix in="SourceAlpha" type="matrix" values="0 0 0 0 0 0 0 0 0 0 0 0 0 0 0 0 0 0 127 0" result="hardAlpha"/>
<feOffset dy="-14"/>
<feGaussianBlur stdDeviation="2"/>
<feComposite in2="hardAlpha" operator="arithmetic" k2="-1" k3="1"/>
<feColorMatrix type="matrix" values="0 0 0 0 0.647059 0 0 0 0 0.807843 0 0 0 0 0 0 0 0 1 0"/>
<feBlend mode="normal" in2="shape" result="effect1_innerShadow"/>
</filter>
<filter id="filter1_d" x="16.9999" y="14.0002" width="14" height="34.9998" filterUnits="userSpaceOnUse" color-interpolation-filters="sRGB">
<feFlood flood-opacity="0" result="BackgroundImageFix"/>
<feColorMatrix in="SourceAlpha" type="matrix" values="0 0 0 0 0 0 0 0 0 0 0 0 0 0 0 0 0 0 127 0"/>
<feOffset dx="1" dy="1"/>
<feColorMatrix type="matrix" values="0 0 0 0 0.639216 0 0 0 0 0.8 0 0 0 0 0 0 0 0 1 0"/>
<feBlend mode="normal" in2="BackgroundImageFix" result="effect1_dropShadow"/>
<feBlend mode="normal" in="SourceGraphic" in2="effect1_dropShadow" result="shape"/>
</filter>
<filter id="filter2_d" x="54.9999" y="14.0002" width="14.101" height="34.9998" filterUnits="userSpaceOnUse" color-interpolation-filters="sRGB">
<feFlood flood-opacity="0" result="BackgroundImageFix"/>
<feColorMatrix in="SourceAlpha" type="matrix" values="0 0 0 0 0 0 0 0 0 0 0 0 0 0 0 0 0 0 127 0"/>
<feOffset dx="-1" dy="1"/>
<feColorMatrix type="matrix" values="0 0 0 0 0.639216 0 0 0 0 0.8 0 0 0 0 0 0 0 0 1 0"/>
<feBlend mode="normal" in2="BackgroundImageFix" result="effect1_dropShadow"/>
<feBlend mode="normal" in="SourceGraphic" in2="effect1_dropShadow" result="shape"/>
</filter>
<filter id="filter3_dd" x="30.0001" y="27" width="13" height="25" filterUnits="userSpaceOnUse" color-interpolation-filters="sRGB">
<feFlood flood-opacity="0" result="BackgroundImageFix"/>
<feColorMatrix in="SourceAlpha" type="matrix" values="0 0 0 0 0 0 0 0 0 0 0 0 0 0 0 0 0 0 127 0"/>
<feOffset dx="1" dy="2"/>
<feColorMatrix type="matrix" values="0 0 0 0 0.639216 0 0 0 0 0.8 0 0 0 0 0 0 0 0 1 0"/>
<feBlend mode="normal" in2="BackgroundImageFix" result="effect1_dropShadow"/>
<feColorMatrix in="SourceAlpha" type="matrix" values="0 0 0 0 0 0 0 0 0 0 0 0 0 0 0 0 0 0 127 0"/>
<feOffset dx="-1" dy="2"/>
<feColorMatrix type="matrix" values="0 0 0 0 0.639216 0 0 0 0 0.8 0 0 0 0 0 0 0 0 1 0"/>
<feBlend mode="normal" in2="effect1_dropShadow" result="effect2_dropShadow"/>
<feBlend mode="normal" in="SourceGraphic" in2="effect2_dropShadow" result="shape"/>
</filter>
<filter id="filter4_dd" x="43" y="27" width="13" height="25" filterUnits="userSpaceOnUse" color-interpolation-filters="sRGB">
<feFlood flood-opacity="0" result="BackgroundImageFix"/>
<feColorMatrix in="SourceAlpha" type="matrix" values="0 0 0 0 0 0 0 0 0 0 0 0 0 0 0 0 0 0 127 0"/>
<feOffset dx="1" dy="2"/>
<feColorMatrix type="matrix" values="0 0 0 0 0.639216 0 0 0 0 0.8 0 0 0 0 0 0 0 0 1 0"/>
<feBlend mode="normal" in2="BackgroundImageFix" result="effect1_dropShadow"/>
<feColorMatrix in="SourceAlpha" type="matrix" values="0 0 0 0 0 0 0 0 0 0 0 0 0 0 0 0 0 0 127 0"/>
<feOffset dx="-1" dy="2"/>
<feColorMatrix type="matrix" values="0 0 0 0 0.639216 0 0 0 0 0.8 0 0 0 0 0 0 0 0 1 0"/>
<feBlend mode="normal" in2="effect1_dropShadow" result="effect2_dropShadow"/>
<feBlend mode="normal" in="SourceGraphic" in2="effect2_dropShadow" result="shape"/>
</filter>
<linearGradient id="paint0_linear" x1="42.9999" y1="9" x2="42.9999" y2="49" gradientUnits="userSpaceOnUse">
<stop offset="0.39147" stop-color="#D4F44C"/>
<stop offset="0.830086" stop-color="#ACD800"/>
</linearGradient>
</defs>
</svg>
