<svg width="60" height="67" viewBox="0 0 60 67" fill="none" xmlns="http://www.w3.org/2000/svg">
<path d="M39.7771 57.917C40.0989 58.3561 40.4466 58.8094 40.8173 59.2639C41.897 60.5876 43.2193 61.9812 44.7107 63.0585C46.1878 64.1255 47.9945 64.9998 50 64.9998C50.4539 64.9998 51.1141 64.8866 51.6759 64.3703C52.2394 63.8524 52.4032 63.2055 52.4385 62.7652C52.4995 62.0054 52.2307 61.2539 52.0462 60.7909C51.6318 59.7505 50.8727 58.3927 50.1429 57.0872L50.1075 57.024L50.0968 57.0047C49.322 55.6187 48.5273 54.1972 47.9207 52.8813C47.278 51.4871 47 50.5242 47 49.9998C47 49.926 47.0307 49.6916 47.2599 49.2353C47.4832 48.7907 47.8325 48.2568 48.3167 47.6134C48.924 46.8066 49.6184 45.9838 50.3947 45.0639C50.9111 44.4521 51.4637 43.7973 52.0511 43.0756C54.7937 39.7061 58 35.2278 58 29.9998C58 24.4069 55.3494 19.805 52.0855 16.3559C48.8288 12.9143 44.8404 10.4826 41.7944 9.16429C41.3624 8.97732 41.0926 8.70145 40.826 8.23365C40.6794 7.97651 40.5443 7.67864 40.3852 7.29994C40.351 7.21851 40.3143 7.12995 40.2757 7.03646C40.1505 6.73406 40.004 6.38016 39.8501 6.04949C39.4282 5.14326 38.7949 4.04809 37.608 3.22363C36.4145 2.39453 34.8985 1.99976 33 1.99976C29.7148 1.99976 27.785 3.75664 26.5312 5.17539C26.2242 5.52287 26.0005 5.79289 25.8114 6.02112C25.5602 6.32424 25.3702 6.55364 25.127 6.7929C25.0108 6.90727 24.9329 6.96907 24.8884 7.00041C22.9105 7.02352 20.5478 7.65667 18.1865 8.67203C15.7487 9.72028 13.171 11.2365 10.8101 13.1327C6.14659 16.8784 1.99999 22.3919 2 28.9998C2.00001 32.8661 3.65037 34.9183 5.03544 36.6406C5.16942 36.8072 5.30092 36.9707 5.4282 37.1325C6.13502 38.0309 6.74589 38.8971 7.20267 40.0521C7.65848 41.2046 8 42.7487 8 44.9998C8 47.7548 7.20358 49.0097 6.42902 49.9928C6.32534 50.1244 6.20056 50.27 6.063 50.4305C5.2531 51.3757 4 52.8382 4 54.9998C4 55.9527 4.15588 56.8862 4.61103 57.7055C5.09084 58.5692 5.80335 59.1273 6.58716 59.4632C7.31994 59.7773 8.10422 59.8937 8.79983 59.9471C9.48663 59.9999 10.2394 59.9998 10.9548 59.9998H11C11.0001 59.9998 11.0001 59.9998 11.0002 59.9998C12.2353 59.9997 13.576 59.5494 14.7238 59.0558C15.9254 58.5389 17.1573 57.8658 18.244 57.217C18.8594 56.8496 19.4395 56.4832 19.9552 56.1467C20.299 57.0019 20.7526 57.9948 21.3287 58.9967C22.8442 61.6323 25.6111 64.9998 30 64.9998C35.1048 64.9998 37.9144 61.7728 39.3402 58.8852C39.5008 58.5599 39.6459 58.2358 39.7771 57.917ZM24.8427 7.02906C24.8428 7.02894 24.8446 7.0279 24.8483 7.02628C24.8445 7.02836 24.8427 7.02917 24.8427 7.02906Z" fill="url(#paint0_linear)" stroke="#52857E" stroke-width="4" stroke-linejoin="round"/>
<path d="M32 12.9998C19 12.9998 8 17.9998 8 17.9998L16 9L33 2L54 16.9998L56 26.9998C56 26.9998 46.625 12.9998 32 12.9998Z" fill="#97D234"/>
<path d="M11 53C9 53 9 45 9 45L4 51L5 62L21 60L25 64.9994L38 61.5L51.125 64.9994L49 50H45C45 50 47 55 45 55C43 55 40.25 49.9231 37 45C37 45 38.125 57 30 57C23.5 57 22 45 22 45C17.125 49.9231 13 53 11 53Z" fill="#66D196"/>
<path d="M39.7771 57.917C40.0989 58.3561 40.4466 58.8094 40.8173 59.2639C41.897 60.5876 43.2193 61.9812 44.7107 63.0585C46.1878 64.1255 47.9945 64.9998 50 64.9998C50.4539 64.9998 51.1141 64.8866 51.6759 64.3703C52.2394 63.8524 52.4032 63.2055 52.4385 62.7652C52.4995 62.0054 52.2307 61.2539 52.0462 60.7909C51.6318 59.7505 50.8727 58.3927 50.1429 57.0872L50.1075 57.024L50.0968 57.0047C49.322 55.6187 48.5273 54.1972 47.9207 52.8813C47.278 51.4871 47 50.5242 47 49.9998C47 49.926 47.0307 49.6916 47.2599 49.2353C47.4832 48.7907 47.8325 48.2568 48.3167 47.6134C48.924 46.8066 49.6184 45.9838 50.3947 45.0639C50.9111 44.4521 51.4637 43.7973 52.0511 43.0756C54.7937 39.7061 58 35.2278 58 29.9998C58 24.4069 55.3494 19.805 52.0855 16.3559C48.8288 12.9143 44.8404 10.4826 41.7944 9.16429C41.3624 8.97732 41.0926 8.70145 40.826 8.23365C40.6794 7.97651 40.5443 7.67864 40.3852 7.29994C40.351 7.21851 40.3143 7.12995 40.2757 7.03646C40.1505 6.73406 40.004 6.38016 39.8501 6.04949C39.4282 5.14326 38.7949 4.04809 37.608 3.22363C36.4145 2.39453 34.8985 1.99976 33 1.99976C29.7148 1.99976 27.785 3.75664 26.5312 5.17539C26.2242 5.52287 26.0005 5.79289 25.8114 6.02112C25.5602 6.32424 25.3702 6.55364 25.127 6.7929C25.0108 6.90727 24.9329 6.96907 24.8884 7.00041C22.9105 7.02352 20.5478 7.65667 18.1865 8.67203C15.7487 9.72028 13.171 11.2365 10.8101 13.1327C6.14659 16.8784 1.99999 22.3919 2 28.9998C2.00001 32.8661 3.65037 34.9183 5.03544 36.6406C5.16942 36.8072 5.30092 36.9707 5.4282 37.1325C6.13502 38.0309 6.74589 38.8971 7.20267 40.0521C7.65848 41.2046 8 42.7487 8 44.9998C8 47.7548 7.20358 49.0097 6.42902 49.9928C6.32534 50.1244 6.20056 50.27 6.063 50.4305C5.2531 51.3757 4 52.8382 4 54.9998C4 55.9527 4.15588 56.8862 4.61103 57.7055C5.09084 58.5692 5.80335 59.1273 6.58716 59.4632C7.31994 59.7773 8.10422 59.8937 8.79983 59.9471C9.48663 59.9999 10.2394 59.9998 10.9548 59.9998H11C11.0001 59.9998 11.0001 59.9998 11.0002 59.9998C12.2353 59.9997 13.576 59.5494 14.7238 59.0558C15.9254 58.5389 17.1573 57.8658 18.244 57.217C18.8594 56.8496 19.4395 56.4832 19.9552 56.1467C20.299 57.0019 20.7526 57.9948 21.3287 58.9967C22.8442 61.6323 25.6111 64.9998 30 64.9998C35.1048 64.9998 37.9144 61.7728 39.3402 58.8852C39.5008 58.5599 39.6459 58.2358 39.7771 57.917ZM24.8427 7.02906C24.8428 7.02894 24.8446 7.0279 24.8483 7.02628C24.8445 7.02836 24.8427 7.02917 24.8427 7.02906Z" stroke="#52857E" stroke-width="4" stroke-linejoin="round"/>
<defs>
<linearGradient id="paint0_linear" x1="30" y1="4.28149" x2="30" y2="63.3584" gradientUnits="userSpaceOnUse">
<stop offset="0.128859" stop-color="#F8FAFC"/>
<stop offset="0.900378" stop-color="#CBFECE"/>
</linearGradient>
</defs>
</svg>
