<svg width="58" height="85" viewBox="0 0 58 85" fill="none" xmlns="http://www.w3.org/2000/svg">
<path d="M20.0179 10.4084C21.979 10.8007 21.9792 10.7999 21.9793 10.7992M20.0179 10.4084C20.0179 10.4084 20.0178 10.3203 22.0178 8.36437C22.0422 8.34058 22.0668 8.31708 22.0917 8.29386L21.9793 10.7992M20.0179 10.4084L18.0179 10.4091L21.979 10.8007M20.0179 10.4084L21.979 10.8007M21.9793 10.7992C21.9792 10.7997 21.9791 10.8002 21.979 10.8007M21.9793 10.7992L21.979 10.8007M47.1049 10.0329C47.1232 9.37613 47.1191 8.56229 47.0456 7.73177C46.9612 6.7782 46.7714 5.61576 46.2963 4.63198C45.8024 3.60941 44.7801 2.40801 43.0178 2.40803C40.0504 2.40806 38.2082 3.78266 37.1823 5.27498C37.1632 5.30266 37.1445 5.33033 37.1261 5.35797C36.4295 4.9029 35.6051 4.39094 34.7391 3.90986C33.5668 3.25864 32.2138 2.60453 30.9504 2.25994C30.3194 2.08784 29.6043 1.96258 28.8888 2.01023C28.1566 2.05899 27.2956 2.30203 26.6038 2.99367L26.0178 3.57948V4.40803V4.58017C25.8156 4.61091 25.6033 4.64722 25.3839 4.69013C24.3004 4.90206 22.8275 5.31457 21.5523 6.1772C21.3305 5.69308 21.021 5.20819 20.5883 4.77548C19.694 3.88117 18.4724 3.40845 17.0179 3.40845C16.0754 3.40845 15.1851 3.78429 14.5073 4.16852C13.7858 4.57746 13.0815 5.12404 12.464 5.72361C11.8472 6.32263 11.2668 7.02332 10.8279 7.76882C10.4065 8.48457 10.0179 9.40736 10.0179 10.4084C10.0179 10.8976 10.1265 11.4606 10.2217 11.8892C10.2819 12.1601 10.3522 12.4423 10.4256 12.7193C9.67499 12.8518 8.80983 13.0405 7.93341 13.3082C6.69855 13.6856 5.29781 14.2623 4.16944 15.1713C2.99968 16.1136 2.01785 17.5135 2.01786 19.4085C2.01787 20.8815 2.52834 22.1963 3.54164 23.1296C4.43149 23.9491 5.55247 24.3308 6.65871 24.3976L6.19018 27.2088C5.72567 27.5467 5.125 28.0467 4.52389 28.7278C3.27782 30.1396 2.02702 32.3406 2.01787 35.4025C2.01491 36.3929 2.38704 37.2517 2.77088 37.8891C3.1386 38.4996 3.59457 39.0351 4.01346 39.4655C4.00876 39.4709 4.00406 39.4764 3.99936 39.4819C3.09826 40.5331 2.01788 42.2326 2.01786 44.4084V44.4085C2.01786 44.5056 2.01774 44.6018 2.01762 44.6973C2.01546 46.4181 2.01363 47.8721 2.72901 49.3029C3.09675 50.0384 3.60897 50.6938 4.21876 51.3714C4.51447 51.7 4.85498 52.0571 5.2406 52.4511C5.14108 52.5712 5.03992 52.6969 4.93849 52.8275C4.51202 53.3764 4.05097 54.0492 3.68973 54.7884C3.33595 55.5123 3.01788 56.4209 3.01786 57.4084C3.01784 58.2584 3.23607 59.0288 3.66623 59.6741C3.87666 59.9897 4.11851 60.2467 4.36856 60.4552C4.28283 61.2196 4.43638 61.9276 4.68415 62.5293C5.19874 63.779 6.21896 64.8139 7.10098 65.5602C7.70681 66.0728 8.34688 66.5309 8.9276 66.9127C8.65499 67.2619 8.37282 67.6454 8.10374 68.049C7.55698 68.8692 6.97238 69.9066 6.70255 70.9859C6.42984 72.0767 6.40072 73.6198 7.60362 74.8227C8.42405 75.6431 9.51531 76.1408 10.4791 76.4621C11.4774 76.7948 12.5429 77.0038 13.485 77.1383C14.4051 77.2698 15.2544 77.3368 15.8833 77.3712C16.1829 77.8417 16.5778 78.4459 17.0044 79.0554C17.4575 79.7028 17.981 80.4058 18.4844 80.9651C18.7321 81.2404 19.024 81.5362 19.3394 81.7789C19.5626 81.9505 20.1804 82.4084 21.0178 82.4084C21.9433 82.4084 22.7327 82.0415 23.2428 81.7366C23.2554 81.7419 23.268 81.7473 23.2807 81.7526C23.9121 82.0176 24.9756 82.4084 26.0178 82.4084C27.5117 82.4084 28.9361 81.6142 29.7504 81.0933C29.9336 80.9761 30.1058 80.8595 30.2641 80.7479C30.5838 80.8982 30.9495 81.0669 31.3304 81.2362C31.911 81.4943 32.5527 81.7654 33.1312 81.9758C33.4196 82.0807 33.718 82.1799 34.0007 82.2553C34.2476 82.3212 34.6245 82.4088 35.0183 82.4087C36.6428 82.4083 37.967 81.6885 38.9599 80.8196C39.9401 79.9619 40.6949 78.8794 41.2543 77.9007C41.664 77.1836 41.9954 76.475 42.251 75.866C42.6931 75.9877 43.1858 76.1154 43.6931 76.2325C44.5432 76.4287 45.5079 76.6125 46.3692 76.6699C46.7962 76.6984 47.2769 76.7018 47.7419 76.6284C48.1563 76.563 48.8631 76.3919 49.4321 75.823C50.0776 75.1774 50.193 74.3671 50.2162 73.926C50.2423 73.4301 50.1742 72.9299 50.0884 72.5009C49.9144 71.6312 49.5854 70.6631 49.2595 69.8158C48.9724 69.0691 48.6633 68.3543 48.4066 67.7863C48.7545 67.3998 49.1655 66.9256 49.5796 66.4081C50.1114 65.7432 50.682 64.965 51.1293 64.1822C51.5346 63.473 52.0178 62.4612 52.0178 61.4087L52.0178 57.1325C52.7443 56.9387 53.6869 56.5678 54.432 55.8227C55.0839 55.1708 55.3774 54.2845 55.5272 53.6478C55.6945 52.9366 55.7679 52.1537 55.7679 51.4084C55.7679 50.6632 55.6945 49.8803 55.5272 49.1691C55.3774 48.5324 55.0839 47.6461 54.432 46.9942L54.3453 46.9075C54.3743 46.8796 54.4033 46.8512 54.4322 46.8223C55.5659 45.6884 55.6574 44.1793 55.5367 43.0936C55.4115 41.9665 55.0134 40.8209 54.606 39.8704C54.1892 38.8977 53.7104 38.0105 53.3424 37.375C53.3215 37.3388 53.3009 37.3033 53.2806 37.2687C53.4624 36.8472 53.6796 36.3156 53.8974 35.7167C54.4162 34.2901 55.0178 32.2701 55.0178 30.4083C55.0178 29.3363 54.9028 28.1006 54.2763 27.0983C53.9371 26.5555 53.5048 26.1611 53.0178 25.8904V24.4084C53.0178 23.0165 52.46 21.5796 51.9713 20.5594C52.4544 20.3688 52.9906 20.1276 53.453 19.8385C53.7218 19.6705 54.0544 19.4322 54.341 19.1097C54.6163 18.7998 55.0178 18.2188 55.0178 17.408C55.0178 15.7448 54.0754 14.445 53.1594 13.5576C52.2171 12.6448 51.0322 11.9011 49.9562 11.3295C48.9157 10.7767 47.8883 10.3386 47.1049 10.0329Z" fill="#FA6433" stroke="#DA4618" stroke-width="4"/>
<path d="M43.0178 4.40803C38.5178 4.40807 38.0178 8.40803 38.0178 8.40803C38.0178 8.40803 30.0178 2.40845 28.0178 4.40803C26.0178 6.40761 31.0178 11.408 31.0178 11.408C31.0178 11.408 24.0178 13.4084 24.0178 15.408C24.0178 18.4084 33.0178 17.408 33.0178 17.408C33.0178 17.408 32.0178 19.7979 32.0178 21.408C32.0178 23.0182 31.9699 24.1855 33.0178 25.408C35.291 28.0601 41.0178 21.408 41.0178 21.408C41.0178 21.408 45.9723 29.4539 48.0178 27.4084C50.0633 25.363 46.0178 18.408 46.0178 18.408C46.0178 18.408 53.0178 19.1695 53.0178 17.408C53.0178 13.9084 45.0178 11.408 45.0178 11.408C45.0178 11.408 45.7792 4.40801 43.0178 4.40803Z" fill="#FFB85A"/>
<path d="M43.0178 4.40803C38.5178 4.40807 38.0178 8.40803 38.0178 8.40803C38.0178 8.40803 30.0178 2.40845 28.0178 4.40803C26.0178 6.40761 31.0178 11.408 31.0178 11.408C31.0178 11.408 24.0178 13.4084 24.0178 15.408C24.0178 18.4084 33.0178 17.408 33.0178 17.408C33.0178 17.408 32.0178 19.7979 32.0178 21.408C32.0178 23.0182 31.9699 24.1855 33.0178 25.408C35.291 28.0601 41.0178 21.408 41.0178 21.408C41.0178 21.408 45.9723 29.4539 48.0178 27.4084C50.0633 25.363 46.0178 18.408 46.0178 18.408C46.0178 18.408 53.0178 19.1695 53.0178 17.408C53.0178 13.9084 45.0178 11.408 45.0178 11.408C45.0178 11.408 45.7792 4.40801 43.0178 4.40803Z" fill="url(#paint0_radial)"/>
<path d="M26.0179 7.40845C24.0179 5.40845 20.0179 10.4084 20.0179 10.4084C20.0179 10.4084 21.0179 5.40845 17.0179 5.40845C15.2564 5.40845 12.0179 8.40845 12.0179 10.4084C12.0178 11.4084 13.0179 14.4084 13.0179 14.4084C13.0179 14.4084 4.01782 14.9084 4.01785 19.4084C4.01787 21.4084 5.361 22.4084 7.01785 22.4084H11.0179C11.0179 22.4084 7.51788 29.9085 9.01785 31.4084C10.5178 32.9084 17.0179 24.4084 17.0179 24.4084C17.0179 24.4084 19.5173 28.4084 22.0179 28.4084C23.0179 28.4084 25.0179 25.3611 25.0179 24.4084C25.0179 21.4083 21.0179 18.4084 21.0179 18.4084C21.0179 18.4084 27.2298 15.7154 27.0179 12.4084C26.9104 10.7328 27.5177 8.90834 26.0179 7.40845Z" fill="#FFB85A"/>
<path d="M26.0179 7.40845C24.0179 5.40845 20.0179 10.4084 20.0179 10.4084C20.0179 10.4084 21.0179 5.40845 17.0179 5.40845C15.2564 5.40845 12.0179 8.40845 12.0179 10.4084C12.0178 11.4084 13.0179 14.4084 13.0179 14.4084C13.0179 14.4084 4.01782 14.9084 4.01785 19.4084C4.01787 21.4084 5.361 22.4084 7.01785 22.4084H11.0179C11.0179 22.4084 7.51788 29.9085 9.01785 31.4084C10.5178 32.9084 17.0179 24.4084 17.0179 24.4084C17.0179 24.4084 19.5173 28.4084 22.0179 28.4084C23.0179 28.4084 25.0179 25.3611 25.0179 24.4084C25.0179 21.4083 21.0179 18.4084 21.0179 18.4084C21.0179 18.4084 27.2298 15.7154 27.0179 12.4084C26.9104 10.7328 27.5177 8.90834 26.0179 7.40845Z" fill="url(#paint1_radial)"/>
<path d="M28.0178 22.4084C31.0178 22.4084 32.0178 27.4084 32.0178 27.4084C32.0178 27.4084 34.0178 25.4084 35.0178 26.4084C36.0178 27.4084 34.0178 28.4084 34.0178 28.4084H37.0178C38.0178 28.4084 39.0178 29.4084 39.0178 30.4084C39.0178 31.8165 39.0178 33.4084 37.0178 33.4084H34.0178C34.0178 33.4084 35.0178 34.5352 35.0178 35.4084C35.0178 37.4084 33.4259 37.4084 32.0178 37.4084C30.0178 37.4084 29.0178 34.4084 29.0178 34.4084C29.0178 34.4084 27.0178 37.4084 26.0178 37.4084C24.708 37.4084 23.0178 36.7183 23.0178 35.4084C23.0178 32.4084 27.0178 30.4084 27.0178 30.4084C27.0178 30.4084 24.0178 22.4086 28.0178 22.4084Z" fill="#FFB85A"/>
<path d="M28.0178 22.4084C31.0178 22.4084 32.0178 27.4084 32.0178 27.4084C32.0178 27.4084 34.0178 25.4084 35.0178 26.4084C36.0178 27.4084 34.0178 28.4084 34.0178 28.4084H37.0178C38.0178 28.4084 39.0178 29.4084 39.0178 30.4084C39.0178 31.8165 39.0178 33.4084 37.0178 33.4084H34.0178C34.0178 33.4084 35.0178 34.5352 35.0178 35.4084C35.0178 37.4084 33.4259 37.4084 32.0178 37.4084C30.0178 37.4084 29.0178 34.4084 29.0178 34.4084C29.0178 34.4084 27.0178 37.4084 26.0178 37.4084C24.708 37.4084 23.0178 36.7183 23.0178 35.4084C23.0178 32.4084 27.0178 30.4084 27.0178 30.4084C27.0178 30.4084 24.0178 22.4086 28.0178 22.4084Z" fill="url(#paint2_radial)"/>
<path d="M53.0178 30.4083C53.0178 33.4083 51.0178 37.4083 51.0178 37.4083C51.0178 37.4083 55.0178 43.4084 53.0178 45.4083C51.0178 47.4081 47.0178 45.4083 47.0178 45.4083C47.0178 45.4083 46.0178 56.4085 43.0178 53.4083C42.0178 52.4081 43.0178 45.4083 43.0178 45.4083C43.0178 45.4083 40.5178 47.4083 40.0178 47.4083C37.5178 47.4081 37.0178 46.8163 37.0178 45.4083C37.0178 41.4084 41.0178 40.4083 41.0178 40.4083C41.0178 40.4083 37.0178 36.5568 37.0178 33.4083C37.0178 31.4084 36.2714 29.408 39.0178 29.4083C40.0178 29.4084 43.0178 32.4083 43.0178 32.4083C43.0178 32.4083 41.0178 28.4081 42.0178 27.4083C43.0178 26.4084 48.0178 30.4083 48.0178 30.4083C48.0178 30.4083 48.0178 27.4083 51.0178 27.4083C52.5178 27.4083 53.0178 28.4083 53.0178 30.4083Z" fill="#FFB85A"/>
<path d="M53.0178 30.4083C53.0178 33.4083 51.0178 37.4083 51.0178 37.4083C51.0178 37.4083 55.0178 43.4084 53.0178 45.4083C51.0178 47.4081 47.0178 45.4083 47.0178 45.4083C47.0178 45.4083 46.0178 56.4085 43.0178 53.4083C42.0178 52.4081 43.0178 45.4083 43.0178 45.4083C43.0178 45.4083 40.5178 47.4083 40.0178 47.4083C37.5178 47.4081 37.0178 46.8163 37.0178 45.4083C37.0178 41.4084 41.0178 40.4083 41.0178 40.4083C41.0178 40.4083 37.0178 36.5568 37.0178 33.4083C37.0178 31.4084 36.2714 29.408 39.0178 29.4083C40.0178 29.4084 43.0178 32.4083 43.0178 32.4083C43.0178 32.4083 41.0178 28.4081 42.0178 27.4083C43.0178 26.4084 48.0178 30.4083 48.0178 30.4083C48.0178 30.4083 48.0178 27.4083 51.0178 27.4083C52.5178 27.4083 53.0178 28.4083 53.0178 30.4083Z" fill="url(#paint3_radial)"/>
<path d="M17.0179 31.4084C15.6098 31.4084 14.0179 33.4084 14.0179 33.4084C14.0179 33.4084 13.0178 25.4084 10.0179 25.4084C8.51784 25.4084 9.01785 31.4084 9.01785 31.4084C9.01785 31.4084 4.04816 31.4084 4.01785 35.4084C4.00306 37.361 7.01785 39.4084 7.01785 39.4084C7.01785 39.4084 4.01788 41.4084 4.01785 44.4084C4.01784 45.4084 3.78291 47.4084 5.01785 47.4084C6.01782 47.4084 9.01785 45.4084 9.01785 45.4084C9.01785 45.4084 7.97781 47.7988 8.01785 49.4084C8.07015 51.5108 9.01785 54.4084 10.0179 54.4084C13.0178 54.4084 12.0179 46.4084 12.0179 46.4084C12.0179 46.4084 13.9133 48.4084 15.0179 48.4084C17.0178 48.4084 19.0178 48.4084 19.0179 47.4084C19.0179 44.4084 17.0179 42.4084 17.0179 42.4084C17.0179 42.4084 20.0179 39.0282 20.0179 36.4084V36.4084C20.0178 33.9084 20.0178 31.4085 17.0179 31.4084Z" fill="#FFB85A"/>
<path d="M17.0179 31.4084C15.6098 31.4084 14.0179 33.4084 14.0179 33.4084C14.0179 33.4084 13.0178 25.4084 10.0179 25.4084C8.51784 25.4084 9.01785 31.4084 9.01785 31.4084C9.01785 31.4084 4.04816 31.4084 4.01785 35.4084C4.00306 37.361 7.01785 39.4084 7.01785 39.4084C7.01785 39.4084 4.01788 41.4084 4.01785 44.4084C4.01784 45.4084 3.78291 47.4084 5.01785 47.4084C6.01782 47.4084 9.01785 45.4084 9.01785 45.4084C9.01785 45.4084 7.97781 47.7988 8.01785 49.4084C8.07015 51.5108 9.01785 54.4084 10.0179 54.4084C13.0178 54.4084 12.0179 46.4084 12.0179 46.4084C12.0179 46.4084 13.9133 48.4084 15.0179 48.4084C17.0178 48.4084 19.0178 48.4084 19.0179 47.4084C19.0179 44.4084 17.0179 42.4084 17.0179 42.4084C17.0179 42.4084 20.0179 39.0282 20.0179 36.4084V36.4084C20.0178 33.9084 20.0178 31.4085 17.0179 31.4084Z" fill="url(#paint4_radial)"/>
<path d="M37.0178 35.4086C33.0173 31.4084 29.0178 41.4086 29.0178 41.4086C29.0178 41.4086 22.0178 34.4086 20.0178 36.4086C18.0178 38.4087 22.0178 46.4086 22.0178 46.4086C22.0178 46.4086 13.0178 42.9086 13.0178 48.4086C13.0178 53.4293 22.0178 53.4086 22.0178 53.4086C22.0178 53.4086 17.0178 60.4086 20.0178 63.4086C22.0178 65.4087 29.0178 57.4086 29.0178 57.4086C29.0178 57.4086 34.0178 66.4086 37.0178 63.4086C39.0178 61.4086 35.0178 53.4086 35.0178 53.4086C35.0178 53.4086 47.0177 51.4086 47.0178 48.4086C47.0178 46.9086 41.0178 47.4086 41.0178 47.4086C41.0178 47.4086 45.0178 42.4087 43.0178 40.4086C40.4127 37.8035 35.0178 45.4086 35.0178 45.4086C35.0178 45.4086 39.0177 37.4084 37.0178 35.4086Z" fill="#FFB85A"/>
<path d="M37.0178 35.4086C33.0173 31.4084 29.0178 41.4086 29.0178 41.4086C29.0178 41.4086 22.0178 34.4086 20.0178 36.4086C18.0178 38.4087 22.0178 46.4086 22.0178 46.4086C22.0178 46.4086 13.0178 42.9086 13.0178 48.4086C13.0178 53.4293 22.0178 53.4086 22.0178 53.4086C22.0178 53.4086 17.0178 60.4086 20.0178 63.4086C22.0178 65.4087 29.0178 57.4086 29.0178 57.4086C29.0178 57.4086 34.0178 66.4086 37.0178 63.4086C39.0178 61.4086 35.0178 53.4086 35.0178 53.4086C35.0178 53.4086 47.0177 51.4086 47.0178 48.4086C47.0178 46.9086 41.0178 47.4086 41.0178 47.4086C41.0178 47.4086 45.0178 42.4087 43.0178 40.4086C40.4127 37.8035 35.0178 45.4086 35.0178 45.4086C35.0178 45.4086 39.0177 37.4084 37.0178 35.4086Z" fill="url(#paint5_radial)"/>
<path d="M15.0178 61.4084C15.0178 61.4084 10.0178 56.4085 7.01784 59.4084C4.01789 62.4084 12.0178 66.4084 12.0178 66.4084C12.0178 66.4084 7.01782 71.4084 9.01782 73.4084C11.0178 75.4084 17.0178 73.4084 17.0178 73.4084C17.0178 73.4084 19.0178 80.4084 21.0178 80.4084C23.0178 80.4084 23.0179 78.8165 23.0178 77.4084C23.0178 75.4084 22.0178 73.4084 22.0178 73.4084C22.0178 73.4084 23.7829 74.4084 25.0178 74.4084C27.0178 74.4084 27.0179 71.5115 27.0178 69.4084C27.0178 67.9084 24.0178 67.4084 24.0178 67.4084C24.0178 67.4084 27.0178 64.4084 26.0178 63.4084C25.0178 62.4084 20.0178 64.4084 20.0178 64.4084C20.0178 64.4084 18.0178 57.4084 16.0178 57.4084C14.0179 57.4085 15.0178 61.4084 15.0178 61.4084Z" fill="#FFB85A"/>
<path d="M15.0178 61.4084C15.0178 61.4084 10.0178 56.4085 7.01784 59.4084C4.01789 62.4084 12.0178 66.4084 12.0178 66.4084C12.0178 66.4084 7.01782 71.4084 9.01782 73.4084C11.0178 75.4084 17.0178 73.4084 17.0178 73.4084C17.0178 73.4084 19.0178 80.4084 21.0178 80.4084C23.0178 80.4084 23.0179 78.8165 23.0178 77.4084C23.0178 75.4084 22.0178 73.4084 22.0178 73.4084C22.0178 73.4084 23.7829 74.4084 25.0178 74.4084C27.0178 74.4084 27.0179 71.5115 27.0178 69.4084C27.0178 67.9084 24.0178 67.4084 24.0178 67.4084C24.0178 67.4084 27.0178 64.4084 26.0178 63.4084C25.0178 62.4084 20.0178 64.4084 20.0178 64.4084C20.0178 64.4084 18.0178 57.4084 16.0178 57.4084C14.0179 57.4085 15.0178 61.4084 15.0178 61.4084Z" fill="url(#paint6_radial)"/>
<path d="M43.0178 56.4087C38.0178 56.4087 37.0178 65.4087 37.0178 65.4087C37.0178 65.4087 33.0178 63.4088 32.0178 64.4087C31.0178 65.4087 33.0178 68.4087 33.0178 68.4087C33.0178 68.4087 25.0178 73.4087 27.0178 75.4087C30.0179 78.4087 35.0178 73.4087 35.0178 73.4087C35.0178 73.4087 34.0178 79.4087 35.0178 80.4087C37.0179 82.4087 41.0178 73.4087 41.0178 73.4087C41.0178 73.4087 47.0178 75.4087 48.0178 74.4087C49.0178 73.4087 46.0178 67.4087 46.0178 67.4087C46.0178 67.4087 50.0178 63.4086 50.0178 61.4087C50.0178 59.4087 50.0178 59.4087 48.0178 59.4087C44.9148 59.4086 43.0178 61.4087 43.0178 61.4087C43.0178 61.4087 44.0178 56.4087 43.0178 56.4087Z" fill="#FFB85A"/>
<path d="M43.0178 56.4087C38.0178 56.4087 37.0178 65.4087 37.0178 65.4087C37.0178 65.4087 33.0178 63.4088 32.0178 64.4087C31.0178 65.4087 33.0178 68.4087 33.0178 68.4087C33.0178 68.4087 25.0178 73.4087 27.0178 75.4087C30.0179 78.4087 35.0178 73.4087 35.0178 73.4087C35.0178 73.4087 34.0178 79.4087 35.0178 80.4087C37.0179 82.4087 41.0178 73.4087 41.0178 73.4087C41.0178 73.4087 47.0178 75.4087 48.0178 74.4087C49.0178 73.4087 46.0178 67.4087 46.0178 67.4087C46.0178 67.4087 50.0178 63.4086 50.0178 61.4087C50.0178 59.4087 50.0178 59.4087 48.0178 59.4087C44.9148 59.4086 43.0178 61.4087 43.0178 61.4087C43.0178 61.4087 44.0178 56.4087 43.0178 56.4087Z" fill="url(#paint7_radial)"/>
<defs>
<radialGradient id="paint0_radial" cx="0" cy="0" r="1" gradientUnits="userSpaceOnUse" gradientTransform="translate(38.5178 15.8707) rotate(90) scale(11.8707 14.5)">
<stop offset="0.422696" stop-color="#FF8534"/>
<stop offset="0.912479" stop-color="#FFB85A"/>
</radialGradient>
<radialGradient id="paint1_radial" cx="0" cy="0" r="1" gradientUnits="userSpaceOnUse" gradientTransform="translate(19.5178 18.4084) rotate(106.818) scale(13.7663 12.1131)">
<stop offset="0.179585" stop-color="#FF8534"/>
<stop offset="1" stop-color="#FFB85A"/>
</radialGradient>
<radialGradient id="paint2_radial" cx="0" cy="0" r="1" gradientUnits="userSpaceOnUse" gradientTransform="translate(31.0178 29.9084) rotate(90) scale(9.5 13.1131)">
<stop offset="0.381791" stop-color="#FF8534"/>
<stop offset="1" stop-color="#FFB85A"/>
</radialGradient>
<radialGradient id="paint3_radial" cx="0" cy="0" r="1" gradientUnits="userSpaceOnUse" gradientTransform="translate(45.0178 37.4084) rotate(89.1894) scale(16.5199 10.3115)">
<stop offset="0.160055" stop-color="#FF8534"/>
<stop offset="0.669595" stop-color="#FFB85A"/>
</radialGradient>
<radialGradient id="paint4_radial" cx="0" cy="0" r="1" gradientUnits="userSpaceOnUse" gradientTransform="translate(12.0089 39.9084) rotate(89.9745) scale(20 11.0468)">
<stop offset="0.415353" stop-color="#FF8534"/>
<stop offset="1" stop-color="#FFB85A"/>
</radialGradient>
<radialGradient id="paint5_radial" cx="0" cy="0" r="1" gradientUnits="userSpaceOnUse" gradientTransform="translate(28.5178 49.4084) rotate(84.1391) scale(14.6892 16.8974)">
<stop offset="0.254442" stop-color="#FF8534"/>
<stop offset="0.568527" stop-color="#FFB85A"/>
</radialGradient>
<radialGradient id="paint6_radial" cx="0" cy="0" r="1" gradientUnits="userSpaceOnUse" gradientTransform="translate(19.0178 67.4084) rotate(100.189) scale(13.2083 11.872)">
<stop offset="0.239116" stop-color="#FF8534"/>
<stop offset="0.777594" stop-color="#FFB85A"/>
</radialGradient>
<radialGradient id="paint7_radial" cx="0" cy="0" r="1" gradientUnits="userSpaceOnUse" gradientTransform="translate(38.3573 68.5537) rotate(90) scale(12.145 11.6605)">
<stop offset="0.276444" stop-color="#FF8534"/>
<stop offset="1" stop-color="#FFB85A"/>
</radialGradient>
</defs>
</svg>
