<svg width="73" height="70" viewBox="0 0 73 70" fill="none" xmlns="http://www.w3.org/2000/svg">
<path d="M16.3935 51.8989C16.3116 52.0925 16.2274 52.2964 16.143 52.5072C15.8785 53.1686 15.6022 53.9246 15.3895 54.6693C15.1854 55.3836 15 56.2205 15 57C15 58.8016 15.8925 60.3817 17.0052 61.6334C18.1329 62.9021 19.6421 64.0153 21.2695 64.9307C24.4991 66.7473 28.5845 68 32 68C35.623 68 39.55 65.9525 42.3238 64.1873C43.7652 63.27 45.0051 62.3562 45.8842 61.6724C46.0173 61.5689 46.1423 61.4705 46.2588 61.3779C46.5656 61.5238 46.9176 61.6838 47.2998 61.8441C48.5268 62.3592 50.3403 63 52 63C54.0578 63 56.194 62.2983 58.1642 61.2748C60.1545 60.2409 62.0997 58.8145 63.8082 57.2064C65.5158 55.5993 67.0342 53.7663 68.1381 51.8887C69.2263 50.0379 70 47.9928 70 46C70 44.8838 69.5696 43.8451 69.1262 43.0414C68.6652 42.2059 68.0767 41.4233 67.5298 40.774C67.142 40.3135 66.757 39.8987 66.4216 39.5549C66.4802 39.4264 66.542 39.2898 66.6066 39.1455C67.0888 38.0686 67.7317 36.558 68.3755 34.8196C69.6396 31.4065 71 26.8757 71 23C71 19.4343 70.009 16.7309 68.332 14.7714C66.6762 12.8365 64.5155 11.8181 62.5033 11.2948C60.4958 10.7728 58.5315 10.7146 57.102 10.7757C56.5158 10.8008 56.0071 10.8466 55.6064 10.8926C55.3115 10.6511 54.932 10.3484 54.4764 10.0019C53.3162 9.11952 51.6532 7.94559 49.6293 6.77043C45.6212 4.44317 40.0092 2.00001 34 2C30.4124 1.99999 27.2384 3.49182 24.5745 5.53923C21.9148 7.5833 19.6565 10.2602 17.8435 12.8543C16.0234 15.4587 14.6038 18.0501 13.6409 19.9833C13.1652 20.9383 12.798 21.7387 12.5463 22.3088C12.3258 22.3729 12.0768 22.4495 11.805 22.5401C10.7745 22.8837 9.38139 23.4388 7.97101 24.285C5.16975 25.9658 2 29.006 2 34C2 39.9814 6.42658 44.7525 10.2506 47.8117C12.226 49.3921 14.1905 50.6352 15.6557 51.4817C15.9178 51.6332 16.1647 51.7723 16.3935 51.8989Z" fill="#780AB8" stroke="#42006E" stroke-width="4"/>
<g filter="url(#filter0_ddd)">
<path d="M44.9999 7.99976C35.9999 7.99976 35.9999 22.9998 35.9999 22.9998C35.9999 22.9998 29 12.9998 23.9999 12.9998C18.0469 12.9998 12.9999 23.0467 12.9999 26.9998C12.9999 32 17.9999 35.9998 17.9999 35.9998C17.9999 35.9998 11.0001 35 10.9999 38.9998C10.9998 42 19.9999 54.9998 25.9999 54.9998C28.9999 54.9998 32.9999 51.9998 32.9999 51.9998C32.9999 51.9998 31.9999 54.9998 31.9999 56.9998C31.9999 58.9998 36.6633 59.9998 39.9999 59.9998C43.9999 59.9998 55.9999 54.9857 55.9999 51.9998C55.9999 50 52.9999 46.9998 52.9999 46.9998C52.9999 46.9998 65.9999 49 65.9999 29.9998C65.9999 27 65.9999 22.9998 62.9999 22.9998C60.8969 22.9998 57.9999 24.9998 57.9999 24.9998C57.9999 24.9998 59.9999 7.99976 44.9999 7.99976Z" fill="#9629CC"/>
</g>
<path fill-rule="evenodd" clip-rule="evenodd" d="M53.1581 47.0189C53.4741 46.5936 53.8887 46.2418 54.3753 45.9986L54.5535 45.9096C55.895 45.2392 56.6055 43.7395 56.2746 42.2767C56.0419 41.2481 56.3216 40.1704 57.0252 39.3847L57.1257 39.2725C58.1245 38.1571 58.2038 36.494 57.3157 35.2886C56.6932 34.4437 56.5321 33.3407 56.8831 32.3518C57.3934 30.914 56.808 29.3057 55.4929 28.5323C54.5883 28.0004 54.0028 27.0518 53.9366 26.0045C53.8421 24.5102 52.7123 23.2872 51.2302 23.0748L51.0811 23.0534C50.0371 22.9038 49.1301 22.2581 48.6471 21.3205C47.9604 19.9872 46.4521 19.2951 44.9935 19.6439L44.7999 19.6902C43.7592 19.939 42.6621 19.6869 41.8345 19.0087C40.6501 18.0382 38.9652 17.9724 37.7087 18.8476L37.6007 18.9229C37.1981 19.2033 36.7477 19.3938 36.2789 19.4896C35.9999 21.5198 35.9999 22.9998 35.9999 22.9998C35.9999 22.9998 34.8064 21.2947 33.0529 19.2927C32.0517 19.426 31.1273 19.983 30.5466 20.8666C29.9502 21.7742 28.9722 22.3598 27.8906 22.4571L27.7594 22.4689C26.2343 22.6061 24.9859 23.7395 24.7024 25.2443C24.5044 26.2958 23.826 27.1941 22.8689 27.6724L22.6908 27.7614C21.3492 28.4318 20.6387 29.9315 20.9696 31.3943C21.2023 32.423 20.9226 33.5006 20.219 34.2863L20.1186 34.3985C19.1197 35.5139 19.0404 37.177 19.9285 38.3824C20.551 39.2273 20.7122 40.3303 20.3612 41.3192C19.8508 42.7571 20.4362 44.3653 21.7513 45.1387C22.6559 45.6706 23.2415 46.6192 23.3077 47.6665C23.4021 49.1608 24.5319 50.3838 26.0141 50.5962L26.1631 50.6176C27.2071 50.7672 28.1141 51.4129 28.5971 52.3505C28.9293 52.9956 29.4539 53.4905 30.0721 53.7901C31.7236 52.9571 32.9999 51.9998 32.9999 51.9998C32.9999 51.9998 32.7106 52.8677 32.4433 53.9811L32.4443 53.9808C33.485 53.732 34.5821 53.9841 35.4097 54.6623C36.5941 55.6328 38.279 55.6986 39.5355 54.8234L39.6435 54.7481C40.5346 54.1274 41.6603 53.9474 42.7005 54.2592C44.208 54.7111 45.8333 54.1195 46.6976 52.8044C47.294 51.8968 48.2721 51.3112 49.3536 51.2139L49.4848 51.2021C51.0099 51.065 52.2583 49.9315 52.5418 48.4267C52.6327 47.944 52.8249 47.4936 53.0988 47.1012C53.0355 47.0353 52.9999 46.9998 52.9999 46.9998C52.9999 46.9998 53.055 47.0083 53.1581 47.0189Z" fill="#A038C7"/>
<path d="M33.2053 24.2946C33.8951 23.245 35.1923 22.7728 36.3954 23.1335C37.2256 23.3824 38.124 23.2387 38.8351 22.7433L38.9214 22.6832C39.9241 21.9847 41.2689 22.0372 42.2141 22.8118C42.8746 23.353 43.7502 23.5543 44.5808 23.3557L44.7353 23.3187C45.8994 23.0404 47.1031 23.5927 47.6512 24.6568C48.0367 25.4051 48.7605 25.9205 49.5937 26.0398L49.7127 26.0569C50.8956 26.2264 51.7973 27.2025 51.8727 28.3951C51.9255 29.2309 52.3928 29.9879 53.1148 30.4125C54.1644 31.0297 54.6315 32.3133 54.2242 33.4608C53.9441 34.25 54.0727 35.1303 54.5695 35.8046C55.2783 36.7666 55.215 38.094 54.4178 38.9841L54.3377 39.0737C53.7761 39.7007 53.5529 40.5608 53.7386 41.3818C54.0027 42.5492 53.4357 43.7461 52.365 44.2811L52.2228 44.3521C51.459 44.7339 50.9176 45.4509 50.7595 46.29C50.5333 47.491 49.5369 48.3956 48.3197 48.5051L48.2151 48.5145C47.3519 48.5921 46.5713 49.0595 46.0953 49.7838C45.4055 50.8334 44.1084 51.3056 42.9053 50.9449C42.0751 50.696 41.1767 50.8397 40.4655 51.3351L40.3793 51.3951C39.3765 52.0937 38.0318 52.0412 37.0865 51.2666C36.426 50.7253 35.5504 50.5241 34.7199 50.7227L34.5654 50.7597C33.4013 51.038 32.1975 50.4856 31.6494 49.4216C31.264 48.6733 30.5401 48.1579 29.7069 48.0385L29.588 48.0215C28.4051 47.852 27.5034 46.8759 27.428 45.6833C27.3752 44.8474 26.9078 44.0904 26.1859 43.6659C25.1363 43.0486 24.6692 41.7651 25.0764 40.6176C25.3566 39.8284 25.228 38.948 24.7312 38.2738C24.0223 37.3118 24.0856 35.9844 24.8828 35.0942L24.963 35.0047C25.5245 34.3777 25.7478 33.5176 25.562 32.6966C25.298 31.5292 25.865 30.3323 26.9357 29.7973L27.0778 29.7262C27.8417 29.3445 28.3831 28.6275 28.5412 27.7883C28.7674 26.5874 29.7638 25.6828 30.9809 25.5733L31.0856 25.5639C31.9488 25.4863 32.7294 25.0189 33.2053 24.2946Z" fill="#AB3DD4"/>
<ellipse cx="38.5" cy="38" rx="8.5" ry="7" transform="rotate(-20 38.5 38)" fill="#201035"/>
<circle cx="41.5" cy="28.5" r="1.5" fill="#201035"/>
<circle cx="46.5" cy="30.5" r="1.5" fill="#201035"/>
<circle cx="49.5" cy="34.5" r="1.5" fill="#201035"/>
<circle cx="49.5" cy="39.5" r="1.5" fill="#201035"/>
<circle cx="46.5" cy="44.5" r="1.5" fill="#201035"/>
<circle cx="41.5" cy="47.5" r="1.5" fill="#201035"/>
<circle cx="35.5" cy="47.5" r="1.5" fill="#201035"/>
<circle cx="30.5" cy="45.5" r="1.5" fill="#201035"/>
<circle cx="27.5" cy="41.5" r="1.5" fill="#201035"/>
<circle cx="27.5" cy="36.5" r="1.5" fill="#201035"/>
<circle cx="30.5" cy="31.5" r="1.5" fill="#201035"/>
<circle cx="35.5" cy="28.5" r="1.5" fill="#201035"/>
<path d="M16.3935 51.8989C16.3116 52.0925 16.2274 52.2964 16.143 52.5072C15.8785 53.1686 15.6022 53.9246 15.3895 54.6693C15.1854 55.3836 15 56.2205 15 57C15 58.8016 15.8925 60.3817 17.0052 61.6334C18.1329 62.9021 19.6421 64.0153 21.2695 64.9307C24.4991 66.7473 28.5845 68 32 68C35.623 68 39.55 65.9525 42.3238 64.1873C43.7652 63.27 45.0051 62.3562 45.8842 61.6724C46.0173 61.5689 46.1423 61.4705 46.2588 61.3779C46.5656 61.5238 46.9176 61.6838 47.2998 61.8441C48.5268 62.3592 50.3403 63 52 63C54.0578 63 56.194 62.2983 58.1642 61.2748C60.1545 60.2409 62.0997 58.8145 63.8082 57.2064C65.5158 55.5993 67.0342 53.7663 68.1381 51.8887C69.2263 50.0379 70 47.9928 70 46C70 44.8838 69.5696 43.8451 69.1262 43.0414C68.6652 42.2059 68.0767 41.4233 67.5298 40.774C67.142 40.3135 66.757 39.8987 66.4216 39.5549C66.4802 39.4264 66.542 39.2898 66.6066 39.1455C67.0888 38.0686 67.7317 36.558 68.3755 34.8196C69.6396 31.4065 71 26.8757 71 23C71 19.4343 70.009 16.7309 68.332 14.7714C66.6762 12.8365 64.5155 11.8181 62.5033 11.2948C60.4958 10.7728 58.5315 10.7146 57.102 10.7757C56.5158 10.8008 56.0071 10.8466 55.6064 10.8926C55.3115 10.6511 54.932 10.3484 54.4764 10.0019C53.3162 9.11952 51.6532 7.94559 49.6293 6.77043C45.6212 4.44317 40.0092 2.00001 34 2C30.4124 1.99999 27.2384 3.49182 24.5745 5.53923C21.9148 7.5833 19.6565 10.2602 17.8435 12.8543C16.0234 15.4587 14.6038 18.0501 13.6409 19.9833C13.1652 20.9383 12.798 21.7387 12.5463 22.3088C12.3258 22.3729 12.0768 22.4495 11.805 22.5401C10.7745 22.8837 9.38139 23.4388 7.97101 24.285C5.16975 25.9658 2 29.006 2 34C2 39.9814 6.42658 44.7525 10.2506 47.8117C12.226 49.3921 14.1905 50.6352 15.6557 51.4817C15.9178 51.6332 16.1647 51.7723 16.3935 51.8989Z" stroke="#42006E" stroke-width="4"/>
<defs>
<filter id="filter0_ddd" x="4.99994" y="3.99976" width="67" height="60" filterUnits="userSpaceOnUse" color-interpolation-filters="sRGB">
<feFlood flood-opacity="0" result="BackgroundImageFix"/>
<feColorMatrix in="SourceAlpha" type="matrix" values="0 0 0 0 0 0 0 0 0 0 0 0 0 0 0 0 0 0 127 0"/>
<feOffset dy="2"/>
<feGaussianBlur stdDeviation="1"/>
<feColorMatrix type="matrix" values="0 0 0 0 0.360784 0 0 0 0 0.0156863 0 0 0 0 0.607843 0 0 0 1 0"/>
<feBlend mode="normal" in2="BackgroundImageFix" result="effect1_dropShadow"/>
<feColorMatrix in="SourceAlpha" type="matrix" values="0 0 0 0 0 0 0 0 0 0 0 0 0 0 0 0 0 0 127 0"/>
<feOffset dx="2"/>
<feGaussianBlur stdDeviation="2"/>
<feColorMatrix type="matrix" values="0 0 0 0 0.360784 0 0 0 0 0.0156863 0 0 0 0 0.607843 0 0 0 1 0"/>
<feBlend mode="normal" in2="effect1_dropShadow" result="effect2_dropShadow"/>
<feColorMatrix in="SourceAlpha" type="matrix" values="0 0 0 0 0 0 0 0 0 0 0 0 0 0 0 0 0 0 127 0"/>
<feOffset dx="-2"/>
<feGaussianBlur stdDeviation="2"/>
<feColorMatrix type="matrix" values="0 0 0 0 0.360784 0 0 0 0 0.0156863 0 0 0 0 0.607843 0 0 0 1 0"/>
<feBlend mode="normal" in2="effect2_dropShadow" result="effect3_dropShadow"/>
<feBlend mode="normal" in="SourceGraphic" in2="effect3_dropShadow" result="shape"/>
</filter>
</defs>
</svg>
