<svg width="72" height="72" viewBox="0 0 72 72" fill="none" xmlns="http://www.w3.org/2000/svg">
<path d="M63.1105 25.7078C63.1366 25.0581 63.1407 24.2334 63.0822 23.2833C62.9385 20.9509 62.4138 17.7997 60.8591 14.6212C59.2927 11.4188 56.6966 8.22584 52.4909 5.85204C48.302 3.48778 42.6311 2.00001 35 2C24.2305 1.99999 18.544 5.70662 15.6576 9.85835C14.2525 11.8795 13.5905 13.897 13.2787 15.4084C13.2234 15.6765 13.1788 15.9297 13.143 16.1654C10.2051 16.689 7.66328 18.3883 5.8142 20.2952C4.68398 21.4607 3.75204 22.7623 3.09379 24.0514C2.44997 25.3122 2.00001 26.6953 2 28C1.99999 29.9497 2.61912 31.7454 3.17587 32.9838C3.37528 33.4273 3.57468 33.8168 3.75055 34.1372C3.56611 34.5741 3.34205 35.1321 3.11734 35.7589C2.60521 37.1873 2 39.2123 2 41C2 45.5826 3.76619 48.2478 5.8906 49.6641C6.41977 50.0169 6.94643 50.2753 7.43449 50.4649C7.20305 51.4268 7 52.6516 7 54C7 58.1613 9.61423 61.451 12.8261 63.5998C16.0523 65.7581 20.1896 67 24 67C25.4388 67 27.3388 66.7211 28.7802 66.4704C29.5094 66.3436 30.1593 66.217 30.6319 66.1211C30.7576 66.1953 30.8983 66.2769 31.0528 66.3645C31.7587 66.765 32.7615 67.2966 33.9626 67.8286C36.3278 68.8764 39.6256 70 43 70C46.0842 70 49.2508 68.5242 51.5845 66.7523C52.7726 65.8502 53.8308 64.8079 54.6106 63.7185C55.361 62.6703 56 61.3725 56 60V59H57C59.9749 59 62.2504 56.9391 63.6515 54.8878C65.0771 52.8006 66 50.1646 66 48V44.8084C66.0328 44.773 66.0665 44.7363 66.1012 44.6983C66.5096 44.2515 67.0575 43.6167 67.6098 42.8675C68.63 41.4837 70 39.274 70 37C70 32.324 67.9198 29.2971 65.8016 27.4815C64.8316 26.6501 63.866 26.0805 63.1105 25.7078Z" fill="#D1262E" stroke="#65282C" stroke-width="4"/>
<path d="M8.03175 50.147C7.76511 51.1325 7.5 52.4881 7.5 54C7.5 57.9335 9.97121 61.0883 13.1042 63.1842C16.2478 65.2874 20.2883 66.5 24 66.5C25.3916 66.5 27.2541 66.2283 28.6945 65.9778C29.4306 65.8498 30.0856 65.722 30.5568 65.6262C30.6144 65.6144 30.6692 65.6032 30.7212 65.5925C30.882 65.689 31.0759 65.8028 31.2995 65.9296C31.9942 66.3238 32.9821 66.8475 34.1651 67.3715C36.5034 68.4073 39.7267 69.5 43 69.5C45.9381 69.5 49.0006 68.0864 51.2821 66.3541C52.4388 65.4758 53.4591 64.4682 54.2041 63.4275C54.927 62.4176 55.5 61.2226 55.5 60V58.5H57C59.7311 58.5 61.8753 56.6018 63.2386 54.6058C64.6204 52.5829 65.5 50.0434 65.5 48V44.6111C65.5711 44.5358 65.6489 44.4522 65.7322 44.361C66.1322 43.9233 66.6681 43.3023 67.2074 42.5708C68.2225 41.1938 69.5 39.0991 69.5 37C69.5 32.493 67.5023 29.5978 65.4762 27.8611C64.4786 27.006 63.4848 26.4385 62.7387 26.0832C62.5965 26.0155 62.4628 25.9553 62.3389 25.9019C62.2803 25.5908 62.2022 25.2109 62.1005 24.7803C61.8204 23.5941 61.3551 21.9928 60.6136 20.375C59.1669 17.2187 56.411 13.5 51.5 13.5C44.6816 13.5 40.6992 19.348 38.5062 24.403C37.8283 25.9657 37.289 27.5226 36.8662 28.9346C36.8947 26.9644 36.8029 24.6196 36.4179 22.2586C35.9298 19.2649 34.9482 16.1028 33.011 13.6614C31.0196 11.1517 28.0894 9.49999 24 9.5C20.1652 9.50001 17.5304 11.5968 15.9231 13.5456C15.1171 14.5227 14.5413 15.4929 14.1667 16.2168C14.1058 16.3344 14.05 16.446 13.9992 16.5506C10.8733 16.8661 8.13763 18.6174 6.17315 20.6433C5.07548 21.7752 4.1734 23.0366 3.5391 24.2788C2.9156 25.4998 2.50001 26.8027 2.5 28C2.49999 29.8502 3.08934 31.5719 3.6319 32.7787C3.87149 33.3116 4.11107 33.764 4.30684 34.1075C4.11042 34.5627 3.84956 35.1981 3.588 35.9276C3.07891 37.3476 2.5 39.3038 2.5 41C2.5 45.437 4.19964 47.9359 6.16795 49.2481C6.81795 49.6814 7.46472 49.9632 8.03175 50.147Z" fill="#DB2C31" stroke="#AA161A" stroke-width="3"/>
<path d="M36.2969 35.3684L34.7031 34.5614C34.7031 34.5614 37.4922 16 25.9375 16C20.7955 16 18.7656 21.6491 18.7656 21.6491C13.9844 21.6491 10 26.8947 10 29.7193C9.99999 32.2235 11.5938 34.5614 11.5938 34.5614C11.5938 34.5614 10 37.9161 10 40.2105C10 46.6667 14.7812 46.6667 14.7812 46.6667C14.7812 46.6667 13.9844 48.4732 13.9844 50.7018C13.9844 55.9474 20.4937 59.5789 25.9375 59.5789C27.9297 59.5789 31.5156 58.7719 31.5156 58.7719C31.5156 58.7719 36.3449 62 41.0781 62C45.0625 62 49.8438 58.039 49.8438 55.5439V53.1228H52.2344C55.4219 53.1228 57.8125 48.5708 57.8125 45.8596V42.6316C57.8125 42.6316 61 39.5234 61 36.9825C61 30.5263 55.4219 28.9123 55.4219 28.9123C55.4219 28.9123 54.2266 19.2281 47.8516 19.2281C38.5702 19.2281 36.2969 35.3684 36.2969 35.3684Z" fill="#891B28"/>
<path d="M36.1094 35.7368L34.8906 35.1228C34.8906 35.1228 37.0234 21 28.1875 21C24.2554 21 22.7031 25.2982 22.7031 25.2982C19.0469 25.2982 16 29.2895 16 31.4386C16 33.344 17.2188 35.1228 17.2188 35.1228C17.2188 35.1228 16 37.6753 16 39.4211C16 44.3333 19.6562 44.3333 19.6562 44.3333C19.6562 44.3333 19.0469 45.7079 19.0469 47.4035C19.0469 51.3947 24.0246 54.1579 28.1875 54.1579C29.7109 54.1579 32.4531 53.5439 32.4531 53.5439C32.4531 53.5439 36.1461 56 39.7656 56C42.8125 56 46.4688 52.9862 46.4688 51.0877V49.2456H48.2969C50.7344 49.2456 52.5625 45.7821 52.5625 43.7193V41.2632C52.5625 41.2632 55 38.8982 55 36.9649C55 32.0526 50.7344 30.8246 50.7344 30.8246C50.7344 30.8246 49.8203 23.4561 44.9453 23.4561C37.8478 23.4561 36.1094 35.7368 36.1094 35.7368Z" fill="#4D1B3D"/>
<path d="M43 69.5C45.7682 69.5 48.589 68.6993 50.7572 67.1226C52.9561 65.5235 54.5 63.1001 54.5 60C54.5 58.3182 53.6743 56.2707 52.5443 54.2947C51.3799 52.2587 49.763 50.0777 47.9152 48.0737C46.0689 46.0714 43.9545 44.2051 41.7784 42.8288C39.6256 41.4671 37.2783 40.5 35 40.5C28.3172 40.5 21.5895 42.4462 16.5204 44.9697C13.9854 46.2317 11.8066 47.6669 10.2363 49.1286C8.74277 50.5189 7.5 52.2118 7.5 54C7.5 57.9335 9.97121 61.0883 13.1042 63.1842C16.2478 65.2874 20.2883 66.5 24 66.5C25.3916 66.5 27.2541 66.2283 28.6945 65.9778C29.4306 65.8498 30.0856 65.722 30.5568 65.6262C30.6144 65.6144 30.6692 65.6032 30.7212 65.5925C30.882 65.689 31.0759 65.8028 31.2995 65.9296C31.9942 66.3238 32.9821 66.8475 34.1651 67.3715C36.5034 68.4073 39.7267 69.5 43 69.5Z" stroke="black" stroke-opacity="0.2" stroke-width="3"/>
<path d="M63.1105 25.7078C63.1366 25.0581 63.1407 24.2334 63.0822 23.2833C62.9385 20.9509 62.4138 17.7997 60.8591 14.6212C59.2927 11.4188 56.6966 8.22584 52.4909 5.85204C48.302 3.48778 42.6311 2.00001 35 2C24.2305 1.99999 18.544 5.70662 15.6576 9.85835C14.2525 11.8795 13.5905 13.897 13.2787 15.4084C13.2234 15.6765 13.1788 15.9297 13.143 16.1654C10.2051 16.689 7.66328 18.3883 5.8142 20.2952C4.68398 21.4607 3.75204 22.7623 3.09379 24.0514C2.44997 25.3122 2.00001 26.6953 2 28C1.99999 29.9497 2.61912 31.7454 3.17587 32.9838C3.37528 33.4273 3.57468 33.8168 3.75055 34.1372C3.56611 34.5741 3.34205 35.1321 3.11734 35.7589C2.60521 37.1873 2 39.2123 2 41C2 45.5826 3.76619 48.2478 5.8906 49.6641C6.41977 50.0169 6.94643 50.2753 7.43449 50.4649C7.20305 51.4268 7 52.6516 7 54C7 58.1613 9.61423 61.451 12.8261 63.5998C16.0523 65.7581 20.1896 67 24 67C25.4388 67 27.3388 66.7211 28.7802 66.4704C29.5094 66.3436 30.1593 66.217 30.6319 66.1211C30.7576 66.1953 30.8983 66.2769 31.0528 66.3645C31.7587 66.765 32.7615 67.2966 33.9626 67.8286C36.3278 68.8764 39.6256 70 43 70C46.0842 70 49.2508 68.5242 51.5845 66.7523C52.7726 65.8502 53.8308 64.8079 54.6106 63.7185C55.361 62.6703 56 61.3725 56 60V59H57C59.9749 59 62.2504 56.9391 63.6515 54.8878C65.0771 52.8006 66 50.1646 66 48V44.8084C66.0328 44.773 66.0665 44.7363 66.1012 44.6983C66.5096 44.2515 67.0575 43.6167 67.6098 42.8675C68.63 41.4837 70 39.274 70 37C70 32.324 67.9198 29.2971 65.8016 27.4815C64.8316 26.6501 63.866 26.0805 63.1105 25.7078Z" stroke="#65282C" stroke-width="4"/>
<circle cx="35" cy="38" r="4" fill="#EFC749"/>
</svg>
