<svg width="81" height="82" viewBox="0 0 81 82" fill="none" xmlns="http://www.w3.org/2000/svg">
<path d="M54.4495 14.7376C54.3954 14.6509 54.3388 14.5615 54.2797 14.4697C53.5721 13.3698 52.4977 11.9049 51.0237 10.4371C48.0714 7.49711 43.462 4.5 37 4.5C35.3795 4.5 32.963 4.76454 30.9007 5.45198C29.8735 5.79438 28.8294 6.2756 28.0155 6.9643C27.1789 7.67216 26.5 8.68292 26.5 10C26.5 10.7767 26.8781 11.3847 27.3866 11.7717C27.8295 12.1088 28.3409 12.2616 28.7288 12.343C29.4796 12.5006 30.3608 12.5002 30.9373 12.5C30.9586 12.5 30.9795 12.5 31 12.5C31.3069 12.5 31.9338 12.7842 32.7052 14.3271C33.4143 15.7451 33.9768 17.7186 34.4058 19.8025C34.8303 21.8643 35.1054 23.9382 35.2743 25.5046C35.3371 26.0876 35.385 26.5976 35.4203 27.0072C35.2498 27.073 35.0611 27.1454 34.8566 27.2233C33.8812 27.5949 32.5518 28.0895 31.1322 28.5833C29.7093 29.0782 28.2126 29.5664 26.898 29.929C25.5313 30.306 24.5232 30.5 24 30.5L23.9287 30.5C22.7168 30.4998 20.8093 30.4996 19.1839 30.9236C18.3476 31.1417 17.4433 31.5057 16.7295 32.1591C15.9651 32.8587 15.5 33.8197 15.5 35C15.5 35.3828 15.5748 35.7739 15.6611 36.1086C14.2489 35.9165 12.4044 35.7159 10.5455 35.6595C8.62914 35.6014 6.55891 35.6906 4.9167 36.1783C4.09256 36.423 3.25782 36.8018 2.61048 37.4178C1.92092 38.074 1.5 38.9512 1.5 40C1.5 41.497 2.15497 42.6461 3.24413 43.3932C4.23125 44.0703 5.48245 44.3561 6.66039 44.4903C7.8664 44.6278 9.18942 44.6248 10.4406 44.5933C10.9043 44.5816 11.3518 44.5663 11.7853 44.5516C12.5645 44.525 13.2984 44.5 14 44.5C19.5615 44.5 24.7592 47.061 28.6502 49.7361C30.5802 51.0629 32.1504 52.3915 33.2364 53.387C33.7787 53.884 34.1981 54.2962 34.4793 54.581C34.5314 54.6339 34.5788 54.6823 34.6213 54.726L34.6619 54.9163C34.7438 55.3005 34.8608 55.8506 35.0013 56.5139C35.2823 57.8407 35.6567 59.6195 36.0311 61.4289C36.4057 63.2395 36.7792 65.0758 37.0586 66.5194C37.1985 67.2422 37.3133 67.8589 37.3927 68.3218C37.4529 68.6731 37.4803 68.8701 37.492 68.9543C37.4981 68.9983 37.5 69.0116 37.5 69C37.5 69.9316 37.0831 70.524 36.3071 71.5418L36.275 71.584C35.5321 72.5579 34.5 73.9111 34.5 76C34.5 77.5819 35.3222 78.7676 36.4179 79.4981C37.4692 80.1989 38.7775 80.5 40 80.5C46.8571 80.5 50.5114 75.8592 52.3742 71.6012C53.3088 69.4651 53.836 67.3476 54.1306 65.7764C54.1702 65.5652 54.2057 65.3632 54.2375 65.1717C55.0905 65.5772 56.1462 66.1271 57.1938 66.7947C58.3798 67.5505 59.4957 68.4199 60.3003 69.3553C61.1088 70.2954 61.5 71.1791 61.5 72C61.5 73.3548 61.9668 74.5284 62.8625 75.3533C63.738 76.1597 64.8783 76.5 66 76.5C67.3021 76.5 68.4112 76.1244 69.2828 75.3851C70.1291 74.6673 70.6261 73.7129 70.9287 72.7668C71.5008 70.9781 71.5003 68.7832 71.5 67.1183L71.5 67.0001V67C71.5 62.6934 70.1569 58.9596 68.8416 56.3292C68.3905 55.4269 67.939 54.6471 67.5388 54.0098C68.7796 53.7148 70.4034 53.2667 72.0403 52.6347C73.7348 51.9804 75.5352 51.0945 76.9367 49.9108C78.3435 48.7224 79.5 47.0958 79.5 45C79.5 42.5762 78.573 40.9517 77.5607 39.9393C77.3928 39.7715 77.2248 39.6225 77.0613 39.4908C77.1516 39.3263 77.2448 39.1507 77.3381 38.9664C77.8519 37.9521 78.5 36.4302 78.5 35C78.5 30.4602 74.5921 28.12 71.5267 26.9705C69.9768 26.3893 68.4432 26.0307 67.2789 25.8146C67.6162 25.0912 68.0089 24.19 68.4017 23.159C69.4322 20.454 70.5 16.7593 70.5 13C70.5 11.7998 70.0985 9.10522 69.0939 6.67664C68.1407 4.37228 66.2895 1.50001 63 1.5C62.9737 1.5 62.946 1.49993 62.9169 1.49986C62.4869 1.49882 61.7654 1.49706 61.1507 1.70197C60.7796 1.82564 60.3332 2.0569 59.9878 2.50096C59.6324 2.95799 59.5 3.49061 59.5 4C59.5 5.11057 59.8453 5.94333 60.0922 6.53891L60.1068 6.57417C60.3579 7.1802 60.4942 7.53455 60.5001 8.01841C60.5008 8.07353 60.4782 8.25736 60.3142 8.59976C60.1564 8.92892 59.9085 9.32069 59.5714 9.76414C58.8967 10.6518 57.9646 11.6172 56.9892 12.5295C56.0806 13.3794 55.1664 14.1536 54.4495 14.7376Z" fill="#FCD800" stroke="#5E5600" stroke-width="3"/>
<path d="M53.0928 17.4208L53.093 17.4212L53.0931 17.4213L53.6104 18.5388L54.5982 17.8013L54 17C54.5982 17.8013 54.5984 17.8012 54.5985 17.8011L54.599 17.8008L54.6005 17.7997L54.6056 17.7958L54.6244 17.7817L54.6949 17.7284C54.756 17.682 54.8447 17.6142 54.9571 17.5273C55.1818 17.3535 55.5014 17.1028 55.8843 16.7929C56.6489 16.1741 57.6717 15.3142 58.6969 14.3553C59.7171 13.4011 60.7643 12.3259 61.5616 11.277C61.9605 10.7524 62.3134 10.2128 62.5686 9.68024C62.8196 9.15655 63.0071 8.57598 62.9999 7.98772C62.9877 6.99467 62.6781 6.24811 62.4354 5.66306L62.4164 5.6173C62.1771 5.03959 62.0111 4.61521 62.0005 4.05706C62.0743 4.0395 62.1813 4.02347 62.3321 4.01341C62.5273 4.0004 62.7429 4 63 4C64.6022 4 65.8681 5.41849 66.7838 7.63224C67.6653 9.76319 68 12.1335 68 13C68 16.3272 67.0452 19.6973 66.0655 22.269C65.5784 23.5478 65.0912 24.6132 64.7269 25.357C64.5449 25.7286 64.394 26.0191 64.2895 26.215C64.2373 26.3129 64.1968 26.387 64.1698 26.4357L64.1398 26.4895L64.133 26.5017L64.1318 26.5039L64.1316 26.5041L64.1316 26.5041L64.1315 26.5043L63.3533 27.8662L64.9164 27.9965L64.9165 27.9965L64.9169 27.9965L64.917 27.9965L64.9211 27.9969L64.9421 27.9988C64.9616 28.0006 64.992 28.0035 65.0325 28.0077C65.1136 28.016 65.2353 28.0294 65.3916 28.0489C65.7045 28.088 66.1551 28.1518 66.6973 28.2497C67.786 28.4463 69.2233 28.7767 70.6489 29.3113C73.6053 30.42 76 32.1932 76 35C76 35.7991 75.5987 36.8678 75.1079 37.8368C74.8734 38.2997 74.6379 38.7028 74.461 38.9901C74.3728 39.1333 74.2999 39.2465 74.2499 39.3227C74.2249 39.3608 74.2057 39.3895 74.1933 39.408L74.1797 39.428L74.1771 39.4319L74.177 39.432L74.1769 39.4321L74.1768 39.4323L74.1767 39.4324L73.4206 40.5276L74.6765 40.9462C74.6774 40.9466 74.6787 40.9471 74.6803 40.9477C74.6837 40.949 74.6884 40.9508 74.6944 40.9531C74.7044 40.9571 74.7181 40.9627 74.735 40.9699C74.789 40.9931 74.8753 41.033 74.9831 41.0929C75.1998 41.2133 75.4958 41.41 75.7929 41.7071C76.368 42.2822 77 43.2826 77 45C77 46.0866 76.4168 47.0774 75.3235 48.0009C74.2265 48.9274 72.7184 49.693 71.1398 50.3025C69.5723 50.9077 67.9953 51.3365 66.8041 51.6144C66.2102 51.753 65.7162 51.8531 65.3723 51.9182C65.2005 51.9508 65.0664 51.9746 64.9764 51.9901C64.9629 51.9925 64.9504 51.9946 64.9389 51.9965C64.9121 52.0011 64.8907 52.0046 64.8752 52.0072L64.851 52.0111L64.8457 52.012L64.8451 52.0121L64.8448 52.0121L53.0928 17.4208ZM53.0928 17.4208L53.0925 17.4201L53.0918 17.4185L53.0836 17.4015C53.0758 17.3851 53.0629 17.3587 53.0451 17.323C53.0095 17.2516 52.954 17.1431 52.8781 17.0027C52.7264 16.7218 52.4938 16.3143 52.1773 15.8223C51.5432 14.8368 50.5783 13.5217 49.2597 12.2086C46.6253 9.58526 42.6149 7 37 7C35.5803 7 33.4414 7.2403 31.6912 7.82368C30.8135 8.11625 30.1033 8.47252 29.6303 8.87276C29.2408 9.20236 29.0579 9.51775 29.0119 9.83355C29.0705 9.85464 29.1466 9.87624 29.2423 9.89632C29.7159 9.99572 30.3534 10 31 10C32.8787 10 34.1275 11.5814 34.9413 13.209C35.7967 14.9199 36.4113 17.1459 36.8545 19.2983C37.3006 21.4655 37.586 23.6245 37.7599 25.2365C37.8469 26.0439 37.9064 26.7173 37.9441 27.19C37.963 27.4263 37.9764 27.6127 37.9852 27.7406C37.9896 27.8046 37.9928 27.854 37.995 27.8878L37.9974 27.9266L37.998 27.937L37.9982 27.9399L37.9982 27.9408C37.9983 27.9411 37.9983 27.9413 37 28M53.0928 17.4208L64.2318 53.6402M64.2318 53.6402L64.2314 53.6398L64.2318 53.6402ZM64.2318 53.6402L64.2321 53.6406L64.2395 53.6496C64.2467 53.6584 64.2585 53.6729 64.2745 53.693C64.3065 53.7332 64.3555 53.7955 64.419 53.879C64.5461 54.046 64.7312 54.2976 64.955 54.6258C65.4031 55.283 66.004 56.2441 66.6056 57.4472C67.8121 59.8603 69 63.2044 69 67V67.0001C69 68.792 68.9904 70.6206 68.5475 72.0053C68.3326 72.6773 68.0389 73.162 67.6656 73.4786C67.3092 73.7809 66.7986 74 66 74C65.3671 74 64.8773 73.8102 64.5561 73.5144C64.2484 73.2311 64 72.7635 64 72C64 70.3581 63.2191 68.9151 62.1957 67.7252C61.1695 66.5321 59.8301 65.5103 58.5374 64.6865C57.2382 63.8584 55.9457 63.205 54.982 62.7597C54.4989 62.5364 54.0953 62.3639 53.8107 62.2467C53.6684 62.188 53.5556 62.143 53.4774 62.1124C53.4382 62.097 53.4077 62.0852 53.3864 62.0771L53.3615 62.0676L53.3543 62.0649L53.3521 62.064L53.3513 62.0637C53.351 62.0636 53.3508 62.0635 53 63L53.3508 62.0635L52.0862 61.5898L52.002 62.9369L52.002 62.9371L52.0019 62.9376L52.0016 62.9433L51.9995 62.9715C51.9976 62.9977 51.9944 63.0383 51.9896 63.0925C51.9802 63.2009 51.9645 63.3634 51.9403 63.5722C51.8918 63.99 51.8091 64.5917 51.6734 65.3157C51.401 66.7683 50.9191 68.6899 50.0838 70.5992C48.4091 74.4272 45.4286 78 40 78C39.1483 78 38.3539 77.7841 37.8047 77.4179C37.2852 77.0716 37 76.6121 37 76C37 74.8045 37.5418 74.0458 38.2952 73.0576C38.3162 73.0301 38.3373 73.0024 38.3586 72.9745C39.0827 72.0264 40 70.8252 40 69C40 68.7692 39.9323 68.3405 39.8567 67.8994C39.7729 67.4105 39.6541 66.7734 39.513 66.0444C39.2305 64.5849 38.8545 62.7361 38.4793 60.9224C38.1038 59.1078 37.7285 57.325 37.4471 55.996C37.3063 55.3314 37.189 54.7801 37.1069 54.395L37.0116 53.9484L36.9996 53.8922C36.949 47.4249 32.3517 42.947 27.9072 40.1534C25.6504 38.7348 23.3688 37.7072 21.5883 37.0335C20.697 36.6962 19.9245 36.4451 19.3353 36.2768C19.0413 36.1928 18.7869 36.1276 18.5822 36.0825C18.5598 36.0776 18.5365 36.0725 18.5124 36.0675C18.4561 35.9965 18.3938 35.9129 18.332 35.8203C18.1153 35.4951 18 35.1994 18 35C18 34.5369 18.1587 34.2401 18.4173 34.0033C18.7096 33.7358 19.1745 33.5097 19.8149 33.3426C21.1056 33.0059 22.7215 33 24 33C24.9012 33 26.2083 32.7126 27.5628 32.339C28.952 31.9558 30.5063 31.4479 31.9535 30.9445C33.403 30.4403 34.7563 29.9367 35.7466 29.5595C36.2421 29.3707 36.6473 29.2134 36.9291 29.103C37.07 29.0478 37.1801 29.0044 37.2552 28.9747L37.3411 28.9406L37.3634 28.9317L37.3692 28.9294L37.3707 28.9287L37.3712 28.9286C37.3713 28.9285 37.3714 28.9285 37 28M37 28L37.3714 28.9285L38.0406 28.6608L37.9983 27.9413L37 28Z" fill="#FFEC00" stroke="#FFDD00" stroke-width="2"/>
<path d="M49 15C49 22 37 26 37 32L58 33L59 32L76 39L77 38C77 38 69 33 69 29C69 26.6245 68 21 68 21C63 21 61 14 61 10L55 15L49 9V15Z" fill="#FFD700"/>
<path d="M53.0928 17.4208L53.093 17.4212L53.0931 17.4213L53.6104 18.5388L54.5982 17.8013L54 17C54.5982 17.8013 54.5984 17.8012 54.5985 17.8011L54.599 17.8008L54.6005 17.7997L54.6056 17.7958L54.6244 17.7817L54.6949 17.7284C54.756 17.682 54.8447 17.6142 54.9571 17.5273C55.1818 17.3535 55.5014 17.1028 55.8843 16.7929C56.6489 16.1741 57.6717 15.3142 58.6969 14.3553C59.7171 13.4011 60.7643 12.3259 61.5616 11.277C61.9605 10.7524 62.3134 10.2128 62.5686 9.68024C62.8196 9.15655 63.0071 8.57598 62.9999 7.98772C62.9877 6.99467 62.6781 6.24811 62.4354 5.66306L62.4164 5.6173C62.1771 5.03959 62.0111 4.61521 62.0005 4.05706C62.0743 4.0395 62.1813 4.02347 62.3321 4.01341C62.5273 4.0004 62.7429 4 63 4C64.6022 4 65.8681 5.41849 66.7838 7.63224C67.6653 9.76319 68 12.1335 68 13C68 16.3272 67.0452 19.6973 66.0655 22.269C65.5784 23.5478 65.0912 24.6132 64.7269 25.357C64.5449 25.7286 64.394 26.0191 64.2895 26.215C64.2373 26.3129 64.1968 26.387 64.1698 26.4357L64.1398 26.4895L64.133 26.5017L64.1318 26.5039L64.1316 26.5041L64.1316 26.5041L64.1315 26.5043L63.3533 27.8662L64.9164 27.9965L64.9165 27.9965L64.9169 27.9965L64.917 27.9965L64.9211 27.9969L64.9421 27.9988C64.9616 28.0006 64.992 28.0035 65.0325 28.0077C65.1136 28.016 65.2353 28.0294 65.3916 28.0489C65.7045 28.088 66.1551 28.1518 66.6973 28.2497C67.786 28.4463 69.2233 28.7767 70.6489 29.3113C73.6053 30.42 76 32.1932 76 35C76 35.7991 75.5987 36.8678 75.1079 37.8368C74.8734 38.2997 74.6379 38.7028 74.461 38.9901C74.3728 39.1333 74.2999 39.2465 74.2499 39.3227C74.2249 39.3608 74.2057 39.3895 74.1933 39.408L74.1797 39.428L74.1771 39.4319L74.177 39.432L74.1769 39.4321L74.1768 39.4323L74.1767 39.4324L73.4206 40.5276L74.6742 40.9454L74.6752 40.9458C74.6756 40.9459 74.676 40.9461 74.6765 40.9463C74.6775 40.9466 74.6787 40.9471 74.6803 40.9477C74.6893 40.9511 74.708 40.9584 74.735 40.9699C74.789 40.9931 74.8753 41.033 74.9831 41.0929C75.1998 41.2133 75.4958 41.41 75.7929 41.7071C76.368 42.2822 77 43.2826 77 45C77 46.0866 76.4168 47.0774 75.3235 48.0009C74.2265 48.9274 72.7184 49.693 71.1398 50.3025C69.5723 50.9077 67.9953 51.3365 66.8041 51.6144C66.2102 51.753 65.7162 51.8531 65.3723 51.9182C65.2005 51.9508 65.0664 51.9746 64.9764 51.9901C64.9582 51.9933 64.9419 51.996 64.9274 51.9985C64.9059 52.0021 64.8885 52.005 64.8752 52.0072L64.851 52.0111L64.8457 52.012L64.8451 52.0121L64.8448 52.0121L53.0928 17.4208ZM53.0928 17.4208L53.0925 17.4201L53.0918 17.4185L53.0836 17.4015C53.0758 17.3851 53.0629 17.3587 53.0451 17.323C53.0095 17.2516 52.954 17.1431 52.8781 17.0027C52.7264 16.7218 52.4938 16.3143 52.1773 15.8223C51.5432 14.8368 50.5783 13.5217 49.2597 12.2086C46.6253 9.58526 42.6149 7 37 7C35.5803 7 33.4414 7.2403 31.6912 7.82368C30.8135 8.11625 30.1033 8.47252 29.6303 8.87276C29.2408 9.20236 29.0579 9.51775 29.0119 9.83355C29.0705 9.85464 29.1466 9.87624 29.2423 9.89632C29.7159 9.99572 30.3534 10 31 10C32.8787 10 34.1275 11.5814 34.9413 13.209C35.7967 14.9199 36.4113 17.1459 36.8545 19.2983C37.3006 21.4655 37.586 23.6245 37.7599 25.2365C37.8469 26.0439 37.9064 26.7173 37.9441 27.19C37.963 27.4263 37.9764 27.6127 37.9852 27.7406C37.9896 27.8046 37.9928 27.854 37.995 27.8878L37.9974 27.9266L37.998 27.937L37.9982 27.9399L37.9982 27.9408C37.9983 27.9411 37.9983 27.9413 37 28M53.0928 17.4208L64.2318 53.6402M64.2318 53.6402L64.2314 53.6398L64.2318 53.6402ZM64.2318 53.6402L64.2321 53.6406L64.2395 53.6496C64.2467 53.6584 64.2585 53.6729 64.2745 53.693C64.3065 53.7332 64.3555 53.7955 64.419 53.879C64.5461 54.046 64.7312 54.2976 64.955 54.6258C65.4031 55.283 66.004 56.2441 66.6056 57.4472C67.8121 59.8603 69 63.2044 69 67V67.0001C69 68.792 68.9904 70.6206 68.5475 72.0053C68.3326 72.6773 68.0389 73.162 67.6656 73.4786C67.3092 73.7809 66.7986 74 66 74C65.3671 74 64.8773 73.8102 64.5561 73.5144C64.2484 73.2311 64 72.7635 64 72C64 70.3581 63.2191 68.9151 62.1957 67.7252C61.1695 66.5321 59.8301 65.5103 58.5374 64.6865C57.2382 63.8584 55.9457 63.205 54.982 62.7597C54.4989 62.5364 54.0953 62.3639 53.8107 62.2467C53.6684 62.188 53.5556 62.143 53.4774 62.1124C53.4382 62.097 53.4077 62.0852 53.3864 62.0771L53.3615 62.0676L53.3543 62.0649L53.3521 62.064L53.3513 62.0637C53.351 62.0636 53.3508 62.0635 53 63L53.3508 62.0635L52.0862 61.5898L52.002 62.9369L52.002 62.9371L52.0019 62.9376L52.0016 62.9433L51.9995 62.9715C51.9976 62.9977 51.9944 63.0383 51.9896 63.0925C51.9802 63.2009 51.9645 63.3634 51.9403 63.5722C51.8918 63.99 51.8091 64.5917 51.6734 65.3157C51.401 66.7683 50.9191 68.6899 50.0838 70.5992C48.4091 74.4272 45.4286 78 40 78C39.1483 78 38.3539 77.7841 37.8047 77.4179C37.2852 77.0716 37 76.6121 37 76C37 74.8045 37.5418 74.0458 38.2952 73.0576C38.3162 73.0301 38.3373 73.0024 38.3586 72.9745C39.0827 72.0264 40 70.8252 40 69C40 68.7692 39.9323 68.3405 39.8567 67.8994C39.7729 67.4105 39.6541 66.7734 39.513 66.0444C39.2305 64.5849 38.8545 62.7361 38.4793 60.9224C38.1038 59.1078 37.7285 57.325 37.4471 55.996C37.3063 55.3314 37.189 54.7801 37.1069 54.395L37.0116 53.9484L36.9865 53.8309L36.98 53.8007L36.9784 53.7931L36.9779 53.7911L36.9778 53.7906C36.9778 53.7905 36.9778 53.7905 36 54M36 54L36.9778 53.7905L36.9213 53.5268L36.7399 53.3273L36 54ZM36 54C36.7399 53.3273 36.7397 53.3271 36.7394 53.3268L36.7387 53.326L36.7365 53.3236L36.7295 53.3159L36.7044 53.2887C36.6829 53.2655 36.6518 53.2322 36.6114 53.1894C36.5306 53.1039 36.4123 52.9806 36.2586 52.8249C35.9512 52.5135 35.5017 52.0721 34.9257 51.5441C33.7747 50.489 32.1132 49.083 30.0665 47.676C25.9939 44.876 20.2924 42 14 42C13.2596 42 12.4475 42.0275 11.6369 42.055C11.2133 42.0693 10.79 42.0837 10.3776 42.0941C9.14507 42.1251 7.96733 42.1231 6.9435 42.0064C5.90094 41.8876 5.13914 41.6615 4.65824 41.3316C4.24537 41.0484 4 40.6687 4 40C4 39.6763 4.11001 39.4419 4.3339 39.2289C4.58593 38.989 5.006 38.7597 5.62845 38.5748C6.8774 38.2039 8.62224 38.1024 10.4697 38.1584C12.2954 38.2138 14.1315 38.4192 15.5182 38.6125C16.2097 38.7089 16.7855 38.8018 17.1873 38.8703C17.3881 38.9046 17.5453 38.9327 17.6515 38.9522C17.7046 38.9619 17.7449 38.9694 17.7715 38.9745L17.8012 38.9801L17.8081 38.9814L17.8095 38.9817L17.8096 38.9817L17.8097 38.9817L19.8021 39.3682L18.8946 37.5531L18.8946 37.553L18.8945 37.5529L18.8944 37.5528L18.8944 37.5527L18.893 37.5499L18.8861 37.536L18.8576 37.4774C18.8324 37.4253 18.7959 37.3485 18.7517 37.2528C18.663 37.0606 18.5454 36.7958 18.4285 36.5036C18.3108 36.2093 18.1989 35.8998 18.1178 35.6159C18.0323 35.3168 18 35.1103 18 35C18 34.5369 18.1587 34.2401 18.4173 34.0033C18.7096 33.7358 19.1745 33.5097 19.8149 33.3426C21.1056 33.0059 22.7215 33 24 33C24.9012 33 26.2083 32.7126 27.5628 32.339C28.952 31.9558 30.5063 31.4479 31.9535 30.9445C33.403 30.4403 34.7563 29.9367 35.7466 29.5595C36.2421 29.3707 36.6473 29.2134 36.9291 29.103C37.07 29.0478 37.1801 29.0044 37.2552 28.9747L37.3411 28.9406L37.3634 28.9317L37.3692 28.9294L37.3707 28.9287L37.3712 28.9286C37.3713 28.9285 37.3714 28.9285 37 28M37 28L37.3714 28.9285L38.0406 28.6608L37.9983 27.9413L37 28Z" stroke="#FFDD00" stroke-width="2"/>
<path d="M51 52H43L54 60L51 52Z" fill="#FFD600"/>
<path d="M47 24.9998C52.5 24.9998 54 18.9998 55 18.9998C57.9816 18.9998 51 51.9998 51 51.9998C51 51.9998 49 52.9998 46 52.9998C39.3496 52.9998 35 45.9998 35 39.9998C35 30.9998 42 24.9998 47 24.9998Z" fill="#FFD700"/>
<path d="M47 24.9998C52.5 24.9998 54 18.9998 55 18.9998C57.9816 18.9998 51 51.9998 51 51.9998C51 51.9998 49 52.9998 46 52.9998C39.3496 52.9998 35 45.9998 35 39.9998C35 30.9998 42 24.9998 47 24.9998Z" fill="url(#paint0_radial)"/>
<path d="M47 24.9998C52.5 24.9998 54 18.9998 55 18.9998C57.9816 18.9998 51 51.9998 51 51.9998C51 51.9998 49 52.9998 46 52.9998C39.3496 52.9998 35 45.9998 35 39.9998C35 30.9998 42 24.9998 47 24.9998Z" fill="url(#paint1_linear)"/>
<ellipse cx="51.7801" cy="36.1042" rx="8.5" ry="2" transform="rotate(-27 51.7801 36.1042)" fill="#4B3D31"/>
<ellipse cx="49.616" cy="48.4323" rx="8" ry="2" transform="rotate(-150 49.616 48.4323)" fill="#4B3D31"/>
<ellipse cx="54.5151" cy="41.1737" rx="8.5" ry="2" transform="rotate(-12 54.5151 41.1737)" fill="#4B3D31"/>
<ellipse cx="47.5868" cy="44.008" rx="6.5" ry="2" transform="rotate(10 47.5868 44.008)" fill="#4B3D31"/>
<g filter="url(#filter0_dd)">
<ellipse cx="57.433" cy="45.2501" rx="3.5" ry="2" transform="rotate(30 57.433 45.2501)" fill="#FAF960"/>
</g>
<circle cx="61" cy="45" r="1" fill="#FFFAA4"/>
<path d="M17.9048 38.4908L18 38L17.9048 38.4908L18.5 38.6063V38V37.6046C18.6235 37.6358 18.765 37.6738 18.9232 37.719C19.4694 37.8751 20.2023 38.1128 21.0574 38.4364C22.7687 39.0839 24.956 40.0701 27.1089 41.4233C31.1046 43.9349 34.8745 47.6385 35.4299 52.7071C35.1913 52.4751 34.9097 52.2076 34.5879 51.9127C33.4499 50.8695 31.8066 49.479 29.7833 48.088C25.7469 45.313 20.1462 42.5 14 42.5C13.2674 42.5 12.4714 42.527 11.6667 42.5543C11.2409 42.5687 10.8127 42.5833 10.3902 42.5939C9.15394 42.6251 7.94715 42.6241 6.88687 42.5032C5.81724 42.3813 4.95756 42.1432 4.37542 41.7439C3.82729 41.368 3.5 40.8343 3.5 40C3.5 39.5313 3.67219 39.1683 3.98921 38.8666C4.32031 38.5516 4.82331 38.2924 5.4861 38.0955C6.8137 37.7012 8.62362 37.6022 10.4848 37.6586C12.3352 37.7147 14.1908 37.9226 15.5872 38.1173C16.2845 38.2145 16.8654 38.3082 17.2714 38.3774C17.4743 38.4121 17.6335 38.4406 17.7415 38.4603C17.7955 38.4702 17.8367 38.4779 17.8643 38.4831L17.8951 38.489L17.9027 38.4904L17.9044 38.4908L17.9048 38.4908Z" fill="#FCD800"/>
<path d="M17.9048 38.4908L18 38L17.9048 38.4908L18.5 38.6063V38V37.6046C18.6235 37.6358 18.765 37.6738 18.9232 37.719C19.4694 37.8751 20.2023 38.1128 21.0574 38.4364C22.7687 39.0839 24.956 40.0701 27.1089 41.4233C31.1046 43.9349 34.8745 47.6385 35.4299 52.7071C35.1913 52.4751 34.9097 52.2076 34.5879 51.9127C33.4499 50.8695 31.8066 49.479 29.7833 48.088C25.7469 45.313 20.1462 42.5 14 42.5C13.2674 42.5 12.4714 42.527 11.6667 42.5543C11.2409 42.5687 10.8127 42.5833 10.3902 42.5939C9.15394 42.6251 7.94715 42.6241 6.88687 42.5032C5.81724 42.3813 4.95756 42.1432 4.37542 41.7439C3.82729 41.368 3.5 40.8343 3.5 40C3.5 39.5313 3.67219 39.1683 3.98921 38.8666C4.32031 38.5516 4.82331 38.2924 5.4861 38.0955C6.8137 37.7012 8.62362 37.6022 10.4848 37.6586C12.3352 37.7147 14.1908 37.9226 15.5872 38.1173C16.2845 38.2145 16.8654 38.3082 17.2714 38.3774C17.4743 38.4121 17.6335 38.4406 17.7415 38.4603C17.7955 38.4702 17.8367 38.4779 17.8643 38.4831L17.8951 38.489L17.9027 38.4904L17.9044 38.4908L17.9048 38.4908Z" fill="url(#paint2_linear)"/>
<path d="M17.9048 38.4908L18 38L17.9048 38.4908L18.5 38.6063V38V37.6046C18.6235 37.6358 18.765 37.6738 18.9232 37.719C19.4694 37.8751 20.2023 38.1128 21.0574 38.4364C22.7687 39.0839 24.956 40.0701 27.1089 41.4233C31.1046 43.9349 34.8745 47.6385 35.4299 52.7071C35.1913 52.4751 34.9097 52.2076 34.5879 51.9127C33.4499 50.8695 31.8066 49.479 29.7833 48.088C25.7469 45.313 20.1462 42.5 14 42.5C13.2674 42.5 12.4714 42.527 11.6667 42.5543C11.2409 42.5687 10.8127 42.5833 10.3902 42.5939C9.15394 42.6251 7.94715 42.6241 6.88687 42.5032C5.81724 42.3813 4.95756 42.1432 4.37542 41.7439C3.82729 41.368 3.5 40.8343 3.5 40C3.5 39.5313 3.67219 39.1683 3.98921 38.8666C4.32031 38.5516 4.82331 38.2924 5.4861 38.0955C6.8137 37.7012 8.62362 37.6022 10.4848 37.6586C12.3352 37.7147 14.1908 37.9226 15.5872 38.1173C16.2845 38.2145 16.8654 38.3082 17.2714 38.3774C17.4743 38.4121 17.6335 38.4406 17.7415 38.4603C17.7955 38.4702 17.8367 38.4779 17.8643 38.4831L17.8951 38.489L17.9027 38.4904L17.9044 38.4908L17.9048 38.4908Z" stroke="#FFDE00"/>
<path d="M35.5 53.9999C35.5 43.4999 20 38.4999 19 38.4999" stroke="#D7B900"/>
<path d="M54.4495 14.7376C54.3954 14.6509 54.3388 14.5615 54.2797 14.4697C53.5721 13.3698 52.4977 11.9049 51.0237 10.4371C48.0714 7.49711 43.462 4.5 37 4.5C35.3795 4.5 32.963 4.76454 30.9007 5.45198C29.8735 5.79438 28.8294 6.2756 28.0155 6.9643C27.1789 7.67216 26.5 8.68292 26.5 10C26.5 10.7767 26.8781 11.3847 27.3866 11.7717C27.8295 12.1088 28.3409 12.2616 28.7288 12.343C29.4796 12.5006 30.3608 12.5002 30.9373 12.5C30.9586 12.5 30.9795 12.5 31 12.5C31.3069 12.5 31.9338 12.7842 32.7052 14.3271C33.4143 15.7451 33.9768 17.7186 34.4058 19.8025C34.8303 21.8643 35.1054 23.9382 35.2743 25.5046C35.3371 26.0876 35.385 26.5976 35.4203 27.0072C35.2498 27.073 35.0611 27.1454 34.8566 27.2233C33.8812 27.5949 32.5518 28.0895 31.1322 28.5833C29.7093 29.0782 28.2126 29.5664 26.898 29.929C25.5313 30.306 24.5232 30.5 24 30.5L23.9287 30.5C22.7168 30.4998 20.8093 30.4996 19.1839 30.9236C18.3476 31.1417 17.4433 31.5057 16.7295 32.1591C15.9651 32.8587 15.5 33.8197 15.5 35C15.5 35.3828 15.5748 35.7739 15.6611 36.1086C14.2489 35.9165 12.4044 35.7159 10.5455 35.6595C8.62914 35.6014 6.55891 35.6906 4.9167 36.1783C4.09256 36.423 3.25782 36.8018 2.61048 37.4178C1.92092 38.074 1.5 38.9512 1.5 40C1.5 41.497 2.15497 42.6461 3.24413 43.3932C4.23125 44.0703 5.48245 44.3561 6.66039 44.4903C7.8664 44.6278 9.18942 44.6248 10.4406 44.5933C10.9043 44.5816 11.3518 44.5663 11.7853 44.5516C12.5645 44.525 13.2984 44.5 14 44.5C19.5615 44.5 24.7592 47.061 28.6502 49.7361C30.5802 51.0629 32.1504 52.3915 33.2364 53.387C33.7787 53.884 34.1981 54.2962 34.4793 54.581C34.5314 54.6339 34.5788 54.6823 34.6213 54.726L34.6619 54.9163C34.7438 55.3005 34.8608 55.8506 35.0013 56.5139C35.2823 57.8407 35.6567 59.6195 36.0311 61.4289C36.4057 63.2395 36.7792 65.0758 37.0586 66.5194C37.1985 67.2422 37.3133 67.8589 37.3927 68.3218C37.4529 68.6731 37.4803 68.8701 37.492 68.9543C37.4981 68.9983 37.5 69.0116 37.5 69C37.5 69.9316 37.0831 70.524 36.3071 71.5418L36.275 71.584C35.5321 72.5579 34.5 73.9111 34.5 76C34.5 77.5819 35.3222 78.7676 36.4179 79.4981C37.4692 80.1989 38.7775 80.5 40 80.5C46.8571 80.5 50.5114 75.8592 52.3742 71.6012C53.3088 69.4651 53.836 67.3476 54.1306 65.7764C54.1702 65.5652 54.2057 65.3632 54.2375 65.1717C55.0905 65.5772 56.1462 66.1271 57.1938 66.7947C58.3798 67.5505 59.4957 68.4199 60.3003 69.3553C61.1088 70.2954 61.5 71.1791 61.5 72C61.5 73.3548 61.9668 74.5284 62.8625 75.3533C63.738 76.1597 64.8783 76.5 66 76.5C67.3021 76.5 68.4112 76.1244 69.2828 75.3851C70.1291 74.6673 70.6261 73.7129 70.9287 72.7668C71.5008 70.9781 71.5003 68.7832 71.5 67.1183L71.5 67.0001V67C71.5 62.6934 70.1569 58.9596 68.8416 56.3292C68.3905 55.4269 67.939 54.6471 67.5388 54.0098C68.7796 53.7148 70.4034 53.2667 72.0403 52.6347C73.7348 51.9804 75.5352 51.0945 76.9367 49.9108C78.3435 48.7224 79.5 47.0958 79.5 45C79.5 42.5762 78.573 40.9517 77.5607 39.9393C77.3928 39.7715 77.2248 39.6225 77.0613 39.4908C77.1516 39.3263 77.2448 39.1507 77.3381 38.9664C77.8519 37.9521 78.5 36.4302 78.5 35C78.5 30.4602 74.5921 28.12 71.5267 26.9705C69.9768 26.3893 68.4432 26.0307 67.2789 25.8146C67.6162 25.0912 68.0089 24.19 68.4017 23.159C69.4322 20.454 70.5 16.7593 70.5 13C70.5 11.7998 70.0985 9.10522 69.0939 6.67664C68.1407 4.37228 66.2895 1.50001 63 1.5C62.9737 1.5 62.946 1.49993 62.9169 1.49986C62.4869 1.49882 61.7654 1.49706 61.1507 1.70197C60.7796 1.82564 60.3332 2.0569 59.9878 2.50096C59.6324 2.95799 59.5 3.49061 59.5 4C59.5 5.11057 59.8453 5.94333 60.0922 6.53891L60.1068 6.57417C60.3579 7.1802 60.4942 7.53455 60.5001 8.01841C60.5008 8.07353 60.4782 8.25736 60.3142 8.59976C60.1564 8.92892 59.9085 9.32069 59.5714 9.76414C58.8967 10.6518 57.9646 11.6172 56.9892 12.5295C56.0806 13.3794 55.1664 14.1536 54.4495 14.7376Z" stroke="#5E5600" stroke-width="3"/>
<defs>
<filter id="filter0_dd" x="53.4019" y="41.7681" width="9.06218" height="7.9641" filterUnits="userSpaceOnUse" color-interpolation-filters="sRGB">
<feFlood flood-opacity="0" result="BackgroundImageFix"/>
<feColorMatrix in="SourceAlpha" type="matrix" values="0 0 0 0 0 0 0 0 0 0 0 0 0 0 0 0 0 0 127 0"/>
<feOffset dy="1"/>
<feColorMatrix type="matrix" values="0 0 0 0 0.878431 0 0 0 0 0.835294 0 0 0 0 0.172549 0 0 0 1 0"/>
<feBlend mode="normal" in2="BackgroundImageFix" result="effect1_dropShadow"/>
<feColorMatrix in="SourceAlpha" type="matrix" values="0 0 0 0 0 0 0 0 0 0 0 0 0 0 0 0 0 0 127 0"/>
<feOffset dx="1" dy="1"/>
<feColorMatrix type="matrix" values="0 0 0 0 0.878431 0 0 0 0 0.835294 0 0 0 0 0.172549 0 0 0 1 0"/>
<feBlend mode="normal" in2="effect1_dropShadow" result="effect2_dropShadow"/>
<feBlend mode="normal" in="SourceGraphic" in2="effect2_dropShadow" result="shape"/>
</filter>
<radialGradient id="paint0_radial" cx="0" cy="0" r="1" gradientUnits="userSpaceOnUse" gradientTransform="translate(52.5 38) rotate(157.011) scale(17.9234 13.9899)">
<stop offset="0.520295" stop-color="#FFD700"/>
<stop offset="1" stop-color="#BFA200"/>
</radialGradient>
<linearGradient id="paint1_linear" x1="54" y1="37" x2="35.5" y2="37" gradientUnits="userSpaceOnUse">
<stop stop-color="#FFD700" stop-opacity="0.9"/>
<stop offset="1" stop-color="#FFD700" stop-opacity="0"/>
</linearGradient>
<linearGradient id="paint2_linear" x1="35" y1="51.5" x2="4" y2="40" gradientUnits="userSpaceOnUse">
<stop stop-color="#E3C600"/>
<stop offset="1" stop-color="#FAD300"/>
</linearGradient>
</defs>
</svg>
