<svg width="90" height="102" viewBox="0 0 90 102" fill="none" xmlns="http://www.w3.org/2000/svg">
<path d="M72 0.628906C57.5 0.628895 55 16.6289 55 16.6289L77 33.6289C77 33.6289 90 26.6289 90 16.6289C90 7.22384 81.4051 0.628913 72 0.628906Z" fill="#0961F6"/>
<path d="M18 0.628906C32.5 0.628895 35 16.6289 35 16.6289L13 33.6289C13 33.6289 0 26.6289 0 16.6289C0 7.22384 8.59493 0.628913 18 0.628906Z" fill="#0961F6"/>
<g filter="url(#filter0_i)">
<path d="M83 16.6288C83 9.82328 77.8056 5.62882 73 5.62885C61 5.62891 61 19.6288 61 19.6288L73 28.6288C73 28.6288 83 24.6289 83 16.6288Z" fill="#84B0FB"/>
</g>
<g filter="url(#filter1_i)">
<path d="M7 15.6288C7 8.82328 12.1944 4.62882 17 4.62885C29 4.62891 29 18.6288 29 18.6288L17 27.6288C17 27.6288 7 23.6289 7 15.6288Z" fill="#84B0FB"/>
</g>
<path d="M90 74.1289C90 98.1533 69.8528 101.629 45 101.629C20.1472 101.629 0 98.1533 0 74.1289C0 50.1045 15.1472 14.6289 45 14.6289C74.8528 14.6289 90 50.1045 90 74.1289Z" fill="#0961F6"/>
<path d="M45 94.6289C43 94.6289 41 91.6289 41 91.6289L46 87.6289L51 91.6289C51 91.6289 49 94.6289 47 94.6289H45Z" fill="#84B0FB"/>
<path fill-rule="evenodd" clip-rule="evenodd" d="M47 84.5667C49.8377 84.2096 52 82.3587 52 80.1289C52 77.6436 49.3137 75.6289 46 75.6289C42.6863 75.6289 40 77.6436 40 80.1289C40 82.3587 42.1623 84.2096 45 84.5667V86.4216C44.6707 86.5562 44.3693 86.7609 44.1252 87.0358C42.663 88.6819 40.5437 90.5762 38.5 90.6289C36.3971 90.6831 34.0398 88.9638 32.539 87.6348C31.9743 87.1348 31 87.5302 31 88.2845C31 88.5048 31.0864 88.7138 31.2487 88.8627C32.1954 89.7314 35.6636 92.7182 38.5 92.6289C40.5834 92.5633 42.8292 90.8223 44.3145 89.4129C45.234 88.5406 46.766 88.5406 47.6855 89.4129C49.1708 90.8223 51.4166 92.5633 53.5 92.6289C56.3364 92.7182 59.8046 89.7314 60.7513 88.8627C60.9136 88.7138 61 88.5048 61 88.2845C61 87.5302 60.0257 87.1348 59.461 87.6348C57.9602 88.9638 55.6029 90.6831 53.5 90.6289C51.4563 90.5762 49.337 88.6819 47.8748 87.0358C47.6307 86.7609 47.3293 86.5562 47 86.4216V84.5667Z" fill="#04307B"/>
<ellipse cx="67" cy="60.6289" rx="6" ry="8" fill="#04307B"/>
<ellipse cx="23" cy="60.6289" rx="6" ry="8" fill="#04307B"/>
<ellipse cx="68" cy="61.6289" rx="9" ry="10" fill="#04307B"/>
<ellipse cx="68" cy="60.1277" rx="3" ry="3.5" fill="#84B0FB"/>
<ellipse cx="22" cy="61.6289" rx="9" ry="10" fill="#04307B"/>
<ellipse rx="3" ry="3.5" transform="matrix(-1 0 0 1 22 60.1277)" fill="#84B0FB"/>
<defs>
<filter id="filter0_i" x="61" y="5.62885" width="22" height="23" filterUnits="userSpaceOnUse" color-interpolation-filters="sRGB">
<feFlood flood-opacity="0" result="BackgroundImageFix"/>
<feBlend mode="normal" in="SourceGraphic" in2="BackgroundImageFix" result="shape"/>
<feColorMatrix in="SourceAlpha" type="matrix" values="0 0 0 0 0 0 0 0 0 0 0 0 0 0 0 0 0 0 127 0" result="hardAlpha"/>
<feOffset dx="-2" dy="2"/>
<feComposite in2="hardAlpha" operator="arithmetic" k2="-1" k3="1"/>
<feColorMatrix type="matrix" values="0 0 0 0 0.0156863 0 0 0 0 0.188235 0 0 0 0 0.482353 0 0 0 1 0"/>
<feBlend mode="normal" in2="shape" result="effect1_innerShadow"/>
</filter>
<filter id="filter1_i" x="7" y="4.62885" width="22" height="23" filterUnits="userSpaceOnUse" color-interpolation-filters="sRGB">
<feFlood flood-opacity="0" result="BackgroundImageFix"/>
<feBlend mode="normal" in="SourceGraphic" in2="BackgroundImageFix" result="shape"/>
<feColorMatrix in="SourceAlpha" type="matrix" values="0 0 0 0 0 0 0 0 0 0 0 0 0 0 0 0 0 0 127 0" result="hardAlpha"/>
<feOffset dx="2" dy="2"/>
<feComposite in2="hardAlpha" operator="arithmetic" k2="-1" k3="1"/>
<feColorMatrix type="matrix" values="0 0 0 0 0.0156863 0 0 0 0 0.188235 0 0 0 0 0.482353 0 0 0 1 0"/>
<feBlend mode="normal" in2="shape" result="effect1_innerShadow"/>
</filter>
</defs>
</svg>
