<svg width="107" height="106" viewBox="0 0 107 106" fill="none" xmlns="http://www.w3.org/2000/svg">
<path d="M76 14.6289C87.7727 10.4643 107 4.62891 107 4.62891C104.441 18.2074 99.5255 28.5825 86 32.6289C89.4001 37.6515 88.6762 42.1349 88.9492 48.2069C89.3501 57.1218 85.6647 62.8423 79.8017 69.535C75.072 74.9341 68.949 73.8909 64.3214 79.3788C60.6376 83.7474 60.5528 87.4862 57.8033 92.5039C51.2853 104.399 48.4336 105.629 34.1754 105.629C23.8947 105.629 24.1058 105.999 16.7328 98.7851C14.0592 98.1289 3.5592 92.1289 0.770474 81.0194C-0.243185 76.9813 -0.270374 74.3859 0.770474 70.3553C1.77369 66.4705 2.91483 64.2437 5.659 61.3319C8.02794 58.8182 12.5748 59.842 12.9918 56.41C15.4674 36.0342 17.2589 28.5651 21.1393 21.9571C23.686 17.6838 26.1747 14.7915 30 11.6289V0.628906L39 5.62891C40.6295 4.80856 46 4.55044 51.2853 4.55044C57.4634 4.55044 63.4009 5.74702 68.7656 8.8317C72.4828 10.9691 73.5 11.6289 76 14.6289Z" fill="#0961F6"/>
<path d="M33 4.12891L36 7.62891L33 9.62891V4.12891Z" fill="#84B0FB"/>
<path d="M30 0.628906L39 5.62891L36 7.62891L30 0.628906Z" fill="#04317B"/>
<path d="M34.1753 101.528C48.4335 101.528 55.0588 96.6289 57.8032 92.5039C59.5327 89.9042 60.0105 87.4081 60.9418 85.1214C60.9418 85.1214 64.265 76.538 61.8769 71.9963C58.2105 65.0236 57.2034 64.8165 53.7294 61.3323C42.5588 50.1289 24.0588 53.6289 20.3244 55.59C16.4876 57.605 9.73261 58.8666 9.73261 58.8666C8.36352 59.4796 6.92614 59.9872 5.65885 61.3319C2.91468 64.2437 1.77354 66.4705 0.770324 70.3554C-0.270524 74.3859 -0.0821101 76.9443 0.770324 81.0195C2.15356 87.6322 10.2827 96.8487 16.7326 98.7851C24.1057 100.999 23.8945 101.528 34.1753 101.528Z" fill="#84B0FB"/>
<ellipse cx="37.0591" cy="84.1289" rx="5.5" ry="9.5" fill="#04317B"/>
<path d="M12.0166 78.4294C12.0166 83.5453 16.1678 86.2299 13.8615 88.18C8.78782 90.6177 5.5591 82.5702 5.5591 77.4543C5.5591 72.3385 5.52445 70.6289 8.32659 70.6289C11.1287 70.6289 12.0166 73.3135 12.0166 78.4294Z" fill="#04317B"/>
<path d="M84 30.6289L78 18.6289L100 9.62891C96.8 19.6217 93.5 25.1289 84 30.6289Z" fill="#84B0FB"/>
<path d="M76 14.6289L107 4.62891L106.5 7.62891L76 20.6289V14.6289Z" fill="#04317B"/>
<path d="M76 32.6289H86C86 32.6289 83.841 27.0059 82 23.6289C79.9781 19.9201 76 14.6289 76 14.6289V32.6289Z" fill="#0961F6"/>
<ellipse cx="65.0001" cy="39.1289" rx="10" ry="12.5" transform="rotate(20 65.0001 39.1289)" fill="#84B0FB"/>
<ellipse cx="65" cy="39.1288" rx="7" ry="8.5" transform="rotate(20 65 39.1288)" fill="#04317B"/>
<path fill-rule="evenodd" clip-rule="evenodd" d="M15.0496 41.5922C16.3754 33.6343 17.7419 28.7662 19.6718 24.7171C20.5937 23.9794 21.5614 23.6386 22.4971 23.8035C25.4885 24.331 27.0195 29.8291 25.9166 36.0839C24.8137 42.3387 21.4946 46.9816 18.5032 46.4541C16.8198 46.1573 15.5988 44.2863 15.0496 41.5922Z" fill="#84B0FB"/>
<ellipse cx="20.5" cy="35.1289" rx="2.5" ry="7.5" transform="rotate(10 20.5 35.1289)" fill="#04317B"/>
</svg>
