<svg width="126" height="102" viewBox="0 0 126 102" fill="none" xmlns="http://www.w3.org/2000/svg">
<path d="M86 0.628906C77.5 0.628943 75 12.6289 75 12.6289L95 23.6289C95 23.6289 101.645 0.628839 86 0.628906Z" fill="#04307B"/>
<path d="M40.4019 0.628906C48.9019 0.628943 51.4019 12.6289 51.4019 12.6289L31.4019 23.6289C31.4019 23.6289 24.7566 0.628839 40.4019 0.628906Z" fill="#04307B"/>
<path d="M90.9737 73.9705C100.172 67.368 106 57.5683 106 46.629C106 46.3908 105.997 46.1531 105.992 45.9161C107.322 47.3975 109.992 49.629 114 49.629C126.126 49.629 126 32.629 126 32.629L100 26.6289C92.308 16.8711 78.0095 10.629 63.0001 10.629C47.9906 10.629 33.692 16.8711 26 26.6289L5.25727e-05 32.629C5.25727e-05 32.629 -0.126233 49.629 12.0001 49.629C16.0083 49.629 18.6778 47.3975 20.0083 45.9161C20.0028 46.1531 20.0001 46.3908 20.0001 46.629C20.0001 57.5684 25.8282 67.3682 35.0267 73.9707C35.2994 77.162 37.9459 101.629 55.0002 101.629H71.0002C88.0549 101.629 90.7011 77.1611 90.9737 73.9705Z" fill="#0961F6"/>
<path d="M18 31.6289C20.4699 31.6289 23 33.6289 23 33.6289L21 43.6289C21 43.6289 16.4101 47.6289 13 47.6289C4 47.6289 3 35.6289 3 35.6289C3 35.6289 12 31.6289 18 31.6289Z" fill="#04307B"/>
<path d="M15 35.6289C20.9741 35.6289 22 37.6289 22 37.6289L21 42.6289C21 42.6289 17.5 44.6289 15 44.6289C9.84867 44.6289 7 37.6289 7 37.6289C7 37.6289 10.5 35.6289 15 35.6289Z" fill="#84B0FB"/>
<path d="M108 31.6289C105.53 31.6289 103 33.6289 103 33.6289L105 43.6289C105 43.6289 109.59 47.6289 113 47.6289C122 47.6289 123 35.6289 123 35.6289C123 35.6289 114 31.6289 108 31.6289Z" fill="#04307B"/>
<path d="M111 35.6289C105.026 35.6289 104 37.6289 104 37.6289L105 42.6289C105 42.6289 108.5 44.6289 111 44.6289C116.151 44.6289 119 37.6289 119 37.6289C119 37.6289 115.5 35.6289 111 35.6289Z" fill="#84B0FB"/>
<path d="M66 85.6289C66 85.6289 66 82.6289 63 82.6289C60 82.6289 60 85.6289 60 85.6289V94.6289C60 94.6289 58 96.6289 54 96.6289C51 96.6289 51 93.6289 51 93.6289H49V95.6289C49 98.6289 53 99.6289 55 99.6289C58 99.6289 63 97.6289 63 97.6289C63 97.6289 68 99.6289 71 99.6289C73 99.6289 77 98.6289 77 95.6289V93.6289H75C75 93.6289 75 96.6289 71 96.6289C66.897 96.6289 66 94.6289 66 94.6289V85.6289Z" fill="#04307B"/>
<path d="M106 45.6289H20C20 45.6289 20.7861 39.422 22 35.6289C23.1724 31.9657 26 26.6289 26 26.6289H100C100 26.6289 102.828 31.9657 104 35.6289C105.214 39.422 106 45.6289 106 45.6289Z" fill="#0961F6"/>
<ellipse cx="38" cy="51.6277" rx="10" ry="11" fill="#84B0FB"/>
<ellipse cx="38" cy="51.6277" rx="6" ry="7" fill="#04307B"/>
<ellipse cx="88" cy="51.6277" rx="10" ry="11" fill="#84B0FB"/>
<ellipse cx="88" cy="51.6277" rx="6" ry="7" fill="#04307B"/>
</svg>
