<svg width="118" height="96" viewBox="0 0 118 96" fill="none" xmlns="http://www.w3.org/2000/svg">
<path d="M62.125 1.63208V30.6321L44.125 34.6321L23.125 35.6321C23.125 35.6321 14.8926 33.8442 10.125 35.6321C-1.87499 40.1321 0.124998 53.6321 0.124998 53.6321V62.6321C0.125044 79.7949 21.125 85.6321 21.125 85.6321C21.125 85.6321 26.125 95.6321 38.125 95.6321H56.125C70.125 95.6321 95.125 71.1321 95.125 58.6321V43.6321C95.125 43.6321 117.625 44.6321 117.625 17.6321C117.625 10.7979 116.125 3.63208 107.125 3.63208C97.8242 3.63208 81.125 25.6321 81.125 25.6321C81.125 25.6321 71.9315 0.632071 64.125 0.63208C63.125 0.63208 62.125 1.63208 62.125 1.63208Z" fill="#0961F6"/>
<path d="M10.125 35.6321C-1.87499 40.1321 0.124998 53.6321 0.124998 53.6321C0.124998 53.6321 6.03319 60.6321 11.125 60.6321C20.125 60.6321 31.125 53.6344 31.125 44.6321C31.125 38.1321 23.125 35.6321 23.125 35.6321C23.125 35.6321 14.8926 33.8443 10.125 35.6321Z" fill="#04307B"/>
<path d="M62.125 87.6321C46.751 89.1597 37.9228 89.2622 21.125 85.6321C21.125 85.6321 22.375 88.1321 25.125 90.6321C34.7044 95.6114 43.5827 93.973 62.125 87.6321Z" fill="#04307B"/>
<path d="M102.125 37.6321H87.125C87.125 37.6321 94.1423 8.63208 108.125 8.63208C115.625 8.63208 115.125 14.1321 115.125 18.6321C115.125 37.6226 102.125 37.6321 102.125 37.6321Z" fill="#84B0FB"/>
<path d="M17 39.1321C17 42.1696 12.3137 46.6321 9 46.6321C5.68629 46.6321 5 45.1696 5 42.1321C5 39.0945 9.68629 35.6321 13 35.6321C16.3137 35.6321 17 36.0945 17 39.1321Z" fill="#84B0FB"/>
<path d="M79.1393 48.4361C81.406 54.6638 80.6072 60.6719 76.1959 62.2775C71.7846 63.8831 66.371 60.1361 64.1042 53.9084C61.8375 47.6807 62.6364 41.6725 67.0477 40.0669C71.459 38.4613 76.8726 42.2083 79.1393 48.4361Z" fill="#84B0FB"/>
<path d="M77.3545 48.9851C79.0545 53.6559 78.4554 58.162 75.1469 59.3662C71.8384 60.5704 67.7782 57.7601 66.0782 53.0893C64.3781 48.4185 64.9773 43.9124 68.2858 42.7082C71.5943 41.504 75.6545 44.3143 77.3545 48.9851Z" fill="#04307B"/>
</svg>
