<svg width="90" height="114" viewBox="0 0 90 114" fill="none" xmlns="http://www.w3.org/2000/svg">
<path d="M40 42.0004L4 64.0004C4 64.0004 17.6961 -9.85457e-05 21 0.000366211C21.6494 0.00045757 22.1345 0.000424637 22.7448 0.000383204L23 0.000366211C26.3039 0.000154522 40 42.0004 40 42.0004Z" fill="#0961F6"/>
<path d="M33.7498 45.9964V40.2724L24.1525 14.6792L12.5 53.2222V54.7593L33.7498 45.9964Z" fill="#84B0FB" stroke="#04307B" stroke-width="3"/>
<path d="M50 42.0004L86 64.0004C86 64.0004 72.3039 -9.85457e-05 69 0.000366211C68.3506 0.00045757 67.8655 0.000424637 67.2552 0.000383204L67 0.000366211C63.6961 0.000154522 50 42.0004 50 42.0004Z" fill="#0961F6"/>
<path d="M56.2502 45.9964V40.2724L65.8475 14.6792L77.5 53.2222V54.7593L56.2502 45.9964Z" fill="#84B0FB" stroke="#04307B" stroke-width="3"/>
<path d="M90 80.9936C90 102.023 69.7735 114 45.6521 114C21.5307 114 0 102.023 0 81.0182C0 59.7283 17.0155 39.009 45.5 39.009C72.9845 39.009 90 59.7036 90 80.9936Z" fill="#0961F6"/>
<circle cx="69" cy="74.0004" r="11" fill="#84B0FB"/>
<circle cx="69" cy="74.0004" r="7" fill="#04307B"/>
<circle cx="21" cy="74.0004" r="11" fill="#84B0FB"/>
<circle cx="21" cy="74.0004" r="7" fill="#04307B"/>
<path d="M28 94.5268C28 93.3792 29.5387 92.8149 30.3576 93.6189C31.9632 95.1954 34.1285 96.9153 36 97.0004C38.3405 97.1068 41.169 95.5993 43.0226 94.4047C44.2128 93.6377 45.7872 93.6377 46.9774 94.4047C48.831 95.5993 51.6595 97.1068 54 97.0004C55.8715 96.9153 58.0368 95.1954 59.6424 93.6189C60.4613 92.8149 62 93.3792 62 94.5268V94.5268C62 94.8311 61.886 95.1229 61.6711 95.3384C60.5712 96.4406 56.9264 99.8673 54 100C51.6595 100.107 48.831 98.5993 46.9774 97.4047C45.7872 96.6377 44.2128 96.6377 43.0226 97.4047C41.169 98.5993 38.3405 100.107 36 100C33.0736 99.8673 29.4288 96.4406 28.3289 95.3384C28.114 95.1229 28 94.8311 28 94.5268V94.5268Z" fill="#04307B"/>
</svg>
