<svg width="128" height="81" viewBox="0 0 128 81" fill="none" xmlns="http://www.w3.org/2000/svg">
<path d="M17.977 50.803C17.5967 47.3538 13.2085 -0.148142 60 0.00034739C99.8302 0.126745 101 38.0003 101 38.0003C101 38.0003 128 45.0004 128 54.0003C128 59.0004 121.5 58.0003 117 58.0003C110.259 58.0003 100 55.0003 100 55.0003C100 55.0003 93.5 81.0003 58 81.0003C48.9419 81.0003 35 78.0003 35 78.0003C35 78.0003 27.5 79.0003 23 79.0003C13 79.0003 9.64305e-05 60.8516 0 52.0003C-5.44726e-05 47.0004 5 44.0003 10 44.0003C16.7047 44.0003 17.8206 49.6658 17.977 50.803Z" fill="#0961F6"/>
<path d="M117 58.0003C121.5 58.0003 128 59.0003 128 54.0003C128 51.0003 125 48.2226 121 45.8522C121 45.8522 121.5 50.4991 120 51.9991C114.415 57.5838 100 55.0003 100 55.0003C100 55.0003 110.259 58.0003 117 58.0003Z" fill="#84B0FB"/>
<path d="M100 55.0003C100 55.0003 110.259 58.0003 117 58.0003C117 58.0003 107.707 54.7258 103 52.0004C98.1966 49.2192 93 44.0004 93 44.0004C94 50.0004 95 53.0004 100 55.0003Z" fill="#04307B"/>
<path d="M10 44.0003C5 44.0003 0 47.5007 0 52.0003C0 56.5 4 56.0004 4 56.0004C4 56.0004 8 55.5 12.5 52.5C17 49.5 17.5 44.0003 10 44.0003Z" fill="#04307B"/>
<path d="M10 44.0003C5 44.0003 -0.000272356 47.0004 0 52.0003C5.44838e-05 53.0003 2 53.0004 3 53.0004C6.70484 53.0004 13 48.0004 13 48.0004C16.5 44.5 12.5 44.0003 10 44.0003Z" fill="#84B0FB"/>
<circle cx="78" cy="44.9991" r="9" fill="#84B0FB"/>
<circle cx="74.5" cy="45.4991" r="5.5" fill="#04307B"/>
<path d="M35 77.2651C35 76.6283 35.6067 76.1625 36.2248 76.3161C38.4945 76.88 43.4462 77.9991 47 77.9991C49 77.9991 57.0381 75.3959 62 71.4991C63.7643 70.1136 65.6659 67.7433 67.0412 65.8572C67.6323 65.0467 69 65.4629 69 66.466V66.6405C69 66.8724 68.9216 67.0944 68.7721 67.2716C67.8972 68.3078 64.6694 72.0439 62 73.9991C56.9102 77.7273 49 79.9991 47 79.9991C43.1458 79.9991 37.6475 78.6829 35.7092 78.186C35.2891 78.0783 35 77.6988 35 77.2651V77.2651Z" fill="#04307B"/>
</svg>
