<svg width="100" height="100" viewBox="0 0 100 100" fill="none" xmlns="http://www.w3.org/2000/svg">
<ellipse cx="85" cy="14.5" rx="15" ry="14.5" fill="#0961F6"/>
<ellipse cx="15" cy="14.5" rx="15" ry="14.5" fill="#0961F6"/>
<ellipse cx="83" cy="15.5" rx="9" ry="9.5" fill="#04307B"/>
<ellipse cx="16" cy="15.5" rx="9" ry="9.5" fill="#04307B"/>
<path d="M97 60.5C97 86.1812 75.9574 100 50 100C24.0426 100 3 86.1812 3 60.5C3 34.8188 21.0426 7 50 7C78.9574 7 97 34.8188 97 60.5Z" fill="#0961F6"/>
<path d="M77 82C77 90.8366 64.9117 98 50 98C35.0883 98 23 90.8366 23 82C23 71.1634 33.0883 66 50 66C66.9117 66 77 71.1634 77 82Z" fill="#84B0FB"/>
<path fill-rule="evenodd" clip-rule="evenodd" d="M52 78.9695C56.4999 78.6931 60 76.5736 60 74C60 71.2386 55.9706 69 51 69C46.0294 69 42 71.2386 42 74C42 76.5736 45.5 78.6931 50 78.9695V84C50 84 45 88 41 84C39.6193 82.6193 39 80 39 80H37V83C37 84 40 88 45 88C50 88 51 85 51 85C51 85 52 88 57 88C62 88 65 84 65 83V80H63C63 80 62.3807 82.6193 61 84C57 88 52 84 52 84V78.9695Z" fill="#04307B"/>
<ellipse cx="73" cy="53.9991" rx="7" ry="11" fill="#04307B"/>
<ellipse cx="73.5" cy="50.4991" rx="2.5" ry="3.5" fill="#84B0FB"/>
<ellipse cx="26" cy="53.9991" rx="7" ry="11" fill="#04307B"/>
<ellipse rx="2.5" ry="3.5" transform="matrix(-1 0 0 1 25.5 50.4991)" fill="#84B0FB"/>
<ellipse cx="50" cy="80.9991" rx="18" ry="15" fill="#84B0FB"/>
<path d="M57 74.9991C57 75.7792 56.5257 76.7303 55.2546 77.5777C53.9974 78.4158 52.1455 78.9991 50 78.9991C47.8545 78.9991 46.0026 78.4158 44.7454 77.5777C43.4743 76.7303 43 75.7792 43 74.9991C43 74.2191 43.4743 73.268 44.7454 72.4206C46.0026 71.5825 47.8545 70.9991 50 70.9991C52.1455 70.9991 53.9974 71.5825 55.2546 72.4206C56.5257 73.268 57 74.2191 57 74.9991Z" stroke="#04307B" stroke-width="4"/>
<path d="M48 79.9991H52L51 85.9991H49L48 79.9991Z" fill="#04307B"/>
<path d="M38 86.4921C38 85.8255 38.7265 85.3909 39.3314 85.6712C40.585 86.2521 42.4905 86.9991 44 86.9991C45.4358 86.9991 47.2299 86.3233 48.4805 85.7573C49.4411 85.3226 50.5589 85.3226 51.5195 85.7573C52.7701 86.3233 54.5642 86.9991 56 86.9991C57.5095 86.9991 59.415 86.2521 60.6686 85.6712C61.2735 85.3909 62 85.8255 62 86.4921C62 86.8055 61.832 87.0941 61.5536 87.238C60.5269 87.7687 57.9373 88.9991 56 88.9991C54.5642 88.9991 52.7701 88.3233 51.5195 87.7573C50.5589 87.3226 49.4411 87.3226 48.4805 87.7573C47.2299 88.3233 45.4358 88.9991 44 88.9991C42.0627 88.9991 39.4731 87.7687 38.4464 87.238C38.168 87.0941 38 86.8055 38 86.4921Z" fill="#04307B"/>
</svg>
