<svg width="108" height="96" viewBox="0 0 108 96" fill="none" xmlns="http://www.w3.org/2000/svg">
<ellipse cx="18" cy="18.0278" rx="18" ry="18.0278" fill="#0961F6"/>
<ellipse rx="18" ry="18.0278" transform="matrix(-1 0 0 1 90 18.0278)" fill="#0961F6"/>
<circle cx="18" cy="18" r="11.5" fill="#84B0FB" stroke="#04307B" stroke-width="3"/>
<circle cx="90" cy="18" r="11.5" fill="#84B0FB" stroke="#04307B" stroke-width="3"/>
<path d="M102 59.2768C102 90.9923 80.7335 96 54.5 96C28.2665 96 7 90.9923 7 59.2768C7 43.419 22.5531 10.8689 54.5 10.8689C85.1858 10.8689 102 43.419 102 59.2768Z" fill="#0961F6"/>
<path d="M86.0054 76.5C86.0054 86.7173 81.6785 95 54.0054 95C26.3323 95 22.0054 86.7173 22.0054 76.5C22.0054 66.2827 36.3323 58 54.0054 58C71.6785 58 86.0054 66.2827 86.0054 76.5Z" fill="#84B0FB"/>
<path fill-rule="evenodd" clip-rule="evenodd" d="M56.0054 65.8582C59.4558 65.3587 62.0054 63.5968 62.0054 61.5C62.0054 59.0147 58.4236 57 54.0054 57C49.5871 57 46.0054 59.0147 46.0054 61.5C46.0054 63.5968 48.5549 65.3587 52.0054 65.8582V80.833C47.1931 80.0719 41.7326 76.8798 38.5962 74.8128C37.5146 74.1 36.0054 74.8696 36.0054 76.165C36.0054 76.6868 36.2647 77.1732 36.7066 77.4507C39.1711 78.9982 47.6298 84 54.0054 84C60.3809 84 68.8396 78.9982 71.3041 77.4507C71.746 77.1732 72.0054 76.6868 72.0054 76.165C72.0054 74.8696 70.4962 74.1 69.4145 74.8128C66.2781 76.8798 60.8177 80.0719 56.0054 80.833V65.8582Z" fill="#04307B"/>
<ellipse cx="54.0054" cy="59.5" rx="4" ry="1.5" fill="#84B0FB"/>
<ellipse cx="66" cy="34" rx="5" ry="7" fill="#04307B"/>
<ellipse cx="44" cy="34" rx="5" ry="7" fill="#04307B"/>
</svg>
