<svg width="39" height="32" viewBox="0 0 39 32" fill="none" xmlns="http://www.w3.org/2000/svg">
<path d="M24.5 27.5C24.5 28 20 32 19.5 32C19 32 18.5 32 18.5 31.5C18.5 30.0129 19.8204 29.4762 20 28C20.1668 26.6294 18.5375 24.5 19.5 24.5C20 24.5 21 27 22.5 27C23.618 27 24.5 27 24.5 27.5Z" fill="#FFD00D"/>
<path d="M8.44722 4.02524C8.3091 4.57807 7.95639 5.10493 7.46571 5.1049C5.75151 5.10482 4.63162 5.0331 3.14705 5.89012C1.31403 6.94828 0.120046 8.19347 0.00620339 10.3069C-0.12419 12.7276 1.82559 13.6965 3.53965 15.4108C4.12848 15.9997 4.61932 15.7053 4.61932 15.1163C4.61932 13.5598 4.44215 12.4848 5.30638 11.1903C5.53602 10.8463 7.99373 9.03095 10.0176 9.03096C10.8028 9.03096 11.3425 8.98211 11.8825 8.44205C12.6677 7.65684 12.8499 6.57417 12.7659 5.39936C12.6677 4.02526 10.535 2.76226 9.52688 2.94558C8.44722 3.1419 8.5453 3.63266 8.44722 4.02524Z" fill="#FFD00D"/>
<path d="M5.30638 11.1903C5.53602 10.8463 7.99373 9.03095 10.0176 9.03095C12.0415 9.03096 9.1799 5.10499 7.46571 5.1049C5.75151 5.10481 4.63162 5.03309 3.14705 5.89011C1.31403 6.94828 0.120046 8.19346 0.00620339 10.3069C-0.12419 12.7276 1.82559 13.6965 3.53965 15.4108C4.12848 15.9997 4.61932 15.7052 4.61932 15.1163C4.61932 13.5598 4.44215 12.4848 5.30638 11.1903Z" fill="#6A5A2F"/>
<path d="M36.1257 12.1718C33.4757 12.3681 33.7701 13.6441 33.083 13.7422C33.083 13.7422 32.6378 13.5643 32.5922 13.3496C31.9052 10.1106 27.4284 8.13926 23.1697 8.24574C19.2437 8.34389 18.9493 9.81616 17.6732 10.7977C17.4541 10.9662 17.3593 11.2181 17.0843 11.1903C16.7087 11.1522 16.7334 10.6821 16.6917 10.3069C16.4955 8.5402 17.9899 6.84777 17.6732 4.61414C17.5217 3.54543 17.4958 2.85606 16.888 1.96405C15.884 0.490511 14.5485 -0.0263226 12.7656 0.00102425C11.5537 0.0196142 10.3119 0.589938 9.82109 0.982538C9.50859 1.23251 9.52672 2.25095 10.1155 2.16035C12.3148 1.82198 14.1671 3.57323 14.3361 5.79195C14.4854 7.75312 12.5693 8.54019 11.5878 10.0125C10.5662 11.545 10.5605 12.7843 10.6063 14.6256C10.6576 16.6868 12.1767 21.2017 14.0416 21.9869C15.3658 22.5445 16.3665 21.9785 17.6732 22.5758C18.9364 23.1533 19.538 23.95 20.4214 24.8333C21.7 26.1118 22.9321 26.5019 24.7401 26.5019C27.8809 26.5019 30.385 24.6876 32.5922 21.7906C34.1626 19.7294 33.3111 19.0799 34.1626 17.5701C34.9775 16.1252 35.3015 14.7335 36.9109 14.3311C37.696 14.1348 38.3226 14.7865 38.8739 13.9385C39.5476 12.9022 37.3584 12.0805 36.1257 12.1718Z" fill="#1EB2B9"/>
<path d="M22.0001 22C22.0001 22 16.4693 17.5704 18.5001 18C19.3544 18.1807 20.5001 19 20.5001 19C20.5001 19 21 17 21.0001 16L21.0001 15.5415C21.0001 14.445 21.0002 13.7064 21.0001 12.5C21 12 21 12 21.5001 12C22.0001 12 22.5002 15.0087 22.5001 17C22.5 18 22.0001 20 22.0001 20H23.0001C23.0001 20 23 14.5 23.5001 14.5C25 14.5 24.0001 19 24.0001 19L25.0001 18.5C25.0001 18.5 24.8284 15.5 25 15.5C26 15.5 26.0001 17 26.0001 17V15V14.9998C26.0001 14.7238 26.0001 14.5 26.5001 14.5C27 14.5 27.5 17 27.5001 18.5C27.5001 19.3051 27.5 20.5 27.0001 20.5C26.5634 20.5 26.5001 19.5 26.5001 19.5L26.0001 20.5C25.4143 21.6716 25.4999 23.5 24.5 23.5C24 23.5 24.5001 21.5 24.5001 21.5C24.5001 21.5 23.5 23 22.5001 23C21.5 23 22.0001 22 22.0001 22Z" fill="#14767C"/>
</svg>
