<svg width="39" height="30" viewBox="0 0 39 30" fill="none" xmlns="http://www.w3.org/2000/svg">
<path d="M8.44722 4.02518C8.3091 4.57801 7.95639 5.10487 7.46571 5.10484C5.75151 5.10476 4.63162 5.03303 3.14705 5.89005C1.31403 6.94822 0.120046 8.19341 0.00620339 10.3069C-0.12419 12.7276 1.82559 13.6964 3.53965 15.4107C4.12848 15.9996 4.61932 15.7052 4.61932 15.1163C4.61932 13.5598 4.44215 12.4848 5.30638 11.1902C5.53602 10.8462 7.99373 9.03089 10.0176 9.0309C10.8028 9.0309 11.3425 8.98205 11.8825 8.44199C12.6677 7.65678 12.8499 6.57411 12.7659 5.3993C12.6677 4.0252 10.535 2.76219 9.52688 2.94551C8.44722 3.14184 8.5453 3.6326 8.44722 4.02518Z" fill="#FFD800"/>
<path d="M5.30638 11.1903C5.53602 10.8463 7.99373 9.03095 10.0176 9.03095C12.0415 9.03096 9.1799 5.10499 7.46571 5.1049C5.75151 5.10481 4.63162 5.03309 3.14705 5.89011C1.31403 6.94828 0.120046 8.19346 0.00620339 10.3069C-0.12419 12.7276 1.82559 13.6965 3.53965 15.4108C4.12848 15.9997 4.61932 15.7052 4.61932 15.1163C4.61932 13.5598 4.44215 12.4848 5.30638 11.1903Z" fill="#C0AB72"/>
<path d="M36.1258 12.1718C33.4758 12.3681 33.7702 13.6441 33.0831 13.7422C33.0831 13.7422 32.6379 13.5643 32.5923 13.3496C31.9053 10.1106 27.4285 8.13926 23.1698 8.24574C19.2438 8.34389 18.9494 9.81616 17.6733 10.7977C17.4542 10.9662 17.3594 11.2181 17.0844 11.1903C16.7088 11.1522 16.7335 10.6821 16.6918 10.3069C16.4956 8.5402 17.99 6.84777 17.6733 4.61414C17.5218 3.54543 17.4959 2.85606 16.8881 1.96405C15.8841 0.490511 14.5486 -0.0263226 12.7658 0.00102425C11.5538 0.0196142 10.312 0.589938 9.82121 0.982538C9.50871 1.23251 9.52684 2.25095 10.1157 2.16035C12.3149 1.82198 14.1672 3.57323 14.3362 5.79195C14.4856 7.75312 12.5694 8.54019 11.5879 10.0125C10.5663 11.545 10.5606 12.7843 10.6064 14.6256C10.6577 16.6868 12.1768 21.2017 14.0417 21.9869C15.3659 22.5445 16.3666 21.9785 17.6733 22.5758C18.9365 23.1533 19.5382 23.95 20.4216 24.8333C21.7001 26.1118 22.9322 26.5019 24.7402 26.5019C27.881 26.5019 30.3852 24.6876 32.5923 21.7906C34.1627 19.7294 33.3113 19.0799 34.1628 17.5701C34.9776 16.1252 35.3016 14.7335 36.911 14.3311C37.6962 14.1348 38.3227 14.7865 38.874 13.9385C39.5478 12.9022 37.3585 12.0805 36.1258 12.1718Z" fill="#3FD8E0"/>
<path d="M18.8508 24.7352C18.244 24.3989 18.1641 25.0296 18.2619 25.3241C18.4029 25.7483 18.735 25.8739 18.8508 26.3056C18.9601 26.7129 18.8713 27.0236 18.6545 27.3853C18.4377 27.7469 18.0659 27.6797 17.2804 28.0723C16.4434 28.4907 15.3174 28.5631 15.3174 29.4465C15.3174 29.8695 15.7985 30.015 16 30H22C22.3088 29.9656 23.5953 29.8984 23.3658 29.152C23.1363 28.4056 22.4827 26.9927 21.4027 26.2075C20.4437 25.5102 20.7601 25.7933 18.8508 24.7352Z" fill="#FFD800"/>
<path d="M25.9181 17.0794C24.9366 18.3554 23.9551 19.3369 22.3847 19.6313C21.0195 19.8873 20.5913 18.2996 19.2438 17.9627C18.8512 17.8646 18.5196 18.0917 18.8512 18.4535C19.9309 19.6313 20.3235 20.6128 21.4031 21.5943C21.9144 22.0592 22.3819 22.2239 23.0717 22.1832C23.9316 22.1326 24.2382 21.5097 24.9366 21.0054C25.5772 20.5428 25.9181 20.2202 26.507 19.7295C26.8015 19.4841 26.5839 18.8248 26.7033 18.2572C26.8605 17.5098 27.4328 17.0051 27.2922 16.3923C27.1517 15.7796 26.9206 15.2688 26.3107 15.1163C25.9181 15.0182 25.9181 15.2145 25.9181 15.509C25.9181 16.1222 26.292 16.5933 25.9181 17.0794Z" fill="#333333" fill-opacity="0.5"/>
</svg>
