<svg width="39" height="32" viewBox="0 0 39 32" fill="none" xmlns="http://www.w3.org/2000/svg">
<path d="M8.44722 6.02524C8.3091 6.57807 7.95639 7.10493 7.46571 7.1049C5.75151 7.10482 4.63162 7.0331 3.14705 7.89012C1.31403 8.94828 0.120046 10.1935 0.00620339 12.3069C-0.12419 14.7276 1.82559 15.6965 3.53965 17.4108C4.12848 17.9997 4.61932 17.7053 4.61932 17.1163C4.61932 15.5598 4.44215 14.4848 5.30638 13.1903C5.53602 12.8463 7.99373 11.031 10.0176 11.031C10.8028 11.031 11.3425 10.9821 11.8825 10.4421C12.6677 9.65684 12.8499 8.57417 12.7659 7.39936C12.6677 6.02526 10.535 4.76226 9.52688 4.94558C8.44722 5.1419 8.5453 5.63266 8.44722 6.02524Z" fill="#FFD00D"/>
<path d="M5.30638 13.1903C5.53602 12.8463 7.99373 11.0309 10.0176 11.031C12.0415 11.031 9.1799 7.10499 7.46571 7.1049C5.75151 7.10481 4.63162 7.03309 3.14705 7.89011C1.31403 8.94828 0.120046 10.1935 0.00620339 12.3069C-0.12419 14.7276 1.82559 15.6965 3.53965 17.4108C4.12848 17.9997 4.61932 17.7052 4.61932 17.1163C4.61932 15.5598 4.44215 14.4848 5.30638 13.1903Z" fill="#6A5A2F"/>
<path d="M36.1257 14.1718C33.4757 14.3681 33.7701 15.6441 33.083 15.7422C33.083 15.7422 32.6378 15.5643 32.5922 15.3496C31.9052 12.1106 27.4284 10.1393 23.1697 10.2457C19.2437 10.3439 18.9493 11.8162 17.6732 12.7977C17.4541 12.9662 17.3593 13.2181 17.0843 13.1903C16.7087 13.1522 16.7334 12.6821 16.6917 12.3069C16.4955 10.5402 17.9899 8.84777 17.6732 6.61414C17.5217 5.54543 17.4958 4.85606 16.888 3.96405C15.884 2.49051 14.5485 1.97368 12.7656 2.00102C11.5537 2.01961 10.3119 2.58994 9.82109 2.98254C9.50859 3.23251 9.52672 4.25095 10.1155 4.16035C12.3148 3.82198 14.1671 5.57323 14.3361 7.79195C14.4854 9.75312 12.5693 10.5402 11.5878 12.0125C10.5662 13.545 10.5605 14.7843 10.6063 16.6256C10.6576 18.6868 12.1767 23.2017 14.0416 23.9869C15.3658 24.5445 16.3665 23.9785 17.6732 24.5758C18.9364 25.1533 19.538 25.95 20.4214 26.8333C21.7 28.1118 22.9321 28.5019 24.7401 28.5019C27.8809 28.5019 30.385 26.6876 32.5922 23.7906C34.1626 21.7294 33.3111 21.0799 34.1626 19.5701C34.9775 18.1252 35.3015 16.7335 36.9109 16.3311C37.696 16.1348 38.3226 16.7865 38.8739 15.9385C39.5476 14.9022 37.3584 14.0805 36.1257 14.1718Z" fill="#1EB2B9"/>
<path d="M18.8509 26.7351C18.2442 26.3989 18.1642 27.0296 18.262 27.324C18.403 27.7482 18.7351 27.8738 18.8509 28.3056C18.9602 28.7128 18.8714 29.0236 18.6546 29.3852C18.4379 29.7469 18.066 29.6797 17.2805 30.0723C16.4435 30.4906 15.3175 30.563 15.3175 31.4464C15.3175 31.8695 15.7985 32.015 16 32H22C22.3088 31.9656 23.5954 31.8983 23.3659 31.1519C23.1364 30.4055 22.4828 28.9926 21.4029 28.2074C20.4439 27.5101 20.7602 27.7933 18.8509 26.7351Z" fill="#FFD00D"/>
<path d="M25.9181 19.0794C24.9366 20.3554 23.9551 21.3369 22.3847 21.6313C21.0195 21.8873 20.5913 20.2996 19.2438 19.9627C18.8512 19.8646 18.5196 20.0917 18.8512 20.4535C19.9309 21.6313 20.3235 22.6128 21.4031 23.5943C21.9144 24.0592 22.3819 24.2239 23.0717 24.1832C23.9316 24.1326 24.2382 23.5097 24.9366 23.0054C25.5772 22.5428 25.9181 22.2202 26.507 21.7295C26.8015 21.4841 26.5839 20.8248 26.7033 20.2572C26.8605 19.5098 27.4328 19.0051 27.2922 18.3923C27.1517 17.7796 26.9206 17.2688 26.3107 17.1163C25.9181 17.0182 25.9181 17.2145 25.9181 17.509C25.9181 18.1222 26.292 18.5933 25.9181 19.0794Z" fill="#14767C"/>
</svg>
