<svg width="39" height="30" viewBox="0 0 39 30" fill="none" xmlns="http://www.w3.org/2000/svg">
<path d="M8.44722 4.02524C8.3091 4.57807 7.95639 5.10493 7.46571 5.1049C5.75151 5.10482 4.63162 5.0331 3.14705 5.89012C1.31403 6.94828 0.120046 8.19347 0.00620339 10.3069C-0.12419 12.7276 1.82559 13.6965 3.53965 15.4108C4.12848 15.9997 4.61932 15.7053 4.61932 15.1163C4.61932 13.5598 4.44215 12.4848 5.30638 11.1903C5.53602 10.8463 7.99373 9.03095 10.0176 9.03096C10.8028 9.03096 11.3425 8.98211 11.8825 8.44205C12.6677 7.65684 12.8499 6.57417 12.7659 5.39936C12.6677 4.02526 10.535 2.76226 9.52688 2.94558C8.44722 3.1419 8.5453 3.63266 8.44722 4.02524Z" fill="#FFD00D"/>
<path d="M5.30638 11.1903C5.53602 10.8463 7.99373 9.03095 10.0176 9.03095C12.0415 9.03096 9.1799 5.10499 7.46571 5.1049C5.75151 5.10481 4.63162 5.03309 3.14705 5.89011C1.31403 6.94828 0.120046 8.19346 0.00620339 10.3069C-0.12419 12.7276 1.82559 13.6965 3.53965 15.4108C4.12848 15.9997 4.61932 15.7052 4.61932 15.1163C4.61932 13.5598 4.44215 12.4848 5.30638 11.1903Z" fill="#6A5A2F"/>
<path d="M36.1257 12.1718C33.4757 12.3681 33.7701 13.6441 33.083 13.7422C33.083 13.7422 32.6378 13.5643 32.5922 13.3496C31.9052 10.1106 27.4284 8.13926 23.1697 8.24574C19.2437 8.34389 18.9493 9.81616 17.6732 10.7977C17.4541 10.9662 17.3593 11.2181 17.0843 11.1903C16.7087 11.1522 16.7334 10.6821 16.6917 10.3069C16.4955 8.5402 17.9899 6.84777 17.6732 4.61414C17.5217 3.54543 17.4958 2.85606 16.888 1.96405C15.884 0.490511 14.5485 -0.0263226 12.7656 0.00102425C11.5537 0.0196142 10.3119 0.589938 9.82109 0.982538C9.50859 1.23251 9.52672 2.25095 10.1155 2.16035C12.3148 1.82198 14.1671 3.57323 14.3361 5.79195C14.4854 7.75312 12.5693 8.54019 11.5878 10.0125C10.5662 11.545 10.5605 12.7843 10.6063 14.6256C10.6576 16.6868 12.1767 21.2017 14.0416 21.9869C15.3658 22.5445 16.3665 21.9785 17.6732 22.5758C18.9364 23.1533 19.538 23.95 20.4214 24.8333C21.7 26.1118 22.9321 26.5019 24.7401 26.5019C27.8809 26.5019 30.385 24.6876 32.5922 21.7906C34.1626 19.7294 33.3111 19.0799 34.1626 17.5701C34.9775 16.1252 35.3015 14.7335 36.9109 14.3311C37.696 14.1348 38.3226 14.7865 38.8739 13.9385C39.5476 12.9022 37.3584 12.0805 36.1257 12.1718Z" fill="#1EB2B9"/>
<path d="M18.8509 24.7351C18.2442 24.3989 18.1642 25.0296 18.262 25.324C18.403 25.7482 18.7351 25.8738 18.8509 26.3056C18.9602 26.7128 18.8714 27.0236 18.6546 27.3852C18.4379 27.7469 18.066 27.6797 17.2805 28.0723C16.4435 28.4906 15.3175 28.563 15.3175 29.4464C15.3175 29.8695 15.7985 30.015 16 30H22C22.3088 29.9656 23.5954 29.8983 23.3659 29.1519C23.1364 28.4055 22.4828 26.9926 21.4029 26.2074C20.4439 25.5101 20.7602 25.7933 18.8509 24.7351Z" fill="#FFD00D"/>
<path d="M25.9181 17.0794C24.9366 18.3554 23.9551 19.3369 22.3847 19.6313C21.0195 19.8873 20.5913 18.2996 19.2438 17.9627C18.8512 17.8646 18.5196 18.0917 18.8512 18.4535C19.9309 19.6313 20.3235 20.6128 21.4031 21.5943C21.9144 22.0592 22.3819 22.2239 23.0717 22.1832C23.9316 22.1326 24.2382 21.5097 24.9366 21.0054C25.5772 20.5428 25.9181 20.2202 26.507 19.7295C26.8015 19.4841 26.5839 18.8248 26.7033 18.2572C26.8605 17.5098 27.4328 17.0051 27.2922 16.3923C27.1517 15.7796 26.9206 15.2688 26.3107 15.1163C25.9181 15.0182 25.9181 15.2145 25.9181 15.509C25.9181 16.1222 26.292 16.5933 25.9181 17.0794Z" fill="#14767C"/>
</svg>
