<svg width="39" height="32" viewBox="0 0 39 32" fill="none" xmlns="http://www.w3.org/2000/svg">
<path d="M8.44722 4.02524C8.3091 4.57807 7.95639 5.10493 7.46571 5.1049C5.75151 5.10482 4.63162 5.0331 3.14705 5.89012C1.31403 6.94828 0.120046 8.19347 0.00620339 10.3069C-0.12419 12.7276 1.82559 13.6965 3.53965 15.4108C4.12848 15.9997 4.61932 15.7053 4.61932 15.1163C4.61932 13.5598 4.44215 12.4848 5.30638 11.1903C5.53602 10.8463 7.99373 9.03095 10.0176 9.03096C10.8028 9.03096 11.3425 8.98211 11.8825 8.44205C12.6677 7.65684 12.8499 6.57417 12.7659 5.39936C12.6677 4.02526 10.535 2.76226 9.52688 2.94558C8.44722 3.1419 8.5453 3.63266 8.44722 4.02524Z" fill="#FFD00D"/>
<path d="M5.30638 11.1903C5.53602 10.8463 7.99373 9.03095 10.0176 9.03095C12.0415 9.03096 9.1799 5.10499 7.46571 5.1049C5.75151 5.10481 4.63162 5.03309 3.14705 5.89011C1.31403 6.94828 0.120046 8.19346 0.00620339 10.3069C-0.12419 12.7276 1.82559 13.6965 3.53965 15.4108C4.12848 15.9997 4.61932 15.7052 4.61932 15.1163C4.61932 13.5598 4.44215 12.4848 5.30638 11.1903Z" fill="#6A5A2F"/>
<path d="M36.1257 12.1718C33.4757 12.3681 33.7701 13.6441 33.083 13.7422C33.083 13.7422 32.6378 13.5643 32.5922 13.3496C31.9052 10.1106 27.4284 8.13926 23.1697 8.24574C19.2437 8.34389 18.9493 9.81616 17.6732 10.7977C17.4541 10.9662 17.3593 11.2181 17.0843 11.1903C16.7087 11.1522 16.7334 10.6821 16.6917 10.3069C16.4955 8.5402 17.9899 6.84777 17.6732 4.61414C17.5217 3.54543 17.4958 2.85606 16.888 1.96405C15.884 0.490511 14.5485 -0.0263226 12.7656 0.00102425C11.5537 0.0196142 10.3119 0.589938 9.82109 0.982538C9.50859 1.23251 9.52672 2.25095 10.1155 2.16035C12.3148 1.82198 14.1671 3.57323 14.3361 5.79195C14.4854 7.75312 12.5693 8.54019 11.5878 10.0125C10.5662 11.545 10.5605 12.7843 10.6063 14.6256C10.6576 16.6868 12.1767 21.2017 14.0416 21.9869C15.3658 22.5445 16.3665 21.9785 17.6732 22.5758C18.9364 23.1533 19.538 23.95 20.4214 24.8333C21.7 26.1118 22.9321 26.5019 24.7401 26.5019C27.8809 26.5019 30.385 24.6876 32.5922 21.7906C34.1626 19.7294 33.3111 19.0799 34.1626 17.5701C34.9775 16.1252 35.3015 14.7335 36.9109 14.3311C37.696 14.1348 38.3226 14.7865 38.8739 13.9385C39.5476 12.9022 37.3584 12.0805 36.1257 12.1718Z" fill="#1EB2B9"/>
<path d="M24.5 27.5C24.5 28 20 32 19.5 32C19 32 18.5 32 18.5 31.5C18.5 30.0129 19.8204 29.4762 20 28C20.1668 26.6294 18.5375 24.5 19.5 24.5C20 24.5 21 27 22.5 27C23.618 27 24.5 27 24.5 27.5Z" fill="#FFD00D"/>
<path d="M19.9999 16.5C19.9999 16.5 19 17 18.4999 17C18 17 21.5 13.5 21.5 13.5C21.5 13.5 21.4998 13 21.4999 12.5C21.5 12 21.7238 12 21.9999 12C22.5 12 23 13 23.4999 13C23.9998 13 26.9999 14.9243 26.9999 17C26.9999 17.5 27.5 18 27.4999 18.5C27.4997 19.4763 25.5 20.5 25.4999 20C25.4998 19.5 26 17 25.5 17C25.5 17 25.6385 19.5 24.4999 19.5C24 19.5 24.4999 18.5858 24.4999 18C24.4999 16 23.4999 15.5 23.4999 15.5C23.4999 15.5 24 19 23.4999 19C22.5 19 22.4999 15 22.4999 15L21.5 15.5C21.5 15.5 22 17 21.9999 18C21.9998 19.6683 21.5 22 20.4999 22C19.5236 22 20.4999 20.5 20.4999 19.5C20.4999 18.3123 19.9999 16.5 19.9999 16.5Z" fill="#14767C"/>
</svg>
