<svg width="205" height="5" viewBox="0 0 205 5" fill="none" xmlns="http://www.w3.org/2000/svg">
<g opacity="0.3">
<circle cx="2.5" cy="2.5" r="2.5" transform="rotate(-90 2.5 2.5)" fill="#FF4040"/>
<circle cx="82.5" cy="2.5" r="2.5" fill="#FF4040"/>
<path d="M7.5 -7.45058e-08C8.88071 -7.45058e-08 10 1.11929 10 2.5C10 3.88071 8.88071 5 7.5 5C6.11929 5 5 3.88071 5 2.5C5 1.11929 6.11929 -7.45058e-08 7.5 -7.45058e-08Z" fill="#FF791F"/>
<path d="M80 2.5C80 3.88071 78.8807 5 77.5 5C76.1193 5 75 3.88071 75 2.5C75 1.11929 76.1193 9.78513e-08 77.5 2.18557e-07C78.8807 3.39263e-07 80 1.11929 80 2.5Z" fill="#FF791F"/>
<circle cx="12.5" cy="2.5" r="2.5" transform="rotate(-90 12.5 2.5)" fill="#FFD00D"/>
<circle cx="72.5" cy="2.5" r="2.5" fill="#FFD00D"/>
<circle cx="17.5" cy="2.5" r="2.5" transform="rotate(-90 17.5 2.5)" fill="#78DD62"/>
<circle cx="67.5" cy="2.5" r="2.5" fill="#78DD62"/>
<circle cx="22.5" cy="2.5" r="2.5" transform="rotate(-90 22.5 2.5)" fill="#00D1BD"/>
<circle cx="62.5" cy="2.5" r="2.5" fill="#00D1BD"/>
<circle cx="27.5" cy="2.5" r="2.5" transform="rotate(-90 27.5 2.5)" fill="#0961F6"/>
<circle cx="57.5" cy="2.5" r="2.5" fill="#0961F6"/>
<circle cx="32.5" cy="2.5" r="2.5" transform="rotate(-90 32.5 2.5)" fill="#A06FCE"/>
<circle cx="52.5" cy="2.5" r="2.5" fill="#A06FCE"/>
<circle cx="37.5" cy="2.5" r="2.5" transform="rotate(-90 37.5 2.5)" fill="#F993CE"/>
<path d="M87.5 -7.45058e-08C88.8807 -7.45058e-08 90 1.11929 90 2.5C90 3.88071 88.8807 5 87.5 5C86.1193 5 85 3.88071 85 2.5C85 1.11929 86.1193 -7.45058e-08 87.5 -7.45058e-08Z" fill="#FF791F"/>
<circle cx="92.5" cy="2.5" r="2.5" transform="rotate(-90 92.5 2.5)" fill="#FFD00D"/>
<circle cx="97.5" cy="2.5" r="2.5" transform="rotate(-90 97.5 2.5)" fill="#78DD62"/>
<circle cx="102.5" cy="2.5" r="2.5" transform="rotate(-90 102.5 2.5)" fill="#00D1BD"/>
<circle cx="107.5" cy="2.5" r="2.5" transform="rotate(-90 107.5 2.5)" fill="#0961F6"/>
<circle cx="112.5" cy="2.5" r="2.5" transform="rotate(-90 112.5 2.5)" fill="#A06FCE"/>
<circle cx="117.5" cy="2.5" r="2.5" transform="rotate(-90 117.5 2.5)" fill="#F993CE"/>
<circle cx="47.5" cy="2.5" r="2.5" fill="#F993CE"/>
<circle cx="42.5" cy="2.5" r="2.5" transform="rotate(-90 42.5 2.5)" fill="#C0AB72"/>
<circle cx="162.5" cy="2.5" r="2.5" fill="#FF4040"/>
<path d="M160 2.5C160 3.88071 158.881 5 157.5 5C156.119 5 155 3.88071 155 2.5C155 1.11929 156.119 9.78513e-08 157.5 2.18557e-07C158.881 3.39263e-07 160 1.11929 160 2.5Z" fill="#FF791F"/>
<circle cx="152.5" cy="2.5" r="2.5" fill="#FFD00D"/>
<circle cx="147.5" cy="2.5" r="2.5" fill="#78DD62"/>
<circle cx="142.5" cy="2.5" r="2.5" fill="#00D1BD"/>
<circle cx="137.5" cy="2.5" r="2.5" fill="#0961F6"/>
<circle cx="132.5" cy="2.5" r="2.5" fill="#A06FCE"/>
<circle cx="127.5" cy="2.5" r="2.5" fill="#F993CE"/>
<circle cx="122.5" cy="2.5" r="2.5" transform="rotate(-90 122.5 2.5)" fill="#C0AB72"/>
<path d="M167.5 -7.45058e-08C168.881 -7.45058e-08 170 1.11929 170 2.5C170 3.88071 168.881 5 167.5 5C166.119 5 165 3.88071 165 2.5C165 1.11929 166.119 -7.45058e-08 167.5 -7.45058e-08Z" fill="#FF791F"/>
<circle cx="172.5" cy="2.5" r="2.5" transform="rotate(-90 172.5 2.5)" fill="#FFD00D"/>
<circle cx="177.5" cy="2.5" r="2.5" transform="rotate(-90 177.5 2.5)" fill="#78DD62"/>
<circle cx="182.5" cy="2.5" r="2.5" transform="rotate(-90 182.5 2.5)" fill="#00D1BD"/>
<circle cx="187.5" cy="2.5" r="2.5" transform="rotate(-90 187.5 2.5)" fill="#0961F6"/>
<circle cx="192.5" cy="2.5" r="2.5" transform="rotate(-90 192.5 2.5)" fill="#A06FCE"/>
<circle cx="197.5" cy="2.5" r="2.5" transform="rotate(-90 197.5 2.5)" fill="#F993CE"/>
<circle cx="202.5" cy="2.5" r="2.5" transform="rotate(-90 202.5 2.5)" fill="#C0AB72"/>
</g>
</svg>
