<svg width="225" height="5" viewBox="0 0 225 5" fill="none" xmlns="http://www.w3.org/2000/svg">
<circle opacity="0.3" cx="2.5" cy="2.5" r="2.5" transform="rotate(-90 2.5 2.5)" fill="#FF4040"/>
<circle opacity="0.3" cx="47.5" cy="2.5" r="2.5" transform="rotate(-90 47.5 2.5)" fill="#FF4040"/>
<circle opacity="0.3" cx="92.5" cy="2.5" r="2.5" transform="rotate(-90 92.5 2.5)" fill="#FF4040"/>
<circle opacity="0.3" cx="137.5" cy="2.5" r="2.5" transform="rotate(-90 137.5 2.5)" fill="#FF4040"/>
<circle opacity="0.3" cx="182.5" cy="2.5" r="2.5" transform="rotate(-90 182.5 2.5)" fill="#FF4040"/>
<path opacity="0.3" d="M7.5 -7.45058e-08C8.88071 -7.45058e-08 10 1.11929 10 2.5C10 3.88071 8.88071 5 7.5 5C6.11929 5 5 3.88071 5 2.5C5 1.11929 6.11929 -7.45058e-08 7.5 -7.45058e-08Z" fill="#FF791F"/>
<path opacity="0.3" d="M52.5 -7.45058e-08C53.8807 -7.45058e-08 55 1.11929 55 2.5C55 3.88071 53.8807 5 52.5 5C51.1193 5 50 3.88071 50 2.5C50 1.11929 51.1193 -7.45058e-08 52.5 -7.45058e-08Z" fill="#FF791F"/>
<path opacity="0.3" d="M97.5 -7.45058e-08C98.8807 -7.45058e-08 100 1.11929 100 2.5C100 3.88071 98.8807 5 97.5 5C96.1193 5 95 3.88071 95 2.5C95 1.11929 96.1193 -7.45058e-08 97.5 -7.45058e-08Z" fill="#FF791F"/>
<path opacity="0.3" d="M142.5 -7.45058e-08C143.881 -7.45058e-08 145 1.11929 145 2.5C145 3.88071 143.881 5 142.5 5C141.119 5 140 3.88071 140 2.5C140 1.11929 141.119 -7.45058e-08 142.5 -7.45058e-08Z" fill="#FF791F"/>
<path opacity="0.3" d="M187.5 -7.45058e-08C188.881 -7.45058e-08 190 1.11929 190 2.5C190 3.88071 188.881 5 187.5 5C186.119 5 185 3.88071 185 2.5C185 1.11929 186.119 -7.45058e-08 187.5 -7.45058e-08Z" fill="#FF791F"/>
<circle opacity="0.3" cx="12.5" cy="2.5" r="2.5" transform="rotate(-90 12.5 2.5)" fill="#FFD00D"/>
<circle opacity="0.3" cx="57.5" cy="2.5" r="2.5" transform="rotate(-90 57.5 2.5)" fill="#FFD00D"/>
<circle opacity="0.3" cx="102.5" cy="2.5" r="2.5" transform="rotate(-90 102.5 2.5)" fill="#FFD00D"/>
<circle opacity="0.3" cx="147.5" cy="2.5" r="2.5" transform="rotate(-90 147.5 2.5)" fill="#FFD00D"/>
<circle opacity="0.3" cx="192.5" cy="2.5" r="2.5" transform="rotate(-90 192.5 2.5)" fill="#FFD00D"/>
<circle opacity="0.3" cx="17.5" cy="2.5" r="2.5" transform="rotate(-90 17.5 2.5)" fill="#78DD62"/>
<circle opacity="0.3" cx="62.5" cy="2.5" r="2.5" transform="rotate(-90 62.5 2.5)" fill="#78DD62"/>
<circle opacity="0.3" cx="107.5" cy="2.5" r="2.5" transform="rotate(-90 107.5 2.5)" fill="#78DD62"/>
<circle opacity="0.3" cx="152.5" cy="2.5" r="2.5" transform="rotate(-90 152.5 2.5)" fill="#78DD62"/>
<circle opacity="0.3" cx="197.5" cy="2.5" r="2.5" transform="rotate(-90 197.5 2.5)" fill="#78DD62"/>
<circle opacity="0.3" cx="22.5" cy="2.5" r="2.5" transform="rotate(-90 22.5 2.5)" fill="#00D1BD"/>
<circle opacity="0.3" cx="67.5" cy="2.5" r="2.5" transform="rotate(-90 67.5 2.5)" fill="#00D1BD"/>
<circle opacity="0.3" cx="112.5" cy="2.5" r="2.5" transform="rotate(-90 112.5 2.5)" fill="#00D1BD"/>
<circle opacity="0.3" cx="157.5" cy="2.5" r="2.5" transform="rotate(-90 157.5 2.5)" fill="#00D1BD"/>
<circle opacity="0.3" cx="202.5" cy="2.5" r="2.5" transform="rotate(-90 202.5 2.5)" fill="#00D1BD"/>
<circle opacity="0.3" cx="27.5" cy="2.5" r="2.5" transform="rotate(-90 27.5 2.5)" fill="#0961F6"/>
<circle opacity="0.3" cx="72.5" cy="2.5" r="2.5" transform="rotate(-90 72.5 2.5)" fill="#0961F6"/>
<circle opacity="0.3" cx="117.5" cy="2.5" r="2.5" transform="rotate(-90 117.5 2.5)" fill="#0961F6"/>
<circle opacity="0.3" cx="162.5" cy="2.5" r="2.5" transform="rotate(-90 162.5 2.5)" fill="#0961F6"/>
<circle opacity="0.3" cx="207.5" cy="2.5" r="2.5" transform="rotate(-90 207.5 2.5)" fill="#0961F6"/>
<circle opacity="0.3" cx="32.5" cy="2.5" r="2.5" transform="rotate(-90 32.5 2.5)" fill="#A06FCE"/>
<circle opacity="0.3" cx="77.5" cy="2.5" r="2.5" transform="rotate(-90 77.5 2.5)" fill="#A06FCE"/>
<circle opacity="0.3" cx="122.5" cy="2.5" r="2.5" transform="rotate(-90 122.5 2.5)" fill="#A06FCE"/>
<circle opacity="0.3" cx="167.5" cy="2.5" r="2.5" transform="rotate(-90 167.5 2.5)" fill="#A06FCE"/>
<circle opacity="0.3" cx="212.5" cy="2.5" r="2.5" transform="rotate(-90 212.5 2.5)" fill="#A06FCE"/>
<circle opacity="0.3" cx="37.5" cy="2.5" r="2.5" transform="rotate(-90 37.5 2.5)" fill="#F993CE"/>
<circle opacity="0.3" cx="82.5" cy="2.5" r="2.5" transform="rotate(-90 82.5 2.5)" fill="#F993CE"/>
<circle opacity="0.3" cx="127.5" cy="2.5" r="2.5" transform="rotate(-90 127.5 2.5)" fill="#F993CE"/>
<circle opacity="0.3" cx="172.5" cy="2.5" r="2.5" transform="rotate(-90 172.5 2.5)" fill="#F993CE"/>
<circle opacity="0.3" cx="217.5" cy="2.5" r="2.5" transform="rotate(-90 217.5 2.5)" fill="#F993CE"/>
<circle opacity="0.3" cx="42.5" cy="2.5" r="2.5" transform="rotate(-90 42.5 2.5)" fill="#C0AB72"/>
<circle opacity="0.3" cx="87.5" cy="2.5" r="2.5" transform="rotate(-90 87.5 2.5)" fill="#C0AB72"/>
<circle opacity="0.3" cx="132.5" cy="2.5" r="2.5" transform="rotate(-90 132.5 2.5)" fill="#C0AB72"/>
<circle opacity="0.3" cx="177.5" cy="2.5" r="2.5" transform="rotate(-90 177.5 2.5)" fill="#C0AB72"/>
<circle opacity="0.3" cx="222.5" cy="2.5" r="2.5" transform="rotate(-90 222.5 2.5)" fill="#C0AB72"/>
</svg>
