<svg width="100" height="111" viewBox="0 0 100 111" fill="none" xmlns="http://www.w3.org/2000/svg">
<path d="M26.8358 0C48.644 -5.83992e-05 44.7263 39.462 44.7263 39.462L28.8236 54.9471C28.8236 54.9471 0 57.1602 0 32.9682C0 15.4851 12.424 3.85927e-05 26.8358 0Z" fill="#78DD62"/>
<path d="M30.0637 50.6075C30.5426 49.9813 31.0934 49.2654 31.6715 48.5221C32.9804 46.8393 34.5001 44.9234 35.6403 43.6149C35.3958 42.8313 35.2664 41.9819 35.1836 41.1799C35.0323 39.7128 35.0041 37.961 35.008 36.1052C35.0097 35.3117 35.0171 34.4942 35.0246 33.6588C35.0531 30.5098 35.0839 27.1072 34.819 23.7839C34.4822 19.5574 33.6833 15.799 32.0166 13.1404C30.4501 10.6415 28.0567 9 24.0002 9C19.3461 8.99999 15.1173 12.6997 11.8955 17.9247C8.70813 23.0939 7.00024 28.9814 7.00024 32C7.00024 39.45 9.52705 43.2384 12.7117 45.299C16.0741 47.4746 20.5721 48 25.0002 48C27.3397 48 29.0721 49.4946 30.0637 50.6075Z" fill="#BBEEB0" stroke="#2F831C" stroke-width="4"/>
<path d="M30 45C29.5001 46 25 46 25 46L29 50H34V35H33C33 35 33 39 32 39C29.0001 39 29.0001 34 25 34C24.0001 34 23.0001 34.5 23 36C22.9998 39 31.2039 42.5915 30 45Z" fill="#2F831C"/>
<path d="M73.1642 0C51.356 -5.83992e-05 55.2737 39.462 55.2737 39.462L71.1764 54.9471C71.1764 54.9471 100 57.1602 100 32.9682C100 15.4851 87.576 3.85927e-05 73.1642 0Z" fill="#78DD62"/>
<path d="M69.9363 50.6075C69.4574 49.9813 68.9066 49.2654 68.3285 48.5221C67.0196 46.8393 65.4999 44.9234 64.3597 43.6149C64.6042 42.8313 64.7336 41.9819 64.8164 41.1799C64.9677 39.7128 64.9959 37.961 64.992 36.1052C64.9903 35.3117 64.9829 34.4942 64.9754 33.6588C64.9469 30.5098 64.9161 27.1072 65.181 23.7839C65.5178 19.5574 66.3167 15.799 67.9834 13.1404C69.5499 10.6415 71.9433 9 75.9998 9C80.6539 8.99999 84.8827 12.6997 88.1045 17.9247C91.2919 23.0939 92.9998 28.9814 92.9998 32C92.9998 39.45 90.4729 43.2384 87.2883 45.299C83.9259 47.4746 79.4279 48 74.9998 48C72.6603 48 70.9279 49.4946 69.9363 50.6075Z" fill="#BBEEB0" stroke="#2F831C" stroke-width="4"/>
<path d="M70 45C70.4999 46 75 46 75 46L71 50H66V35H67C67 35 67 39 68 39C70.9999 39 70.9999 34 75 34C75.9999 34 76.9999 34.5 77 36C77.0002 39 68.7961 42.5915 70 45Z" fill="#2F831C"/>
<path d="M82.1313 84.5C82.1313 99.6584 67.8045 111 50.1313 111C32.4582 111 18.1313 99.6584 18.1313 84.5C18.1313 64.3416 37.4582 38 50.1313 38C62.8045 38 82.1313 64.3416 82.1313 84.5Z" fill="#78DD62"/>
<circle cx="50.1313" cy="96" r="8" fill="#2F831C"/>
<circle cx="47" cy="94" r="3" fill="#BBEEB0"/>
<rect x="53" y="56" width="4" height="15" rx="2" fill="#2F831C"/>
<rect x="43" y="56" width="4" height="15" rx="2" fill="#2F831C"/>
<path d="M32 100.402C32 99.4354 33.1357 98.8692 33.9278 99.4232C37.2149 101.723 44.12 106 50 106C55.88 106 62.7851 101.723 66.0722 99.4232C66.8643 98.8692 68 99.4354 68 100.402V100.402C68 100.777 67.8213 101.125 67.5087 101.332C65.4094 102.723 56.982 108 50 108C43.018 108 34.5906 102.723 32.4913 101.332C32.1787 101.125 32 100.777 32 100.402V100.402Z" fill="#2F831C"/>
</svg>
