<svg width="119" height="108" viewBox="0 0 119 108" fill="none" xmlns="http://www.w3.org/2000/svg">
<path d="M81 0C67.5 -3.05176e-05 70 13 70 13L89 24C89 24 96 21 96 13C96 5.24831 88.7517 1.75232e-05 81 0Z" fill="#78DD62"/>
<path d="M80.9999 4C71.9999 4 73.9999 14 73.9999 14L85.9999 21C85.9999 21 90.9999 16.0207 90.9999 12C90.9999 7 86.001 4 80.9999 4Z" fill="#2F831C"/>
<path d="M37 0C50.5 -3.05176e-05 48 13 48 13L29 24C29 24 22 21 22 13C22 5.24831 29.2483 1.75232e-05 37 0Z" fill="#78DD62"/>
<path d="M37.0001 4C46.0001 4 44.0001 14 44.0001 14L32.0001 21C32.0001 21 27.0001 16.0207 27.0001 12C27.0001 7 31.999 4 37.0001 4Z" fill="#2F831C"/>
<path d="M70 12C65.7944 11.0411 63.3135 11 59 11C54.6865 11 52.2056 11.0411 48 12C39.3092 13.9815 34.8523 17.2988 28 23C19.414 30.1437 11 46 11 46L0 51L13 58L2 65L14 71L9 76L24 87L41 100C41 100 43.2262 108 59 108C74.7738 108 77 100 77 100L94 87L109 76L105 71L116 65L106 58L119 51L107 46C107 46 98.586 30.1437 90 23C83.1477 17.2988 78.6908 13.9815 70 12Z" fill="#78DD62"/>
<circle cx="83" cy="47" r="9.5" fill="#BBEEB0" stroke="#2F831C"/>
<circle cx="82.5" cy="46.5" r="5.5" fill="#2F831C"/>
<circle r="9.5" transform="matrix(-1 0 0 1 37 47)" fill="#BBEEB0" stroke="#2F831C"/>
<circle r="5.5" transform="matrix(-1 0 0 1 37.5 46.5)" fill="#2F831C"/>
<path d="M77 100C61 100 59 94 59 94C59 94 57 100 41 100C29 100 22 91.4934 22 81C22.0001 63.5 41.3398 55 59 55C76.6602 55 96 64 96 81C96 91.4934 89 100 77 100Z" fill="#BBEEB0"/>
<path d="M60 57C54.0261 57 45 58.0261 45 60C45 65 53.1686 69 60 69C66.8314 69 75 65 75 60C75 58.0261 65.9739 57 60 57Z" fill="#2F831C"/>
<ellipse cx="60" cy="60.5" rx="5" ry="2.5" fill="#BBEEB0"/>
<circle cx="84" cy="72" r="2" fill="#2F831C"/>
<circle cx="91" cy="78" r="2" fill="#2F831C"/>
<circle cx="83" cy="84" r="2" fill="#2F831C"/>
<circle cx="75" cy="79" r="2" fill="#2F831C"/>
<circle cx="44" cy="79" r="2" fill="#2F831C"/>
<circle cx="28" cy="78" r="2" fill="#2F831C"/>
<circle cx="35" cy="72" r="2" fill="#2F831C"/>
<circle cx="36" cy="84" r="2" fill="#2F831C"/>
</svg>
