<svg width="88" height="89" viewBox="0 0 88 89" fill="none" xmlns="http://www.w3.org/2000/svg">
<path d="M88 44.5C88 79.0767 63.3005 89 44 89C24.6995 89 0 79.0767 0 44.5C0 19.9233 14.6995 0 44 0C73.3005 0 88 19.9233 88 44.5Z" fill="#78DD62"/>
<path d="M19 75C36.4785 75 49 64 49 64C43.9045 56.447 37.6019 51.5737 27 43H25C7.62785 52.7356 2 58.5 2 70C3.93636 71.1055 7.3926 71.0069 13 71C13 71 14.5 75 19 75Z" fill="#BBEEB0"/>
<path d="M19 75C36.4785 75 49 64 49 64C49 64 38.1649 67.6253 31 69C24.054 70.3327 13 71 13 71C13 71 14.5 75 19 75Z" fill="#2F831C"/>
<path d="M16.5 48L13 50.5C13 50.5 15.9876 53.0373 17 50C17.5 48.5 16.5 48 16.5 48Z" fill="#2F831C"/>
<ellipse cx="31" cy="52" rx="3" ry="2" fill="#2F831C"/>
<ellipse cx="50.5" cy="43.5" rx="6.5" ry="11.5" fill="#2F831C"/>
<ellipse cx="48.5" cy="42.5" rx="2.5" ry="3.5" fill="#BBEEB0"/>
<ellipse cx="10.5" cy="38" rx="3.5" ry="11" fill="#2F831C"/>
<ellipse cx="8.99829" cy="36.2148" rx="1.5" ry="3" fill="#BBEEB0"/>
</svg>
