<svg width="120" height="89" viewBox="0 0 120 89" fill="none" xmlns="http://www.w3.org/2000/svg">
<path fill-rule="evenodd" clip-rule="evenodd" d="M29.9487 18.9282C22.4089 8.38795 15.5381 4.4655 0 0C0 26.588 4.84856 41.5394 21.2301 41.9895C21.0773 43.6325 21 45.3045 21 47C21 70.196 41.4609 89 60 89C78.5391 89 99 70.196 99 47C99 45.3045 98.9227 43.6325 98.7699 41.9895C115.151 41.5394 120 26.588 120 0C104.462 4.4655 97.5911 8.38795 90.0513 18.9282C83.3631 10.3774 73.1226 5 60 5C46.8774 5 36.6369 10.3774 29.9487 18.9282Z" fill="#3FD8E0"/>
<path d="M81 71.5C81 81.165 74 89 60 89C46 89 39 81.165 39 71.5C39 61.835 48.402 54 60 54C71.598 54 81 61.835 81 71.5Z" fill="#9FEBF0"/>
<path d="M98.9998 41C98.9997 24 102 9 117 6C117 29 113.5 34.5 98.9998 41Z" fill="#14767C"/>
<path d="M20.9998 41C20.9998 24 17.9995 9 2.99976 6C2.99976 29 6.49949 34.5 20.9998 41Z" fill="#14767C"/>
<path d="M70 67.5C70 69.9853 65.5228 72 60 72C54.4772 72 50 69.9853 50 67.5C50 64.0147 54.4772 63 60 63C65.5228 63 70 64.0147 70 67.5Z" fill="#14767C"/>
<ellipse cx="60" cy="67" rx="5" ry="2" fill="#9FEBF0"/>
<path d="M60 81C53.6427 81 44 78 44 78C44 78 49.4536 83 60 83C70.5464 83 76 78 76 78C76 78 66.3573 81 60 81Z" fill="#14767C"/>
<ellipse cx="31.6534" cy="48.9849" rx="5.5" ry="10" transform="rotate(-10 31.6534 48.9849)" fill="#14767C"/>
<ellipse cx="30.5811" cy="49.5" rx="2.5" ry="4.5" transform="rotate(-10 30.5811 49.5)" fill="#9FEBF0"/>
<ellipse rx="5.5" ry="10" transform="matrix(-0.984808 -0.173648 -0.173648 0.984808 88.6603 48.9055)" fill="#14767C"/>
<ellipse rx="2.5" ry="4.5" transform="matrix(-0.984808 -0.173648 -0.173648 0.984808 89.7395 49.5)" fill="#9FEBF0"/>
</svg>
