<svg width="109" height="97" viewBox="0 0 109 97" fill="none" xmlns="http://www.w3.org/2000/svg">
<path d="M93.0011 58.5C93.0011 85.2858 75.764 97 54.5011 97C33.2381 97 16.0011 85.2858 16.0011 58.5C16.0011 51.7142 15.2381 0 54.5011 0C93.764 0 93.0011 51.7142 93.0011 58.5Z" fill="#3FD8E0"/>
<path d="M109 51C109 40 81 9.00003 78 9.00003C78 9.00003 95.5 56 104 56C107 56 109 54 109 51Z" fill="#14767C"/>
<path d="M0 51C0 40 28 9.00003 31 9.00003C31 9.00003 13.5 56 5 56C2 56 0 54 0 51Z" fill="#14767C"/>
<path d="M67 54.9991C67 62.1788 59.1797 64.9991 56 64.9991C52.8203 64.9991 45 62.1788 45 54.9991C45 49.9991 54 49.9991 56 49.9991C58 49.9991 67 49.9991 67 54.9991Z" fill="#14767C"/>
<path fill-rule="evenodd" clip-rule="evenodd" d="M59 63.9991H53V71.9991C53 71.9991 49.9999 75.9991 44 75.9991C40.8515 75.9991 38 75.1477 38 72.9991V72.9991C38 70.9991 38 68.9991 36 68.9991C34.0002 68.9991 34.0001 70.9987 34 72.9984V72.9991C33.9998 77.091 38 79.9991 44 79.9991C54 79.9991 56 74.9991 56 74.9991C56 74.9991 57 79.9991 67 79.9991C73 79.9991 77.9999 76.9991 78 72.9991C78.0001 70.9991 77.7465 68.9991 76 68.9991C74.2535 68.9991 74.0001 70.9991 74 72.9991C73.9999 74.9991 69.9021 75.9991 67 75.9991C61.3158 75.9991 59 71.9991 59 71.9991V63.9991Z" fill="#14767C"/>
<ellipse cx="53" cy="54.4991" rx="4" ry="2.5" fill="#9FEBF0"/>
<path d="M38 26.9991C38 24.2377 40.2386 21.9991 43 21.9991V21.9991C44.6569 21.9991 46 23.3423 46 24.9991V32.9991C46 35.7606 43.7614 37.9991 41 37.9991V37.9991C39.3431 37.9991 38 36.656 38 34.9991V26.9991Z" fill="#14767C"/>
<path d="M72 26.9991C72 24.2377 69.7614 21.9991 67 21.9991V21.9991C65.3431 21.9991 64 23.3423 64 24.9991V32.9991C64 35.7606 66.2386 37.9991 69 37.9991V37.9991C70.6569 37.9991 72 36.656 72 34.9991V26.9991Z" fill="#14767C"/>
</svg>
