<svg width="107" height="111" viewBox="0 0 107 111" fill="none" xmlns="http://www.w3.org/2000/svg">
<path d="M87.0093 35C75.5153 28.3634 68.2413 26.2693 54.0093 25C48.7271 18.3562 46.1423 14.1866 43.0093 5C38.9365 10.9364 39.2656 15.442 41.0093 24C35.0093 24 30.0093 25 27.0093 27C19.7257 18.3073 16.0509 12.2596 10.0093 0C10.0093 0 4.00928 11.5 4.00928 20C4.00928 39.8873 8.00935 45 8.00935 45C8.00935 45 -0.316997 60.3816 0.00934851 71C0.639147 91.4919 13.5078 111 34.0093 111C48.5093 111 60.5093 100 70.0093 100C87.426 100 100.009 86.4167 100.009 67C100.009 50.5 93.0093 40 93.0093 40C93.0093 40 96.4375 40.2225 98.0093 39C102.509 35.5 106.009 25.0509 106.009 20C106.009 14.5 100.009 7 100.009 7C91.9956 13.3257 89.6501 20.2418 87.0093 35Z" fill="#3FD8E0"/>
<path d="M34.0094 111C48.5093 111 57.5 97 71.0094 97V96C50 96 55 107 34.0094 107C17.7309 107 14 100 14 100H10.6428C16.4278 106.693 24.3759 111 34.0094 111Z" fill="#14767C"/>
<path d="M92.671 15.4482C94.4525 12.2153 96.767 9.55933 100.009 7C100.009 7 106.009 14.5 106.009 20C106.009 25.0509 102.509 35.5 98.0093 39C89.8996 33.5096 88.6278 26.7402 90.4055 20.6266C90.9287 18.8272 91.7161 17.0846 92.671 15.4482Z" fill="#9FEBF0"/>
<path d="M104 22C104 27.5915 98 35 98 35C98 35 94 30.5 94 23C94 16.5 99 13 99 13C99 13 104 16 104 22Z" fill="#14767C"/>
<path d="M27.0093 27C19.7257 18.3073 16.0509 12.2596 10.0093 0C10.0093 0 4.00928 11.5 4.00928 20C4.00928 39.8873 8.00935 45 8.00935 45C8.00935 45 9.79344 49 12 49C16 49 30 43 30 34C30 29.0273 27.0093 27 27.0093 27Z" fill="#14767C"/>
<ellipse cx="87" cy="64" rx="8" ry="13" fill="#9FEBF0"/>
<ellipse cx="89.5" cy="64" rx="5.5" ry="9" fill="#14767C"/>
</svg>
