<svg width="126" height="102" viewBox="0 0 126 102" fill="none" xmlns="http://www.w3.org/2000/svg">
<path d="M86 0.371094C77.5 0.37113 75 12.3711 75 12.3711L95 23.3711C95 23.3711 101.645 0.371027 86 0.371094Z" fill="#14767C"/>
<path d="M40.4019 0.371094C48.9019 0.37113 51.4019 12.3711 51.4019 12.3711L31.4019 23.3711C31.4019 23.3711 24.7566 0.371027 40.4019 0.371094Z" fill="#14767C"/>
<path d="M90.9737 73.7127C100.172 67.1102 106 57.3105 106 46.3712C106 46.133 105.997 45.8953 105.992 45.6583C107.322 47.1397 109.992 49.3712 114 49.3712C126.126 49.3712 126 32.3712 126 32.3712L100 26.3711C92.308 16.6133 78.0095 10.3712 63.0001 10.3712C47.9906 10.3712 33.692 16.6133 26 26.3711L5.25727e-05 32.3712C5.25727e-05 32.3712 -0.126233 49.3712 12.0001 49.3712C16.0083 49.3712 18.6778 47.1397 20.0083 45.6583C20.0028 45.8953 20.0001 46.133 20.0001 46.3712C20.0001 57.3106 25.8282 67.1104 35.0267 73.7129C35.2994 76.9042 37.9459 101.371 55.0002 101.371H71.0002C88.0549 101.371 90.7011 76.9033 90.9737 73.7127Z" fill="#3FD8E0"/>
<path d="M18 31.3711C20.4699 31.3711 23 33.3711 23 33.3711L21 43.3711C21 43.3711 16.4101 47.3711 13 47.3711C4 47.3711 3 35.3711 3 35.3711C3 35.3711 12 31.3711 18 31.3711Z" fill="#14767C"/>
<path d="M15 35.3711C20.9741 35.3711 22 37.3711 22 37.3711L21 42.3711C21 42.3711 17.5 44.3711 15 44.3711C9.84867 44.3711 7 37.3711 7 37.3711C7 37.3711 10.5 35.3711 15 35.3711Z" fill="#9FEBF0"/>
<path d="M108 31.3711C105.53 31.3711 103 33.3711 103 33.3711L105 43.3711C105 43.3711 109.59 47.3711 113 47.3711C122 47.3711 123 35.3711 123 35.3711C123 35.3711 114 31.3711 108 31.3711Z" fill="#14767C"/>
<path d="M111 35.3711C105.026 35.3711 104 37.3711 104 37.3711L105 42.3711C105 42.3711 108.5 44.3711 111 44.3711C116.151 44.3711 119 37.3711 119 37.3711C119 37.3711 115.5 35.3711 111 35.3711Z" fill="#9FEBF0"/>
<path d="M66 85.3711C66 85.3711 66 82.3711 63 82.3711C60 82.3711 60 85.3711 60 85.3711V94.3711C60 94.3711 58 96.3711 54 96.3711C51 96.3711 51 93.3711 51 93.3711H49V95.3711C49 98.3711 53 99.3711 55 99.3711C58 99.3711 63 97.3711 63 97.3711C63 97.3711 68 99.3711 71 99.3711C73 99.3711 77 98.3711 77 95.3711V93.3711H75C75 93.3711 75 96.3711 71 96.3711C66.897 96.3711 66 94.3711 66 94.3711V85.3711Z" fill="#14767C"/>
<path d="M106 45.3711H20C20 45.3711 20.7861 39.1642 22 35.3711C23.1724 31.7079 26 26.3711 26 26.3711H100C100 26.3711 102.828 31.7079 104 35.3711C105.214 39.1642 106 45.3711 106 45.3711Z" fill="#3FD8E0"/>
<ellipse cx="38" cy="51.3699" rx="10" ry="11" fill="#9FEBF0"/>
<ellipse cx="38" cy="51.3699" rx="6" ry="7" fill="#14767C"/>
<ellipse cx="88" cy="51.3699" rx="10" ry="11" fill="#9FEBF0"/>
<ellipse cx="88" cy="51.3699" rx="6" ry="7" fill="#14767C"/>
</svg>
