<svg width="630" height="630" viewBox="0 0 630 630" fill="none" xmlns="http://www.w3.org/2000/svg">
<rect width="630" height="630" fill="black"/>
<g opacity="0.5">
<rect width="630" height="630" fill="#4D4D4D"/>
<rect width="630" height="630" fill="url(#paint0_radial)"/>
</g>
<g opacity="0.5">
<circle cx="37" cy="21" r="15" fill="white" fill-opacity="0.2"/>
<circle cx="253" cy="21" r="15" fill="white" fill-opacity="0.2"/>
<circle cx="469" cy="21" r="15" fill="white" fill-opacity="0.2"/>
<circle cx="91" cy="21" r="15" fill="white" fill-opacity="0.2"/>
<circle cx="307" cy="21" r="15" fill="white" fill-opacity="0.2"/>
<circle cx="523" cy="21" r="15" fill="white" fill-opacity="0.2"/>
<circle cx="145" cy="21" r="15" fill="white" fill-opacity="0.2"/>
<circle cx="361" cy="21" r="15" fill="white" fill-opacity="0.2"/>
<circle cx="577" cy="21" r="15" fill="white" fill-opacity="0.2"/>
<circle cx="199" cy="21" r="15" fill="white" fill-opacity="0.2"/>
<circle cx="415" cy="21" r="15" fill="white" fill-opacity="0.2"/>
<circle cx="38" cy="129" r="15" fill="white" fill-opacity="0.2"/>
<circle cx="254" cy="129" r="15" fill="white" fill-opacity="0.2"/>
<circle cx="470" cy="129" r="15" fill="white" fill-opacity="0.2"/>
<circle cx="92" cy="129" r="15" fill="white" fill-opacity="0.2"/>
<circle cx="308" cy="129" r="15" fill="white" fill-opacity="0.2"/>
<circle cx="524" cy="129" r="15" fill="white" fill-opacity="0.2"/>
<circle cx="146" cy="129" r="15" fill="white" fill-opacity="0.2"/>
<circle cx="362" cy="129" r="15" fill="white" fill-opacity="0.2"/>
<circle cx="578" cy="129" r="15" fill="white" fill-opacity="0.2"/>
<circle cx="200" cy="129" r="15" fill="white" fill-opacity="0.2"/>
<circle cx="416" cy="129" r="15" fill="white" fill-opacity="0.2"/>
<circle cx="39" cy="237" r="15" fill="white" fill-opacity="0.2"/>
<circle cx="255" cy="237" r="15" fill="white" fill-opacity="0.2"/>
<circle cx="471" cy="237" r="15" fill="white" fill-opacity="0.2"/>
<circle cx="93" cy="237" r="15" fill="white" fill-opacity="0.2"/>
<circle cx="309" cy="237" r="15" fill="white" fill-opacity="0.2"/>
<circle cx="525" cy="237" r="15" fill="white" fill-opacity="0.2"/>
<circle cx="147" cy="237" r="15" fill="white" fill-opacity="0.2"/>
<circle cx="363" cy="237" r="15" fill="white" fill-opacity="0.2"/>
<circle cx="579" cy="237" r="15" fill="white" fill-opacity="0.2"/>
<circle cx="201" cy="237" r="15" fill="white" fill-opacity="0.2"/>
<circle cx="417" cy="237" r="15" fill="white" fill-opacity="0.2"/>
<circle cx="40" cy="345" r="15" fill="white" fill-opacity="0.2"/>
<circle cx="256" cy="345" r="15" fill="white" fill-opacity="0.2"/>
<circle cx="472" cy="345" r="15" fill="white" fill-opacity="0.2"/>
<circle cx="94" cy="345" r="15" fill="white" fill-opacity="0.2"/>
<circle cx="310" cy="345" r="15" fill="white" fill-opacity="0.2"/>
<circle cx="526" cy="345" r="15" fill="white" fill-opacity="0.2"/>
<circle cx="148" cy="345" r="15" fill="white" fill-opacity="0.2"/>
<circle cx="364" cy="345" r="15" fill="white" fill-opacity="0.2"/>
<circle cx="580" cy="345" r="15" fill="white" fill-opacity="0.2"/>
<circle cx="202" cy="345" r="15" fill="white" fill-opacity="0.2"/>
<circle cx="418" cy="345" r="15" fill="white" fill-opacity="0.2"/>
<circle cx="41" cy="453" r="15" fill="white" fill-opacity="0.2"/>
<circle cx="257" cy="453" r="15" fill="white" fill-opacity="0.2"/>
<circle cx="473" cy="453" r="15" fill="white" fill-opacity="0.2"/>
<circle cx="95" cy="453" r="15" fill="white" fill-opacity="0.2"/>
<circle cx="311" cy="453" r="15" fill="white" fill-opacity="0.2"/>
<circle cx="527" cy="453" r="15" fill="white" fill-opacity="0.2"/>
<circle cx="149" cy="453" r="15" fill="white" fill-opacity="0.2"/>
<circle cx="365" cy="453" r="15" fill="white" fill-opacity="0.2"/>
<circle cx="581" cy="453" r="15" fill="white" fill-opacity="0.2"/>
<circle cx="203" cy="453" r="15" fill="white" fill-opacity="0.2"/>
<circle cx="419" cy="453" r="15" fill="white" fill-opacity="0.2"/>
<circle cx="42" cy="561" r="15" fill="white" fill-opacity="0.2"/>
<circle cx="258" cy="561" r="15" fill="white" fill-opacity="0.2"/>
<circle cx="474" cy="561" r="15" fill="white" fill-opacity="0.2"/>
<circle cx="96" cy="561" r="15" fill="white" fill-opacity="0.2"/>
<circle cx="312" cy="561" r="15" fill="white" fill-opacity="0.2"/>
<circle cx="528" cy="561" r="15" fill="white" fill-opacity="0.2"/>
<circle cx="150" cy="561" r="15" fill="white" fill-opacity="0.2"/>
<circle cx="366" cy="561" r="15" fill="white" fill-opacity="0.2"/>
<circle cx="582" cy="561" r="15" fill="white" fill-opacity="0.2"/>
<circle cx="204" cy="561" r="15" fill="white" fill-opacity="0.2"/>
<circle cx="420" cy="561" r="15" fill="white" fill-opacity="0.2"/>
<circle cx="226" cy="75" r="15" fill="white" fill-opacity="0.2"/>
<circle cx="442" cy="75" r="15" fill="white" fill-opacity="0.2"/>
<circle cx="64" cy="75" r="15" fill="white" fill-opacity="0.2"/>
<circle cx="280" cy="75" r="15" fill="white" fill-opacity="0.2"/>
<circle cx="496" cy="75" r="15" fill="white" fill-opacity="0.2"/>
<circle cx="118" cy="75" r="15" fill="white" fill-opacity="0.2"/>
<circle cx="334" cy="75" r="15" fill="white" fill-opacity="0.2"/>
<circle cx="550" cy="75" r="15" fill="white" fill-opacity="0.2"/>
<circle cx="172" cy="75" r="15" fill="white" fill-opacity="0.2"/>
<circle cx="388" cy="75" r="15" fill="white" fill-opacity="0.2"/>
<circle cx="604" cy="75" r="15" fill="white" fill-opacity="0.2"/>
<circle cx="226" cy="183" r="15" fill="white" fill-opacity="0.2"/>
<circle cx="442" cy="183" r="15" fill="white" fill-opacity="0.2"/>
<circle cx="64" cy="183" r="15" fill="white" fill-opacity="0.2"/>
<circle cx="280" cy="183" r="15" fill="white" fill-opacity="0.2"/>
<circle cx="496" cy="183" r="15" fill="white" fill-opacity="0.2"/>
<circle cx="118" cy="183" r="15" fill="white" fill-opacity="0.2"/>
<circle cx="334" cy="183" r="15" fill="white" fill-opacity="0.2"/>
<circle cx="550" cy="183" r="15" fill="white" fill-opacity="0.2"/>
<circle cx="172" cy="183" r="15" fill="white" fill-opacity="0.2"/>
<circle cx="388" cy="183" r="15" fill="white" fill-opacity="0.2"/>
<circle cx="604" cy="183" r="15" fill="white" fill-opacity="0.2"/>
<circle cx="226" cy="291" r="15" fill="white" fill-opacity="0.2"/>
<circle cx="442" cy="291" r="15" fill="white" fill-opacity="0.2"/>
<circle cx="64" cy="291" r="15" fill="white" fill-opacity="0.2"/>
<circle cx="280" cy="291" r="15" fill="white" fill-opacity="0.2"/>
<circle cx="496" cy="291" r="15" fill="white" fill-opacity="0.2"/>
<circle cx="118" cy="291" r="15" fill="white" fill-opacity="0.2"/>
<circle cx="334" cy="291" r="15" fill="white" fill-opacity="0.2"/>
<circle cx="550" cy="291" r="15" fill="white" fill-opacity="0.2"/>
<circle cx="172" cy="291" r="15" fill="white" fill-opacity="0.2"/>
<circle cx="388" cy="291" r="15" fill="white" fill-opacity="0.2"/>
<circle cx="604" cy="291" r="15" fill="white" fill-opacity="0.2"/>
<circle cx="226" cy="399" r="15" fill="white" fill-opacity="0.2"/>
<circle cx="442" cy="399" r="15" fill="white" fill-opacity="0.2"/>
<circle cx="64" cy="399" r="15" fill="white" fill-opacity="0.2"/>
<circle cx="280" cy="399" r="15" fill="white" fill-opacity="0.2"/>
<circle cx="496" cy="399" r="15" fill="white" fill-opacity="0.2"/>
<circle cx="118" cy="399" r="15" fill="white" fill-opacity="0.2"/>
<circle cx="334" cy="399" r="15" fill="white" fill-opacity="0.2"/>
<circle cx="550" cy="399" r="15" fill="white" fill-opacity="0.2"/>
<circle cx="172" cy="399" r="15" fill="white" fill-opacity="0.2"/>
<circle cx="388" cy="399" r="15" fill="white" fill-opacity="0.2"/>
<circle cx="604" cy="399" r="15" fill="white" fill-opacity="0.2"/>
<circle cx="226" cy="507" r="15" fill="white" fill-opacity="0.2"/>
<circle cx="442" cy="507" r="15" fill="white" fill-opacity="0.2"/>
<circle cx="64" cy="507" r="15" fill="white" fill-opacity="0.2"/>
<circle cx="280" cy="507" r="15" fill="white" fill-opacity="0.2"/>
<circle cx="496" cy="507" r="15" fill="white" fill-opacity="0.2"/>
<circle cx="118" cy="507" r="15" fill="white" fill-opacity="0.2"/>
<circle cx="334" cy="507" r="15" fill="white" fill-opacity="0.2"/>
<circle cx="550" cy="507" r="15" fill="white" fill-opacity="0.2"/>
<circle cx="172" cy="507" r="15" fill="white" fill-opacity="0.2"/>
<circle cx="388" cy="507" r="15" fill="white" fill-opacity="0.2"/>
<circle cx="604" cy="507" r="15" fill="white" fill-opacity="0.2"/>
<circle cx="226" cy="615" r="15" fill="white" fill-opacity="0.2"/>
<circle cx="442" cy="615" r="15" fill="white" fill-opacity="0.2"/>
<circle cx="64" cy="615" r="15" fill="white" fill-opacity="0.2"/>
<circle cx="280" cy="615" r="15" fill="white" fill-opacity="0.2"/>
<circle cx="496" cy="615" r="15" fill="white" fill-opacity="0.2"/>
<circle cx="118" cy="615" r="15" fill="white" fill-opacity="0.2"/>
<circle cx="334" cy="615" r="15" fill="white" fill-opacity="0.2"/>
<circle cx="550" cy="615" r="15" fill="white" fill-opacity="0.2"/>
<circle cx="172" cy="615" r="15" fill="white" fill-opacity="0.2"/>
<circle cx="388" cy="615" r="15" fill="white" fill-opacity="0.2"/>
<circle cx="604" cy="615" r="15" fill="white" fill-opacity="0.2"/>
<path fill-rule="evenodd" clip-rule="evenodd" d="M0 86.1805V63.8195C2.65378 61.4443 6.15823 60 10 60C18.2843 60 25 66.7157 25 75C25 83.2843 18.2843 90 10 90C6.15823 90 2.65378 88.5557 0 86.1805ZM0 194.181V171.819C2.65378 169.444 6.15823 168 10 168C18.2843 168 25 174.716 25 183C25 191.284 18.2843 198 10 198C6.15823 198 2.65378 196.556 0 194.181ZM0 302.181V279.819C2.65378 277.444 6.15823 276 10 276C18.2843 276 25 282.716 25 291C25 299.284 18.2843 306 10 306C6.15823 306 2.65378 304.556 0 302.181ZM0 410.181V387.819C2.65378 385.444 6.15823 384 10 384C18.2843 384 25 390.716 25 399C25 407.284 18.2843 414 10 414C6.15823 414 2.65378 412.556 0 410.181ZM0 518.181V495.819C2.65378 493.444 6.15823 492 10 492C18.2843 492 25 498.716 25 507C25 515.284 18.2843 522 10 522C6.15823 522 2.65378 520.556 0 518.181ZM0 626.181V603.819C2.65378 601.444 6.15823 600 10 600C18.2843 600 25 606.716 25 615C25 623.284 18.2843 630 10 630C6.15823 630 2.65378 628.556 0 626.181Z" fill="white" fill-opacity="0.2"/>
<path fill-rule="evenodd" clip-rule="evenodd" d="M630 547.248V574.752C624.702 572.437 621 567.151 621 561C621 554.849 624.702 549.563 630 547.248ZM630 438.853V467.146C624.174 465.087 620 459.531 620 453C620 446.469 624.174 440.913 630 438.853ZM630 330.539V359.461C623.658 357.71 619 351.899 619 345C619 338.101 623.658 332.29 630 330.539ZM630 222.3V251.7C623.153 250.31 618 244.257 618 237C618 229.743 623.153 223.69 630 222.3ZM630 114.132V143.868C622.661 142.89 617 136.606 617 129C617 121.394 622.661 115.11 630 114.132ZM630 6.03271V35.9671C622.182 35.4525 616 28.9482 616 20.9999C616 13.0517 622.182 6.5473 630 6.03271Z" fill="white" fill-opacity="0.2"/>
</g>
<defs>
<radialGradient id="paint0_radial" cx="0" cy="0" r="1" gradientUnits="userSpaceOnUse" gradientTransform="translate(315 315) rotate(90) scale(315)">
<stop stop-color="white" stop-opacity="0.5"/>
<stop offset="1" stop-color="white" stop-opacity="0"/>
</radialGradient>
</defs>
</svg>
