<svg width="113" height="106" viewBox="0 0 113 106" fill="none" xmlns="http://www.w3.org/2000/svg">
<path d="M68.4468 11.9155C65.0681 16.5294 81.9605 18 81.9605 18C81.9605 18 83 15.9718 83 12.9296C83 9.88733 79.5522 2.12115 76.7629 0.760566C74.6839 -0.253522 73.6444 -0.253522 71.5653 0.760566C67.4253 2.77989 71.0458 8.3662 68.4468 11.9155Z" fill="#866C00"/>
<path d="M43.5532 11.9155C46.9319 16.5294 30.0395 18 30.0395 18C30.0395 18 29 15.9718 29 12.9296C29 9.88733 32.4478 2.12115 35.2371 0.760566C37.3161 -0.253522 38.3556 -0.253522 40.4347 0.760566C44.5747 2.77989 40.9542 8.3662 43.5532 11.9155Z" fill="#866C00"/>
<path fill-rule="evenodd" clip-rule="evenodd" d="M56.5 10C40.5 10 28.5 14.4976 27 25.9915L0 28.9899C1.5 40.4838 13 47.9798 24 43.982V48.9793C24 48.9793 13 62.4721 13 75.965C13 108.584 56.5 105.949 56.5 105.949C56.5 105.949 100 108.584 100 75.965C100 62.4721 89 48.9793 89 48.9793V43.982C100 47.9798 111.5 40.4838 113 28.9899L86 25.9915C84.5 14.4976 72.5 10 56.5 10Z" fill="#FFD00D"/>
<path d="M12.9999 75.965C12.9999 108.584 56.4999 105.949 56.4999 105.949C56.4999 105.949 99.9999 108.584 99.9999 75.965C99.9999 75.965 99.9999 53 77.9999 53C64.8977 53 65.6022 59 56.4999 59C47.3977 59 48.1022 53 34.9999 53C12.4999 53 12.9999 75.965 12.9999 75.965Z" fill="#FFE886"/>
<path d="M13 31C2 31 1 33 1 33L25 42L27 40V33C27 33 24.7004 31 13 31Z" fill="#866C00"/>
<path d="M17 33H1C1 33 5 45 18 45C21 45 25 42 25 42C25 42 21.7025 33 17 33Z" fill="#FFE886"/>
<path d="M100 31C111 31 112 33 112 33L88 42L86 40V33C86 33 88.2996 31 100 31Z" fill="#866C00"/>
<path d="M96 33H112C112 33 108 45 95 45C92 45 88 42 88 42C88 42 91.2975 33 96 33Z" fill="#FFE886"/>
<path d="M27 26H86C86 26 87.4142 31.4853 88 35C88.5858 38.5147 89 44 89 44H24C24 44 24.4142 38.5147 25 35C25.5858 31.4853 27 26 27 26Z" fill="#FFD00D"/>
<path d="M87 76C87 80.5 83.1944 83 77.5 83C72.8056 83 71 80.6944 71 76C71 71.3056 78.8056 67 83.5 67C87.1944 67 87 71.5 87 76Z" fill="#866C00"/>
<path d="M26.0017 76C26.0017 80.5 29.8073 83 35.5017 83C40.1961 83 42.0017 80.6944 42.0017 76C42.0017 71.3056 34.1961 67 29.5017 67C25.8073 67 26.0017 71.5 26.0017 76Z" fill="#866C00"/>
<ellipse cx="72.1242" cy="36" rx="7" ry="9" transform="rotate(-30 72.1242 36)" fill="#FFE886"/>
<ellipse cx="72.1243" cy="36" rx="4" ry="5" transform="rotate(-30 72.1243 36)" fill="#866C00"/>
<ellipse rx="7" ry="9" transform="matrix(-0.866025 -0.5 -0.5 0.866025 40.9998 36)" fill="#FFE886"/>
<ellipse rx="4" ry="5" transform="matrix(-0.866025 -0.5 -0.5 0.866025 40.9998 36)" fill="#866C00"/>
</svg>
