<svg width="121" height="91" viewBox="0 0 121 91" fill="none" xmlns="http://www.w3.org/2000/svg">
<path d="M57.0001 0.371094C52.0001 0.371094 53.0001 8.37109 53.0001 8.37109C44.1453 11.0448 39.8379 14.796 33.0001 24.3711H24.0001C24.0001 24.3711 20.9707 15.3711 15.0001 15.3711C6.00015 15.3711 8.00015 31.3711 8.00015 31.3711C8.00015 31.3711 0.0349181 37.3203 0.000148936 50.3711C-0.0467544 67.9765 11.0001 72.3711 11.0001 72.3711V77.3711C11.0001 77.3711 13.5072 81.3711 19.0001 81.3711C26.0001 81.3711 26.0001 76.3711 26.0001 76.3711C29 78.8699 30.5 78.8699 33.0001 80.3711V86.3711C33.0001 86.3711 36.5072 90.3711 41.0001 90.3711C47.5001 90.3711 47.0001 83.3711 47.0001 83.3711C47.0001 83.3711 52.6546 83.5169 56.0001 82.3711C59.4856 81.1774 64.0002 77.3711 64.0002 77.3711C64.0002 77.3711 99.603 79.177 100 45.3711C100.056 40.6205 98.0002 33.3711 98.0002 33.3711C111.429 32.707 119 25.8711 121 12.3711C107.927 10.2151 102.134 12.6202 92.0002 17.3711C84.0001 7.8711 74.5001 5.37109 64.0001 6.37109C64.0001 6.37109 60.6006 0.371094 57.0001 0.371094Z" fill="#F993CE"/>
<path d="M47 81.3711C47 81.3711 48.5 90.3711 41 90.3711C36.507 90.3711 33 86.3711 33 86.3711V80.3711C30.1654 80.5229 28.6327 79.6485 26 76.3711C26 76.3711 26 81.3711 19 81.3711C13.507 81.3711 11 77.3711 11 77.3711V72.3711C11 72.3711 21 71.3711 24 74.3711L26 76.3711C28.6327 79.6485 30.1654 80.5229 33 80.3711C33 80.3711 37.2455 81.1763 40 81.3711C41.9073 81.5059 47 80.4076 47 80.4076V81.3711Z" fill="#FCC9E6"/>
<path d="M97 32.3711C97 22.3711 103.5 18.3711 116 18.3711C116 26.3711 108 32.3711 97 32.3711Z" fill="#FCC9E6"/>
<path d="M14.9999 15.3711C5.9999 15.3711 7.9999 31.3711 7.9999 31.3711L19.9999 26.3711C19.9999 26.3711 20.9705 15.3711 14.9999 15.3711Z" fill="#FCC9E6"/>
<path d="M48.9999 42.3711L31.9999 32.3711C31.9999 32.3711 30.9999 21.3711 40.9999 21.3711C47.6503 21.3711 53.9999 24.3711 53.9999 32.3711C53.9999 38.3711 48.9999 42.3711 48.9999 42.3711Z" fill="#FCC9E6"/>
<path d="M14.9999 15.3711C5.9999 15.3711 7.9999 31.3711 7.9999 31.3711L19.9999 26.3711C19.9999 26.3711 20.9705 15.3711 14.9999 15.3711Z" fill="#FCC9E6"/>
<path d="M48.9999 42.3711L31.9999 32.3711C31.9999 32.3711 30.9999 21.3711 40.9999 21.3711C47.6503 21.3711 53.9999 24.3711 53.9999 32.3711C53.9999 38.3711 48.9999 42.3711 48.9999 42.3711Z" fill="#FCC9E6"/>
<path d="M11.0004 30.3711L15.0001 28.8711C15.0001 28.8711 16.0005 21.3711 13.0004 21.3711C10.0002 21.3711 11.0004 30.3711 11.0004 30.3711Z" fill="#BC0A71"/>
<path d="M45 40.3711L35 34.3711C35 34.3711 35.5001 27.3711 41.0001 27.3711C45.6006 27.3711 48.0001 29.7706 48.0001 33.3711C48.0001 36.3711 45 40.3711 45 40.3711Z" fill="#BC0A71"/>
<ellipse cx="85.9997" cy="41.8699" rx="6" ry="10.5" transform="rotate(-10 85.9997 41.8699)" fill="#BC0A71"/>
<ellipse cx="85.4998" cy="37.8698" rx="2.5" ry="4.5" transform="rotate(-10 85.4998 37.8698)" fill="#FCC9E6"/>
<path fill-rule="evenodd" clip-rule="evenodd" d="M67 51.3699C67 51.3699 69 57.3699 69 61.3699C69 78.2729 56.903 81.3699 40 81.3699C31.7437 81.3699 26.2109 77.5417 22.6456 73.4161C12.7351 74.6788 8.44829 72.5597 3 64.3699C4.39466 64.9889 5.49535 65.516 6.43085 65.9641C10.3846 67.8577 11.3879 68.3382 19.1636 68.3683C17.6138 65.5375 17 63.3699 17 63.3699C17 63.3699 24.8171 75.3699 43 75.3699C67 75.3699 67 51.3699 67 51.3699Z" fill="#BC0A71"/>
</svg>
