<svg width="90" height="114" viewBox="0 0 90 114" fill="none" xmlns="http://www.w3.org/2000/svg">
<path d="M40 41.9989L4 63.9989C4 63.9989 17.6961 -0.00156339 21 -0.00109863C21.6494 -0.00100727 22.1345 -0.00104021 22.7448 -0.00108164L23 -0.00109863C26.3039 -0.00131032 40 41.9989 40 41.9989Z" fill="#F993CE"/>
<path d="M33.7495 45.9949V40.2709L24.1523 14.6777L12.4998 53.2207V54.7578L33.7495 45.9949Z" fill="#FCC9E6" stroke="#BC0A71" stroke-width="3"/>
<path d="M50 41.9989L86 63.9989C86 63.9989 72.3039 -0.00156339 69 -0.00109863C68.3506 -0.00100727 67.8655 -0.00104021 67.2552 -0.00108164L67 -0.00109863C63.6961 -0.00131032 50 41.9989 50 41.9989Z" fill="#F993CE"/>
<path d="M56.2505 45.9949V40.2709L65.8477 14.6777L77.5002 53.2207V54.7578L56.2505 45.9949Z" fill="#FCC9E6" stroke="#BC0A71" stroke-width="3"/>
<path d="M90 80.9921C90 102.021 69.7735 113.999 45.6521 113.999C21.5307 113.999 0 102.021 0 81.0168C0 59.7269 17.0155 39.0075 45.5 39.0075C72.9845 39.0075 90 59.7022 90 80.9921Z" fill="#F993CE"/>
<circle cx="69" cy="73.9989" r="11" fill="#FCC9E6"/>
<circle cx="69" cy="73.9989" r="7" fill="#BC0A71"/>
<circle cx="21" cy="73.9989" r="11" fill="#FCC9E6"/>
<circle cx="21" cy="73.9989" r="7" fill="#BC0A71"/>
<path d="M28 94.5253C28 93.3777 29.5387 92.8134 30.3576 93.6175C31.9632 95.194 34.1285 96.9138 36 96.9989C38.3405 97.1053 41.169 95.5979 43.0226 94.4032C44.2128 93.6362 45.7872 93.6362 46.9774 94.4032C48.831 95.5979 51.6595 97.1053 54 96.9989C55.8715 96.9138 58.0368 95.194 59.6424 93.6175C60.4613 92.8134 62 93.3777 62 94.5253V94.5253C62 94.8297 61.886 95.1215 61.6711 95.3369C60.5712 96.4391 56.9264 99.8659 54 99.9989C51.6595 100.105 48.831 98.5979 46.9774 97.4032C45.7872 96.6362 44.2128 96.6362 43.0226 97.4032C41.169 98.5979 38.3405 100.105 36 99.9989C33.0736 99.8659 29.4288 96.4391 28.3289 95.3369C28.114 95.1215 28 94.8297 28 94.5253V94.5253Z" fill="#BC0A71"/>
</svg>
