<svg width="92" height="114" viewBox="0 0 92 114" fill="none" xmlns="http://www.w3.org/2000/svg">
<path d="M81 26C81 36.6592 77 53 77 53L51 43C51 43 50 32.6847 50 26C50 14.5 51.5 0 65 0C78.9222 0 81 14.5 81 26Z" fill="#F993CE"/>
<path d="M56 18C56.0002 28.1536 56 44 56 44L72 50C72 50 76 39.0457 76 22C76 15 75.9999 7 66 7C58.1944 7 55.9999 12 56 18Z" fill="#FCC9E6"/>
<path d="M11 26C11 36.6592 15 53 15 53L41 43C41 43 42 32.6847 42 26C42 14.5 40.5 0 27 0C13.0778 0 11 14.5 11 26Z" fill="#F993CE"/>
<path d="M36 18C35.9998 28.1536 36 44 36 44L20 50C20 50 16 39.0457 16 22C16 15 16.0001 7 26 7C33.8056 7 36.0001 12 36 18Z" fill="#FCC9E6"/>
<path d="M92 78C92 97.8823 83.4051 114 46 114C8.5949 114 0 97.8823 0 78C0 61.1177 20.5949 42 46 42C71.4051 42 92 61.1177 92 78Z" fill="#F993CE"/>
<ellipse cx="24.5568" cy="69.4999" rx="7.5" ry="12.5" transform="rotate(10 24.5568 69.4999)" fill="#FCC9E6"/>
<ellipse cx="24.5566" cy="69.5" rx="5.5" ry="8.5" transform="rotate(10 24.5566 69.5)" fill="#BC0A71"/>
<ellipse rx="7.5" ry="12.5" transform="matrix(-0.984808 0.173648 0.173648 0.984808 67.6698 69.4999)" fill="#FCC9E6"/>
<ellipse rx="5.5" ry="8.5" transform="matrix(-0.984808 0.173648 0.173648 0.984808 67.6699 69.5)" fill="#BC0A71"/>
<path fill-rule="evenodd" clip-rule="evenodd" d="M56 86.5C56 88.6771 52.5645 90.493 48 90.91V96.9453C49.8961 97.7541 52.7772 98.751 55 98.5C57.5583 98.2111 60.4346 95.744 62.2319 93.9344C62.8495 93.3126 64 93.7451 64 94.6215C64 94.8642 63.908 95.0945 63.7338 95.2634C62.6589 96.3054 58.5272 100.102 55 100.5C52.3187 100.803 48.6795 99.2896 46.9668 98.4814C46.356 98.1932 45.644 98.1932 45.0332 98.4814C43.3205 99.2896 39.6813 100.803 37 100.5C33.4728 100.102 29.3411 96.3054 28.2662 95.2634C28.092 95.0945 28 94.8642 28 94.6215C28 93.7451 29.1505 93.3126 29.7681 93.9344C31.5654 95.744 34.4417 98.2111 37 98.5C39.2228 98.751 42.1039 97.7541 44 96.9453V90.91C39.4355 90.493 36 88.6771 36 86.5C36 84.0147 40.4772 82 46 82C51.5228 82 56 84.0147 56 86.5Z" fill="#BC0A71"/>
<ellipse cx="43.5" cy="86" rx="2.5" ry="2" fill="#FCC9E6"/>
</svg>
