<svg width="100" height="112" viewBox="0 0 100 112" fill="none" xmlns="http://www.w3.org/2000/svg">
<path d="M26.8358 0.425293C48.644 0.425235 44.7263 39.8873 44.7263 39.8873L28.8236 55.3724C28.8236 55.3724 0 57.5855 0 33.3935C0 15.9104 12.424 0.425332 26.8358 0.425293Z" fill="#F993CE"/>
<path d="M30.0634 51.0327C30.5424 50.4065 31.0931 49.6907 31.6713 48.9474C32.9801 47.2646 34.4998 45.3487 35.6401 44.0402C35.3955 43.2565 35.2661 42.4072 35.1834 41.6052C35.032 40.1381 35.0039 38.3863 35.0078 36.5305C35.0094 35.737 35.0168 34.9195 35.0244 34.0841C35.0529 30.9351 35.0837 27.5325 34.8188 24.2092C34.4819 19.9827 33.6831 16.2243 32.0164 13.5657C30.4498 11.0668 28.0564 9.4253 24 9.42529C19.3459 9.42529 15.117 13.125 11.8953 18.35C8.70789 23.5192 7 29.4067 7 32.4253C7 39.8753 9.52681 43.6637 12.7114 45.7243C16.0738 47.8999 20.5719 48.4253 25 48.4253C27.3395 48.4253 29.0719 49.9199 30.0634 51.0327Z" fill="#FCC9E6" stroke="#BC0A71" stroke-width="4"/>
<path d="M30 45.4253C29.5001 46.4253 25 46.4253 25 46.4253L29 50.4253H34V35.4253H33C33 35.4253 33 39.4253 32 39.4253C29.0001 39.4253 29.0001 34.4253 25 34.4253C24.0001 34.4253 23.0001 34.9253 23 36.4253C22.9998 39.4253 31.2039 43.0168 30 45.4253Z" fill="#BC0A71"/>
<path d="M73.1642 0.425293C51.356 0.425235 55.2737 39.8873 55.2737 39.8873L71.1764 55.3724C71.1764 55.3724 100 57.5855 100 33.3935C100 15.9104 87.576 0.425332 73.1642 0.425293Z" fill="#F993CE"/>
<path d="M69.9366 51.0327C69.4576 50.4065 68.9069 49.6907 68.3287 48.9474C67.0199 47.2646 65.5002 45.3487 64.3599 44.0402C64.6045 43.2565 64.7339 42.4072 64.8166 41.6052C64.968 40.1381 64.9961 38.3863 64.9922 36.5305C64.9906 35.737 64.9832 34.9195 64.9756 34.0841C64.9471 30.9351 64.9163 27.5325 65.1812 24.2092C65.5181 19.9827 66.3169 16.2243 67.9836 13.5657C69.5502 11.0668 71.9436 9.4253 76 9.42529C80.6541 9.42529 84.883 13.125 88.1047 18.35C91.2921 23.5192 93 29.4067 93 32.4253C93 39.8753 90.4732 43.6637 87.2886 45.7243C83.9262 47.8999 79.4281 48.4253 75 48.4253C72.6605 48.4253 70.9281 49.9199 69.9366 51.0327Z" fill="#FCC9E6" stroke="#BC0A71" stroke-width="4"/>
<path d="M70 45.4253C70.4999 46.4253 75 46.4253 75 46.4253L71 50.4253H66V35.4253H67C67 35.4253 67 39.4253 68 39.4253C70.9999 39.4253 70.9999 34.4253 75 34.4253C75.9999 34.4253 76.9999 34.9253 77 36.4253C77.0002 39.4253 68.7961 43.0168 70 45.4253Z" fill="#BC0A71"/>
<path d="M82.1313 84.9253C82.1313 100.084 67.8045 111.425 50.1313 111.425C32.4582 111.425 18.1313 100.084 18.1313 84.9253C18.1313 64.7669 37.4582 38.4253 50.1313 38.4253C62.8045 38.4253 82.1313 64.7669 82.1313 84.9253Z" fill="#F993CE"/>
<circle cx="50.1313" cy="96.4253" r="8" fill="#BC0A71"/>
<circle cx="47" cy="94.4253" r="3" fill="#FCC9E6"/>
<rect x="53" y="56.4253" width="4" height="15" rx="2" fill="#BC0A71"/>
<rect x="43" y="56.4253" width="4" height="15" rx="2" fill="#BC0A71"/>
<path d="M32 100.827C32 99.8606 33.1357 99.2944 33.9278 99.8485C37.2149 102.148 44.12 106.425 50 106.425C55.88 106.425 62.7851 102.148 66.0722 99.8485C66.8643 99.2944 68 99.8606 68 100.827V100.827C68 101.202 67.8213 101.551 67.5087 101.758C65.4094 103.148 56.982 108.425 50 108.425C43.018 108.425 34.5906 103.148 32.4913 101.758C32.1787 101.551 32 101.202 32 100.827V100.827Z" fill="#BC0A71"/>
</svg>
