<svg width="74" height="73" viewBox="0 0 74 73" fill="none" xmlns="http://www.w3.org/2000/svg">
<path d="M23.8965 62.1896C23.9315 62.1661 23.9664 62.1425 24.0014 62.1186C24.0188 62.8638 24.1957 63.6525 24.3895 64.3307C24.6022 65.0754 24.8785 65.8314 25.143 66.4928C25.4093 67.1584 25.674 67.7537 25.8716 68.1819C25.9707 68.3967 26.0539 68.5713 26.113 68.6937C26.1425 68.755 26.1662 68.8033 26.1828 68.8372L26.2026 68.8772L26.2083 68.8887L26.2101 68.8923L26.2107 68.8935L26.2109 68.894C26.2111 68.8942 26.2111 68.8944 28 68L26.2111 68.8944C26.4727 69.4176 26.9502 69.8 27.5179 69.941C28.0856 70.082 28.6865 69.9674 29.1625 69.6275L33.5542 66.4905L34.0272 69.3288C34.1255 69.9185 34.4824 70.4333 35.0002 70.7321C35.5179 71.031 36.1422 71.0826 36.702 70.8727L36 69C36.702 70.8727 36.7027 70.8725 36.7035 70.8722L36.7052 70.8716L36.7091 70.8701L36.7192 70.8662L36.748 70.8551C36.754 70.8528 36.7605 70.8503 36.7675 70.8475C36.7873 70.8397 36.8113 70.8302 36.8391 70.819C36.9141 70.7886 37.0175 70.7457 37.1452 70.6899C37.4001 70.5784 37.7539 70.4146 38.1737 70.196C39.0086 69.7612 40.1298 69.0968 41.2611 68.1777C43.1279 66.6611 45.1743 64.3159 45.8046 61.062C45.9743 61.2969 46.1535 61.5235 46.3439 61.7402C48.6237 64.3344 52.0139 65 58 65C58.6276 65 59.2188 64.7054 59.5967 64.2044C59.9746 63.7034 60.0955 63.054 59.923 62.4506L58.6515 58H64C65.1046 58 66 57.1046 66 56C66 54.3249 65.7742 52.8237 65.1695 51.4545C64.5575 50.0687 63.6212 48.962 62.4201 47.9829C62.339 47.9169 62.2563 47.8511 62.1719 47.7855C64.845 47.2551 67.0212 45.8302 68.5516 44.5185C69.5305 43.6794 70.2956 42.8444 70.8177 42.2179C71.0798 41.9033 71.2837 41.6377 71.4256 41.4455C71.4965 41.3493 71.5522 41.2713 71.5921 41.2143C71.612 41.1858 71.628 41.1626 71.64 41.145L71.6551 41.1228L71.6603 41.115L71.6624 41.1119L71.6633 41.1106C71.6637 41.11 71.6641 41.1094 70 40L71.6641 41.1094C71.9823 40.6321 72.0802 40.0411 71.933 39.4867C71.7858 38.9322 71.4075 38.4677 70.8944 38.2111L67.9769 36.7524L71.1094 34.6641C71.5751 34.3536 71.8894 33.8622 71.9759 33.3093C72.0625 32.7563 71.9134 32.1924 71.5648 31.7545L70 33C71.5648 31.7545 71.5645 31.7541 71.5642 31.7538L71.5636 31.753L71.5621 31.7511L71.5582 31.7462L71.5469 31.7322L71.5105 31.6874C71.4802 31.6504 71.4379 31.5993 71.3844 31.5361C71.2776 31.4099 71.1255 31.2345 70.9353 31.0262C70.5573 30.6124 70.0163 30.0552 69.3697 29.4919C68.7291 28.9339 67.9439 28.3339 67.0758 27.8652C66.2225 27.4044 65.1598 27 64 27C63.9439 27 63.8866 27.0009 63.8283 27.0026C64.5135 26.2279 65.1091 25.3527 65.5928 24.3409C66.5503 22.3385 67 19.9473 67 17C67 16.4121 66.7413 15.854 66.2928 15.474C65.8442 15.094 65.2511 14.9306 64.6712 15.0272L61 15.6391V12C61 10.8954 60.1046 10 59 10C55.2761 10 52.3521 11.6552 49.9544 14.0666C49.9841 13.7001 50 13.3435 50 13C50 10.3169 48.3961 7.61366 47.1275 5.83752C46.4525 4.89252 45.7817 4.08804 45.2809 3.52051C45.0295 3.23561 44.8185 3.00756 44.6678 2.84826C44.5924 2.76854 44.5319 2.70584 44.4888 2.66164L44.4376 2.60935L44.4223 2.59391L44.4173 2.58892L44.4156 2.58712L44.4148 2.5864C44.4145 2.58608 44.4142 2.58579 43 4L44.4142 2.58579C44.012 2.18352 43.4574 1.9716 42.8894 2.00306C42.3214 2.03452 41.7936 2.30638 41.4383 2.75061L39.2351 5.50455L37.715 2.97101C37.418 2.47612 36.9218 2.13362 36.3538 2.03154C35.7857 1.92945 35.2013 2.07773 34.7506 2.43826L36 4C34.7506 2.43826 34.7502 2.43858 34.7498 2.4389L34.7489 2.43964L34.7467 2.44139L34.741 2.44601L34.7241 2.45967C34.7105 2.47074 34.6922 2.48569 34.6696 2.50441C34.6243 2.54185 34.5614 2.59443 34.4836 2.66117C34.328 2.79452 34.1114 2.98522 33.8541 3.22539C33.3421 3.7033 32.6555 4.38928 31.9636 5.21963C30.6585 6.78566 29 9.25599 29 12C29 12.3597 29.0232 12.7587 29.0643 13.1839C28.7068 12.7827 28.3445 12.3996 27.976 12.0374C25.5394 9.64167 22.681 8 19 8C17.8954 8 17 8.89543 17 10V13.6391L13.3288 13.0272C12.7489 12.9306 12.1558 13.094 11.7073 13.474C11.2587 13.854 11 14.4121 11 15C11 19.7766 11.8833 22.9982 14.0114 25.8272C14.1462 26.0065 14.2859 26.1837 14.4303 26.3592C13.5653 26.1484 12.7146 26 12 26C9.6741 26 7.66653 26.5793 6.25722 27.143C5.54791 27.4268 4.97594 27.7122 4.57355 27.9317C4.37194 28.0417 4.21171 28.1357 4.09682 28.2057C4.03935 28.2407 3.9931 28.2697 3.9586 28.2917L3.91565 28.3194L3.90087 28.3291L3.89517 28.3329L3.89274 28.3345L3.89164 28.3352C3.89111 28.3356 3.8906 28.3359 5 30L3.8906 28.3359C3.41839 28.6507 3.10216 29.1513 3.02071 29.7129C2.93925 30.2746 3.10024 30.8444 3.46356 31.2804L6.84696 35.3405L3.10557 37.2111C2.11762 37.7051 1.71717 38.9065 2.21115 39.8944L4 39C2.21115 39.8944 2.21157 39.8953 2.212 39.8961L2.21292 39.898L2.21499 39.9021L2.22 39.912L2.23353 39.9383C2.24411 39.9587 2.25785 39.9848 2.27477 40.0162C2.3086 40.0789 2.35525 40.1631 2.41502 40.2656C2.53441 40.4702 2.70703 40.7495 2.93539 41.0783C3.3903 41.7334 4.07704 42.6006 5.01844 43.4696C6.54548 44.8792 8.76856 46.3118 11.7363 46.8131C11.7246 46.8205 11.7129 46.8279 11.7012 46.8354C8.55376 48.8328 6 51.4215 6 55C6 56.1046 6.89543 57 8 57H13.263L11.3359 59.8906C10.9751 60.4318 10.9 61.1146 11.1346 61.7212C11.3691 62.3278 11.884 62.7825 12.5149 62.9403L13 61C12.5149 62.9403 12.5151 62.9403 12.5152 62.9404L12.5156 62.9404L12.5166 62.9407L12.5196 62.9415L12.5301 62.9441L12.5678 62.9534C12.6002 62.9613 12.647 62.9728 12.7065 62.9871C12.8255 63.0159 12.9962 63.0565 13.2065 63.105C13.6264 63.2019 14.2088 63.3314 14.8578 63.4612C16.0987 63.7093 17.7778 64 19 64C20.7528 64 22.4687 63.1474 23.8965 62.1896ZM5.78411 38.0962C5.78352 38.095 5.78362 38.0952 5.78441 38.0967L5.78411 38.0962Z" fill="#FF96DB"/>
<path d="M23.8965 62.1896C23.9315 62.1661 23.9664 62.1425 24.0014 62.1186C24.0188 62.8638 24.1957 63.6525 24.3895 64.3307C24.6022 65.0754 24.8785 65.8314 25.143 66.4928C25.4093 67.1584 25.674 67.7537 25.8716 68.1819C25.9707 68.3967 26.0539 68.5713 26.113 68.6937C26.1425 68.755 26.1662 68.8033 26.1828 68.8372L26.2026 68.8772L26.2083 68.8887L26.2101 68.8923L26.2107 68.8935L26.2109 68.894C26.2111 68.8942 26.2111 68.8944 28 68L26.2111 68.8944C26.4727 69.4176 26.9502 69.8 27.5179 69.941C28.0856 70.082 28.6865 69.9674 29.1625 69.6275L33.5542 66.4905L34.0272 69.3288C34.1255 69.9185 34.4824 70.4333 35.0002 70.7321C35.5179 71.031 36.1422 71.0826 36.702 70.8727L36 69C36.702 70.8727 36.7027 70.8725 36.7035 70.8722L36.7052 70.8716L36.7091 70.8701L36.7192 70.8662L36.748 70.8551C36.754 70.8528 36.7605 70.8503 36.7675 70.8475C36.7873 70.8397 36.8113 70.8302 36.8391 70.819C36.9141 70.7886 37.0175 70.7457 37.1452 70.6899C37.4001 70.5784 37.7539 70.4146 38.1737 70.196C39.0086 69.7612 40.1298 69.0968 41.2611 68.1777C43.1279 66.6611 45.1743 64.3159 45.8046 61.062C45.9743 61.2969 46.1535 61.5235 46.3439 61.7402C48.6237 64.3344 52.0139 65 58 65C58.6276 65 59.2188 64.7054 59.5967 64.2044C59.9746 63.7034 60.0955 63.054 59.923 62.4506L58.6515 58H64C65.1046 58 66 57.1046 66 56C66 54.3249 65.7742 52.8237 65.1695 51.4545C64.5575 50.0687 63.6212 48.962 62.4201 47.9829C62.339 47.9169 62.2563 47.8511 62.1719 47.7855C64.845 47.2551 67.0212 45.8302 68.5516 44.5185C69.5305 43.6794 70.2956 42.8444 70.8177 42.2179C71.0798 41.9033 71.2837 41.6377 71.4256 41.4455C71.4965 41.3493 71.5522 41.2713 71.5921 41.2143C71.612 41.1858 71.628 41.1626 71.64 41.145L71.6551 41.1228L71.6603 41.115L71.6624 41.1119L71.6633 41.1106C71.6637 41.11 71.6641 41.1094 70 40L71.6641 41.1094C71.9823 40.6321 72.0802 40.0411 71.933 39.4867C71.7858 38.9322 71.4075 38.4677 70.8944 38.2111L67.9769 36.7524L71.1094 34.6641C71.5751 34.3536 71.8894 33.8622 71.9759 33.3093C72.0625 32.7563 71.9134 32.1924 71.5648 31.7545L70 33C71.5648 31.7545 71.5645 31.7541 71.5642 31.7538L71.5636 31.753L71.5621 31.7511L71.5582 31.7462L71.5469 31.7322L71.5105 31.6874C71.4802 31.6504 71.4379 31.5993 71.3844 31.5361C71.2776 31.4099 71.1255 31.2345 70.9353 31.0262C70.5573 30.6124 70.0163 30.0552 69.3697 29.4919C68.7291 28.9339 67.9439 28.3339 67.0758 27.8652C66.2225 27.4044 65.1598 27 64 27C63.9439 27 63.8866 27.0009 63.8283 27.0026C64.5135 26.2279 65.1091 25.3527 65.5928 24.3409C66.5503 22.3385 67 19.9473 67 17C67 16.4121 66.7413 15.854 66.2928 15.474C65.8442 15.094 65.2511 14.9306 64.6712 15.0272L61 15.6391V12C61 10.8954 60.1046 10 59 10C55.2761 10 52.3521 11.6552 49.9544 14.0666C49.9841 13.7001 50 13.3435 50 13C50 10.3169 48.3961 7.61366 47.1275 5.83752C46.4525 4.89252 45.7817 4.08804 45.2809 3.52051C45.0295 3.23561 44.8185 3.00756 44.6678 2.84826C44.5924 2.76854 44.5319 2.70584 44.4888 2.66164L44.4376 2.60935L44.4223 2.59391L44.4173 2.58892L44.4156 2.58712L44.4148 2.5864C44.4145 2.58608 44.4142 2.58579 43 4L44.4142 2.58579C44.012 2.18352 43.4574 1.9716 42.8894 2.00306C42.3214 2.03452 41.7936 2.30638 41.4383 2.75061L39.2351 5.50455L37.715 2.97101C37.418 2.47612 36.9218 2.13362 36.3538 2.03154C35.7857 1.92945 35.2013 2.07773 34.7506 2.43826L36 4C34.7506 2.43826 34.7502 2.43858 34.7498 2.4389L34.7489 2.43964L34.7467 2.44139L34.741 2.44601L34.7241 2.45967C34.7105 2.47074 34.6922 2.48569 34.6696 2.50441C34.6243 2.54185 34.5614 2.59443 34.4836 2.66117C34.328 2.79452 34.1114 2.98522 33.8541 3.22539C33.3421 3.7033 32.6555 4.38928 31.9636 5.21963C30.6585 6.78566 29 9.25599 29 12C29 12.3597 29.0232 12.7587 29.0643 13.1839C28.7068 12.7827 28.3445 12.3996 27.976 12.0374C25.5394 9.64167 22.681 8 19 8C17.8954 8 17 8.89543 17 10V13.6391L13.3288 13.0272C12.7489 12.9306 12.1558 13.094 11.7073 13.474C11.2587 13.854 11 14.4121 11 15C11 19.7766 11.8833 22.9982 14.0114 25.8272C14.1462 26.0065 14.2859 26.1837 14.4303 26.3592C13.5653 26.1484 12.7146 26 12 26C9.6741 26 7.66653 26.5793 6.25722 27.143C5.54791 27.4268 4.97594 27.7122 4.57355 27.9317C4.37194 28.0417 4.21171 28.1357 4.09682 28.2057C4.03935 28.2407 3.9931 28.2697 3.9586 28.2917L3.91565 28.3194L3.90087 28.3291L3.89517 28.3329L3.89274 28.3345L3.89164 28.3352C3.89111 28.3356 3.8906 28.3359 5 30L3.8906 28.3359C3.41839 28.6507 3.10216 29.1513 3.02071 29.7129C2.93925 30.2746 3.10024 30.8444 3.46356 31.2804L6.84696 35.3405L3.10557 37.2111C2.11762 37.7051 1.71717 38.9065 2.21115 39.8944L4 39C2.21115 39.8944 2.21157 39.8953 2.212 39.8961L2.21292 39.898L2.21499 39.9021L2.22 39.912L2.23353 39.9383C2.24411 39.9587 2.25785 39.9848 2.27477 40.0162C2.3086 40.0789 2.35525 40.1631 2.41502 40.2656C2.53441 40.4702 2.70703 40.7495 2.93539 41.0783C3.3903 41.7334 4.07704 42.6006 5.01844 43.4696C6.54548 44.8792 8.76856 46.3118 11.7363 46.8131C11.7246 46.8205 11.7129 46.8279 11.7012 46.8354C8.55376 48.8328 6 51.4215 6 55C6 56.1046 6.89543 57 8 57H13.263L11.3359 59.8906C10.9751 60.4318 10.9 61.1146 11.1346 61.7212C11.3691 62.3278 11.884 62.7825 12.5149 62.9403L13 61C12.5149 62.9403 12.5151 62.9403 12.5152 62.9404L12.5156 62.9404L12.5166 62.9407L12.5196 62.9415L12.5301 62.9441L12.5678 62.9534C12.6002 62.9613 12.647 62.9728 12.7065 62.9871C12.8255 63.0159 12.9962 63.0565 13.2065 63.105C13.6264 63.2019 14.2088 63.3314 14.8578 63.4612C16.0987 63.7093 17.7778 64 19 64C20.7528 64 22.4687 63.1474 23.8965 62.1896ZM5.78411 38.0962C5.78352 38.095 5.78362 38.0952 5.78441 38.0967L5.78411 38.0962Z" fill="url(#paint0_radial)"/>
<path d="M23.8965 62.1896C23.9315 62.1661 23.9664 62.1425 24.0014 62.1186C24.0188 62.8638 24.1957 63.6525 24.3895 64.3307C24.6022 65.0754 24.8785 65.8314 25.143 66.4928C25.4093 67.1584 25.674 67.7537 25.8716 68.1819C25.9707 68.3967 26.0539 68.5713 26.113 68.6937C26.1425 68.755 26.1662 68.8033 26.1828 68.8372L26.2026 68.8772L26.2083 68.8887L26.2101 68.8923L26.2107 68.8935L26.2109 68.894C26.2111 68.8942 26.2111 68.8944 28 68L26.2111 68.8944C26.4727 69.4176 26.9502 69.8 27.5179 69.941C28.0856 70.082 28.6865 69.9674 29.1625 69.6275L33.5542 66.4905L34.0272 69.3288C34.1255 69.9185 34.4824 70.4333 35.0002 70.7321C35.5179 71.031 36.1422 71.0826 36.702 70.8727L36 69C36.702 70.8727 36.7027 70.8725 36.7035 70.8722L36.7052 70.8716L36.7091 70.8701L36.7192 70.8662L36.748 70.8551C36.754 70.8528 36.7605 70.8503 36.7675 70.8475C36.7873 70.8397 36.8113 70.8302 36.8391 70.819C36.9141 70.7886 37.0175 70.7457 37.1452 70.6899C37.4001 70.5784 37.7539 70.4146 38.1737 70.196C39.0086 69.7612 40.1298 69.0968 41.2611 68.1777C43.1279 66.6611 45.1743 64.3159 45.8046 61.062C45.9743 61.2969 46.1535 61.5235 46.3439 61.7402C48.6237 64.3344 52.0139 65 58 65C58.6276 65 59.2188 64.7054 59.5967 64.2044C59.9746 63.7034 60.0955 63.054 59.923 62.4506L58.6515 58H64C65.1046 58 66 57.1046 66 56C66 54.3249 65.7742 52.8237 65.1695 51.4545C64.5575 50.0687 63.6212 48.962 62.4201 47.9829C62.339 47.9169 62.2563 47.8511 62.1719 47.7855C64.845 47.2551 67.0212 45.8302 68.5516 44.5185C69.5305 43.6794 70.2956 42.8444 70.8177 42.2179C71.0798 41.9033 71.2837 41.6377 71.4256 41.4455C71.4965 41.3493 71.5522 41.2713 71.5921 41.2143C71.612 41.1858 71.628 41.1626 71.64 41.145L71.6551 41.1228L71.6603 41.115L71.6624 41.1119L71.6633 41.1106C71.6637 41.11 71.6641 41.1094 70 40L71.6641 41.1094C71.9823 40.6321 72.0802 40.0411 71.933 39.4867C71.7858 38.9322 71.4075 38.4677 70.8944 38.2111L67.9769 36.7524L71.1094 34.6641C71.5751 34.3536 71.8894 33.8622 71.9759 33.3093C72.0625 32.7563 71.9134 32.1924 71.5648 31.7545L70 33C71.5648 31.7545 71.5645 31.7541 71.5642 31.7538L71.5636 31.753L71.5621 31.7511L71.5582 31.7462L71.5469 31.7322L71.5105 31.6874C71.4802 31.6504 71.4379 31.5993 71.3844 31.5361C71.2776 31.4099 71.1255 31.2345 70.9353 31.0262C70.5573 30.6124 70.0163 30.0552 69.3697 29.4919C68.7291 28.9339 67.9439 28.3339 67.0758 27.8652C66.2225 27.4044 65.1598 27 64 27C63.9439 27 63.8866 27.0009 63.8283 27.0026C64.5135 26.2279 65.1091 25.3527 65.5928 24.3409C66.5503 22.3385 67 19.9473 67 17C67 16.4121 66.7413 15.854 66.2928 15.474C65.8442 15.094 65.2511 14.9306 64.6712 15.0272L61 15.6391V12C61 10.8954 60.1046 10 59 10C55.2761 10 52.3521 11.6552 49.9544 14.0666C49.9841 13.7001 50 13.3435 50 13C50 10.3169 48.3961 7.61366 47.1275 5.83752C46.4525 4.89252 45.7817 4.08804 45.2809 3.52051C45.0295 3.23561 44.8185 3.00756 44.6678 2.84826C44.5924 2.76854 44.5319 2.70584 44.4888 2.66164L44.4376 2.60935L44.4223 2.59391L44.4173 2.58892L44.4156 2.58712L44.4148 2.5864C44.4145 2.58608 44.4142 2.58579 43 4L44.4142 2.58579C44.012 2.18352 43.4574 1.9716 42.8894 2.00306C42.3214 2.03452 41.7936 2.30638 41.4383 2.75061L39.2351 5.50455L37.715 2.97101C37.418 2.47612 36.9218 2.13362 36.3538 2.03154C35.7857 1.92945 35.2013 2.07773 34.7506 2.43826L36 4C34.7506 2.43826 34.7502 2.43858 34.7498 2.4389L34.7489 2.43964L34.7467 2.44139L34.741 2.44601L34.7241 2.45967C34.7105 2.47074 34.6922 2.48569 34.6696 2.50441C34.6243 2.54185 34.5614 2.59443 34.4836 2.66117C34.328 2.79452 34.1114 2.98522 33.8541 3.22539C33.3421 3.7033 32.6555 4.38928 31.9636 5.21963C30.6585 6.78566 29 9.25599 29 12C29 12.3597 29.0232 12.7587 29.0643 13.1839C28.7068 12.7827 28.3445 12.3996 27.976 12.0374C25.5394 9.64167 22.681 8 19 8C17.8954 8 17 8.89543 17 10V13.6391L13.3288 13.0272C12.7489 12.9306 12.1558 13.094 11.7073 13.474C11.2587 13.854 11 14.4121 11 15C11 19.7766 11.8833 22.9982 14.0114 25.8272C14.1462 26.0065 14.2859 26.1837 14.4303 26.3592C13.5653 26.1484 12.7146 26 12 26C9.6741 26 7.66653 26.5793 6.25722 27.143C5.54791 27.4268 4.97594 27.7122 4.57355 27.9317C4.37194 28.0417 4.21171 28.1357 4.09682 28.2057C4.03935 28.2407 3.9931 28.2697 3.9586 28.2917L3.91565 28.3194L3.90087 28.3291L3.89517 28.3329L3.89274 28.3345L3.89164 28.3352C3.89111 28.3356 3.8906 28.3359 5 30L3.8906 28.3359C3.41839 28.6507 3.10216 29.1513 3.02071 29.7129C2.93925 30.2746 3.10024 30.8444 3.46356 31.2804L6.84696 35.3405L3.10557 37.2111C2.11762 37.7051 1.71717 38.9065 2.21115 39.8944L4 39C2.21115 39.8944 2.21157 39.8953 2.212 39.8961L2.21292 39.898L2.21499 39.9021L2.22 39.912L2.23353 39.9383C2.24411 39.9587 2.25785 39.9848 2.27477 40.0162C2.3086 40.0789 2.35525 40.1631 2.41502 40.2656C2.53441 40.4702 2.70703 40.7495 2.93539 41.0783C3.3903 41.7334 4.07704 42.6006 5.01844 43.4696C6.54548 44.8792 8.76856 46.3118 11.7363 46.8131C11.7246 46.8205 11.7129 46.8279 11.7012 46.8354C8.55376 48.8328 6 51.4215 6 55C6 56.1046 6.89543 57 8 57H13.263L11.3359 59.8906C10.9751 60.4318 10.9 61.1146 11.1346 61.7212C11.3691 62.3278 11.884 62.7825 12.5149 62.9403L13 61C12.5149 62.9403 12.5151 62.9403 12.5152 62.9404L12.5156 62.9404L12.5166 62.9407L12.5196 62.9415L12.5301 62.9441L12.5678 62.9534C12.6002 62.9613 12.647 62.9728 12.7065 62.9871C12.8255 63.0159 12.9962 63.0565 13.2065 63.105C13.6264 63.2019 14.2088 63.3314 14.8578 63.4612C16.0987 63.7093 17.7778 64 19 64C20.7528 64 22.4687 63.1474 23.8965 62.1896ZM5.78411 38.0962C5.78352 38.095 5.78362 38.0952 5.78441 38.0967L5.78411 38.0962Z" stroke="#C7206D" stroke-width="4" stroke-linejoin="round"/>
<g opacity="0.5">
<path d="M38 11C37.9135 18.0278 38.1265 21.9689 39 29H41C41 29 43 27 43 21C43 15 38 11 38 11Z" fill="#FF97DC"/>
<path d="M44.5 31.5C44.5 32 45 33 45 33C51.5077 30.0457 55.4217 26.5347 58 19C51.5 21.5 44.5 31 44.5 31.5Z" fill="#FF97DC"/>
<path d="M62 37C57.9826 36.3049 54.1327 36.8569 47 38L46 40C46 40 51.4812 41.3519 55 41C60 40.5 62 37 62 37Z" fill="#FF97DC"/>
<path d="M44 43C51.0261 46.6621 52.5609 49.0992 52 54C48.3042 51.3744 46.3593 48.9995 43 44L44 43Z" fill="#FF97DC"/>
<path d="M40 55C40.5 51.5 40 46 40 46L37 47C35.3981 52.7821 35.0474 56.0766 35 62C35 62 39.5249 58.3257 40 55Z" fill="#FF97DC"/>
<path d="M19 54C19.7163 51.1909 21.691 50.1066 31 44L32 45C27.8208 52.6306 25 54 19 54Z" fill="#FF97DC"/>
<path d="M11 36C13.5012 38.6424 16.3727 39.5996 28 39V37C22.9264 35.6015 18.5293 35.8171 11 36Z" fill="#FF97DC"/>
<path d="M21 18C22.9483 23.2998 24.8104 26.1616 30 31L33 29C28.6813 22.564 25.9961 20.4936 21 18Z" fill="#FF97DC"/>
</g>
<ellipse cx="37" cy="37.5" rx="10" ry="9.5" fill="#F4B925"/>
<ellipse cx="37" cy="37" rx="7" ry="6" fill="#F4DE36"/>
<defs>
<radialGradient id="paint0_radial" cx="0" cy="0" r="1" gradientUnits="userSpaceOnUse" gradientTransform="translate(37 36.5) rotate(90) scale(32.5 33)">
<stop offset="0.306832" stop-color="#FB4D9E"/>
<stop offset="0.829461" stop-color="#FF96DA"/>
</radialGradient>
</defs>
</svg>
