<svg width="20" height="20" viewBox="0 0 20 20" fill="none" xmlns="http://www.w3.org/2000/svg">
<circle cx="10" cy="10" r="10" fill="#2F831C"/>
<path d="M5.17248 6.65C5.19648 6.062 5.31648 5.522 5.53248 5.03C5.74848 4.538 6.05448 4.118 6.45048 3.77C6.85848 3.422 7.35048 3.152 7.92648 2.96C8.50248 2.756 9.16248 2.654 9.90648 2.654C10.6745 2.654 11.3405 2.762 11.9045 2.978C12.4805 3.182 12.9605 3.464 13.3445 3.824C13.7285 4.172 14.0165 4.58 14.2085 5.048C14.4005 5.504 14.4965 5.978 14.4965 6.47C14.4965 6.698 14.4785 6.92 14.4425 7.136C14.3825 7.676 14.2565 8.132 14.0645 8.504C13.8725 8.864 13.6445 9.182 13.3805 9.458C13.1285 9.734 12.8585 9.98 12.5705 10.196C12.2825 10.4 12.0185 10.61 11.7785 10.826C11.5385 11.042 11.3405 11.282 11.1845 11.546C11.0285 11.798 10.9505 12.11 10.9505 12.482C10.9505 12.854 10.8425 13.13 10.6265 13.31C10.4105 13.49 10.1645 13.58 9.88848 13.58C9.62448 13.58 9.37848 13.49 9.15048 13.31C8.93448 13.13 8.82648 12.86 8.82648 12.5C8.82648 11.936 8.89248 11.456 9.02448 11.06C9.16848 10.652 9.34848 10.298 9.56448 9.998C9.78048 9.698 10.0145 9.44 10.2665 9.224C10.5305 8.996 10.7765 8.78 11.0045 8.576C11.2445 8.36 11.4485 8.138 11.6165 7.91C11.7965 7.67 11.9165 7.394 11.9765 7.082C12.0125 6.938 12.0305 6.794 12.0305 6.65C12.0305 6.182 11.8505 5.768 11.4905 5.408C11.1425 5.036 10.6205 4.85 9.92448 4.85C9.14448 4.85 8.56248 5.006 8.17848 5.318C7.80648 5.63 7.59648 6.134 7.54848 6.83C7.51248 7.142 7.37448 7.382 7.13448 7.55C6.90648 7.706 6.65448 7.784 6.37848 7.784C6.06648 7.784 5.78448 7.7 5.53248 7.532C5.29248 7.352 5.17248 7.088 5.17248 6.74V6.65ZM9.88848 17.216C9.50448 17.216 9.18048 17.078 8.91648 16.802C8.66448 16.526 8.53848 16.19 8.53848 15.794C8.53848 15.398 8.66448 15.062 8.91648 14.786C9.18048 14.498 9.50448 14.354 9.88848 14.354C10.2725 14.354 10.5905 14.498 10.8425 14.786C11.1065 15.062 11.2385 15.398 11.2385 15.794C11.2385 16.19 11.1065 16.526 10.8425 16.802C10.5905 17.078 10.2725 17.216 9.88848 17.216Z" fill="white"/>
</svg>
