<svg width="90" height="89" viewBox="0 0 90 89" fill="none" xmlns="http://www.w3.org/2000/svg">
<path d="M83 9C83 15.3573 80 25 80 25L56 10C56 10 59.9988 -1.74383e-05 64 0C68 1.74333e-05 83 7 83 9Z" fill="#FF791F"/>
<path d="M61 11L77 21C77 21 80 9.99998 78 8C75.7909 5.79086 72.5 6.99999 70 7C67.4994 7.00001 67.5 3.99999 65 4C61.8515 4.00002 61 11 61 11Z" fill="#8F3900"/>
<path d="M8 9C8 15.3573 11 25 11 25L35 10C35 10 31.0012 -1.74383e-05 27 0C23 1.74333e-05 8 7 8 9Z" fill="#FF791F"/>
<path d="M30 11L14 21C14 21 11 9.99998 13 8C15.2091 5.79086 18.5 6.99999 21 7C23.5006 7.00001 23.5 3.99999 26 4C29.1485 4.00002 30 11 30 11Z" fill="#8F3900"/>
<path d="M90 58C90 80.6437 69.8528 89 45 89C20.1472 89 0 80.6437 0 58C0 30.3563 15.1472 8 45 8C74.8528 8 90 30.3563 90 58Z" fill="#FF791F"/>
<ellipse cx="45.5" cy="71" rx="18.5" ry="15" fill="#FFBC8F"/>
<path d="M57 70C57 73.866 57.2091 77 54 77C49.7909 77 49 73.866 49 70C49 66.134 49.7909 63 52 63C53.2091 63 57 66.134 57 70Z" fill="#8F3900"/>
<path d="M33.0029 70C33.0029 73.866 32.7938 77 36.0029 77C40.2121 77 41.0029 73.866 41.0029 70C41.0029 66.134 40.2121 63 38.0029 63C36.7938 63 33.0029 66.134 33.0029 70Z" fill="#8F3900"/>
<ellipse cx="58.7492" cy="45.4992" rx="3.5" ry="7.5" transform="rotate(-10 58.7492 45.4992)" fill="#8F3900"/>
<ellipse rx="3.5" ry="7.5" transform="matrix(-0.984808 -0.173648 -0.173648 0.984808 30.7493 45.4992)" fill="#8F3900"/>
</svg>
