<svg width="126" height="90" viewBox="0 0 126 90" fill="none" xmlns="http://www.w3.org/2000/svg">
<path d="M87.0017 2.39308C81.5157 5.00499 78 12.8935 78 12.8935L99.004 46.8935C99.004 46.8935 107.988 49.2255 113.507 47.8935C118.264 46.7453 120.444 46.2079 123.509 42.3931C128.647 35.9977 124.509 21.893 122.509 18.8931C117.264 11.0273 119.008 10.8932 110.506 3.89326C104.476 -1.07188 94.0549 -0.964906 87.0017 2.39308Z" fill="#FF791F"/>
<path fill-rule="evenodd" clip-rule="evenodd" d="M119.883 14.678C119.592 14.3883 119.299 14.1258 119.008 13.8929C114.505 10.2908 109.006 7.39297 100.004 12.8931C91.0025 18.3931 93.0029 27.8929 93.0029 27.8929L99.7142 47.0645C101.943 47.5773 108.921 49.0003 113.507 47.8936C118.264 46.7453 120.444 46.2079 123.509 42.3931C124.119 41.6337 124.598 40.7656 124.966 39.8203C125.563 37.9186 125.863 36.1596 125.967 34.4814C126.213 28.0927 123.867 20.9309 122.508 18.8931C121.358 17.1673 120.543 15.8136 119.883 14.678Z" fill="#8F3900"/>
<path d="M123.509 42.3931C125.263 40.2099 125.936 37.1283 125.982 33.8968C124.201 36.479 120.735 34.6238 114.984 31.8931C114.984 31.8931 120.89 40.9404 116.984 42.8931C112.984 44.8931 104.984 40.8931 104.984 40.8931C104.984 40.8931 106.846 44.0977 105.984 45.8931C104.793 48.3761 99.0039 46.8935 99.0039 46.8935C99.0039 46.8935 107.988 49.2255 113.507 47.8935C118.264 46.7453 120.444 46.2079 123.509 42.3931Z" fill="#FFBC8F"/>
<path d="M123.509 42.3931C125.263 40.2099 125.936 37.1283 125.982 33.8968C124.201 36.479 120.735 34.6238 114.984 31.8931C114.984 31.8931 120.89 40.9404 116.984 42.8931C112.984 44.8931 104.984 40.8931 104.984 40.8931C104.984 40.8931 106.846 44.0977 105.984 45.8931C104.793 48.3761 99.0039 46.8935 99.0039 46.8935C99.0039 46.8935 107.988 49.2255 113.507 47.8935C118.264 46.7453 120.444 46.2079 123.509 42.3931Z" fill="#FFBC8F"/>
<path d="M38.9826 2.39308C44.4687 5.00499 47.9844 12.8935 47.9844 12.8935L26.9803 46.8935C26.9803 46.8935 17.9962 49.2255 12.4776 47.8935C7.72002 46.7453 5.5407 46.2079 2.47563 42.3931C-2.66282 35.9977 1.47544 21.893 3.47582 18.8931C8.72084 11.0273 6.9765 10.8932 15.4781 3.89326C21.5085 -1.07188 31.9295 -0.964906 38.9826 2.39308Z" fill="#FF791F"/>
<path fill-rule="evenodd" clip-rule="evenodd" d="M6.10096 14.678C6.39253 14.3883 6.68538 14.1258 6.97652 13.8929C11.4798 10.2908 16.9785 7.39297 25.9802 12.8931C34.9819 18.3931 32.9815 27.8929 32.9815 27.8929L26.2702 47.0645C24.0417 47.5773 17.0633 49.0003 12.4776 47.8936C7.7201 46.7453 5.54078 46.2079 2.47571 42.3931C1.86557 41.6337 1.38622 40.7656 1.01855 39.8203C0.421859 37.9186 0.121161 36.1596 0.0177831 34.4814C-0.228208 28.0927 2.11708 20.9309 3.47591 18.8931C4.62672 17.1673 5.44105 15.8136 6.10096 14.678Z" fill="#8F3900"/>
<path d="M2.47576 42.3931C0.721668 40.2099 0.0485973 37.1283 0.00248337 33.8968C1.78338 36.479 5.24974 34.6238 10.9999 31.8931C10.9999 31.8931 5.09464 40.9404 8.99988 42.8931C12.9999 44.8931 20.9999 40.8931 20.9999 40.8931C20.9999 40.8931 19.1386 44.0977 19.9999 45.8931C21.1911 48.3761 26.9805 46.8935 26.9805 46.8935C26.9805 46.8935 17.9963 49.2255 12.4777 47.8935C7.72015 46.7453 5.54083 46.2079 2.47576 42.3931Z" fill="#FFBC8F"/>
<path d="M2.47576 42.3931C0.721668 40.2099 0.0485973 37.1283 0.00248337 33.8968C1.78338 36.479 5.24974 34.6238 10.9999 31.8931C10.9999 31.8931 5.09464 40.9404 8.99988 42.8931C12.9999 44.8931 20.9999 40.8931 20.9999 40.8931C20.9999 40.8931 19.1386 44.0977 19.9999 45.8931C21.1911 48.3761 26.9805 46.8935 26.9805 46.8935C26.9805 46.8935 17.9963 49.2255 12.4777 47.8935C7.72015 46.7453 5.54083 46.2079 2.47576 42.3931Z" fill="#FFBC8F"/>
<path d="M102.246 49.8928C104.247 71.9842 95.3363 89.8928 63.2387 89.8928C31.1412 89.8928 21.2307 71.9842 23.2311 49.8928C26.2316 27.8014 39.1427 9.89282 63.2387 9.89282C87.3348 9.89282 99.2457 27.8014 102.246 49.8928Z" fill="#FF791F"/>
<path d="M52.7219 46.1488C53.5679 41.3732 57.7187 37.8931 62.5686 37.8931H62.9844H63.4001C68.2501 37.8931 72.4009 41.3732 73.2468 46.1488L75.904 61.1488C76.989 67.2741 72.2779 72.8931 66.0573 72.8931H59.9115C53.6908 72.8931 48.9797 67.2741 50.0648 61.1488L52.7219 46.1488Z" fill="#FFBC8F"/>
<path d="M47.9739 73.3922C47.9739 73.3922 53.4918 79.8922 62.9428 79.8922C72.3937 79.8922 77.9117 73.3922 77.9117 73.3922L78.4844 75.3922C78.4844 75.3922 72.3937 81.8922 62.9428 81.8922C53.4918 81.8922 47.4844 75.3922 47.4844 75.3922L47.9739 73.3922Z" fill="#8F3900"/>
<path d="M76.2046 70.7388C76.6997 70.3225 77.4629 70.5115 77.7349 71.0988C78.1927 72.0875 78.9011 73.4658 79.657 74.3685C80.4129 75.2712 81.6445 76.2096 82.5365 76.8331C83.0665 77.2035 83.1197 77.9895 82.6246 78.4058V78.4058C82.3128 78.668 81.8696 78.7012 81.5307 78.4756C80.6707 77.903 79.0475 76.7521 78.1281 75.6541C77.2087 74.5561 76.3595 72.7543 75.9461 71.8062C75.7832 71.4326 75.8927 71.001 76.2046 70.7388V70.7388Z" fill="#8F3900"/>
<path d="M49.7642 70.7388C49.269 70.3225 48.5058 70.5115 48.2338 71.0988C47.776 72.0875 47.0676 73.4658 46.3118 74.3685C45.5559 75.2712 44.3243 76.2096 43.4322 76.8331C42.9022 77.2035 42.849 77.9895 43.3441 78.4058V78.4058C43.656 78.668 44.0991 78.7012 44.438 78.4756C45.298 77.903 46.9212 76.7521 47.8407 75.6541C48.7601 74.5561 49.6093 72.7543 50.0227 71.8062C50.1856 71.4326 50.076 71.001 49.7642 70.7388V70.7388Z" fill="#8F3900"/>
<path d="M64.9844 69.8931C64.9844 70.8931 65.8594 70.8931 66.7344 70.8931C68.1433 70.893 69.3594 70.393 70.2344 69.8931C71.1094 69.3931 71.9844 68.9976 71.9844 67.8931C71.9844 66.8931 71.9844 65.8931 71.1094 65.8931C69.7005 65.8931 68.4844 66.3321 67.6094 66.8931C66.7344 67.454 64.9844 68.2362 64.9844 69.8931Z" fill="#8F3900"/>
<path d="M60.9844 69.8931C60.9844 70.8931 60.1094 70.8931 59.2344 70.8931C57.8255 70.893 56.6094 70.393 55.7344 69.8931C54.8594 69.3931 53.9844 68.9976 53.9844 67.8931C53.9844 66.8931 53.9844 65.8931 54.8594 65.8931C56.2683 65.8931 57.4844 66.3321 58.3594 66.8931C59.2344 67.454 60.9844 68.2362 60.9844 69.8931Z" fill="#8F3900"/>
<ellipse cx="85.4844" cy="48.3931" rx="7.5" ry="8.5" fill="#FFBC8F"/>
<ellipse cx="85.4844" cy="48.3922" rx="4.5" ry="5.5" fill="#8F3900"/>
<ellipse cx="40.4844" cy="48.3931" rx="7.5" ry="8.5" fill="#FFBC8F"/>
<ellipse cx="40.4844" cy="48.3922" rx="4.5" ry="5.5" fill="#8F3900"/>
</svg>
