<svg width="107" height="106" viewBox="0 0 107 106" fill="none" xmlns="http://www.w3.org/2000/svg">
<path d="M76 14.4844C87.7727 10.3198 107 4.48438 107 4.48438C104.441 18.0628 99.5255 28.438 86 32.4844C89.4001 37.5069 88.6762 41.9904 88.9492 48.0624C89.3501 56.9773 85.6647 62.6978 79.8017 69.3905C75.072 74.7895 68.949 73.7463 64.3214 79.2343C60.6376 83.6029 60.5528 87.3417 57.8033 92.3593C51.2853 104.254 48.4336 105.484 34.1754 105.484C23.8947 105.484 24.1058 105.854 16.7328 98.6406C14.0592 97.9844 3.5592 91.9844 0.770474 80.8749C-0.243185 76.8368 -0.270374 74.2414 0.770474 70.2108C1.77369 66.326 2.91483 64.0992 5.659 61.1874C8.02794 58.6737 12.5748 59.6974 12.9918 56.2655C15.4674 35.8897 17.2589 28.4206 21.1393 21.8126C23.686 17.5392 26.1747 14.6469 30 11.4844V0.484375L39 5.48438C40.6295 4.66403 46 4.4059 51.2853 4.4059C57.4634 4.4059 63.4009 5.60249 68.7656 8.68717C72.4828 10.8245 73.5 11.4844 76 14.4844Z" fill="#FF791F"/>
<path d="M33 3.98438L36 7.48438L33 9.48438V3.98438Z" fill="#FFBC8F"/>
<path d="M30 0.484375L39 5.48438L36 7.48438L30 0.484375Z" fill="#8F3900"/>
<path d="M34.1753 101.383C48.4335 101.383 55.0588 96.4844 57.8032 92.3593C59.5327 89.7597 60.0105 87.2636 60.9418 84.9769C60.9418 84.9769 64.265 76.3934 61.8769 71.8518C58.2105 64.8791 57.2034 64.672 53.7294 61.1877C42.5588 49.9844 24.0588 53.4844 20.3244 55.4455C16.4876 57.4604 9.73261 58.7221 9.73261 58.7221C8.36352 59.335 6.92614 59.8427 5.65885 61.1874C2.91468 64.0992 1.77354 66.326 0.770324 70.2108C-0.270524 74.2414 -0.0821101 76.7997 0.770324 80.8749C2.15356 87.4877 10.2827 96.7042 16.7326 98.6406C24.1057 100.854 23.8945 101.383 34.1753 101.383Z" fill="#FFBC8F"/>
<ellipse cx="37.0591" cy="83.9844" rx="5.5" ry="9.5" fill="#8F3900"/>
<path d="M12.0166 78.2849C12.0166 83.4007 16.1678 86.0854 13.8615 88.0355C8.78782 90.4731 5.5591 82.4257 5.5591 77.3098C5.5591 72.1939 5.52445 70.4844 8.32659 70.4844C11.1287 70.4844 12.0166 73.169 12.0166 78.2849Z" fill="#8F3900"/>
<path d="M84 30.4844L78 18.4844L100 9.48438C96.8 19.4772 93.5 24.9844 84 30.4844Z" fill="#FFBC8F"/>
<path d="M76 14.4844L107 4.48438L106.5 7.48438L76 20.4844V14.4844Z" fill="#8F3900"/>
<path d="M76 32.4844H86C86 32.4844 83.841 26.8614 82 23.4844C79.9781 19.7756 76 14.4844 76 14.4844V32.4844Z" fill="#FF791F"/>
<ellipse cx="64.9996" cy="38.9844" rx="10" ry="12.5" transform="rotate(20 64.9996 38.9844)" fill="#FFBC8F"/>
<ellipse cx="64.9998" cy="38.9843" rx="7" ry="8.5" transform="rotate(20 64.9998 38.9843)" fill="#8F3900"/>
<path fill-rule="evenodd" clip-rule="evenodd" d="M15.0493 41.4477C16.3752 33.4898 17.7417 28.6217 19.6716 24.5726C20.5935 23.8349 21.5612 23.494 22.4968 23.659C25.4883 24.1865 27.0192 29.6846 25.9163 35.9394C24.8134 42.1941 21.4943 46.8371 18.5029 46.3096C16.8195 46.0128 15.5986 44.1418 15.0493 41.4477Z" fill="#FFBC8F"/>
<ellipse cx="20.5" cy="34.9844" rx="2.5" ry="7.5" transform="rotate(10 20.5 34.9844)" fill="#8F3900"/>
</svg>
