<svg width="128" height="79" viewBox="0 0 128 79" fill="none" xmlns="http://www.w3.org/2000/svg">
<path d="M97 10C95.5919 10 94 12 94 12V57H113C119 57 128 45 128 32C124.74 34.9606 122.973 35.929 120 36C120 36 115.5 10 97 10Z" fill="#8F3900"/>
<path d="M31 10C32.4081 10 34 12 34 12V57H15C9 57 0 45 0 32C3.25972 34.9606 5.02686 35.929 8 36C8 36 12.5 10 31 10Z" fill="#8F3900"/>
<path d="M64 0C52.5 0 34 8 34 12C34 12 32 17.5 32 22C32 23.2349 33 25 33 25C33 25 26 33 26 37C26 40 28 40 28 40C28 40 18 45 18 49C18 50.7614 25 48 25 48C25 48 20 53 20 56C20 60 22 61 24 61C27 61 27 60 27 60C27 67 30.5 72 37 69L64 67H93C100 68 105 66 105 60C105 60 106 61 109 61C111 61 113 61 113 57C113 55 103 48 103 48C103 48 110 50.7614 110 49C110 45 100 40 100 40C100 40 102 40 102 37C102 33 95 25 95 25C95 25 96 23.2349 96 22C96 17.5 94 12 94 12C94 8 75.5 0 64 0Z" fill="#FFBC8F"/>
<path d="M99 52C99 62.4345 91.33 79 64 79C36.67 79 29 62.4345 29 52C29 41.5655 40.67 5 64 5C87.33 5 99 41.5655 99 52Z" fill="#FF791F"/>
<path fill-rule="evenodd" clip-rule="evenodd" d="M52 44.8498C52 44.2079 53.3402 43.7425 53.8409 44.1443C55.5313 45.5008 58.6172 46.9999 64 46.9999C69.3828 46.9999 72.4687 45.5008 74.1591 44.1443C74.6598 43.7425 76 44.2079 76 44.8498C76 44.9483 75.9769 45.043 75.9211 45.1242C75.4748 45.7734 72.9972 48.7544 65 48.9857V60.8294C65.1261 60.8868 65.2478 60.9557 65.3635 61.0361C66.6115 61.9033 68.4885 62.9999 70 62.9999C72.1715 62.9999 73.1642 60.9369 73.6179 59.0508C73.7506 58.4993 74.795 58.3848 74.9743 58.9229C74.9913 58.9739 75.0001 59.0252 74.9984 59.0789C74.977 59.786 74.661 64.9999 70 64.9999C68.4885 64.9999 66.6115 63.9033 65.3635 63.0361C64.5534 62.4732 63.4466 62.4732 62.6365 63.0361C61.3885 63.9033 59.5115 64.9999 58 64.9999C53.4891 64.9999 52.2339 60.1164 52.0315 59.1609C52.009 59.0545 52.018 58.9459 52.0524 58.8427C52.278 58.166 53.4656 58.2345 53.7041 58.9068C54.3865 60.8303 55.6721 62.9999 58 62.9999C59.5115 62.9999 61.3885 61.9033 62.6365 61.0361C62.7522 60.9557 62.8739 60.8868 63 60.8294V48.9857C55.0028 48.7544 52.5252 45.7734 52.0789 45.1242C52.0231 45.043 52 44.9483 52 44.8498Z" fill="#8F3900"/>
<ellipse cx="80.17" cy="24.4998" rx="3.5" ry="5.5" transform="rotate(-20 80.17 24.4998)" fill="#8F3900"/>
<ellipse rx="3.5" ry="5.5" transform="matrix(-0.939693 -0.34202 -0.34202 0.939693 48.1698 24.4998)" fill="#8F3900"/>
</svg>
