<svg width="90" height="115" viewBox="0 0 90 115" fill="none" xmlns="http://www.w3.org/2000/svg">
<path d="M40 42.9985L4 64.9985C4 64.9985 17.6961 0.99807 21 0.998535C21.6494 0.998627 22.1345 0.998594 22.7448 0.998552L23 0.998535C26.3039 0.998323 40 42.9985 40 42.9985Z" fill="#FF791F"/>
<path d="M33.7495 46.9946V41.2705L24.1523 15.6774L12.4998 54.2203V55.7574L33.7495 46.9946Z" fill="#FFBC8F" stroke="#8F3900" stroke-width="3"/>
<path d="M50 42.9985L86 64.9985C86 64.9985 72.3039 0.99807 69 0.998535C68.3506 0.998627 67.8655 0.998594 67.2552 0.998552L67 0.998535C63.6961 0.998323 50 42.9985 50 42.9985Z" fill="#FF791F"/>
<path d="M56.2505 46.9946V41.2705L65.8477 15.6774L77.5002 54.2203V55.7574L56.2505 46.9946Z" fill="#FFBC8F" stroke="#8F3900" stroke-width="3"/>
<path d="M90 81.9917C90 103.021 69.7735 114.999 45.6521 114.999C21.5307 114.999 0 103.021 0 82.0164C0 60.7265 17.0155 40.0071 45.5 40.0071C72.9845 40.0071 90 60.7018 90 81.9917Z" fill="#FF791F"/>
<circle cx="69" cy="74.9985" r="11" fill="#FFBC8F"/>
<circle cx="69" cy="74.9985" r="7" fill="#8F3900"/>
<circle cx="21" cy="74.9985" r="11" fill="#FFBC8F"/>
<circle cx="21" cy="74.9985" r="7" fill="#8F3900"/>
<path d="M28 95.5249C28 94.3773 29.5387 93.813 30.3576 94.6171C31.9632 96.1936 34.1285 97.9135 36 97.9985C38.3405 98.1049 41.169 96.5975 43.0226 95.4029C44.2128 94.6358 45.7872 94.6358 46.9774 95.4029C48.831 96.5975 51.6595 98.1049 54 97.9985C55.8715 97.9135 58.0368 96.1936 59.6424 94.6171C60.4613 93.813 62 94.3773 62 95.5249V95.5249C62 95.8293 61.886 96.1211 61.6711 96.3365C60.5712 97.4387 56.9264 100.866 54 100.999C51.6595 101.105 48.831 99.5975 46.9774 98.4029C45.7872 97.6358 44.2128 97.6358 43.0226 98.4029C41.169 99.5975 38.3405 101.105 36 100.999C33.0736 100.866 29.4288 97.4387 28.3289 96.3365C28.114 96.1211 28 95.8293 28 95.5249V95.5249Z" fill="#8F3900"/>
</svg>
