<svg width="126" height="101" viewBox="0 0 126 101" fill="none" xmlns="http://www.w3.org/2000/svg">
<path d="M86 0C77.5 3.64453e-05 75 12 75 12L95 23C95 23 101.645 -6.70814e-05 86 0Z" fill="#8F3900"/>
<path d="M40.4019 0C48.9019 3.64453e-05 51.4019 12 51.4019 12L31.4019 23C31.4019 23 24.7566 -6.70814e-05 40.4019 0Z" fill="#8F3900"/>
<path d="M90.9737 73.3416C100.172 66.7391 106 56.9394 106 46.0001C106 45.7619 105.997 45.5242 105.992 45.2872C107.322 46.7686 109.992 49.0001 114 49.0001C126.126 49.0001 126 32.0001 126 32.0001L100 26C92.308 16.2422 78.0095 10.0001 63.0001 10.0001C47.9906 10.0001 33.692 16.2422 26 26L5.25727e-05 32.0001C5.25727e-05 32.0001 -0.126233 49.0001 12.0001 49.0001C16.0083 49.0001 18.6778 46.7686 20.0083 45.2872C20.0028 45.5242 20.0001 45.7619 20.0001 46.0001C20.0001 56.9395 25.8282 66.7393 35.0267 73.3418C35.2994 76.5331 37.9459 101 55.0002 101H71.0002C88.0549 101 90.7011 76.5322 90.9737 73.3416Z" fill="#FF7C1F"/>
<path d="M18 31C20.4699 31 23 33 23 33L21 43C21 43 16.4101 47 13 47C4 47 3 35 3 35C3 35 12 31 18 31Z" fill="#8F3900"/>
<path d="M15 35C20.9741 35 22 37 22 37L21 42C21 42 17.5 44 15 44C9.84867 44 7 37 7 37C7 37 10.5 35 15 35Z" fill="#FFBC8F"/>
<path d="M108 31C105.53 31 103 33 103 33L105 43C105 43 109.59 47 113 47C122 47 123 35 123 35C123 35 114 31 108 31Z" fill="#8F3900"/>
<path d="M111 35C105.026 35 104 37 104 37L105 42C105 42 108.5 44 111 44C116.151 44 119 37 119 37C119 37 115.5 35 111 35Z" fill="#FFBC8F"/>
<path d="M66 85C66 85 66 82 63 82C60 82 60 85 60 85V94C60 94 58 96 54 96C51 96 51 93 51 93H49V95C49 98 53 99 55 99C58 99 63 97 63 97C63 97 68 99 71 99C73 99 77 98 77 95V93H75C75 93 75 96 71 96C66.897 96 66 94 66 94V85Z" fill="#8F3900"/>
<path d="M106 45H20C20 45 20.7861 38.7931 22 35C23.1724 31.3368 26 26 26 26H100C100 26 102.828 31.3368 104 35C105.214 38.7931 106 45 106 45Z" fill="#FF7C1F"/>
<ellipse cx="38" cy="50.9988" rx="10" ry="11" fill="#FFBC8F"/>
<ellipse cx="38" cy="50.9988" rx="6" ry="7" fill="#8F3900"/>
<ellipse cx="88" cy="50.9988" rx="10" ry="11" fill="#FFBC8F"/>
<ellipse cx="88" cy="50.9988" rx="6" ry="7" fill="#8F3900"/>
</svg>
