<svg width="90" height="110" viewBox="0 0 90 110" fill="none" xmlns="http://www.w3.org/2000/svg">
<path d="M85 35C82.134 35 78 42 78 42V64L86 72C86 72 90 58 90 49C90 43.1944 88 35 85 35Z" fill="#8F3900"/>
<path d="M5 35C7.86599 35 12 42 12 42V64L4 72C4 72 0 58 0 49C0 43.1944 2 35 5 35Z" fill="#8F3900"/>
<path d="M79.6088 63.2515C79.8665 60.5599 80.0001 57.8045 80.0001 55C80.0001 24.6243 64.3301 0 45.0001 0C25.6702 0 10.0001 24.6243 10.0001 55C10.0001 57.8045 10.1337 60.5599 10.3914 63.2515C-0.367128 71.041 0.898985 81.649 0.994932 82.4524C0.998228 82.48 1.00012 82.496 1.00012 82.5C1.00012 99.6878 20.6996 110 45.0001 110C69.3007 110 89.0001 99.6878 89.0001 82.5C89.0001 82.496 89.002 82.48 89.0053 82.4524C89.1013 81.649 90.3674 71.041 79.6088 63.2515Z" fill="#FF791F"/>
<path d="M45 106C7.58332 106 3 91 3 91C3 91 6 87 17 87C26.3909 87 45 88 45 88C45 88 63.6091 87 73 87C84 87 87 91 87 91C87 91 82.4167 106 45 106Z" fill="#FFBC8F"/>
<path d="M7 93.1287C7 92.5303 7.51801 92.0665 8.11184 92.14C12.8942 92.7321 32.0571 95 45 95C57.9429 95 77.1058 92.7321 81.8882 92.14C82.482 92.0665 83 92.5303 83 93.1287V93.1287C83 93.6271 82.6434 94.046 82.1488 94.1076C77.8478 94.6437 58.1927 97 45 97C31.8073 97 12.1522 94.6437 7.85116 94.1076C7.35664 94.046 7 93.6271 7 93.1287V93.1287Z" fill="#8F3900"/>
<path d="M64 66.9988C64 72.9988 53 75.9988 53 75.9988C53 75.9988 51 71.9988 51 68.9988C51 64.9988 52 62.9988 57 62.9988C60.1485 62.9988 64 63.9988 64 66.9988Z" fill="#FFBC8F"/>
<path d="M56 74.9988C55 75.4988 53 75.9988 53 75.9988V70.9988C53 68.4982 54 65.9988 57 65.9988C58.5 65.9988 60 65.9988 60 67.9988C60 71.1473 58.8161 73.5906 56 74.9988Z" fill="#8F3900"/>
<path d="M28 66.9988C28 72.9988 39 75.9988 39 75.9988C39 75.9988 41 71.9988 41 68.9988C41 64.9988 40 62.9988 35 62.9988C31.8515 62.9988 28 63.9988 28 66.9988Z" fill="#FFBC8F"/>
<path d="M36 74.9988C37 75.4988 39 75.9988 39 75.9988V70.9988C39 68.4982 38 65.9988 35 65.9988C33.5 65.9988 32 65.9988 32 67.9988C32 71.1473 33.1839 73.5906 36 74.9988Z" fill="#8F3900"/>
<ellipse cx="59" cy="49.9988" rx="8" ry="6" fill="#8F3900"/>
<ellipse cx="58" cy="47.9988" rx="3" ry="2" fill="#FFBC8F"/>
<ellipse rx="8" ry="6" transform="matrix(-1 0 0 1 31 49.9988)" fill="#8F3900"/>
<ellipse rx="3" ry="2" transform="matrix(-1 0 0 1 32 47.9988)" fill="#FFBC8F"/>
</svg>
