<svg width="20" height="20" viewBox="0 0 20 20" fill="none" xmlns="http://www.w3.org/2000/svg">
<circle cx="10" cy="10" r="10" fill="#811D1D"/>
<path d="M9.98959 11.936L7.70359 15.212C7.55959 15.416 7.39759 15.56 7.21759 15.644C7.04959 15.74 6.87559 15.788 6.69559 15.788C6.37159 15.788 6.07759 15.668 5.81359 15.428C5.56159 15.176 5.43559 14.882 5.43559 14.546C5.43559 14.318 5.51359 14.09 5.66959 13.862L8.54959 9.974L5.92159 6.392C5.75359 6.164 5.66959 5.948 5.66959 5.744C5.66959 5.588 5.70559 5.444 5.77759 5.312C5.86159 5.168 5.96359 5.048 6.08359 4.952C6.21559 4.844 6.35959 4.76 6.51559 4.7C6.67159 4.64 6.83359 4.61 7.00159 4.61C7.18159 4.61 7.34959 4.652 7.50559 4.736C7.67359 4.808 7.82359 4.928 7.95559 5.096L9.98959 8.012L12.0236 5.114C12.1556 4.934 12.3056 4.802 12.4736 4.718C12.6416 4.634 12.8156 4.592 12.9956 4.592C13.3316 4.592 13.6316 4.7 13.8956 4.916C14.1716 5.132 14.3096 5.402 14.3096 5.726C14.3096 5.954 14.2256 6.176 14.0576 6.392L11.4476 9.974L14.3456 13.88C14.5016 14.084 14.5796 14.306 14.5796 14.546C14.5796 14.882 14.4416 15.17 14.1656 15.41C13.9016 15.65 13.6016 15.77 13.2656 15.77C13.0856 15.77 12.9116 15.728 12.7436 15.644C12.5756 15.56 12.4256 15.422 12.2936 15.23L9.98959 11.936Z" fill="white"/>
</svg>
