<svg width="90" height="115" viewBox="0 0 90 115" fill="none" xmlns="http://www.w3.org/2000/svg">
<path d="M40 42.9982L4 64.9982C4 64.9982 17.6961 0.997704 21 0.998169C21.6494 0.99826 22.1345 0.998227 22.7448 0.998186L23 0.998169C26.3039 0.997957 40 42.9982 40 42.9982Z" fill="#FF4040"/>
<path d="M33.7495 46.9942V41.2702L24.1523 15.677L12.4998 54.22V55.7571L33.7495 46.9942Z" fill="#FFA0A0" stroke="#A00000" stroke-width="3"/>
<path d="M50 42.9982L86 64.9982C86 64.9982 72.3039 0.997704 69 0.998169C68.3506 0.99826 67.8655 0.998227 67.2552 0.998186L67 0.998169C63.6961 0.997957 50 42.9982 50 42.9982Z" fill="#FF4040"/>
<path d="M56.2505 46.9942V41.2702L65.8477 15.677L77.5002 54.22V55.7571L56.2505 46.9942Z" fill="#FFA0A0" stroke="#A00000" stroke-width="3"/>
<path d="M90 81.9914C90 103.021 69.7735 114.998 45.6521 114.998C21.5307 114.998 0 103.021 0 82.016C0 60.7261 17.0155 40.0068 45.5 40.0068C72.9845 40.0068 90 60.7014 90 81.9914Z" fill="#FF4040"/>
<circle cx="69" cy="74.9982" r="11" fill="#FFA0A0"/>
<circle cx="69" cy="74.9982" r="7" fill="#A00000"/>
<circle cx="21" cy="74.9982" r="11" fill="#FFA0A0"/>
<circle cx="21" cy="74.9982" r="7" fill="#A00000"/>
<path d="M28 95.5246C28 94.377 29.5387 93.8127 30.3576 94.6167C31.9632 96.1933 34.1285 97.9131 36 97.9982C38.3405 98.1046 41.169 96.5971 43.0226 95.4025C44.2128 94.6355 45.7872 94.6355 46.9774 95.4025C48.831 96.5971 51.6595 98.1046 54 97.9982C55.8715 97.9131 58.0368 96.1933 59.6424 94.6167C60.4613 93.8127 62 94.377 62 95.5246V95.5246C62 95.8289 61.886 96.1207 61.6711 96.3362C60.5712 97.4384 56.9264 100.865 54 100.998C51.6595 101.105 48.831 99.5971 46.9774 98.4025C45.7872 97.6355 44.2128 97.6355 43.0226 98.4025C41.169 99.5971 38.3405 101.105 36 100.998C33.0736 100.865 29.4288 97.4384 28.3289 96.3362C28.114 96.1207 28 95.8289 28 95.5246V95.5246Z" fill="#A00000"/>
</svg>
