<svg width="127" height="90" viewBox="0 0 127 90" fill="none" xmlns="http://www.w3.org/2000/svg">
<path d="M87.9861 2.39308C82.5001 5.00499 78.9844 12.8935 78.9844 12.8935L99.9884 46.8935C99.9884 46.8935 108.973 49.2255 114.491 47.8935C119.249 46.7453 121.428 46.2079 124.493 42.3931C129.632 35.9977 125.493 21.893 123.493 18.8931C118.248 11.0273 119.992 10.8932 111.491 3.89326C105.46 -1.07188 95.0392 -0.964906 87.9861 2.39308Z" fill="#FF4640"/>
<path fill-rule="evenodd" clip-rule="evenodd" d="M120.868 14.678C120.576 14.3883 120.283 14.1258 119.992 13.8929C115.489 10.2908 109.99 7.39297 100.989 12.8931C91.9869 18.3931 93.9872 27.8929 93.9872 27.8929L100.699 47.0645C102.927 47.5773 109.905 49.0003 114.491 47.8936C119.249 46.7453 121.428 46.2079 124.493 42.3931C125.103 41.6337 125.583 40.7656 125.95 39.8203C126.547 37.9186 126.848 36.1596 126.951 34.4814C127.197 28.0927 124.852 20.9309 123.493 18.8931C122.342 17.1673 121.528 15.8136 120.868 14.678Z" fill="#A00000"/>
<path d="M124.493 42.3931C126.247 40.2099 126.92 37.1283 126.966 33.8968C125.185 36.479 121.719 34.6238 115.969 31.8931C115.969 31.8931 121.874 40.9404 117.969 42.8931C113.969 44.8931 105.969 40.8931 105.969 40.8931C105.969 40.8931 107.83 44.0977 106.969 45.8931C105.778 48.3761 99.9883 46.8935 99.9883 46.8935C99.9883 46.8935 108.972 49.2255 114.491 47.8935C119.249 46.7453 121.428 46.2079 124.493 42.3931Z" fill="#FFA0A0"/>
<path d="M124.493 42.3931C126.247 40.2099 126.92 37.1283 126.966 33.8968C125.185 36.479 121.719 34.6238 115.969 31.8931C115.969 31.8931 121.874 40.9404 117.969 42.8931C113.969 44.8931 105.969 40.8931 105.969 40.8931C105.969 40.8931 107.83 44.0977 106.969 45.8931C105.778 48.3761 99.9883 46.8935 99.9883 46.8935C99.9883 46.8935 108.972 49.2255 114.491 47.8935C119.249 46.7453 121.428 46.2079 124.493 42.3931Z" fill="#FFA0A0"/>
<path d="M39.967 2.39308C45.4531 5.00499 48.9688 12.8935 48.9688 12.8935L27.9647 46.8935C27.9647 46.8935 18.9806 49.2255 13.4619 47.8935C8.70439 46.7453 6.52507 46.2079 3.46001 42.3931C-1.67844 35.9977 2.45982 21.893 4.4602 18.8931C9.70522 11.0273 7.96087 10.8932 16.4625 3.89326C22.4928 -1.07188 32.9139 -0.964906 39.967 2.39308Z" fill="#FF4640"/>
<path fill-rule="evenodd" clip-rule="evenodd" d="M7.08534 14.678C7.37691 14.3883 7.66975 14.1258 7.96089 13.8929C12.4642 10.2908 17.9628 7.39297 26.9645 12.8931C35.9663 18.3931 33.9659 27.8929 33.9659 27.8929L27.2546 47.0645C25.0261 47.5773 18.0476 49.0003 13.462 47.8936C8.70447 46.7453 6.52515 46.2079 3.46009 42.3931C2.84994 41.6337 2.37059 40.7656 2.00293 39.8203C1.40623 37.9186 1.10554 36.1596 1.00216 34.4814C0.756167 28.0927 3.10146 20.9309 4.46028 18.8931C5.61109 17.1673 6.42543 15.8136 7.08534 14.678Z" fill="#A00000"/>
<path d="M3.46014 42.3931C1.70604 40.2099 1.03297 37.1283 0.986858 33.8968C2.76776 36.479 6.23411 34.6238 11.9843 31.8931C11.9843 31.8931 6.07901 40.9404 9.98425 42.8931C13.9843 44.8931 21.9843 40.8931 21.9843 40.8931C21.9843 40.8931 20.1229 44.0977 20.9843 45.8931C22.1754 48.3761 27.9648 46.8935 27.9648 46.8935C27.9648 46.8935 18.9807 49.2255 13.4621 47.8935C8.70452 46.7453 6.5252 46.2079 3.46014 42.3931Z" fill="#FFA0A0"/>
<path d="M3.46014 42.3931C1.70604 40.2099 1.03297 37.1283 0.986858 33.8968C2.76776 36.479 6.23411 34.6238 11.9843 31.8931C11.9843 31.8931 6.07901 40.9404 9.98425 42.8931C13.9843 44.8931 21.9843 40.8931 21.9843 40.8931C21.9843 40.8931 20.1229 44.0977 20.9843 45.8931C22.1754 48.3761 27.9648 46.8935 27.9648 46.8935C27.9648 46.8935 18.9807 49.2255 13.4621 47.8935C8.70452 46.7453 6.5252 46.2079 3.46014 42.3931Z" fill="#FFA0A0"/>
<path d="M103.231 49.8928C105.231 71.9842 96.3207 89.8928 64.2231 89.8928C32.1256 89.8928 22.215 71.9842 24.2154 49.8928C27.216 27.8014 40.1271 9.89282 64.2231 9.89282C88.3191 9.89282 100.23 27.8014 103.231 49.8928Z" fill="#FF4640"/>
<path d="M53.7063 46.1488C54.5523 41.3732 58.7031 37.8931 63.553 37.8931H63.9688H64.3845C69.2344 37.8931 73.3852 41.3732 74.2312 46.1488L76.8883 61.1488C77.9734 67.2741 73.2623 72.8931 67.0416 72.8931H60.8959C54.6752 72.8931 49.9641 67.2741 51.0492 61.1488L53.7063 46.1488Z" fill="#FFA0A0"/>
<path d="M48.9583 73.3922C48.9583 73.3922 54.4762 79.8922 63.9271 79.8922C73.3781 79.8922 78.896 73.3922 78.896 73.3922L79.4688 75.3922C79.4688 75.3922 73.3781 81.8922 63.9271 81.8922C54.4762 81.8922 48.4688 75.3922 48.4688 75.3922L48.9583 73.3922Z" fill="#A00000"/>
<path d="M77.1889 70.7388C77.6841 70.3225 78.4473 70.5115 78.7193 71.0988C79.1771 72.0875 79.8855 73.4658 80.6414 74.3685C81.3973 75.2712 82.6288 76.2096 83.5209 76.8331C84.0509 77.2035 84.1041 77.9895 83.609 78.4058V78.4058C83.2972 78.668 82.854 78.7012 82.5151 78.4756C81.6551 77.903 80.0319 76.7521 79.1125 75.6541C78.193 74.5561 77.3439 72.7543 76.9305 71.8062C76.7675 71.4326 76.8771 71.001 77.1889 70.7388V70.7388Z" fill="#A00000"/>
<path d="M50.7486 70.7388C50.2534 70.3225 49.4902 70.5115 49.2182 71.0988C48.7604 72.0875 48.052 73.4658 47.2961 74.3685C46.5402 75.2712 45.3087 76.2096 44.4166 76.8331C43.8866 77.2035 43.8334 77.9895 44.3285 78.4058V78.4058C44.6403 78.668 45.0835 78.7012 45.4224 78.4756C46.2824 77.903 47.9056 76.7521 48.825 75.6541C49.7445 74.5561 50.5936 72.7543 51.007 71.8062C51.17 71.4326 51.0604 71.001 50.7486 70.7388V70.7388Z" fill="#A00000"/>
<path d="M65.9688 69.8931C65.9688 70.8931 66.8438 70.8931 67.7188 70.8931C69.1277 70.893 70.3438 70.393 71.2188 69.8931C72.0938 69.3931 72.9687 68.9976 72.9688 67.8931C72.9688 66.8931 72.9688 65.8931 72.0938 65.8931C70.6848 65.8931 69.4688 66.3321 68.5938 66.8931C67.7188 67.454 65.9688 68.2362 65.9688 69.8931Z" fill="#A00000"/>
<path d="M61.9688 69.8931C61.9688 70.8931 61.0937 70.8931 60.2187 70.8931C58.8098 70.893 57.5937 70.393 56.7187 69.8931C55.8437 69.3931 54.9688 68.9976 54.9688 67.8931C54.9687 66.8931 54.9687 65.8931 55.8437 65.8931C57.2527 65.8931 58.4687 66.3321 59.3437 66.8931C60.2187 67.454 61.9687 68.2362 61.9688 69.8931Z" fill="#A00000"/>
<ellipse cx="86.4688" cy="48.3931" rx="7.5" ry="8.5" fill="#FFA0A0"/>
<ellipse cx="86.4688" cy="48.3922" rx="4.5" ry="5.5" fill="#A00000"/>
<ellipse cx="41.4688" cy="48.3931" rx="7.5" ry="8.5" fill="#FFA0A0"/>
<ellipse cx="41.4688" cy="48.3922" rx="4.5" ry="5.5" fill="#A00000"/>
</svg>
