<svg width="90" height="89" viewBox="0 0 90 89" fill="none" xmlns="http://www.w3.org/2000/svg">
<path d="M90 54.5C90 79.0767 59.8528 89 45 89C30.1472 89 0 79.0767 0 54.5C0 29.9233 10.1472 0 45 0C79.8528 0 90 29.9233 90 54.5Z" fill="#FF4040"/>
<path d="M45 46C55.3175 46 68 59 68 59C68 59 55.7234 74 45 74C34.2766 74 22 59 22 59C22 59 34.6825 46 45 46Z" fill="#FFA0A0"/>
<path d="M45 74C34.2766 74 22 59 22 59C22 59 39.8689 71 45 71C50.1311 71 68 59 68 59C68 59 55.7234 74 45 74Z" fill="#A00000"/>
<path d="M53.0135 50C54.0305 51 54.3641 53 53.522 53C51.8371 53 50.9795 53 49.9627 52C48.9459 51 48.4373 49 49.9627 49C50.9795 49 51.9965 49 53.0135 50Z" fill="#A00000"/>
<path d="M36.9865 50C35.9695 51 35.6359 53 36.478 53C38.1629 53 39.0205 53 40.0373 52C41.0541 51 41.5627 49 40.0373 49C39.0205 49 38.0035 49 36.9865 50Z" fill="#A00000"/>
<ellipse cx="71.9997" cy="44" rx="9" ry="11" transform="rotate(-20 71.9997 44)" fill="#FFA0A0"/>
<ellipse cx="71.9996" cy="44" rx="6" ry="7" transform="rotate(-20 71.9996 44)" fill="#A00000"/>
<ellipse rx="9" ry="11" transform="matrix(-0.939693 -0.34202 -0.34202 0.939693 18.0003 44)" fill="#FFA0A0"/>
<ellipse rx="6" ry="7" transform="matrix(-0.939693 -0.34202 -0.34202 0.939693 18.0004 44)" fill="#A00000"/>
</svg>
