<svg width="95" height="95" viewBox="0 0 95 95" fill="none" xmlns="http://www.w3.org/2000/svg">
<path fill-rule="evenodd" clip-rule="evenodd" d="M39.2677 20.9382C38.7225 17.6586 34.4296 -4.6452 19.2913 0.873656C2.96319 6.82624 14.096 28.7769 14.096 28.7769L14.25 28.7315C5.45604 34.6384 0 44.0954 0 58.1677C0 85.9502 21.2664 94.9996 47.4999 94.9996C73.7334 94.9996 94.9998 85.9502 94.9998 58.1677C94.9998 44.0977 89.5455 34.6415 80.7541 28.7344L80.8982 28.7769C80.8982 28.7769 92.031 6.82624 75.7029 0.873656C60.5653 -4.64493 56.2721 17.6564 55.7266 20.9377C53.0544 20.7036 50.3056 20.5916 47.4999 20.5916C44.6923 20.5916 41.9416 20.7038 39.2677 20.9382Z" fill="#FF4040"/>
<circle cx="23" cy="12.9988" r="10" fill="#FFA0A0"/>
<circle cx="23" cy="12.9988" r="5" fill="#A00000"/>
<circle cx="72" cy="12.9988" r="10" fill="#FFA0A0"/>
<circle cx="72" cy="12.9988" r="5" fill="#A00000"/>
<path d="M14 61.6039C14 60.4799 15.6241 59.8664 16.4506 60.6282C20.5721 64.4266 30.1395 70.9988 47 70.9988C63.8605 70.9988 73.4279 64.4266 77.5494 60.6282C78.3759 59.8664 80 60.4799 80 61.6039V61.6039C80 61.8599 79.9154 62.1079 79.7466 62.3004C78.1149 64.1607 68.4709 73.9988 47 73.9988C25.5291 73.9988 15.8851 64.1607 14.2534 62.3004C14.0846 62.1079 14 61.8599 14 61.6039V61.6039Z" fill="#A00000"/>
<ellipse cx="86.0938" cy="57.9988" rx="8.90625" ry="21" fill="#FFA0A0"/>
<ellipse cx="8.16406" cy="57.9988" rx="8.16406" ry="21" fill="#FFA0A0"/>
</svg>
