<svg width="107" height="106" viewBox="0 0 107 106" fill="none" xmlns="http://www.w3.org/2000/svg">
<path d="M76 14.8555C87.7727 10.6909 107 4.85547 107 4.85547C104.441 18.4339 99.5255 28.8091 86 32.8555C89.4001 37.878 88.6762 42.3614 88.9492 48.4335C89.3501 57.3484 85.6647 63.0689 79.8017 69.7616C75.072 75.1606 68.949 74.1174 64.3214 79.6054C60.6376 83.974 60.5528 87.7128 57.8033 92.7304C51.2853 104.625 48.4336 105.855 34.1754 105.855C23.8947 105.855 24.1058 106.225 16.7328 99.0117C14.0592 98.3555 3.5592 92.3555 0.770474 81.246C-0.243185 77.2079 -0.270374 74.6125 0.770474 70.5819C1.77369 66.6971 2.91483 64.4703 5.659 61.5584C8.02794 59.0448 12.5748 60.0685 12.9918 56.6366C15.4674 36.2608 17.2589 28.7917 21.1393 22.1837C23.686 17.9103 26.1747 15.018 30 11.8555V0.855469L39 5.85547C40.6295 5.03512 46 4.777 51.2853 4.777C57.4634 4.777 63.4009 5.97358 68.7656 9.05826C72.4828 11.1956 73.5 11.8555 76 14.8555Z" fill="#FF4040"/>
<path d="M33 4.35547L36 7.85547L33 9.85547V4.35547Z" fill="#FFA0A0"/>
<path d="M30 0.855469L39 5.85547L36 7.85547L30 0.855469Z" fill="#A00000"/>
<path d="M34.1753 101.754C48.4335 101.754 55.0588 96.8554 57.8032 92.7304C59.5327 90.1308 60.0105 87.6347 60.9418 85.3479C60.9418 85.3479 64.265 76.7645 61.8769 72.2229C58.2105 65.2502 57.2034 65.043 53.7294 61.5588C42.5588 50.3555 24.0588 53.8555 20.3244 55.8166C16.4876 57.8315 9.73261 59.0931 9.73261 59.0931C8.36352 59.7061 6.92614 60.2137 5.65885 61.5585C2.91468 64.4703 1.77354 66.6971 0.770324 70.5819C-0.270524 74.6125 -0.0821101 77.1708 0.770324 81.246C2.15356 87.8588 10.2827 97.0753 16.7326 99.0117C24.1057 101.225 23.8945 101.754 34.1753 101.754Z" fill="#FFA0A0"/>
<ellipse cx="37.0591" cy="84.3555" rx="5.5" ry="9.5" fill="#A00000"/>
<path d="M12.0166 78.656C12.0166 83.7718 16.1678 86.4565 13.8615 88.4066C8.78782 90.8442 5.5591 82.7968 5.5591 77.6809C5.5591 72.565 5.52445 70.8555 8.32659 70.8555C11.1287 70.8555 12.0166 73.5401 12.0166 78.656Z" fill="#A00000"/>
<path d="M84 30.8555L78 18.8555L100 9.85547C96.8 19.8483 93.5 25.3555 84 30.8555Z" fill="#FFA0A0"/>
<path d="M76 14.8555L107 4.85547L106.5 7.85547L76 20.8555V14.8555Z" fill="#A00000"/>
<path d="M76 32.8555H86C86 32.8555 83.841 27.2324 82 23.8555C79.9781 20.1467 76 14.8555 76 14.8555V32.8555Z" fill="#FF4040"/>
<ellipse cx="64.9996" cy="39.3554" rx="10" ry="12.5" transform="rotate(20 64.9996 39.3554)" fill="#FFA0A0"/>
<ellipse cx="64.9998" cy="39.3554" rx="7" ry="8.5" transform="rotate(20 64.9998 39.3554)" fill="#A00000"/>
<path fill-rule="evenodd" clip-rule="evenodd" d="M15.0493 41.8188C16.3752 33.8609 17.7417 28.9928 19.6716 24.9437C20.5935 24.206 21.5612 23.8651 22.4968 24.0301C25.4883 24.5576 27.0192 30.0557 25.9163 36.3105C24.8134 42.5652 21.4943 47.2081 18.5029 46.6807C16.8195 46.3838 15.5986 44.5129 15.0493 41.8188Z" fill="#FFA0A0"/>
<ellipse cx="20.5" cy="35.3555" rx="2.5" ry="7.5" transform="rotate(10 20.5 35.3555)" fill="#A00000"/>
</svg>
