<svg width="113" height="125" viewBox="0 0 113 125" fill="none" xmlns="http://www.w3.org/2000/svg">
<path d="M57.4184 0.0539201C50.6599 1.32113 46.4187 17.5539 49.4184 23.0539C15.9187 23.0539 25.9187 49.0539 13.4184 93.0539C-0.0813665 101.554 -7.0813 115.054 10.4184 109.054C7.91874 120.054 18.9187 124.054 30.4184 116.054C34.9187 127.554 50.4187 128.054 61.4184 117.054C75.9187 126.054 89.9187 123.054 91.4184 110.054C101.919 114.554 112.419 112.054 105.418 103.054C118.919 103.554 110.587 97.3711 94.4184 86.0539C87.7795 63.4035 87.9187 32.0539 77.4184 28.0539C77.4184 28.0539 73.9187 7.04571 68.4185 8.05392C67.2038 8.27658 65.4185 9.05392 65.4185 9.05392C65.4185 9.05392 62.0404 -0.812699 57.4184 0.0539201Z" fill="#FF4040"/>
<path d="M105.418 103.054C118.919 103.554 110.587 97.371 94.4184 86.0539C94.4184 86.0539 108.5 98.3677 107 98.9999C101.847 101.172 94 92.9999 94 92.9999C94 92.9999 104.5 107 102 108C93.5923 111.363 86 101 86 101C86 101 88.0125 118 78 118C68.5 118 60 105 60 105C60 105 56.0114 120 45 120C37 120 33 110 33 110C33 110 27 115.5 18 115.5C9.5 115.5 17 97.9999 17 97.9999C17 97.9999 9.047 109.5 3 106C1.43973 105.097 13.4184 93.0539 13.4184 93.0539C-0.0813866 101.554 -7.08132 115.054 10.4184 109.054C7.91872 120.054 18.9187 124.054 30.4184 116.054C34.9187 127.554 50.4187 128.054 61.4184 117.054C75.9187 126.054 89.9187 123.054 91.4184 110.054C101.919 114.554 112.419 112.054 105.418 103.054Z" fill="#A00000"/>
<path d="M57.4183 0.0539201C50.6598 1.32113 45.4188 20.0539 50.4183 24.0539C51.4187 24.0539 66.9188 23.0539 77.4184 28.0539C77.4184 28.0539 73.9186 7.04571 68.4184 8.05392C67.2037 8.27658 65.4184 9.05392 65.4184 9.05392C65.4184 9.05392 62.0403 -0.812699 57.4183 0.0539201Z" fill="#A00000"/>
<path d="M35.4189 83.0539C27.9189 83.0539 25.4189 77.0539 25.4189 77.0539H19.4189C19.4189 66.0539 34.4189 53.0539 39.4189 53.0539C45.4189 53.0539 57.4189 72.0539 57.4189 72.0539C57.4189 72.0539 42.9189 83.0539 35.4189 83.0539Z" fill="#FFA0A0"/>
<path d="M35.419 83.0539C27.919 83.0539 25.4189 77.0539 25.4189 77.0539L57.4189 72.0539C57.4189 72.0539 42.919 83.0539 35.419 83.0539Z" fill="#A00000"/>
<path d="M29.0019 59.4986L29.0005 59.5C27.5005 61 29.0004 61.5 31.0005 61C32.4556 60.6362 33.3401 56.1068 32.0004 57C30.501 57.9995 30.001 58.4996 29.0019 59.4986Z" fill="#A00000"/>
<path d="M45.0005 61C45.0005 62.1046 43.6573 62 42.0005 62C40.3436 62 39.0005 62.1046 39.0005 61C39.0005 59.8954 40.3436 59 42.0005 59C43.6573 59 45.0005 59.8954 45.0005 61Z" fill="#A00000"/>
<circle cx="55.5" cy="53.5" r="5.5" fill="#A00000"/>
<ellipse cx="27" cy="50.5" rx="3" ry="5.5" fill="#A00000"/>
</svg>
