<svg width="104" height="76" viewBox="0 0 104 76" fill="none" xmlns="http://www.w3.org/2000/svg">
<path d="M100.517 38C100.517 58.9868 98.3552 76 51.0171 76C3.67899 76 1.51709 58.9868 1.51709 38C1.51709 17.0132 23.679 0 51.0171 0C78.3552 0 100.517 17.0132 100.517 38Z" fill="#A06FCE"/>
<path d="M51.5171 69C39.909 69 23.5244 59 23.5244 59C23.5244 59 22.2994 45 51.5171 45C80.7348 45 79.5098 59 79.5098 59C79.5098 59 63.1252 69 51.5171 69Z" fill="#D0B7E6"/>
<path d="M51.5171 69C39.906 69 23.5171 59 23.5171 59C23.5171 59 40.0314 67 51.5171 67C63.0028 67 79.5171 59 79.5171 59C79.5171 59 63.1282 69 51.5171 69Z" fill="#502876"/>
<ellipse cx="66.4322" cy="50.549" rx="2.5" ry="1.5" transform="rotate(30 66.4322 50.549)" fill="#502876"/>
<ellipse rx="2.5" ry="1.5" transform="matrix(-0.866025 0.5 0.5 0.866025 36.4321 50.549)" fill="#502876"/>
<ellipse cx="85.6883" cy="34.9699" rx="13" ry="16" transform="rotate(-20 85.6883 34.9699)" fill="#D0B7E6"/>
<ellipse cx="86.5174" cy="34.5" rx="10" ry="12.5" transform="rotate(-20 86.5174 34.5)" fill="#502876"/>
<ellipse rx="13" ry="16" transform="matrix(-0.939693 -0.34202 -0.34202 0.939693 17.6881 34.9699)" fill="#D0B7E6"/>
<ellipse rx="10" ry="12.5" transform="matrix(-0.939693 -0.34202 -0.34202 0.939693 16.8591 34.5)" fill="#502876"/>
</svg>
