<svg width="126" height="78" viewBox="0 0 126 78" fill="none" xmlns="http://www.w3.org/2000/svg">
<path d="M101 71C117 60 110 33 110 33C110 33 116.06 36 121 36C124.5 36 126 32.3594 126 29C126 21.5 123 14 116 14C110.409 14 102 17 102 17C102 17 91.5 -8.81555e-05 66 0C54.5077 3.97303e-05 47.5753 0.501443 37 5C16.6143 13.6718 -0.000244123 39.4999 0 48C0.0002154 55.4999 4.92487 59.0001 11 59C17.5 58.9999 29 48 29 48C29 48 28.128 61.1164 32 68C36.5 76 50.9073 78 64 78C73.5 78 91.5456 77.5 101 71Z" fill="#A06FCE"/>
<path d="M11 58.9999C17.5 58.9998 29 47.9999 29 47.9999C29 47.9999 30.7887 47.242 31.9995 46.9998C36.3656 46.1262 36.4995 49.9998 42.9995 49.9998C47.9995 49.9998 53.8602 48.0897 53.9995 42.9998C54.1282 38.299 49.702 34.9997 44.9995 34.9998C30.4995 34.9998 18.9995 53.9998 5.99951 53.9998C2.68597 53.9998 0 47.9999 0 47.9999C0.000215398 55.4998 4.92487 59 11 58.9999Z" fill="#502876"/>
<path d="M116 18C111.06 18.0001 105 21.9999 105 21.9999C107.5 25.4999 109.093 28.9943 110 31.9999C110 31.9999 113.922 34.0001 118 34C121 33.9999 123 30.3594 123 27C123 22.4999 120 17.9999 116 18Z" fill="#D0B7E6"/>
<path d="M123 27C123 22.4999 120 17.9999 116 18C111.093 18.0001 105.08 21.9459 105 21.9989C106.134 23.5929 106.667 24.4656 107.5 25.9989C113.563 19.3633 119 18.9989 123 27Z" fill="#502876"/>
<path d="M100.5 30.4988C100.5 33.3061 99.6865 35.8267 98.3964 37.6328C97.1057 39.4398 95.3677 40.4988 93.5 40.4988C91.6323 40.4988 89.8943 39.4398 88.6036 37.6328C87.3135 35.8267 86.5 33.3061 86.5 30.4988C86.5 27.6915 87.3135 25.1708 88.6036 23.3648C89.8943 21.5578 91.6323 20.4988 93.5 20.4988C95.3677 20.4988 97.1057 21.5578 98.3964 23.3648C99.6865 25.1708 100.5 27.6915 100.5 30.4988Z" fill="#D0B7E6" stroke="#502876"/>
<path d="M97 28.9988C97 32.8648 94.5376 35.9988 91.5 35.9988C88.4624 35.9988 86.5 32.9988 86 29.9988C87 25.9988 88.4624 21.9988 91.5 21.9988C94.5376 21.9988 97 25.1328 97 28.9988Z" fill="#502876"/>
</svg>
