<svg width="90" height="111" viewBox="0 0 90 111" fill="none" xmlns="http://www.w3.org/2000/svg">
<path d="M85 35.7422C82.134 35.7422 78 42.7422 78 42.7422V64.7422L86 72.7422C86 72.7422 90 58.7422 90 49.7422C90 43.9366 88 35.7422 85 35.7422Z" fill="#502876"/>
<path d="M5 35.7422C7.86599 35.7422 12 42.7422 12 42.7422V64.7422L4 72.7422C4 72.7422 0 58.7422 0 49.7422C0 43.9366 2 35.7422 5 35.7422Z" fill="#502876"/>
<path d="M79.6088 63.9937C79.8665 61.3021 80.0001 58.5467 80.0001 55.7422C80.0001 25.3665 64.3301 0.742188 45.0001 0.742188C25.6702 0.742188 10.0001 25.3665 10.0001 55.7422C10.0001 58.5467 10.1337 61.3021 10.3914 63.9937C-0.367128 71.7831 0.898985 82.3912 0.994932 83.1946C0.998228 83.2222 1.00012 83.2382 1.00012 83.2422C1.00012 100.43 20.6996 110.742 45.0001 110.742C69.3007 110.742 89.0001 100.43 89.0001 83.2422C89.0001 83.2382 89.002 83.2222 89.0053 83.1946C89.1013 82.3912 90.3674 71.7831 79.6088 63.9937Z" fill="#A06FCE"/>
<path d="M45 106.742C7.58332 106.742 3 91.7422 3 91.7422C3 91.7422 6 87.7422 17 87.7422C26.3909 87.7422 45 88.7422 45 88.7422C45 88.7422 63.6091 87.7422 73 87.7422C84 87.7422 87 91.7422 87 91.7422C87 91.7422 82.4167 106.742 45 106.742Z" fill="#D0B7E6"/>
<path d="M7 93.8709C7 93.2725 7.51801 92.8087 8.11184 92.8822C12.8942 93.4743 32.0571 95.7422 45 95.7422C57.9429 95.7422 77.1058 93.4743 81.8882 92.8822C82.482 92.8087 83 93.2725 83 93.8709V93.8709C83 94.3692 82.6434 94.7882 82.1488 94.8498C77.8478 95.3859 58.1927 97.7422 45 97.7422C31.8073 97.7422 12.1522 95.3859 7.85116 94.8498C7.35664 94.7882 7 94.3692 7 93.8709V93.8709Z" fill="#502876"/>
<path d="M64 67.741C64 73.741 53 76.741 53 76.741C53 76.741 51 72.741 51 69.741C51 65.741 52 63.741 57 63.741C60.1485 63.741 64 64.741 64 67.741Z" fill="#D0B7E6"/>
<path d="M56 75.741C55 76.241 53 76.741 53 76.741V71.741C53 69.2404 54 66.741 57 66.741C58.5 66.741 60 66.741 60 68.741C60 71.8895 58.8161 74.3328 56 75.741Z" fill="#502876"/>
<path d="M28 67.741C28 73.741 39 76.741 39 76.741C39 76.741 41 72.741 41 69.741C41 65.741 40 63.741 35 63.741C31.8515 63.741 28 64.741 28 67.741Z" fill="#D0B7E6"/>
<path d="M36 75.741C37 76.241 39 76.741 39 76.741V71.741C39 69.2404 38 66.741 35 66.741C33.5 66.741 32 66.741 32 68.741C32 71.8895 33.1839 74.3328 36 75.741Z" fill="#502876"/>
<ellipse cx="59" cy="50.741" rx="8" ry="6" fill="#502876"/>
<ellipse cx="58" cy="48.741" rx="3" ry="2" fill="#D0B7E6"/>
<ellipse rx="8" ry="6" transform="matrix(-1 0 0 1 31 50.741)" fill="#502876"/>
<ellipse rx="3" ry="2" transform="matrix(-1 0 0 1 32 48.741)" fill="#D0B7E6"/>
</svg>
