<svg width="126" height="102" viewBox="0 0 126 102" fill="none" xmlns="http://www.w3.org/2000/svg">
<path d="M86 0.742188C77.5 0.742224 75 12.7422 75 12.7422L95 23.7422C95 23.7422 101.645 0.74212 86 0.742188Z" fill="#502876"/>
<path d="M40.4019 0.742188C48.9019 0.742224 51.4019 12.7422 51.4019 12.7422L31.4019 23.7422C31.4019 23.7422 24.7566 0.74212 40.4019 0.742188Z" fill="#502876"/>
<path d="M90.9737 74.0838C100.172 67.4813 106 57.6816 106 46.7422C106 46.5041 105.997 46.2664 105.992 46.0294C107.322 47.5108 109.992 49.7422 114 49.7422C126.126 49.7422 126 32.7422 126 32.7422L100 26.7422C92.308 16.9844 78.0095 10.7422 63.0001 10.7422C47.9906 10.7422 33.692 16.9844 26 26.7422L5.25727e-05 32.7422C5.25727e-05 32.7422 -0.126233 49.7422 12.0001 49.7422C16.0083 49.7422 18.6778 47.5108 20.0083 46.0294C20.0028 46.2664 20.0001 46.5041 20.0001 46.7422C20.0001 57.6817 25.8282 67.4814 35.0267 74.084C35.2994 77.2753 37.9459 101.742 55.0002 101.742H71.0002C88.0549 101.742 90.7011 77.2744 90.9737 74.0838Z" fill="#A06FCE"/>
<path d="M18 31.7422C20.4699 31.7422 23 33.7422 23 33.7422L21 43.7422C21 43.7422 16.4101 47.7422 13 47.7422C4 47.7422 3 35.7422 3 35.7422C3 35.7422 12 31.7422 18 31.7422Z" fill="#502876"/>
<path d="M15 35.7422C20.9741 35.7422 22 37.7422 22 37.7422L21 42.7422C21 42.7422 17.5 44.7422 15 44.7422C9.84867 44.7422 7 37.7422 7 37.7422C7 37.7422 10.5 35.7422 15 35.7422Z" fill="#D0B7E6"/>
<path d="M108 31.7422C105.53 31.7422 103 33.7422 103 33.7422L105 43.7422C105 43.7422 109.59 47.7422 113 47.7422C122 47.7422 123 35.7422 123 35.7422C123 35.7422 114 31.7422 108 31.7422Z" fill="#502876"/>
<path d="M111 35.7422C105.026 35.7422 104 37.7422 104 37.7422L105 42.7422C105 42.7422 108.5 44.7422 111 44.7422C116.151 44.7422 119 37.7422 119 37.7422C119 37.7422 115.5 35.7422 111 35.7422Z" fill="#D0B7E6"/>
<path d="M66 85.7422C66 85.7422 66 82.7422 63 82.7422C60 82.7422 60 85.7422 60 85.7422V94.7422C60 94.7422 58 96.7422 54 96.7422C51 96.7422 51 93.7422 51 93.7422H49V95.7422C49 98.7422 53 99.7422 55 99.7422C58 99.7422 63 97.7422 63 97.7422C63 97.7422 68 99.7422 71 99.7422C73 99.7422 77 98.7422 77 95.7422V93.7422H75C75 93.7422 75 96.7422 71 96.7422C66.897 96.7422 66 94.7422 66 94.7422V85.7422Z" fill="#502876"/>
<path d="M106 45.7422H20C20 45.7422 20.7861 39.5352 22 35.7422C23.1724 32.079 26 26.7422 26 26.7422H100C100 26.7422 102.828 32.079 104 35.7422C105.214 39.5352 106 45.7422 106 45.7422Z" fill="#A06FCE"/>
<ellipse cx="38" cy="51.741" rx="10" ry="11" fill="#D0B7E6"/>
<ellipse cx="38" cy="51.741" rx="6" ry="7" fill="#502876"/>
<ellipse cx="88" cy="51.741" rx="10" ry="11" fill="#D0B7E6"/>
<ellipse cx="88" cy="51.741" rx="6" ry="7" fill="#502876"/>
</svg>
