<svg width="37" height="37" viewBox="0 0 37 37" fill="none" xmlns="http://www.w3.org/2000/svg">
<circle cx="16" cy="16" r="16" fill="#C0AB72"/>
<path fill-rule="evenodd" clip-rule="evenodd" d="M29.6213 24.3983C31.1296 21.9572 32 19.0802 32 16C32 7.16344 24.8366 0 16 0C7.16344 0 0 7.16344 0 16C0 24.8366 7.16344 32 16 32C19.0828 32 21.9619 31.1282 24.4043 29.6176C25.5913 31.448 29.3297 37 31 37C33 37 37 33 37 31C37 29.3419 31.5011 25.6216 29.6213 24.3983ZM16 27.2C9.81441 27.2 4.8 22.1856 4.8 16C4.8 9.81441 9.81441 4.8 16 4.8C22.1856 4.8 27.2 9.81441 27.2 16C27.2 22.1856 22.1856 27.2 16 27.2Z" fill="#333333"/>
<path d="M10.5005 18.5C13.5002 18.5 12.0242 15.4526 13.0005 13.5C13.7815 11.9379 15.0002 11 15.0005 9.5C15.0007 8.32785 14.3289 8 13.5005 8C12.0002 8 10.7302 8.75985 9.50049 10C8.68138 10.8261 7.50049 13 7.50049 15.5C7.50049 17 8.5002 18.5 10.5005 18.5Z" fill="white"/>
<path d="M14.5 21.9999C14.378 23.0977 13.6045 24 12.5 23.9999C11.4999 23.9998 9.50061 22.4996 8.99998 20.9999C8.71539 20.1474 11.1582 19.3797 12 19.4999C13.3668 19.6951 14.6525 20.6276 14.5 21.9999Z" fill="white"/>
</svg>
