<svg width="120" height="98" viewBox="0 0 120 98" fill="none" xmlns="http://www.w3.org/2000/svg">
<path d="M78.1348 12.7809C68.0193 12.7809 67.2017 21.3712 67.2017 21.3712C67.2017 21.3712 64.8589 12 53.9258 12C45.1787 12 44.5546 19.4189 44.5546 22.9331C44.5546 31.1329 46.1165 32.3043 46.1165 32.3043L35.9644 47.142C35.9644 47.142 32.0597 45.5801 28.936 45.5801C21.6813 45.5801 18.0029 52.218 18.0029 61.9797C18.0029 82.9557 29.3265 86.1886 51.583 86.1886C67.5922 86.1886 100.001 81.5016 100.001 58.075C100.001 45.9706 95.8732 48.1928 93.7534 41.6754C92.7686 38.6476 91.4106 33.8661 91.4106 33.8661C91.4106 33.8661 92.9725 29.1805 92.9725 24.4949C92.9725 15.5142 85.5536 12.7809 78.1348 12.7809Z" fill="#DB6161"/>
<path d="M28.9351 45.5801C21.6804 45.5801 17.8991 52.2186 18.002 61.9797C18.0279 64.4285 18.0604 65.7999 18.3925 68.2271L35.9635 72.1318H43.7728C43.7728 72.1318 50.8012 67.3856 50.8012 55.7322C50.8012 52.218 49.6722 47.9229 46.1156 47.9229C41.8205 47.9229 35.1826 53.3894 35.1826 53.3894C35.1826 53.3894 33.0661 45.5801 28.9351 45.5801Z" fill="#FFE886"/>
<path d="M45.3354 59.6368C45.3354 62.2246 44.5838 64.3224 42.2116 64.3224C39.8395 64.3224 36.7451 63.7864 36.7451 61.1986C36.7451 58.6109 39.0586 54.9512 41.4307 54.9512C43.8028 54.9512 45.3354 57.049 45.3354 59.6368Z" fill="#866C00"/>
<path d="M26.5922 57.6845C26.5922 60.4879 25.1936 61.9796 23.4685 61.9796C21.7433 61.9796 20.3447 60.8784 20.3447 58.0749C20.3447 56.0524 22.5242 52.6084 24.2494 52.6084C25.9746 52.6084 26.5922 54.881 26.5922 57.6845Z" fill="#866C00"/>
<path d="M62.5157 58.856L57.8301 70.57L67.9822 69.0081L62.5157 58.856Z" fill="#FFE886"/>
<path d="M18.002 68.2271C18.002 68.2271 32.8018 72.0902 42.6013 72.5222C57.3601 73.1728 79.6956 65.8843 79.6956 65.8843" stroke="#866C00" stroke-width="2"/>
<path d="M86.0863 24.8636C85.3584 28.9918 80.9016 31.768 76.0128 30.9059C71.124 30.0439 67.8855 25.9108 68.6134 21.7827C69.3414 17.6545 73.7981 14.8783 78.6869 15.7403C83.5757 16.6023 86.8142 20.7354 86.0863 24.8636Z" fill="#FFE886" stroke="#866C00"/>
<ellipse cx="76.5687" cy="22.9323" rx="3.12373" ry="7.0284" transform="rotate(10 76.5687 22.9323)" fill="#866C00"/>
<ellipse cx="51.1883" cy="22.1521" rx="5.857" ry="7.80933" transform="rotate(10 51.1883 22.1521)" fill="#FFE886" stroke="#866C00"/>
<ellipse cx="50.4084" cy="21.7615" rx="1.95233" ry="6.63793" fill="#866C00"/>
</svg>
