<svg width="120" height="98" viewBox="0 0 120 98" fill="none" xmlns="http://www.w3.org/2000/svg">
<path d="M89.9872 74.5256C102.5 65.923 97.0256 44.8077 97.0256 44.8077C97.0256 44.8077 101.765 47.1538 105.628 47.1538C108.365 47.1538 109.538 44.3067 109.538 41.6795C109.538 35.8141 107.192 29.9487 101.718 29.9487C97.3451 29.9487 90.7692 32.2949 90.7692 32.2949C90.7692 32.2949 82.5577 18.9999 62.6154 19C53.6278 19 48.2063 19.3922 39.9359 22.9103C23.9933 29.692 10.9998 49.8909 11 56.5385C11.0002 62.4037 14.8515 65.1411 19.6026 65.141C24.6859 65.1409 33.6795 56.5385 33.6795 56.5385C33.6795 56.5385 32.9975 66.7962 36.0256 72.1795C39.5448 78.4359 50.8121 80 61.0513 80C68.4807 80 82.5933 79.6089 89.9872 74.5256Z" fill="#3FD8E0"/>
<path d="M19.6026 65.1409C24.6859 65.1408 33.6795 56.5383 33.6795 56.5383C33.6795 56.5383 35.0784 55.9457 36.0253 55.7562C39.4398 55.073 39.5445 58.1024 44.6278 58.1024C48.5381 58.1024 53.1214 56.6086 53.2304 52.628C53.331 48.9517 49.8695 46.3716 46.1919 46.3716C34.8522 46.3716 25.8586 61.2306 15.6919 61.2306C13.1006 61.2306 11 56.5383 11 56.5383C11.0002 62.4036 14.8515 65.141 19.6026 65.1409Z" fill="#502876"/>
<path d="M101.718 33.0771C97.8546 33.0772 93.1152 36.2053 93.1152 36.2053C95.0704 38.9425 96.3167 41.6753 97.0255 44.0258C97.0255 44.0258 100.093 45.59 103.282 45.59C105.628 45.5899 107.192 42.7428 107.192 40.1156C107.192 36.5963 104.846 33.0771 101.718 33.0771Z" fill="#D0B7E6"/>
<path d="M107.192 40.1156C107.192 36.5963 104.846 33.0771 101.718 33.0771C97.8806 33.0772 93.1786 36.1631 93.1156 36.2045C94.0026 37.4511 94.4196 38.1336 95.0707 39.3327C99.812 34.1433 104.064 33.8583 107.192 40.1156Z" fill="#502876"/>
<path d="M89.4866 42.8517C89.4866 45.027 88.8561 46.9756 87.8618 48.3675C86.8669 49.7604 85.5375 50.5632 84.1212 50.5632C82.7049 50.5632 81.3756 49.7604 80.3807 48.3675C79.3864 46.9756 78.7559 45.027 78.7559 42.8517C78.7559 40.6763 79.3864 38.7278 80.3807 37.3359C81.3756 35.943 82.7049 35.1401 84.1212 35.1401C85.5375 35.1401 86.8669 35.943 87.8618 37.3359C88.8561 38.7278 89.4866 40.6763 89.4866 42.8517Z" fill="#D0B7E6" stroke="#502876"/>
<path d="M86.8584 41.6789C86.8584 44.7024 84.9327 47.1533 82.5571 47.1533C80.1816 47.1533 78.6469 44.8072 78.2559 42.461C79.0379 39.3328 80.1816 36.2046 82.5571 36.2046C84.9327 36.2046 86.8584 38.6555 86.8584 41.6789Z" fill="#502876"/>
</svg>
