<svg width="120" height="98" viewBox="0 0 120 98" fill="none" xmlns="http://www.w3.org/2000/svg">
<ellipse cx="32.0625" cy="25.0842" rx="14.0625" ry="14.0842" fill="#A06FCE"/>
<ellipse rx="14.0625" ry="14.0842" transform="matrix(-1 0 0 1 88.3125 25.0842)" fill="#A06FCE"/>
<circle cx="32.0625" cy="25.0625" r="8.65625" fill="#9FEBF0" stroke="#14767C" stroke-width="3"/>
<circle cx="88.3125" cy="25.0625" r="8.65625" fill="#9FEBF0" stroke="#14767C" stroke-width="3"/>
<path d="M97.6875 57.3104C97.6875 82.0881 81.0731 86.0004 60.5781 86.0004C40.0832 86.0004 23.4688 82.0881 23.4688 57.3104C23.4688 44.9215 35.6196 19.4917 60.5781 19.4917C84.5515 19.4917 97.6875 44.9215 97.6875 57.3104Z" fill="#A06FCE"/>
<path d="M85.1914 70.7656C85.1914 78.7479 81.811 85.2188 60.1914 85.2188C38.5718 85.2188 35.1914 78.7479 35.1914 70.7656C35.1914 62.7834 46.3843 56.3125 60.1914 56.3125C73.9985 56.3125 85.1914 62.7834 85.1914 70.7656Z" fill="#9FEBF0"/>
<path fill-rule="evenodd" clip-rule="evenodd" d="M61.7539 62.4517C64.4496 62.0615 66.4414 60.685 66.4414 59.0469C66.4414 57.1052 63.6432 55.5312 60.1914 55.5312C56.7396 55.5312 53.9414 57.1052 53.9414 59.0469C53.9414 60.685 55.9332 62.0615 58.6289 62.4517V74.1508C54.8693 73.5562 50.6033 71.0623 48.153 69.4475C47.308 68.8906 46.1289 69.4918 46.1289 70.5039C46.1289 70.9116 46.3315 71.2916 46.6768 71.5084C48.6021 72.7174 55.2105 76.625 60.1914 76.625C65.1723 76.625 71.7807 72.7174 73.706 71.5084C74.0513 71.2916 74.2539 70.9116 74.2539 70.5039C74.2539 69.4918 73.0748 68.8906 72.2298 69.4475C69.7795 71.0623 65.5135 73.5562 61.7539 74.1508V62.4517Z" fill="#14767C"/>
<ellipse cx="60.1914" cy="57.4844" rx="3.125" ry="1.17188" fill="#9FEBF0"/>
<ellipse cx="69.5625" cy="37.5625" rx="3.90625" ry="5.46875" fill="#14767C"/>
<ellipse cx="52.375" cy="37.5625" rx="3.90625" ry="5.46875" fill="#14767C"/>
</svg>
