<svg width="120" height="98" viewBox="0 0 120 98" fill="none" xmlns="http://www.w3.org/2000/svg">
<path d="M95 56.3889C95 75.5041 71.5522 83.2222 60 83.2222C48.4478 83.2222 25 75.5041 25 56.3889C25 37.2737 32.8923 14 60 14C87.1077 14 95 37.2737 95 56.3889Z" fill="#FFAA3B"/>
<path d="M60.0002 49.7778C68.025 49.7778 77.8891 59.8889 77.8891 59.8889C77.8891 59.8889 68.3407 71.5556 60.0002 71.5556C51.6598 71.5556 42.1113 59.8889 42.1113 59.8889C42.1113 59.8889 51.9755 49.7778 60.0002 49.7778Z" fill="#FCC9E6"/>
<path d="M60.0002 71.5553C51.6598 71.5553 42.1113 59.8887 42.1113 59.8887C42.1113 59.8887 56.0094 69.222 60.0002 69.222C63.9911 69.222 77.8891 59.8887 77.8891 59.8887C77.8891 59.8887 68.3407 71.5553 60.0002 71.5553Z" fill="#BC0A71"/>
<path d="M66.2329 52.8886C67.024 53.6664 67.2834 55.222 66.6284 55.222C65.3179 55.222 64.651 55.222 63.8601 54.4442C63.0692 53.6664 62.6737 52.1108 63.8601 52.1108C64.651 52.1108 65.4419 52.1108 66.2329 52.8886Z" fill="#BC0A71"/>
<path d="M53.7671 52.8886C52.976 53.6664 52.7166 55.222 53.3716 55.222C54.6821 55.222 55.349 55.222 56.1399 54.4442C56.9308 53.6664 57.3263 52.1108 56.1399 52.1108C55.349 52.1108 54.5581 52.1108 53.7671 52.8886Z" fill="#BC0A71"/>
<ellipse cx="80.9991" cy="48.2221" rx="7" ry="8.55556" transform="rotate(-20 80.9991 48.2221)" fill="#FCC9E6"/>
<ellipse cx="80.9993" cy="48.2226" rx="4.66667" ry="5.44444" transform="rotate(-20 80.9993 48.2226)" fill="#BC0A71"/>
<ellipse rx="7" ry="8.55556" transform="matrix(-0.939693 -0.34202 -0.34202 0.939693 39.0009 48.2221)" fill="#FCC9E6"/>
<ellipse rx="4.66667" ry="5.44444" transform="matrix(-0.939693 -0.34202 -0.34202 0.939693 39.0007 48.2226)" fill="#BC0A71"/>
</svg>
