<svg width="120" height="98" viewBox="0 0 120 98" fill="none" xmlns="http://www.w3.org/2000/svg">
<path d="M61.0158 0.0422731C55.7171 1.03576 52.392 13.7622 54.7438 18.0742C28.4802 18.0742 36.3201 38.458 26.52 72.9538C15.9362 79.6178 10.4483 90.2017 24.168 85.4977C22.2083 94.1217 30.8322 97.2577 39.8479 90.9857C43.3761 100.002 55.528 100.394 64.1517 91.7697C75.5199 98.8256 86.4958 96.4737 87.6716 86.2817C95.9038 89.8097 104.136 87.8497 98.6475 80.7938C109.232 81.1858 102.699 76.3384 90.0236 67.4659C84.8187 49.708 84.9279 25.1301 76.6957 21.9941C76.6957 21.9941 73.9519 5.5238 69.6397 6.31423C68.6874 6.48879 67.2878 7.09823 67.2878 7.09823C67.2878 7.09823 64.6394 -0.637152 61.0158 0.0422731Z" fill="#F993CE"/>
<path d="M98.6475 80.7937C109.232 81.1857 102.699 76.3384 90.0236 67.4658C90.0236 67.4658 101.063 77.1198 99.8875 77.6154C95.8479 79.318 89.6955 72.9115 89.6955 72.9115C89.6955 72.9115 97.9275 83.8874 95.9675 84.6714C89.3759 87.308 83.4236 79.1834 83.4236 79.1834C83.4236 79.1834 85.0014 92.5114 77.1516 92.5114C69.7037 92.5114 63.0397 82.3194 63.0397 82.3194C63.0397 82.3194 59.9126 94.0793 51.2798 94.0793C45.0078 94.0793 41.8718 86.2394 41.8718 86.2394C41.8718 86.2394 37.1679 90.5514 30.1119 90.5514C23.448 90.5514 29.3279 76.8314 29.3279 76.8314C29.3279 76.8314 23.0928 85.8474 18.352 83.1034C17.1287 82.3954 26.52 72.9538 26.52 72.9538C15.9362 79.6177 10.4483 90.2017 24.168 85.4977C22.2082 94.1216 30.8322 97.2576 39.8479 90.9857C43.3761 100.002 55.528 100.394 64.1517 91.7697C75.5199 98.8256 86.4958 96.4736 87.6716 86.2817C95.9038 89.8097 104.136 87.8497 98.6475 80.7937Z" fill="#003FBF"/>
<path d="M61.0161 0.0422731C55.7175 1.03576 51.6085 15.7222 55.5281 18.8582C56.3124 18.8581 68.4644 18.0742 76.696 21.9941C76.696 21.9941 73.9523 5.5238 69.6401 6.31423C68.6877 6.48879 67.2881 7.09823 67.2881 7.09823C67.2881 7.09823 64.6397 -0.637152 61.0161 0.0422731Z" fill="#003FBF"/>
<path d="M43.7685 65.1136C37.8886 65.1136 35.9286 60.4096 35.9286 60.4096H31.2246C31.2246 51.7857 42.9845 41.5938 46.9045 41.5938C51.6085 41.5938 61.0164 56.4897 61.0164 56.4897C61.0164 56.4897 49.6485 65.1136 43.7685 65.1136Z" fill="#BFD4FF"/>
<path d="M43.7687 65.1137C37.8887 65.1137 35.9287 60.4097 35.9287 60.4097L61.0166 56.4897C61.0166 56.4897 49.6486 65.1137 43.7687 65.1137Z" fill="#003FBF"/>
<path d="M38.7366 46.6464L38.7356 46.6474C37.5596 47.8234 38.7355 48.2154 40.3036 47.8234C41.4444 47.5382 42.1378 43.9872 41.0874 44.6874C39.912 45.4711 39.5199 45.8631 38.7366 46.6464Z" fill="#003FBF"/>
<path d="M51.2801 47.8234C51.2801 48.6893 50.2271 48.6074 48.9282 48.6074C47.6292 48.6074 46.5762 48.6893 46.5762 47.8234C46.5762 46.9574 47.6292 46.2554 48.9282 46.2554C50.2271 46.2554 51.2801 46.9574 51.2801 47.8234Z" fill="#003FBF"/>
<circle cx="59.5122" cy="41.9438" r="4.31197" fill="#003FBF"/>
<ellipse cx="37.1674" cy="39.5918" rx="2.35199" ry="4.31197" fill="#003FBF"/>
</svg>
