<svg width="120" height="98" viewBox="0 0 120 98" fill="none" xmlns="http://www.w3.org/2000/svg">
<path d="M69.304 16.2793C66.6728 19.8724 79.8279 21.0177 79.8279 21.0177C79.8279 21.0177 80.6375 19.4382 80.6375 17.0691C80.6374 14.6999 77.9525 8.65187 75.7803 7.5923C74.1612 6.80257 73.3517 6.80257 71.7326 7.5923C68.5085 9.16487 71.328 13.5153 69.304 16.2793Z" fill="#9D5900"/>
<path d="M49.9177 16.2793C52.5488 19.8724 39.3937 21.0177 39.3937 21.0177C39.3937 21.0177 38.5842 19.4382 38.5842 17.0691C38.5842 14.6999 41.2692 8.65187 43.4414 7.5923C45.0605 6.80257 45.87 6.80257 47.4891 7.5923C50.7131 9.16487 47.8936 13.5153 49.9177 16.2793Z" fill="#9D5900"/>
<path fill-rule="evenodd" clip-rule="evenodd" d="M60 14.7876C47.5398 14.7876 38.1947 18.2902 37.0266 27.2412L16 29.5762C17.1681 38.5272 26.1239 44.3648 34.6903 41.2514V45.1432C34.6903 45.1432 26.1239 55.6509 26.1239 66.1585C26.1239 91.5607 60 89.509 60 89.509C60 89.509 93.8761 91.5607 93.8761 66.1585C93.8761 55.6509 85.3097 45.1432 85.3097 45.1432V41.2514C93.8761 44.3648 102.832 38.5272 104 29.5762L82.9734 27.2412C81.8053 18.2902 72.4602 14.7876 60 14.7876Z" fill="#78DD62"/>
<path d="M26.1238 66.1586C26.1238 91.5608 59.9999 89.5091 59.9999 89.5091C59.9999 89.5091 93.876 91.5608 93.876 66.1586C93.876 66.1586 93.876 48.2744 76.7432 48.2744C66.5397 48.2744 67.0883 52.947 59.9999 52.947C52.9114 52.947 53.46 48.2744 43.2565 48.2744C25.7344 48.2744 26.1238 66.1586 26.1238 66.1586Z" fill="#FFD59D"/>
<path d="M26.1235 31.1416C17.5571 31.1416 16.7783 32.6991 16.7783 32.6991L35.4686 39.708L37.0261 38.1505V32.6991C37.0261 32.6991 35.2352 31.1416 26.1235 31.1416Z" fill="#9D5900"/>
<path d="M29.2385 32.6992H16.7783C16.7783 32.6992 19.8934 42.0444 30.0173 42.0444C32.3535 42.0444 35.4686 39.7081 35.4686 39.7081C35.4686 39.7081 32.9007 32.6992 29.2385 32.6992Z" fill="#FFD59D"/>
<path d="M93.8765 31.1416C102.443 31.1416 103.222 32.6991 103.222 32.6991L84.5314 39.708L82.9739 38.1505V32.6991C82.9739 32.6991 84.7648 31.1416 93.8765 31.1416Z" fill="#9D5900"/>
<path d="M90.7615 32.6992H103.222C103.222 32.6992 100.107 42.0444 89.9827 42.0444C87.6465 42.0444 84.5314 39.7081 84.5314 39.7081C84.5314 39.7081 87.0993 32.6992 90.7615 32.6992Z" fill="#FFD59D"/>
<path d="M37.0267 27.2476H82.9736C82.9736 27.2476 84.0749 31.5193 84.5311 34.2564C84.9873 36.9935 85.3099 41.2653 85.3099 41.2653H34.6904C34.6904 41.2653 35.013 36.9935 35.4692 34.2564C35.9254 31.5193 37.0267 27.2476 37.0267 27.2476Z" fill="#78DD62"/>
<path d="M83.7522 66.1861C83.7522 69.6905 80.7885 71.6374 76.3539 71.6374C72.6981 71.6374 71.292 69.8419 71.292 66.1861C71.292 62.5303 77.3707 59.1772 81.0265 59.1772C83.9036 59.1772 83.7522 62.6817 83.7522 66.1861Z" fill="#9D5900"/>
<path d="M36.2498 66.1861C36.2498 69.6905 39.2134 71.6374 43.648 71.6374C47.3038 71.6374 48.71 69.8419 48.71 66.1861C48.71 62.5303 42.6313 59.1772 38.9754 59.1772C36.0984 59.1772 36.2498 62.6817 36.2498 66.1861Z" fill="#9D5900"/>
<ellipse cx="72.1678" cy="35.0351" rx="5.45133" ry="7.00885" transform="rotate(-30 72.1678 35.0351)" fill="#FFD59D"/>
<ellipse cx="72.168" cy="35.0348" rx="3.11504" ry="3.89381" transform="rotate(-30 72.168 35.0348)" fill="#9D5900"/>
<ellipse rx="5.45133" ry="7.00885" transform="matrix(-0.866025 -0.5 -0.5 0.866025 47.9289 35.0351)" fill="#FFD59D"/>
<ellipse rx="3.11504" ry="3.89381" transform="matrix(-0.866025 -0.5 -0.5 0.866025 47.9286 35.0348)" fill="#9D5900"/>
</svg>
