<svg width="120" height="98" viewBox="0 0 120 98" fill="none" xmlns="http://www.w3.org/2000/svg">
<path d="M24.0446 56.6899C23.7475 53.9951 20.3191 16.8843 56.875 17.0003C87.9923 17.099 88.9063 46.6878 88.9063 46.6878C88.9063 46.6878 110 52.1565 110 59.1878C110 63.094 104.922 62.3128 101.406 62.3128C96.1395 62.3128 88.125 59.969 88.125 59.969C88.125 59.969 83.0469 80.2815 55.3125 80.2815C48.2358 80.2815 37.3438 77.9378 37.3438 77.9378C37.3438 77.9378 31.4844 78.719 27.9688 78.719C20.1563 78.719 10.0001 64.5403 10 57.6253C9.99996 53.719 13.9063 51.3753 17.8125 51.3753C23.0506 51.3753 23.9223 55.8014 24.0446 56.6899Z" fill="#FFAA3B"/>
<path d="M101.406 62.313C104.922 62.313 110 63.0942 110 59.188C110 56.8442 107.656 54.6741 104.531 52.8223C104.531 52.8223 104.922 56.4527 103.75 57.6246C99.387 61.9876 88.125 59.9692 88.125 59.9692C88.125 59.9692 96.1395 62.313 101.406 62.313Z" fill="#BBEEB0"/>
<path d="M88.125 59.9692C88.125 59.9692 96.1395 62.313 101.406 62.313C101.406 62.313 94.1463 59.7548 90.4688 57.6255C86.7161 55.4527 82.6562 51.3755 82.6562 51.3755C83.4375 56.063 84.2188 58.4067 88.125 59.9692Z" fill="#2F831C"/>
<path d="M17.8125 51.3755C13.9063 51.3755 10 54.1101 10 57.6255C10 61.1409 13.125 60.7505 13.125 60.7505C13.125 60.7505 16.25 60.3596 19.7656 58.0159C23.2813 55.6721 23.6719 51.3755 17.8125 51.3755Z" fill="#2F831C"/>
<path d="M17.8125 51.3755C13.9063 51.3755 9.99979 53.7193 10 57.6255C10 58.4067 11.5625 58.4068 12.3438 58.4068C15.2382 58.4068 20.1563 54.5005 20.1563 54.5005C22.8906 51.7659 19.7656 51.3755 17.8125 51.3755Z" fill="#BBEEB0"/>
<circle cx="70.9375" cy="52.1553" r="7.03125" fill="#BBEEB0"/>
<circle cx="68.2031" cy="52.5459" r="4.29688" fill="#2F831C"/>
<path d="M37.3438 77.3631C37.3438 76.8656 37.8178 76.5017 38.3006 76.6216C40.0738 77.0622 43.9423 77.9365 46.7188 77.9365C48.2813 77.9365 54.5611 75.9028 58.4375 72.8584C59.7848 71.8003 61.2345 70.0073 62.3026 68.551C62.7872 67.8902 63.9063 68.2304 63.9063 69.0498V69.0498C63.9063 69.2392 63.8419 69.421 63.7197 69.5657C63.0239 70.3891 60.5144 73.2903 58.4375 74.8115C54.4611 77.7242 48.2813 79.499 46.7188 79.499C43.7077 79.499 39.4121 78.4707 37.8978 78.0825C37.5696 77.9984 37.3438 77.7018 37.3438 77.3631V77.3631Z" fill="#2F831C"/>
</svg>
