<svg width="120" height="98" viewBox="0 0 120 98" fill="none" xmlns="http://www.w3.org/2000/svg">
<path fill-rule="evenodd" clip-rule="evenodd" d="M53.5874 28.3099C53.1628 25.7559 49.819 8.38154 38.0267 12.6805C25.308 17.3173 33.9799 34.4157 33.9799 34.4157L34.1006 34.3801C27.2502 38.9812 23 46.3479 23 57.3097C23 78.9508 39.5654 85.9999 59.9999 85.9999C80.4344 85.9999 96.9998 78.9508 96.9998 57.3097C96.9998 46.3497 92.7511 38.9837 85.9027 34.3824L86.0156 34.4157C86.0156 34.4157 94.6874 17.3173 81.9687 12.6805C70.177 8.38175 66.833 25.7542 66.4081 28.3095C64.3267 28.1272 62.1854 28.0399 59.9999 28.0399C57.8129 28.0399 55.6702 28.1273 53.5874 28.3099Z" fill="#F993CE"/>
<circle cx="40.9155" cy="22.1254" r="7.78947" fill="#BFD4FF"/>
<circle cx="40.9162" cy="22.1257" r="3.89474" fill="#003FBF"/>
<circle cx="79.0844" cy="22.1254" r="7.78947" fill="#BFD4FF"/>
<circle cx="79.0842" cy="22.1257" r="3.89474" fill="#003FBF"/>
<path d="M33.9053 59.9864C33.9053 59.1109 35.1703 58.633 35.8142 59.2263C39.0246 62.1851 46.4771 67.3045 59.6105 67.3045C72.7439 67.3045 80.1965 62.1851 83.4069 59.2263C84.0507 58.633 85.3158 59.1109 85.3158 59.9864V59.9864C85.3158 60.1858 85.2499 60.379 85.1184 60.5289C83.8474 61.978 76.3353 69.6414 59.6105 69.6414C42.8858 69.6414 35.3737 61.978 34.1027 60.5289C33.9712 60.379 33.9053 60.1858 33.9053 59.9864V59.9864Z" fill="#003FBF"/>
<ellipse cx="90.0625" cy="57.1782" rx="6.9375" ry="16.3579" fill="#BFD4FF"/>
<ellipse cx="29.3594" cy="57.1782" rx="6.35938" ry="16.3579" fill="#BFD4FF"/>
</svg>
