<svg width="120" height="98" viewBox="0 0 120 98" fill="none" xmlns="http://www.w3.org/2000/svg">
<path d="M78.267 10C71.6185 10 69.6631 19.3861 69.6631 19.3861L85.3066 27.9901C85.3066 27.9901 90.5044 9.99995 78.267 10Z" fill="#9D5900"/>
<path d="M42.6021 10C49.2506 10 51.2061 19.3861 51.2061 19.3861L35.5625 27.9901C35.5625 27.9901 30.3647 9.99995 42.6021 10Z" fill="#9D5900"/>
<path d="M82.1576 67.3661C89.3523 62.2018 93.9109 54.5367 93.9109 45.9802C93.9109 45.7939 93.9087 45.608 93.9044 45.4226C94.9452 46.5813 97.0331 48.3267 100.168 48.3267C109.653 48.3267 109.554 35.0297 109.554 35.0297L89.2178 30.3366C83.2013 22.7043 72.0173 17.8218 60.2772 17.8218C48.5372 17.8218 37.3531 22.7043 31.3366 30.3366L11 35.0297C11 35.0297 10.9013 48.3267 20.3862 48.3267C23.5214 48.3267 25.6093 46.5813 26.6501 45.4226C26.6458 45.608 26.6436 45.7939 26.6436 45.9802C26.6436 54.5368 31.2022 62.2019 38.3971 67.3663C38.6104 69.8625 40.6804 89 54.0199 89H66.5348C79.8746 89 81.9444 69.8618 82.1576 67.3661Z" fill="#F993CE"/>
<path d="M25.0793 34.2476C27.0112 34.2476 28.9902 35.8119 28.9902 35.8119L27.4259 43.6337C27.4259 43.6337 23.8358 46.7624 21.1685 46.7624C14.1289 46.7624 13.3467 37.3763 13.3467 37.3763C13.3467 37.3763 20.3863 34.2475 25.0793 34.2476Z" fill="#9D5900"/>
<path d="M22.733 37.3765C27.4059 37.3765 28.2083 38.9408 28.2083 38.9408L27.4261 42.8517C27.4261 42.8517 24.6885 44.4161 22.733 44.4161C18.7038 44.4161 16.4756 38.9408 16.4756 38.9408C16.4756 38.9408 19.2132 37.3765 22.733 37.3765Z" fill="#FFD59D"/>
<path d="M95.4753 34.2476C93.5434 34.2476 91.5645 35.8119 91.5645 35.8119L93.1288 43.6337C93.1288 43.6337 96.7189 46.7624 99.3862 46.7624C106.426 46.7624 107.208 37.3763 107.208 37.3763C107.208 37.3763 100.168 34.2475 95.4753 34.2476Z" fill="#9D5900"/>
<path d="M97.8217 37.3765C93.1488 37.3765 92.3464 38.9408 92.3464 38.9408L93.1286 42.8517C93.1286 42.8517 95.8662 44.4161 97.8217 44.4161C101.851 44.4161 104.079 38.9408 104.079 38.9408C104.079 38.9408 101.341 37.3765 97.8217 37.3765Z" fill="#FFD59D"/>
<path d="M62.6242 76.4852C62.6242 76.4852 62.6242 74.1387 60.2776 74.1387C57.9311 74.1387 57.9311 76.4852 57.9311 76.4852V83.5248C57.9311 83.5248 56.3668 85.0892 53.238 85.0892C50.8915 85.0892 50.8915 82.7426 50.8915 82.7426H49.3272V84.307C49.3272 86.6535 52.4559 87.4357 54.0202 87.4357C56.3668 87.4357 60.2776 85.8713 60.2776 85.8713C60.2776 85.8713 64.1886 87.4357 66.5351 87.4357C68.0994 87.4357 71.2282 86.6535 71.2281 84.307V82.7426H69.6638C69.6638 82.7426 69.6638 85.0892 66.5351 85.0892C63.3258 85.0892 62.6242 83.5248 62.6242 83.5248V76.4852Z" fill="#9D5900"/>
<path d="M93.9108 45.1978H26.6436C26.6436 45.1978 27.2584 40.3429 28.2079 37.376C29.1249 34.5108 31.3366 30.3364 31.3366 30.3364H89.2178C89.2178 30.3364 91.4295 34.5108 92.3465 37.376C93.296 40.3429 93.9108 45.1978 93.9108 45.1978Z" fill="#F993CE"/>
<ellipse cx="40.7231" cy="49.8901" rx="7.82178" ry="8.60396" fill="#FFD59D"/>
<ellipse cx="40.7224" cy="49.8903" rx="4.69307" ry="5.47524" fill="#9D5900"/>
<ellipse cx="79.8315" cy="49.8901" rx="7.82178" ry="8.60396" fill="#FFD59D"/>
<ellipse cx="79.8317" cy="49.8903" rx="4.69307" ry="5.47524" fill="#9D5900"/>
</svg>
