<svg width="120" height="98" viewBox="0 0 120 98" fill="none" xmlns="http://www.w3.org/2000/svg">
<rect width="120" height="98" fill="black"/>
<path d="M40.39 22.2333L40.3906 22.2338L40.3911 22.2342L40.3918 22.2347L40.3919 22.2348L40.4075 22.2472L40.4247 22.2615L44.1917 25.4002L48.8271 23.5975V17.7681C48.8193 17.7318 48.8101 17.6898 48.7993 17.6424C48.7532 17.4398 48.6803 17.1422 48.5766 16.782C48.3671 16.054 48.042 15.1062 47.578 14.1781C46.5793 12.1808 45.333 11 43.8175 11C41.9697 11 40.077 11.7688 38.6474 12.9668C37.1919 14.1865 36.4714 15.6202 36.4714 16.7885C36.4714 17.1551 36.609 17.6688 36.9614 18.3214C37.3057 18.9592 37.7899 19.6094 38.316 20.2133C38.8368 20.8113 39.3638 21.3241 39.763 21.6887C39.9613 21.8698 40.1247 22.0113 40.2356 22.1051C40.291 22.152 40.3331 22.1868 40.3596 22.2085L40.3874 22.2311L40.39 22.2333Z" fill="#E6E6E6" stroke="#4D4D4D" stroke-width="4"/>
<path d="M39.7672 23.0157L39.7675 23.0159L39.7677 23.016L39.7677 23.0161L39.776 23.0226L39.7846 23.0298L44.0046 26.5459L49.8271 24.2816V17.6643C49.8158 17.6086 49.7984 17.5262 49.7744 17.4208C49.7248 17.2023 49.6473 16.8863 49.5376 16.5053C49.3172 15.7397 48.9721 14.7304 48.4724 13.7309C47.4376 11.6613 45.9382 10 43.8175 10C41.7058 10 39.5912 10.8712 38.0051 12.2004C36.406 13.5404 35.4714 15.2308 35.4714 16.7885C35.4714 17.3831 35.6862 18.0646 36.0815 18.7966C36.4727 19.5211 37.0068 20.2329 37.562 20.8702C38.1144 21.5044 38.67 22.0447 39.0887 22.4271C39.2973 22.6177 39.4703 22.7675 39.5896 22.8685C39.6493 22.9189 39.6954 22.9571 39.7258 22.982L39.7592 23.0092L39.7665 23.0151L39.7672 23.0157Z" stroke="#999999" stroke-width="2"/>
<path d="M79.9567 22.2333L79.9561 22.2338L79.9556 22.2342L79.9549 22.2347L79.9547 22.2348L79.9392 22.2472L79.922 22.2615L76.1549 25.4002L71.5195 23.5975V17.7681C71.5274 17.7318 71.5366 17.6898 71.5474 17.6424C71.5934 17.4398 71.6663 17.1422 71.7701 16.782C71.9796 16.054 72.3047 15.1062 72.7687 14.1781C73.7674 12.1808 75.0137 11 76.5291 11C78.377 11 80.2697 11.7688 81.6993 12.9668C83.1548 14.1865 83.8753 15.6202 83.8753 16.7885C83.8753 17.1551 83.7377 17.6688 83.3853 18.3214C83.0409 18.9592 82.5568 19.6094 82.0307 20.2133C81.5098 20.8113 80.9829 21.3241 80.5836 21.6887C80.3854 21.8698 80.222 22.0113 80.111 22.1051C80.0557 22.152 80.0136 22.1868 79.9871 22.2085L79.9593 22.2311L79.9567 22.2333Z" fill="#E6E6E6" stroke="#4D4D4D" stroke-width="4"/>
<path d="M80.5795 23.0157L80.5792 23.0159L80.579 23.016L80.579 23.0161L80.5707 23.0226L80.5621 23.0298L76.342 26.5459L70.5195 24.2816V17.6643C70.5309 17.6086 70.5483 17.5262 70.5722 17.4208C70.6219 17.2023 70.6994 16.8863 70.8091 16.5053C71.0295 15.7397 71.3745 14.7304 71.8743 13.7309C72.9091 11.6613 74.4084 10 76.5291 10C78.6409 10 80.7555 10.8712 82.3416 12.2004C83.9407 13.5404 84.8753 15.2308 84.8753 16.7885C84.8753 17.3831 84.6605 18.0646 84.2652 18.7966C83.874 19.5211 83.3398 20.2329 82.7847 20.8702C82.2322 21.5044 81.6767 22.0447 81.258 22.4271C81.0494 22.6177 80.8764 22.7675 80.757 22.8685C80.6974 22.9189 80.6513 22.9571 80.6209 22.982L80.5875 23.0092L80.5802 23.0151L80.5795 23.0157Z" stroke="#999999" stroke-width="2"/>
<path d="M95.2212 53.3944C98.8192 53.5709 100.547 53.2591 103.01 51.8367L88.2115 37.0386C88.2115 37.0386 93.6635 37.8175 93.6635 33.9232C88.2115 32.3655 82.9396 16.0098 60.1731 16.0098C37.4066 16.0098 32.1346 32.3655 26.6827 33.9232C26.6827 37.8175 32.1346 37.0386 32.1346 37.0386L17.3365 51.8367C20.4835 53.352 22.1877 53.6665 25.125 53.3944C22.7885 58.8206 20.1532 60.8746 15 65.8559C18.5343 68.6354 20.9849 69.1852 25.9038 68.9713L20.4519 79.8751L38.3654 83.7694H81.9808L99.8942 79.8751L94.4423 68.9713C99.3268 69.3122 101.731 68.6857 105.346 65.8559C99.2064 59.9126 96.3069 57.5515 95.2212 53.3944Z" fill="#4D4D4D"/>
<path d="M84.3172 48.3315C84.3172 37.3628 81.2959 23.7979 60.1729 23.7979C39.05 23.7979 36.0287 37.3628 36.0287 48.3315L29.7979 60.4253C28.7868 62.6257 28.2402 64.9743 28.2402 67.4132C28.2402 79.8874 42.5371 89.9998 60.1729 89.9998C77.8088 89.9998 92.1056 79.8874 92.1056 67.4132C92.1056 64.9743 91.5591 62.6257 90.5479 60.4253L84.3172 48.3315Z" fill="#999999"/>
<path d="M38.3652 73.4229C38.3652 72.5324 39.9321 72.0402 40.5432 72.6879C43.3643 75.6776 49.2669 79.875 60.1729 79.875C71.079 79.875 76.9816 75.6776 79.8026 72.6879C80.4138 72.0402 81.9806 72.5324 81.9806 73.4229V73.4229C81.9806 73.568 81.9452 73.7069 81.8651 73.8278C81.0412 75.0712 75.6366 82.2115 60.1729 82.2115C44.7092 82.2115 39.3046 75.0712 38.4807 73.8278C38.4006 73.7069 38.3652 73.568 38.3652 73.4229V73.4229Z" fill="#4D4D4D"/>
<path d="M51.606 59.625C63.164 59.625 57.1826 59.625 68.7406 59.625C72.6348 59.625 77.9761 71.3077 73.4137 71.3077C67.1829 71.3077 53.1636 71.3077 46.9329 71.3077C42.3705 71.3077 47.7117 59.625 51.606 59.625Z" fill="#E6E6E6"/>
<path d="M76.9184 52.3366C78.3276 52.3366 79.5356 51.4544 80.3672 50.1692C81.2021 48.879 81.7021 47.1265 81.7021 45.2164C81.7021 43.3063 81.2021 41.5538 80.3672 40.2636C79.5356 38.9783 78.3276 38.0962 76.9184 38.0962C75.5093 38.0962 74.3013 38.9783 73.4696 40.2636C72.6348 41.5538 72.1348 43.3063 72.1348 45.2164C72.1348 47.1265 72.6348 48.879 73.4696 50.1692C74.3013 51.4544 75.5093 52.3366 76.9184 52.3366Z" fill="#E6E6E6" stroke="#4D4D4D"/>
<ellipse cx="76.9183" cy="45.2163" rx="2.72596" ry="5.0625" fill="#4D4D4D"/>
<path d="M44.2065 52.3366C45.6157 52.3366 46.8237 51.4544 47.6553 50.1692C48.4901 48.879 48.9902 47.1265 48.9902 45.2164C48.9902 43.3063 48.4901 41.5538 47.6553 40.2636C46.8237 38.9783 45.6157 38.0962 44.2065 38.0962C42.7974 38.0962 41.5893 38.9783 40.7577 40.2636C39.9229 41.5538 39.4229 43.3063 39.4229 45.2164C39.4229 47.1265 39.9229 48.879 40.7577 50.1692C41.5893 51.4544 42.7974 52.3366 44.2065 52.3366Z" fill="#E6E6E6" stroke="#4D4D4D"/>
<ellipse cx="44.2064" cy="45.2163" rx="2.72596" ry="5.0625" fill="#4D4D4D"/>
<path d="M68.7408 71.3078H63.2889C60.9524 71.3078 65.2356 68.1924 67.1831 68.1924C68.7409 68.1924 69.5197 68.9713 69.5197 70.5289C69.5197 71.3078 68.7408 71.3078 68.7408 71.3078Z" fill="#4D4D4D"/>
<path d="M52.4838 71.3078H57.9357C60.2722 71.3078 55.989 68.1924 54.0415 68.1924C52.4838 68.1924 51.7049 68.9713 51.7049 70.5289C51.7049 71.3078 52.4838 71.3078 52.4838 71.3078Z" fill="#4D4D4D"/>
</svg>
