<svg width="120" height="98" viewBox="0 0 120 98" fill="none" xmlns="http://www.w3.org/2000/svg">
<rect width="120" height="98" fill="black"/>
<path d="M76.3028 7C65.7524 6.99998 67.7062 17.1597 67.7062 17.1597L82.5549 25.7563C82.5549 25.7563 88.0255 23.4117 88.0255 17.1597C88.0255 11.1016 82.3609 7.00001 76.3028 7Z" fill="#999999"/>
<path d="M76.3022 10.126C69.2685 10.126 70.8316 17.9411 70.8316 17.9411L80.2097 23.4117C80.2097 23.4117 84.1173 19.5203 84.1173 16.3781C84.1173 12.4705 80.2106 10.126 76.3022 10.126Z" fill="#4D4D4D"/>
<path d="M41.9159 7C52.4663 6.99998 50.5126 17.1597 50.5126 17.1597L35.6638 25.7563C35.6638 25.7563 30.1932 23.4117 30.1932 17.1597C30.1932 11.1016 35.8579 7.00001 41.9159 7Z" fill="#999999"/>
<path d="M41.9156 10.126C48.9492 10.126 47.3862 17.9411 47.3862 17.9411L38.008 23.4117C38.008 23.4117 34.1005 19.5203 34.1005 16.3781C34.1005 12.4705 38.0071 10.126 41.9156 10.126Z" fill="#4D4D4D"/>
<path d="M67.7059 16.3782C64.4192 15.6288 62.4803 15.5967 59.1092 15.5967C55.7382 15.5967 53.7993 15.6288 50.5126 16.3782C43.7206 17.9268 40.2375 20.5193 34.8824 24.9748C28.1723 30.5577 21.5966 42.9496 21.5966 42.9496L13 46.8572L23.1597 52.3278L14.563 57.7984L23.9412 62.4874L20.0336 66.395L31.7563 74.9916L45.042 85.1513C45.042 85.1513 46.7818 91.4034 59.1092 91.4034C71.4367 91.4034 73.1765 85.1513 73.1765 85.1513L86.4622 74.9916L98.1849 66.395L95.0588 62.4874L103.655 57.7984L95.8403 52.3278L106 46.8572L96.6218 42.9496C96.6218 42.9496 90.0462 30.5577 83.3361 24.9748C77.981 20.5193 74.4979 17.9268 67.7059 16.3782Z" fill="#999999"/>
<circle cx="77.8659" cy="43.7311" r="7.31513" fill="#E6E6E6" stroke="#4D4D4D"/>
<circle cx="77.4751" cy="43.3403" r="4.29832" fill="#4D4D4D"/>
<circle r="7.31513" transform="matrix(-1 0 0 1 41.9163 43.7311)" fill="#E6E6E6" stroke="#4D4D4D"/>
<circle r="4.29832" transform="matrix(-1 0 0 1 42.3071 43.3403)" fill="#4D4D4D"/>
<path d="M73.1766 85.1515C60.6724 85.1515 59.1093 80.4624 59.1093 80.4624C59.1093 80.4624 57.5463 85.1515 45.0421 85.1515C35.6639 85.1515 30.1933 78.5035 30.1934 70.3027C30.1934 56.6263 45.3077 49.9834 59.1093 49.9834C72.911 49.9834 88.0253 57.017 88.0253 70.3027C88.0253 78.5035 82.5547 85.1515 73.1766 85.1515Z" fill="#E6E6E6"/>
<path d="M59.8907 51.5464C55.222 51.5464 48.168 52.3483 48.168 53.8909C48.168 57.7985 54.5518 60.9245 59.8907 60.9245C65.2295 60.9245 71.6133 57.7985 71.6133 53.8909C71.6133 52.3483 64.5593 51.5464 59.8907 51.5464Z" fill="#4D4D4D"/>
<ellipse cx="59.891" cy="54.2814" rx="3.90756" ry="1.95378" fill="#E6E6E6"/>
<circle cx="78.647" cy="63.2686" r="1.56303" fill="#4D4D4D"/>
<circle cx="84.1177" cy="67.9576" r="1.56303" fill="#4D4D4D"/>
<circle cx="77.8658" cy="72.6465" r="1.56303" fill="#4D4D4D"/>
<circle cx="71.6138" cy="68.7393" r="1.56303" fill="#4D4D4D"/>
<circle cx="47.3863" cy="68.7393" r="1.56303" fill="#4D4D4D"/>
<circle cx="34.8824" cy="67.9576" r="1.56303" fill="#4D4D4D"/>
<circle cx="40.3531" cy="63.2686" r="1.56303" fill="#4D4D4D"/>
<circle cx="41.1343" cy="72.6465" r="1.56303" fill="#4D4D4D"/>
</svg>
