<svg width="120" height="98" viewBox="0 0 120 98" fill="none" xmlns="http://www.w3.org/2000/svg">
<rect width="120" height="98" fill="black"/>
<path d="M75.3862 79.0143C79.2668 87.1642 92.8498 86.388 91.6858 77.462C95.9545 83.2833 102.552 80.9548 102.552 73.9692V70.4764C85.1466 49.2535 81.6076 37.1908 87.0288 15.368C70.6911 9.47324 60.4462 9.61517 40.4584 15.368L38.1298 22.3536C38.1298 22.3536 25.7107 25.0702 21.054 29.3392C16.397 33.6084 19.5016 67.3717 19.5016 67.3717H21.054C14.4562 71.6407 16.7847 75.5215 21.8302 71.2526C15.4757 78.31 23.3822 81.3428 31.9204 77.462C29.5916 85.2237 47.4436 86.388 53.6533 79.7905C53.6533 79.7905 51.0942 86.0298 64.5195 85.9999C78.1019 85.9697 75.3862 79.0143 75.3862 79.0143Z" fill="#999999"/>
<path d="M19.502 67.3713H21.0544C27.0597 63.4415 35.3817 61.5957 57.5342 58.8334C60.2509 58.8334 61.873 57.9696 64.5198 54.9526V52.624C58.8607 43.8591 56.0176 38.5957 55.2057 24.6818L47.444 19.2485L38.1302 22.3532C38.1302 22.3532 25.7111 25.0698 21.0544 29.3388C16.3974 33.6081 19.502 67.3713 19.502 67.3713Z" fill="#E6E6E6"/>
<path d="M19.502 67.3716H21.0544C24.9391 64.8295 29.7932 63.1594 38.7332 61.5493C38.7332 61.5493 30.5834 36.6137 27.8668 34.2851C25.3482 32.1263 19.5155 32.7328 19.5155 32.7328C17.2121 42.4686 19.502 67.3716 19.502 67.3716Z" fill="#4D4D4D"/>
<path d="M75.3862 79.0143C79.2668 87.1641 92.8498 86.388 91.6858 77.462C95.9545 83.2833 102.552 80.9547 102.552 73.9692V70.4764L95.5664 61.9385C102.94 74.7454 97.1188 79.0143 90.1332 70.4764C91.6381 79.7905 79.6549 80.9547 73.8335 72.8049C73.0574 82.5071 54.4292 83.2833 57.5339 72.8049C49.3841 80.5667 37.3534 80.1786 36.5772 72.8049C26.4869 75.5215 21.8299 73.9692 29.5916 65.8193C23.3986 68.9942 19.7949 70.6432 23.9856 65.7203L22.4332 66.4965L21.054 67.3717C14.4562 71.6407 16.7847 75.5215 21.8302 71.2526C15.4757 78.31 23.3822 81.3428 31.9204 77.462C29.5916 85.2237 47.4436 86.388 53.6533 79.7905C53.6533 79.7905 51.0942 86.0298 64.5195 85.9999C78.1019 85.9696 75.3862 79.0143 75.3862 79.0143Z" fill="#4D4D4D"/>
<ellipse cx="45.7184" cy="33.5093" rx="1.55235" ry="3.88087" fill="#4D4D4D"/>
<path d="M78.5936 33.5092C78.5936 38.9108 75.0742 43.0995 70.9438 43.0995C66.8133 43.0995 63.2939 38.9108 63.2939 33.5092C63.2939 28.1076 66.8133 23.9189 70.9438 23.9189C75.0742 23.9189 78.5936 28.1076 78.5936 33.5092Z" fill="#E6E6E6" stroke="#4D4D4D"/>
<ellipse cx="69.7803" cy="34.2855" rx="3.88087" ry="4.65705" fill="#4D4D4D"/>
</svg>
