<svg width="120" height="98" viewBox="0 0 120 98" fill="none" xmlns="http://www.w3.org/2000/svg">
<rect width="120" height="98" fill="black"/>
<path fill-rule="evenodd" clip-rule="evenodd" d="M36.2187 29.6747C30.3732 21.503 25.0464 18.462 13 15C13 35.6131 16.759 47.2047 29.4593 47.5537C29.3408 48.8274 29.2809 50.1237 29.2809 51.4382C29.2809 69.4216 45.1438 84 59.5169 84C73.8899 84 89.7528 69.4216 89.7528 51.4382C89.7528 50.1237 89.6929 48.8274 89.5744 47.5537C102.275 47.2047 106.034 35.6131 106.034 15C93.9874 18.462 88.6605 21.503 82.815 29.6747C77.6298 23.0454 69.6905 18.8764 59.5169 18.8764C49.3432 18.8764 41.4039 23.0454 36.2187 29.6747Z" fill="#999999"/>
<path d="M75.7981 70.4327C75.7981 77.9257 70.3712 84.0001 59.5172 84.0001C48.6633 84.0001 43.2363 77.9257 43.2363 70.4327C43.2363 62.9396 50.5255 56.8652 59.5172 56.8652C68.5089 56.8652 75.7981 62.9396 75.7981 70.4327Z" fill="#E6E6E6"/>
<path d="M89.7529 46.7867C89.7529 33.6069 92.079 21.9777 103.708 19.6519C103.708 37.4833 100.995 41.7474 89.7529 46.7867Z" fill="#4D4D4D"/>
<path d="M29.2812 46.7867C29.2813 33.6069 26.9552 21.9777 15.3262 19.6519C15.3262 37.4833 18.0395 41.7474 29.2812 46.7867Z" fill="#4D4D4D"/>
<path d="M67.2693 67.3315C67.2693 69.2583 63.7982 70.8203 59.5165 70.8203C55.2347 70.8203 51.7637 69.2583 51.7637 67.3315C51.7637 64.6295 55.2347 63.8428 59.5165 63.8428C63.7982 63.8428 67.2693 64.6295 67.2693 67.3315Z" fill="#4D4D4D"/>
<ellipse cx="59.517" cy="66.9436" rx="3.8764" ry="1.55056" fill="#E6E6E6"/>
<path d="M59.5168 77.7975C54.5881 77.7975 47.1123 75.4717 47.1123 75.4717C47.1123 75.4717 51.3404 79.3481 59.5168 79.3481C67.6932 79.3481 71.9213 75.4717 71.9213 75.4717C71.9213 75.4717 64.4455 77.7975 59.5168 77.7975Z" fill="#4D4D4D"/>
<ellipse cx="37.5406" cy="52.9771" rx="4.26404" ry="7.75281" transform="rotate(-10 37.5406 52.9771)" fill="#4D4D4D"/>
<ellipse cx="36.7089" cy="53.3765" rx="1.9382" ry="3.48876" transform="rotate(-10 36.7089 53.3765)" fill="#E6E6E6"/>
<ellipse rx="4.26404" ry="7.75281" transform="matrix(-0.984808 -0.173648 -0.173648 0.984808 81.7367 52.9161)" fill="#4D4D4D"/>
<ellipse rx="1.9382" ry="3.48876" transform="matrix(-0.984808 -0.173648 -0.173648 0.984808 82.5733 53.3765)" fill="#E6E6E6"/>
</svg>
