<svg width="120" height="98" viewBox="0 0 120 98" fill="none" xmlns="http://www.w3.org/2000/svg">
<rect width="120" height="98" fill="black"/>
<path d="M56.2275 37.7894L28.1223 54.9648C28.1223 54.9648 38.8149 4.99964 41.3942 5H42.9556C45.535 4.99983 56.2275 37.7894 56.2275 37.7894Z" fill="#999999"/>
<path d="M51.0195 40.6891V36.5001L43.8894 17.486L35.0877 46.599V47.259L51.0195 40.6891Z" fill="#E6E6E6" stroke="#4D4D4D" stroke-width="3"/>
<path d="M64.0352 37.7894L92.1404 54.9648C92.1404 54.9648 81.4478 4.99964 78.8685 5H77.3071C74.7277 4.99983 64.0352 37.7894 64.0352 37.7894Z" fill="#999999"/>
<path d="M69.2432 40.6891V36.5001L76.3733 17.486L85.175 46.599V47.259L69.2432 40.6891Z" fill="#E6E6E6" stroke="#4D4D4D" stroke-width="3"/>
<path d="M95.263 68.2315C95.263 84.6491 79.4722 93.9999 60.6406 93.9999C41.809 93.9999 25 84.6491 25 68.2508C25 51.6297 38.284 35.4541 60.5219 35.4541C81.979 35.4541 95.263 51.6104 95.263 68.2315Z" fill="#999999"/>
<circle cx="78.868" cy="62.7718" r="8.58771" fill="#E6E6E6"/>
<circle cx="78.8682" cy="62.772" r="5.4649" fill="#4D4D4D"/>
<circle cx="41.3953" cy="62.7718" r="8.58771" fill="#E6E6E6"/>
<circle cx="41.3946" cy="62.772" r="5.4649" fill="#4D4D4D"/>
<path d="M46.8594 78.797C46.8594 77.9011 48.0607 77.4605 48.7 78.0883C49.9534 79.319 51.6439 80.6617 53.105 80.7281C54.7511 80.803 56.7065 79.8552 58.136 78.9847C59.3454 78.2482 60.9172 78.2482 62.1265 78.9847C63.556 79.8552 65.5115 80.803 67.1576 80.7281C68.6187 80.6617 70.3091 79.319 71.5626 78.0883C72.2019 77.4605 73.4032 77.9011 73.4032 78.797V78.797C73.4032 79.0346 73.3142 79.2624 73.1464 79.4306C72.2878 80.2911 69.4423 82.9664 67.1576 83.0702C65.5115 83.1451 63.556 82.1973 62.1265 81.3268C60.9172 80.5903 59.3454 80.5903 58.136 81.3268C56.7065 82.1973 54.7511 83.1451 53.105 83.0702C50.8203 82.9664 47.9748 80.2911 47.1162 79.4306C46.9483 79.2624 46.8594 79.0346 46.8594 78.797V78.797Z" fill="#4D4D4D"/>
</svg>
