<svg width="120" height="98" viewBox="0 0 120 98" fill="none" xmlns="http://www.w3.org/2000/svg">
<rect width="120" height="98" fill="black"/>
<path d="M81.3166 10C69.975 9.99999 68.0195 22.5149 68.0195 22.5149L85.2275 35.8119C85.2275 35.8119 95.3958 30.3366 95.3958 22.5149C95.3958 15.1584 88.673 10 81.3166 10Z" fill="#999999"/>
<path d="M39.0789 10C50.4205 9.99999 52.376 22.5149 52.376 22.5149L35.1681 35.8119C35.1681 35.8119 24.9997 30.3366 24.9997 22.5149C24.9997 15.1584 31.7225 10 39.0789 10Z" fill="#999999"/>
<path d="M89.9208 21.5151C89.9208 16.1919 85.8578 12.9111 82.099 12.9111C72.7129 12.9112 72.7129 23.8616 72.7129 23.8616L82.099 30.9012C82.099 30.9012 89.9208 27.7726 89.9208 21.5151Z" fill="#E6E6E6"/>
<path fill-rule="evenodd" clip-rule="evenodd" d="M74.6904 16.8435C75.6605 16.0851 80.1871 12.9896 84.9996 17C89.7044 20.9207 87.6457 26.071 86.5376 28.1119C88.3021 26.5603 89.9204 24.3614 89.9204 21.5151C89.9204 16.1919 85.8574 12.9111 82.0986 12.9111C78.298 12.9112 76.0363 14.7066 74.6904 16.8435Z" fill="#4D4D4D"/>
<path d="M30.4757 21.7329C30.4757 16.4097 34.5387 13.1289 38.2975 13.1289C47.6836 13.129 47.6836 24.0794 47.6836 24.0794L38.2975 31.119C38.2975 31.119 30.4757 27.9903 30.4757 21.7329Z" fill="#E6E6E6"/>
<path d="M95.396 67.4903C95.396 86.2816 79.6373 89.0002 60.198 89.0002C40.7587 89.0002 25 86.2816 25 67.4903C25 48.6989 36.8478 20.9507 60.198 20.9507C83.5482 20.9507 95.396 48.6989 95.396 67.4903Z" fill="#999999"/>
<path fill-rule="evenodd" clip-rule="evenodd" d="M45.3155 16.4882C43.7547 15.4475 39.7382 13.4681 35.4999 17C30.2225 21.3979 33.4552 27.343 34.3103 28.7112C34.0561 28.5051 33.8024 28.2859 33.5533 28.0534L32.9216 27.4217C31.5602 25.9593 30.4756 24.063 30.4756 21.7329C30.4756 16.4097 34.5386 13.1289 38.2974 13.1289C41.7526 13.1289 43.9359 14.6129 45.3155 16.4882Z" fill="#4D4D4D"/>
<path d="M60.198 83.5246C58.6337 83.5246 57.0693 81.178 57.0693 81.178L60.9802 78.0493L64.8911 81.178C64.8911 81.178 63.3268 83.5246 61.7624 83.5246H60.198Z" fill="#E6E6E6"/>
<path fill-rule="evenodd" clip-rule="evenodd" d="M61.7629 75.654C63.9825 75.3747 65.6738 73.9269 65.6738 72.1829C65.6738 70.239 63.5726 68.6631 60.9807 68.6631C58.3888 68.6631 56.2877 70.239 56.2877 72.1829C56.2877 73.9269 57.9789 75.3747 60.1985 75.654V77.267H61.7629V75.654ZM49.248 78.562C49.248 77.9721 50.0101 77.6628 50.4518 78.0539C51.6257 79.0933 53.4695 80.4381 55.1144 80.3958C56.5134 80.3597 57.9577 79.2203 59.0631 78.0733C60.0631 77.0357 61.8983 77.0357 62.8983 78.0733C64.0037 79.2203 65.448 80.3597 66.8471 80.3958C68.4919 80.4381 70.3358 79.0933 71.5096 78.0539C71.9513 77.6628 72.7134 77.9721 72.7134 78.562C72.7134 78.7343 72.6458 78.8978 72.5189 79.0143C71.7784 79.6937 69.0656 82.03 66.8471 81.9601C65.3924 81.9143 63.8365 80.8242 62.6928 79.8067C61.746 78.9642 60.2155 78.9642 59.2686 79.8067C58.1249 80.8242 56.569 81.9143 55.1144 81.9601C52.8958 82.03 50.1831 79.6937 49.4426 79.0143C49.3156 78.8978 49.248 78.7343 49.248 78.562Z" fill="#4D4D4D"/>
<ellipse cx="77.406" cy="56.9308" rx="4.69307" ry="6.25743" fill="#4D4D4D"/>
<ellipse cx="42.9899" cy="56.9308" rx="4.69307" ry="6.25743" fill="#4D4D4D"/>
<ellipse cx="78.189" cy="57.7134" rx="7.0396" ry="7.82178" fill="#4D4D4D"/>
<ellipse cx="78.1893" cy="56.5394" rx="2.34653" ry="2.73762" fill="#E6E6E6"/>
<ellipse cx="42.2085" cy="57.7134" rx="7.0396" ry="7.82178" fill="#4D4D4D"/>
<ellipse rx="2.34653" ry="2.73762" transform="matrix(-1 0 0 1 42.2082 56.5394)" fill="#E6E6E6"/>
</svg>
