<svg width="120" height="98" viewBox="0 0 120 98" fill="none" xmlns="http://www.w3.org/2000/svg">
<rect width="120" height="98" fill="black"/>
<path d="M85.7812 25.8125C84.6812 25.8125 83.4375 27.375 83.4375 27.375V62.5313H98.2812C102.969 62.5313 110 53.1563 110 43C107.453 45.313 106.073 46.0696 103.75 46.125C103.75 46.125 100.234 25.8125 85.7812 25.8125Z" fill="#4D4D4D"/>
<path d="M34.2188 25.8125C35.3188 25.8125 36.5625 27.375 36.5625 27.375V62.5313H21.7188C17.0312 62.5313 10 53.1563 10 43C12.5467 45.313 13.9272 46.0696 16.25 46.125C16.25 46.125 19.7656 25.8125 34.2188 25.8125Z" fill="#4D4D4D"/>
<path d="M60 18C51.0156 18 36.5625 24.25 36.5625 27.375C36.5625 27.375 35 31.6719 35 35.1875C35 36.1523 35.7812 37.5312 35.7812 37.5312C35.7812 37.5312 30.3125 43.7812 30.3125 46.9062C30.3125 49.25 31.875 49.25 31.875 49.25C31.875 49.25 24.0625 53.1562 24.0625 56.2812C24.0625 57.6574 29.5312 55.5 29.5312 55.5C29.5312 55.5 25.625 59.4062 25.625 61.75C25.625 64.875 27.1875 65.6562 28.75 65.6562C31.0938 65.6562 31.0938 64.875 31.0938 64.875C31.0938 70.3438 33.8281 74.25 38.9062 71.9062L60 70.3438H82.6562C88.125 71.125 92.0312 69.5625 92.0312 64.875C92.0312 64.875 92.8125 65.6562 95.1562 65.6562C96.7188 65.6562 98.2812 65.6562 98.2812 62.5312C98.2812 60.9688 90.4688 55.5 90.4688 55.5C90.4688 55.5 95.9375 57.6574 95.9375 56.2812C95.9375 53.1562 88.125 49.25 88.125 49.25C88.125 49.25 89.6875 49.25 89.6875 46.9062C89.6875 43.7812 84.2188 37.5312 84.2188 37.5312C84.2188 37.5312 85 36.1523 85 35.1875C85 31.6719 83.4375 27.375 83.4375 27.375C83.4375 24.25 68.9844 18 60 18Z" fill="#E6E6E6"/>
<path d="M87.3438 58.625C87.3438 66.777 81.3515 79.7188 60 79.7188C38.6485 79.7188 32.6562 66.777 32.6562 58.625C32.6562 50.473 41.7735 21.9062 60 21.9062C78.2265 21.9062 87.3438 50.473 87.3438 58.625Z" fill="#999999"/>
<path fill-rule="evenodd" clip-rule="evenodd" d="M50.625 53.0392C50.625 52.5377 51.6721 52.1742 52.0632 52.488C53.3839 53.5478 55.7947 54.719 60 54.719C64.2053 54.719 66.6161 53.5478 67.9368 52.488C68.3279 52.1742 69.375 52.5377 69.375 53.0392C69.375 53.1162 69.3569 53.1901 69.3133 53.2535C68.9647 53.7607 67.0291 56.0897 60.7812 56.2704V65.6103C60.9895 65.6775 61.1898 65.7725 61.3759 65.8951C62.3344 66.5271 63.6263 67.219 64.6875 67.219C66.384 67.219 67.1595 65.6072 67.514 64.1337C67.6177 63.7029 68.4336 63.6134 68.5737 64.0338C68.587 64.0737 68.5938 64.1137 68.5925 64.1557C68.5758 64.7081 68.3289 68.7815 64.6875 68.7815C63.6263 68.7815 62.3344 68.0896 61.3759 67.4576C60.5523 66.9147 59.4477 66.9147 58.6241 67.4576C57.6656 68.0896 56.3737 68.7815 55.3125 68.7815C51.7884 68.7815 50.8078 64.9662 50.6496 64.2198C50.632 64.1366 50.6391 64.0518 50.6659 63.9711C50.8422 63.4425 51.77 63.496 51.9564 64.0212C52.4894 65.5239 53.4938 67.219 55.3125 67.219C56.3737 67.219 57.6656 66.5271 58.6241 65.8951C58.8102 65.7725 59.0105 65.6775 59.2188 65.6103V56.2704C52.9709 56.0897 51.0353 53.7607 50.6867 53.2535C50.6431 53.1901 50.625 53.1162 50.625 53.0392Z" fill="#4D4D4D"/>
<ellipse cx="72.6328" cy="37.1406" rx="2.73438" ry="4.29688" transform="rotate(-20 72.6328 37.1406)" fill="#4D4D4D"/>
<ellipse rx="2.73438" ry="4.29688" transform="matrix(-0.939693 -0.34202 -0.34202 0.939693 47.6328 37.1406)" fill="#4D4D4D"/>
</svg>
