<svg width="120" height="98" viewBox="0 0 120 98" fill="none" xmlns="http://www.w3.org/2000/svg">
<rect width="120" height="98" fill="black"/>
<path d="M97 56.9362C97 79.6908 65.1265 83.3404 60.5 83.3404C55.8735 83.3404 24 79.6908 24 56.9362C24 41.9475 34.9054 15 60.5 15C86.8712 15 97 41.9475 97 56.9362Z" fill="#999999"/>
<path d="M75.2551 78.6808C75.2551 78.6808 74.3085 83.3404 60.4998 83.3404C46.691 83.3404 45.7445 78.6808 45.7445 78.6808C45.7445 78.6808 42.6851 78.8221 41.0849 77.9042C39.4004 76.938 37.9785 74.0213 37.9785 74.0213C37.9785 74.0213 41.4143 63.1489 60.4998 63.1489C79.5853 63.1489 83.0211 74.0213 83.0211 74.0213C83.0211 74.0213 81.5992 76.938 79.9147 77.9042C78.3145 78.8221 75.2551 78.6808 75.2551 78.6808Z" fill="#E6E6E6"/>
<path d="M69.9938 67.032C70.8286 67.8086 71.0029 69.3618 69.1593 69.3618C67.3156 69.3618 65.821 69.3618 64.9865 68.5852C64.1518 67.8086 63.9774 66.2554 65.8211 66.2554C67.6647 66.2554 69.1591 66.2554 69.9938 67.032Z" fill="#4D4D4D"/>
<path d="M49.4544 67.032C48.6196 67.8086 48.4453 69.3618 50.289 69.3618C52.1326 69.3618 53.6272 69.3618 54.4617 68.5852C55.2965 67.8086 55.4708 66.2554 53.6272 66.2554C51.7835 66.2554 50.2892 66.2554 49.4544 67.032Z" fill="#4D4D4D"/>
<path d="M45.7065 77.9035C45.7386 77.9036 54.7038 77.127 60.4807 77.127C66.2577 77.127 75.2357 77.9035 75.255 77.9035C76.0316 77.9035 76.0316 78.6801 76.0316 78.6801L75.255 78.6801C75.255 78.6801 66.2577 77.9035 60.4807 77.9035C54.7038 77.9035 45.7065 78.6801 45.7065 78.6801H44.9678C44.9678 78.6801 44.9678 77.9033 45.7065 77.9035Z" fill="#4D4D4D"/>
<ellipse cx="78.362" cy="53.8292" rx="7.76596" ry="10.0957" transform="rotate(-10 78.362 53.8292)" fill="#E6E6E6"/>
<ellipse cx="78.3622" cy="53.8288" rx="5.43617" ry="6.98936" transform="rotate(-10 78.3622 53.8288)" fill="#4D4D4D"/>
<ellipse rx="7.76596" ry="10.0957" transform="matrix(-0.984808 -0.173648 -0.173648 0.984808 44.1917 53.8292)" fill="#E6E6E6"/>
<ellipse rx="5.43617" ry="6.98936" transform="matrix(-0.984808 -0.173648 -0.173648 0.984808 44.1915 53.8288)" fill="#4D4D4D"/>
</svg>
