<svg width="120" height="98" viewBox="0 0 120 98" fill="none" xmlns="http://www.w3.org/2000/svg">
<rect width="120" height="98" fill="black"/>
<path d="M41.9315 5C58.942 4.99995 55.8861 35.7803 55.8861 35.7803L43.482 47.8587C43.482 47.8587 20.9996 49.585 20.9996 30.7152C20.9996 17.0784 30.6903 5.00003 41.9315 5Z" fill="#999999"/>
<path d="M44.4138 43.7965C44.7074 43.4142 45.0259 43.0014 45.3559 42.5771C46.3123 41.3475 47.4273 39.9396 48.3095 38.9129C48.1487 38.325 48.062 37.718 48.005 37.1654C47.8844 35.9961 47.8627 34.6095 47.8657 33.1611C47.867 32.5359 47.8728 31.8939 47.8787 31.2396C47.9009 28.7855 47.9246 26.1571 47.7197 23.5864C47.4584 20.3086 46.8418 17.4646 45.5996 15.4832C44.4576 13.6615 42.7311 12.46 39.7196 12.46C36.329 12.46 33.1451 15.1697 30.6525 19.2122C28.1942 23.1988 26.8996 27.7113 26.8996 29.96C26.8996 35.6564 28.8215 38.4547 31.1536 39.9637C33.6635 41.5877 37.0615 42 40.4996 42C42.2408 42 43.5687 42.9571 44.4138 43.7965Z" fill="#E6E6E6" stroke="#4D4D4D" stroke-width="4"/>
<path d="M44.4004 40.1C44.0105 40.88 40.5004 40.88 40.5004 40.88L43.6204 44H47.5204V32.3H46.7404C46.7404 32.3 46.7404 35.42 45.9604 35.42C43.6205 35.42 43.6205 31.52 40.5004 31.52C39.7205 31.52 38.9405 31.91 38.9404 33.08C38.9402 35.42 45.3395 38.2214 44.4004 40.1Z" fill="#4D4D4D"/>
<path d="M78.0685 5C61.058 4.99995 64.1139 35.7803 64.1139 35.7803L76.518 47.8587C76.518 47.8587 99.0004 49.585 99.0004 30.7152C99.0004 17.0784 89.3097 5.00003 78.0685 5Z" fill="#999999"/>
<path d="M75.5862 43.7965C75.2926 43.4142 74.9741 43.0014 74.6441 42.5771C73.6877 41.3475 72.5727 39.9396 71.6905 38.9129C71.8513 38.325 71.938 37.718 71.995 37.1654C72.1156 35.9961 72.1373 34.6095 72.1343 33.1611C72.133 32.5359 72.1272 31.8939 72.1213 31.2396C72.0991 28.7855 72.0754 26.1571 72.2803 23.5864C72.5416 20.3086 73.1582 17.4646 74.4004 15.4832C75.5424 13.6615 77.2689 12.46 80.2804 12.46C83.671 12.46 86.8549 15.1697 89.3475 19.2122C91.8058 23.1988 93.1004 27.7113 93.1004 29.96C93.1004 35.6564 91.1785 38.4547 88.8464 39.9637C86.3365 41.5877 82.9385 42 79.5004 42C77.7592 42 76.4313 42.9571 75.5862 43.7965Z" fill="#E6E6E6" stroke="#4D4D4D" stroke-width="4"/>
<path d="M75.5996 40.1C75.9895 40.88 79.4996 40.88 79.4996 40.88L76.3796 44H72.4796V32.3H73.2596C73.2596 32.3 73.2596 35.42 74.0396 35.42C76.3795 35.42 76.3795 31.52 79.4996 31.52C80.2795 31.52 81.0595 31.91 81.0596 33.08C81.0598 35.42 74.6605 38.2214 75.5996 40.1Z" fill="#4D4D4D"/>
<path d="M85.0626 70.9101C85.0626 82.7337 73.8876 91.5801 60.1026 91.5801C46.3176 91.5801 35.1426 82.7337 35.1426 70.9101C35.1426 55.1866 50.2176 34.6401 60.1026 34.6401C69.9876 34.6401 85.0626 55.1866 85.0626 70.9101Z" fill="#999999"/>
<circle cx="60.1033" cy="79.8801" r="6.24" fill="#4D4D4D"/>
<circle cx="57.6603" cy="78.32" r="2.34" fill="#E6E6E6"/>
<rect x="62.3398" y="48.6797" width="3.12" height="11.7" rx="1.56" fill="#4D4D4D"/>
<rect x="54.54" y="48.6797" width="3.12" height="11.7" rx="1.56" fill="#4D4D4D"/>
<path d="M45.96 83.3134C45.96 82.5595 46.8458 82.1179 47.4636 82.55C50.0276 84.3436 55.4136 87.6799 60 87.6799C64.5864 87.6799 69.9723 84.3436 72.5363 82.55C73.1541 82.1179 74.04 82.5595 74.04 83.3134V83.3134C74.04 83.6059 73.9005 83.8778 73.6567 84.0392C72.0193 85.1238 65.4459 89.2399 60 89.2399C54.554 89.2399 47.9806 85.1238 46.3432 84.0392C46.0994 83.8778 45.96 83.6059 45.96 83.3134V83.3134Z" fill="#4D4D4D"/>
</svg>
