<svg width="120" height="98" viewBox="0 0 120 98" fill="none" xmlns="http://www.w3.org/2000/svg">
<rect width="120" height="98" fill="black"/>
<path d="M62.3921 12.7789V35.3684L48.3711 38.4842L32.0132 39.2632C32.0132 39.2632 25.6006 37.8705 21.8868 39.2632C12.5395 42.7684 14.0974 53.2842 14.0974 53.2842V60.2947C14.0974 73.6637 30.4553 78.2105 30.4553 78.2105C30.4553 78.2105 34.35 86 43.6974 86H57.7184C68.6237 86 88.0974 66.9158 88.0974 57.1789V45.4947C88.0974 45.4947 105.624 46.2737 105.624 25.2421C105.624 19.9186 104.455 14.3368 97.4447 14.3368C90.1999 14.3368 77.1921 31.4737 77.1921 31.4737C77.1921 31.4737 70.0309 12 63.95 12C63.1711 12 62.3921 12.7789 62.3921 12.7789Z" fill="#999999"/>
<path d="M21.8868 39.2635C12.5395 42.7687 14.0974 53.2845 14.0974 53.2845C14.0974 53.2845 18.6995 58.7372 22.6658 58.7372C29.6763 58.7372 38.2447 53.2863 38.2447 46.274C38.2447 41.2109 32.0132 39.2635 32.0132 39.2635C32.0132 39.2635 25.6006 37.8708 21.8868 39.2635Z" fill="#4D4D4D"/>
<path d="M62.3919 79.7683C50.4164 80.9582 43.5397 81.0381 30.4551 78.2104C30.4551 78.2104 31.4288 80.1578 33.5709 82.1052C41.0327 85.9838 47.9484 84.7076 62.3919 79.7683Z" fill="#4D4D4D"/>
<path d="M93.5504 40.8209H81.8662C81.8662 40.8209 87.3323 18.2314 98.2241 18.2314C104.066 18.2314 103.677 22.5157 103.677 26.0209C103.677 40.8136 93.5504 40.8209 93.5504 40.8209Z" fill="#E6E6E6"/>
<path d="M27.2419 41.9895C27.2419 44.3556 23.5915 47.8316 21.0103 47.8316C18.4291 47.8316 17.8945 46.6924 17.8945 44.3263C17.8945 41.9602 21.5449 39.2632 24.1261 39.2632C26.7073 39.2632 27.2419 39.6234 27.2419 41.9895Z" fill="#E6E6E6"/>
<path d="M75.6449 49.2368C77.4105 54.0879 76.7882 58.7679 73.3521 60.0186C69.9159 61.2693 65.699 58.3506 63.9333 53.4995C62.1677 48.6484 62.7899 43.9684 66.2261 42.7177C69.6623 41.467 73.8792 44.3857 75.6449 49.2368Z" fill="#E6E6E6"/>
<path d="M74.2546 49.6642C75.5789 53.3025 75.1122 56.8125 72.535 57.7505C69.9579 58.6885 66.7952 56.4995 65.471 52.8612C64.1467 49.2229 64.6134 45.7128 67.1906 44.7748C69.7677 43.8368 72.9304 46.0259 74.2546 49.6642Z" fill="#4D4D4D"/>
</svg>
