<svg width="120" height="98" viewBox="0 0 120 98" fill="none" xmlns="http://www.w3.org/2000/svg">
<rect width="120" height="98" fill="black"/>
<path d="M91.4542 33.3633C89.2135 33.3633 85.9814 38.836 85.9814 38.836V56.036L92.236 62.2906C92.236 62.2906 95.3633 51.3451 95.3633 44.3087C95.3633 39.7698 93.7996 33.3633 91.4542 33.3633Z" fill="#4D4D4D"/>
<path d="M28.9091 33.3633C31.1498 33.3633 34.3818 38.836 34.3818 38.836V56.036L28.1273 62.2906C28.1273 62.2906 25 51.3451 25 44.3087C25 39.7698 26.5637 33.3633 28.9091 33.3633Z" fill="#4D4D4D"/>
<path d="M87.2396 55.4512C87.4411 53.3469 87.5455 51.1926 87.5455 49C87.5455 25.2517 75.2944 6 60.1819 6C45.0694 6 32.8183 25.2517 32.8183 49C32.8183 51.1926 32.9227 53.3469 33.1242 55.4512C24.713 61.5411 25.7028 69.8347 25.7778 70.4628C25.7804 70.4844 25.7819 70.4969 25.7819 70.5C25.7819 83.9377 41.1833 92 60.1819 92C79.1805 92 94.5819 83.9377 94.5819 70.5C94.5819 70.4969 94.5834 70.4844 94.586 70.4628C94.661 69.8347 95.6508 61.5411 87.2396 55.4512Z" fill="#999999"/>
<path d="M60.1821 88.8726C30.929 88.8726 27.3457 77.1454 27.3457 77.1454C27.3457 77.1454 29.6912 74.0181 38.2912 74.0181C45.6331 74.0181 60.1821 74.7999 60.1821 74.7999C60.1821 74.7999 74.731 74.0181 82.073 74.0181C90.673 74.0181 93.0184 77.1454 93.0184 77.1454C93.0184 77.1454 89.4351 88.8726 60.1821 88.8726Z" fill="#E6E6E6"/>
<path d="M30.4727 78.8097C30.4727 78.3419 30.8776 77.9792 31.3419 78.0367C35.0808 78.4996 50.0627 80.2727 60.1817 80.2727C70.3008 80.2727 85.2827 78.4996 89.0216 78.0367C89.4859 77.9792 89.8908 78.3419 89.8908 78.8097V78.8097C89.8908 79.1993 89.612 79.5268 89.2254 79.575C85.8628 79.9941 70.4961 81.8363 60.1817 81.8363C49.8674 81.8363 34.5007 79.9941 31.1381 79.575C30.7515 79.5268 30.4727 79.1993 30.4727 78.8097V78.8097Z" fill="#4D4D4D"/>
<path d="M75.0367 58.3807C75.0367 63.0716 66.4367 65.4171 66.4367 65.4171C66.4367 65.4171 64.873 62.2898 64.873 59.9443C64.873 56.8171 65.6549 55.2534 69.564 55.2534C72.0255 55.2534 75.0367 56.0352 75.0367 58.3807Z" fill="#E6E6E6"/>
<path d="M68.782 64.635C68.0002 65.026 66.4365 65.4168 66.4365 65.4168V61.5077C66.4366 59.5527 67.2183 57.5986 69.5638 57.5986C70.7365 57.5986 71.9093 57.5987 71.9093 59.1623C71.9093 61.6238 70.9836 63.5341 68.782 64.635Z" fill="#4D4D4D"/>
<path d="M46.892 58.3807C46.892 63.0716 55.492 65.4171 55.492 65.4171C55.492 65.4171 57.0557 62.2898 57.0557 59.9443C57.0557 56.8171 56.2738 55.2534 52.3648 55.2534C49.9032 55.2534 46.892 56.0352 46.892 58.3807Z" fill="#E6E6E6"/>
<path d="M53.1467 64.635C53.9286 65.026 55.4922 65.4168 55.4922 65.4168V61.5077C55.4922 59.5527 54.7104 57.5986 52.3649 57.5986C51.1922 57.5986 50.0195 57.5987 50.0195 59.1623C50.0194 61.6238 50.9451 63.5341 53.1467 64.635Z" fill="#4D4D4D"/>
<ellipse cx="71.1276" cy="45.0898" rx="6.25455" ry="4.69091" fill="#4D4D4D"/>
<ellipse cx="70.3455" cy="43.526" rx="2.34545" ry="1.56364" fill="#E6E6E6"/>
<ellipse rx="6.25455" ry="4.69091" transform="matrix(-1 0 0 1 49.2367 45.0898)" fill="#4D4D4D"/>
<ellipse rx="2.34545" ry="1.56364" transform="matrix(-1 0 0 1 50.0178 43.526)" fill="#E6E6E6"/>
</svg>
