<svg width="120" height="98" viewBox="0 0 120 98" fill="none" xmlns="http://www.w3.org/2000/svg">
<rect width="120" height="98" fill="black"/>
<path d="M89.3486 21.9775C89.3486 26.9062 87.0228 34.382 87.0228 34.382L68.416 22.7528C68.416 22.7528 71.5162 15 74.6183 15C77.7194 15 89.3486 20.427 89.3486 21.9775Z" fill="#999999"/>
<path d="M72.292 23.528L84.6965 31.2808C84.6965 31.2808 87.0223 22.7527 85.4718 21.2022C83.7591 19.4895 81.2077 20.4269 79.2695 20.4269C77.3309 20.4269 77.3313 18.1011 75.3931 18.1011C72.9521 18.1011 72.292 23.528 72.292 23.528Z" fill="#4D4D4D"/>
<path d="M31.2022 21.9775C31.2022 26.9062 33.528 34.382 33.528 34.382L52.1348 22.7528C52.1348 22.7528 49.0345 15 45.9325 15C42.8314 15 31.2022 20.427 31.2022 21.9775Z" fill="#999999"/>
<path d="M48.2588 23.528L35.8543 31.2808C35.8543 31.2808 33.5285 22.7527 35.079 21.2022C36.7917 19.4895 39.3431 20.4269 41.2813 20.4269C43.2199 20.4269 43.2195 18.1011 45.1577 18.1011C47.5986 18.1011 48.2588 23.528 48.2588 23.528Z" fill="#4D4D4D"/>
<path d="M94.7753 59.9662C94.7753 77.5214 79.1556 83.9999 59.8876 83.9999C40.6197 83.9999 25 77.5214 25 59.9662C25 38.5346 36.7433 21.2021 59.8876 21.2021C83.032 21.2021 94.7753 38.5346 94.7753 59.9662Z" fill="#999999"/>
<ellipse cx="60.2753" cy="70.0447" rx="14.3427" ry="11.6292" fill="#E6E6E6"/>
<path d="M69.1905 69.2697C69.1905 72.267 69.3527 74.6967 66.8647 74.6967C63.6014 74.6967 62.9883 72.267 62.9883 69.2697C62.9883 66.2725 63.6014 63.8428 65.3141 63.8428C66.2515 63.8428 69.1905 66.2725 69.1905 69.2697Z" fill="#4D4D4D"/>
<path d="M50.5868 69.2697C50.5868 72.267 50.4247 74.6967 52.9127 74.6967C56.1759 74.6967 56.7891 72.267 56.7891 69.2697C56.7891 66.2725 56.1759 63.8428 54.4632 63.8428C53.5258 63.8428 50.5868 66.2725 50.5868 69.2697Z" fill="#4D4D4D"/>
<ellipse cx="70.5472" cy="50.2746" rx="2.71348" ry="5.81461" transform="rotate(-10 70.5472 50.2746)" fill="#4D4D4D"/>
<ellipse rx="2.71348" ry="5.81461" transform="matrix(-0.984808 -0.173648 -0.173648 0.984808 48.8395 50.2746)" fill="#4D4D4D"/>
</svg>
