<svg width="120" height="98" viewBox="0 0 120 98" fill="none" xmlns="http://www.w3.org/2000/svg">
<rect width="120" height="98" fill="black"/>
<path d="M76.1897 13.9226C76.1897 13.9226 74.6603 10.0327 60.5 10.0002C46.0419 9.96707 44.0259 13.9226 44.0259 13.9226L35.3966 12.3537L25.1983 20.1985L15.7845 17.0606C15.7845 17.0606 15.8088 23.0867 18.1379 25.6899C19.7849 27.5306 23.6293 28.8278 23.6293 28.8278L15 29.6123C15 29.6123 18.6657 40.0421 24.4138 42.164C28.7344 43.7589 36.181 41.3795 36.181 41.3795C36.181 41.3795 25.1983 53.1468 25.1983 57.0692V64.914C25.1983 68.8364 33.0431 79.8192 35.3966 81.3881C43.7464 86.9548 50.4647 86.8795 60.5 86.8795C70.5353 86.8795 77.2536 86.9547 85.6034 81.3881C87.9569 79.8192 95.8017 68.8364 95.8017 64.914V57.0692C95.8017 53.1468 84.819 41.3795 84.819 41.3795C84.819 41.3795 92.2716 43.733 96.5862 42.164C102.345 40.0701 103.647 35.1037 106 29.6123L97.3707 28.8278C97.3707 28.8278 101.215 27.5306 102.862 25.6899C105.191 23.0867 105.216 17.0606 105.216 17.0606L95.8017 20.1985L85.6034 12.3537L76.1897 13.9226Z" fill="#999999"/>
<path d="M95.8017 64.9138V57.069C95.8017 55.6747 94.4138 53.289 92.6248 50.7929C90.8358 48.2969 86.3879 48.4395 82.4655 48.4395C69.3268 48.4395 60.5 57.0688 60.5 57.0688C60.5 57.0688 51.6731 48.4395 38.5344 48.4395C34.2198 48.4395 30.1642 48.2969 28.3751 50.7929C26.5861 53.289 25.1982 55.6746 25.1982 57.069V64.9138C25.1982 68.8362 33.0431 79.819 35.3965 81.388C43.7464 86.9546 50.4646 86.8794 60.5 86.8794C70.5353 86.8794 77.2535 86.9546 85.6034 81.388C87.9569 79.819 95.8017 68.8362 95.8017 64.9138Z" fill="#E6E6E6"/>
<path d="M85.6031 12.354L76.1894 13.923C76.1894 13.923 79.1978 17.457 80.1118 20.1988L82.4652 27.2592L97.3704 28.8281C97.3704 28.8281 101.215 27.5309 102.862 25.6902C105.191 23.0871 105.215 17.0609 105.215 17.0609L95.8014 20.1988L85.6031 12.354Z" fill="#4D4D4D"/>
<path d="M25.198 20.1988L15.7842 17.0609C15.7842 17.0609 15.8085 23.0871 18.1376 25.6902C19.7846 27.5309 23.629 28.8281 23.629 28.8281L38.5342 27.2592C38.5342 27.2592 39.3187 22.5523 40.1031 20.1988C41.0171 17.457 44.0256 13.923 44.0256 13.923L35.3962 12.354L25.198 20.1988Z" fill="#4D4D4D"/>
<path d="M29.9056 42.1639L29.1211 31.1812H37.7504L36.1814 41.3794L33.0435 42.1639H29.9056Z" fill="#4D4D4D"/>
<path d="M29.1208 31.1812H19.707C19.707 31.1812 21.6682 42.1639 29.9053 42.1639C33.4355 42.1639 35.3967 39.1447 35.3967 35.888C35.3967 33.1424 32.2588 31.1811 29.1208 31.1812Z" fill="#4D4D4D"/>
<path d="M28.3364 31.9658H22.0605C22.0605 31.9658 25.0604 40.5951 29.5131 40.5951C31.4743 40.5951 33.0433 38.2417 33.0433 35.8882C33.0433 33.4955 30.2976 31.9658 28.3364 31.9658Z" fill="#E6E6E6"/>
<path d="M91.0944 42.1639L91.8789 31.1812H83.2496L84.8186 41.3794L87.9565 42.1639H91.0944Z" fill="#4D4D4D"/>
<path d="M91.8792 31.1812H101.293C101.293 31.1812 99.3318 42.1639 91.0947 42.1639C87.5645 42.1639 85.6033 39.1447 85.6033 35.888C85.6033 33.1424 88.7412 31.1811 91.8792 31.1812Z" fill="#4D4D4D"/>
<path d="M92.6636 31.9658H98.9395C98.9395 31.9658 95.9396 40.5951 91.4869 40.5951C89.5257 40.5951 87.9567 38.2417 87.9567 35.8882C87.9567 33.4955 90.7024 31.9658 92.6636 31.9658Z" fill="#E6E6E6"/>
<path d="M84.8186 41.3795H36.1807C36.1807 41.3795 36.5117 37.056 36.9651 34.3191C37.4268 31.5326 38.5341 27.2588 38.5341 27.2588H82.4651C82.4651 27.2588 83.5725 31.5326 84.0341 34.3191C84.4875 37.056 84.8186 41.3795 84.8186 41.3795Z" fill="#999999"/>
<path d="M71.4824 64.1291C71.4824 66.8747 73.0886 66.4825 74.6204 66.4825C76.1893 66.4825 90.31 63.7877 90.31 59.4222C90.31 55.892 87.9566 52.3619 84.8186 52.3618C81.7954 52.3618 71.4824 57.1834 71.4824 64.1291Z" fill="#4D4D4D"/>
<path d="M49.5166 64.1291C49.5166 66.8747 47.9105 66.4825 46.3787 66.4825C44.8097 66.4825 30.689 63.7877 30.689 59.4222C30.689 55.892 33.0425 52.3619 36.1804 52.3618C39.2036 52.3618 49.5166 57.1834 49.5166 64.1291Z" fill="#4D4D4D"/>
<path fill-rule="evenodd" clip-rule="evenodd" d="M95.2423 67.3032C92.9423 70.4255 83.2471 81.3876 60.5005 81.3876C37.7539 81.3876 28.0588 70.4255 25.7588 67.3032C26.3333 68.8185 27.2991 70.6361 28.4155 72.4587C32.963 76.6425 42.7642 82.9566 60.5005 82.9566C78.2369 82.9566 88.0381 76.6425 92.5856 72.4587C93.702 70.6361 94.6678 68.8185 95.2423 67.3032Z" fill="#4D4D4D"/>
<circle cx="72.6591" cy="33.142" r="3.53017" fill="#4D4D4D"/>
<circle cx="48.3407" cy="33.142" r="3.53017" fill="#4D4D4D"/>
</svg>
