<svg width="120" height="98" viewBox="0 0 120 98" fill="none" xmlns="http://www.w3.org/2000/svg">
<rect width="120" height="98" fill="black"/>
<path d="M79.1348 12.7809C69.0193 12.7809 68.2017 21.3712 68.2017 21.3712C68.2017 21.3712 65.8589 12 54.9258 12C46.1787 12 45.5546 19.4189 45.5546 22.9331C45.5546 31.1329 47.1165 32.3043 47.1165 32.3043L36.9644 47.142C36.9644 47.142 33.0597 45.5801 29.936 45.5801C22.6813 45.5801 19.0029 52.218 19.0029 61.9797C19.0029 82.9557 30.3265 86.1886 52.583 86.1886C68.5922 86.1886 101.001 81.5016 101.001 58.075C101.001 45.9706 96.8732 48.1928 94.7534 41.6754C93.7686 38.6476 92.4106 33.8661 92.4106 33.8661C92.4106 33.8661 93.9725 29.1805 93.9725 24.4949C93.9725 15.5142 86.5536 12.7809 79.1348 12.7809Z" fill="#999999"/>
<path d="M29.9351 45.5801C22.6804 45.5801 18.8991 52.2186 19.002 61.9797C19.0279 64.4285 19.0604 65.7999 19.3925 68.2271L36.9635 72.1318H44.7728C44.7728 72.1318 51.8012 67.3856 51.8012 55.7322C51.8012 52.218 50.6722 47.9229 47.1156 47.9229C42.8205 47.9229 36.1826 53.3894 36.1826 53.3894C36.1826 53.3894 34.0661 45.5801 29.9351 45.5801Z" fill="#E6E6E6"/>
<path d="M46.3354 59.6368C46.3354 62.2246 45.5838 64.3224 43.2116 64.3224C40.8395 64.3224 37.7451 63.7864 37.7451 61.1986C37.7451 58.6109 40.0586 54.9512 42.4307 54.9512C44.8028 54.9512 46.3354 57.049 46.3354 59.6368Z" fill="#4D4D4D"/>
<path d="M27.5922 57.6845C27.5922 60.4879 26.1936 61.9796 24.4685 61.9796C22.7433 61.9796 21.3447 60.8784 21.3447 58.0749C21.3447 56.0524 23.5242 52.6084 25.2494 52.6084C26.9746 52.6084 27.5922 54.881 27.5922 57.6845Z" fill="#4D4D4D"/>
<path d="M63.5157 58.856L58.8301 70.57L68.9822 69.0081L63.5157 58.856Z" fill="#E6E6E6"/>
<path d="M19.002 68.2271C19.002 68.2271 33.8018 72.0902 43.6013 72.5222C58.3601 73.1728 80.6956 65.8843 80.6956 65.8843" stroke="#4D4D4D" stroke-width="2"/>
<path d="M87.0863 24.8636C86.3584 28.9918 81.9016 31.768 77.0128 30.9059C72.124 30.0439 68.8855 25.9108 69.6134 21.7827C70.3414 17.6545 74.7981 14.8783 79.6869 15.7403C84.5757 16.6023 87.8142 20.7354 87.0863 24.8636Z" fill="#E6E6E6" stroke="#4D4D4D"/>
<ellipse cx="77.5687" cy="22.9323" rx="3.12373" ry="7.0284" transform="rotate(10 77.5687 22.9323)" fill="#4D4D4D"/>
<ellipse cx="52.1883" cy="22.1521" rx="5.857" ry="7.80933" transform="rotate(10 52.1883 22.1521)" fill="#E6E6E6" stroke="#4D4D4D"/>
<ellipse cx="51.4084" cy="21.7615" rx="1.95233" ry="6.63793" fill="#4D4D4D"/>
</svg>
