<svg width="120" height="98" viewBox="0 0 120 98" fill="none" xmlns="http://www.w3.org/2000/svg">
<rect width="120" height="98" fill="black"/>
<path d="M90.5242 56.6193C90.5242 77.5073 77.0825 86.6422 60.5013 86.6422C43.9201 86.6422 30.4784 77.5073 30.4784 56.6193C30.4784 51.3276 29.8834 11 60.5013 11C91.1192 11 90.5242 51.3276 90.5242 56.6193Z" fill="#999999"/>
<path d="M103 50.7708C103 42.1928 81.1656 18.0186 78.8262 18.0186C78.8262 18.0186 92.473 54.6699 99.1014 54.6699C101.441 54.6699 103 53.1103 103 50.7708Z" fill="#4D4D4D"/>
<path d="M17.9995 50.7708C17.9995 42.1928 39.8344 18.0186 42.1738 18.0186C42.1738 18.0186 28.527 54.6699 21.8986 54.6699C19.5591 54.6699 17.9995 53.1103 17.9995 50.7708Z" fill="#4D4D4D"/>
<path d="M70.2478 53.8888C70.2478 59.4877 64.1494 61.687 61.6698 61.687C59.1902 61.687 53.0918 59.4877 53.0918 53.8888C53.0918 49.9897 60.1101 49.9897 61.6698 49.9897C63.2294 49.9897 70.2478 49.9897 70.2478 53.8888Z" fill="#4D4D4D"/>
<path fill-rule="evenodd" clip-rule="evenodd" d="M64.0091 60.9067H59.3302L59.3302 67.1453C59.3302 67.1453 56.9907 70.2645 52.3118 70.2645C49.8566 70.2645 47.6329 69.6005 47.6329 67.9251V67.9251C47.6329 66.3654 47.6329 64.8058 46.0733 64.8058C44.5139 64.8058 44.5138 66.3651 44.5137 67.9245V67.9251C44.5135 71.116 47.6329 73.3838 52.3118 73.3838C60.11 73.3838 61.6696 69.4847 61.6696 69.4847C61.6696 69.4847 62.4494 73.3838 70.2476 73.3838C74.9265 73.3838 78.8255 71.0444 78.8256 67.9251C78.8256 66.3655 78.6279 64.8058 77.266 64.8058C75.904 64.8058 75.7064 66.3655 75.7063 67.9251C75.7063 69.4847 72.5107 70.2645 70.2476 70.2645C65.815 70.2645 64.0091 67.1453 64.0091 67.1453L64.0091 60.9067Z" fill="#4D4D4D"/>
<ellipse cx="59.3302" cy="53.4989" rx="3.11927" ry="1.94954" fill="#E6E6E6"/>
<path d="M47.6328 32.0544C47.6328 29.901 49.3785 28.1553 51.5319 28.1553V28.1553C52.8239 28.1553 53.8713 29.2027 53.8713 30.4947V36.7333C53.8713 38.8867 52.1257 40.6323 49.9723 40.6323V40.6323C48.6802 40.6323 47.6328 39.5849 47.6328 38.2929V32.0544Z" fill="#4D4D4D"/>
<path d="M74.1465 32.0544C74.1465 29.901 72.4008 28.1553 70.2474 28.1553V28.1553C68.9554 28.1553 67.908 29.2027 67.908 30.4947V36.7333C67.908 38.8867 69.6536 40.6323 71.807 40.6323V40.6323C73.0991 40.6323 74.1465 39.5849 74.1465 38.2929V32.0544Z" fill="#4D4D4D"/>
</svg>
