<svg width="120" height="98" viewBox="0 0 120 98" fill="none" xmlns="http://www.w3.org/2000/svg">
<rect width="120" height="98" fill="black"/>
<path d="M57.3334 14C53.4445 14 54.2223 20.2222 54.2223 20.2222C47.3352 22.3018 43.985 25.2194 38.6668 32.6667H31.6668C31.6668 32.6667 29.3106 25.6667 24.6668 25.6667C17.6668 25.6667 19.2223 38.1111 19.2223 38.1111C19.2223 38.1111 13.0272 42.7383 13.0001 52.8889C12.9636 66.582 21.5557 70 21.5557 70V73.8889C21.5557 73.8889 23.5056 77 27.7779 77C33.2223 77 33.2223 73.1111 33.2223 73.1111C35.5556 75.0547 36.7222 75.0547 38.6668 76.2222V80.8889C38.6668 80.8889 41.3945 84 44.889 84C49.9445 84 49.5557 78.5556 49.5557 78.5556C49.5557 78.5556 53.9535 78.669 56.5557 77.7778C59.2666 76.8493 62.7779 73.8889 62.7779 73.8889C62.7779 73.8889 90.469 75.2935 90.7779 49C90.8213 45.3051 89.2223 39.6667 89.2223 39.6667C99.6671 39.1501 105.556 33.8333 107.111 23.3333C96.9431 21.6565 92.4377 23.5271 84.5557 27.2222C78.3334 19.8333 70.9445 17.8889 62.7779 18.6667C62.7779 18.6667 60.1338 14 57.3334 14Z" fill="#999999"/>
<path d="M49.5557 76.9999C49.5557 76.9999 50.7223 83.9999 44.889 83.9999C41.3945 83.9999 38.6668 80.8888 38.6668 80.8888V76.2222C36.4621 76.3402 35.27 75.6602 33.2223 73.111C33.2223 73.111 33.2223 76.9999 27.7779 76.9999C23.5056 76.9999 21.5557 73.8888 21.5557 73.8888V69.9999C21.5557 69.9999 29.3334 69.2222 31.6668 71.5555L33.2223 73.111C35.27 75.6602 36.4621 76.3402 38.6668 76.2222C38.6668 76.2222 41.9688 76.8485 44.1112 76.9999C45.5947 77.1048 49.5557 76.2506 49.5557 76.2506V76.9999Z" fill="#E6E6E6"/>
<path d="M88.4443 38.8889C88.4443 31.1111 93.4999 28 103.222 28C103.222 34.2222 96.9999 38.8889 88.4443 38.8889Z" fill="#E6E6E6"/>
<path d="M24.6669 25.6665C17.6669 25.6665 19.2225 38.1109 19.2225 38.1109L28.5558 34.2221C28.5558 34.2221 29.3107 25.6665 24.6669 25.6665Z" fill="#E6E6E6"/>
<path d="M51.111 46.6668L37.8888 38.8891C37.8888 38.8891 37.111 30.3335 44.8888 30.3335C50.0613 30.3335 54.9999 32.6668 54.9999 38.8891C54.9999 43.5557 51.111 46.6668 51.111 46.6668Z" fill="#E6E6E6"/>
<path d="M24.6669 25.6665C17.6669 25.6665 19.2225 38.1109 19.2225 38.1109L28.5558 34.2221C28.5558 34.2221 29.3107 25.6665 24.6669 25.6665Z" fill="#E6E6E6"/>
<path d="M51.111 46.6668L37.8888 38.8891C37.8888 38.8891 37.111 30.3335 44.8888 30.3335C50.0613 30.3335 54.9999 32.6668 54.9999 38.8891C54.9999 43.5557 51.111 46.6668 51.111 46.6668Z" fill="#E6E6E6"/>
<path d="M21.5551 37.3335L24.6661 36.1668C24.6661 36.1668 25.4441 30.3335 23.1107 30.3335C20.7773 30.3335 21.5551 37.3335 21.5551 37.3335Z" fill="#4D4D4D"/>
<path d="M48.0004 45.1111L40.2227 40.4444C40.2227 40.4444 40.6116 35 44.8894 35C48.4676 35 50.3339 36.8663 50.3339 39.6667C50.3339 42 48.0004 45.1111 48.0004 45.1111Z" fill="#4D4D4D"/>
<ellipse cx="79.8889" cy="46.2772" rx="4.66667" ry="8.16667" transform="rotate(-10 79.8889 46.2772)" fill="#4D4D4D"/>
<ellipse cx="79.4992" cy="43.1663" rx="1.94444" ry="3.5" transform="rotate(-10 79.4992 43.1663)" fill="#E6E6E6"/>
<path fill-rule="evenodd" clip-rule="evenodd" d="M65.1118 53.666C65.1118 53.666 66.6673 58.3327 66.6673 61.4438C66.6673 74.5906 57.2585 76.9993 44.1118 76.9993C37.6902 76.9993 33.3869 74.0218 30.6139 70.8131C22.9057 71.7952 19.5715 70.147 15.334 63.7771C16.4187 64.2586 17.2748 64.6686 18.0024 65.0171C21.0775 66.4898 21.8579 66.8636 27.9056 66.887C26.7003 64.6853 26.2229 62.9993 26.2229 62.9993C26.2229 62.9993 32.3028 72.3327 46.4451 72.3327C65.1118 72.3327 65.1118 53.666 65.1118 53.666Z" fill="#4D4D4D"/>
</svg>
