<svg width="120" height="98" viewBox="0 0 120 98" fill="none" xmlns="http://www.w3.org/2000/svg">
<rect width="120" height="98" fill="black"/>
<ellipse cx="87.2996" cy="21.31" rx="11.7" ry="11.31" fill="#999999"/>
<ellipse cx="32.7" cy="21.31" rx="11.7" ry="11.31" fill="#999999"/>
<ellipse cx="85.7397" cy="22.0902" rx="7.02" ry="7.41" fill="#4D4D4D"/>
<ellipse cx="33.48" cy="22.0902" rx="7.02" ry="7.41" fill="#4D4D4D"/>
<path d="M96.6598 57.19C96.6598 77.2213 80.2466 88 59.9998 88C39.7531 88 23.3398 77.2213 23.3398 57.19C23.3398 37.1586 37.4131 15.46 59.9998 15.46C82.5866 15.46 96.6598 37.1586 96.6598 57.19Z" fill="#999999"/>
<path d="M81.0604 73.96C81.0604 80.8525 71.6315 86.44 60.0004 86.44C48.3693 86.44 38.9404 80.8525 38.9404 73.96C38.9404 65.5075 46.8093 61.48 60.0004 61.48C73.1915 61.48 81.0604 65.5075 81.0604 73.96Z" fill="#E6E6E6"/>
<path fill-rule="evenodd" clip-rule="evenodd" d="M61.5594 71.5965C65.0693 71.381 67.7994 69.7278 67.7994 67.7203C67.7994 65.5664 64.6564 63.8203 60.7794 63.8203C56.9023 63.8203 53.7594 65.5664 53.7594 67.7203C53.7594 69.7278 56.4894 71.381 59.9994 71.5965V75.5203C59.9994 75.5203 56.0994 78.6403 52.9794 75.5203C51.9024 74.4434 51.4194 72.4003 51.4194 72.4003H49.8594V74.7403C49.8594 75.5203 52.1994 78.6403 56.0994 78.6403C59.9994 78.6403 60.7794 76.3003 60.7794 76.3003C60.7794 76.3003 61.5594 78.6403 65.4594 78.6403C69.3594 78.6403 71.6994 75.5203 71.6994 74.7403V72.4003H70.1394C70.1394 72.4003 69.6563 74.4434 68.5794 75.5203C65.4594 78.6403 61.5594 75.5203 61.5594 75.5203V71.5965Z" fill="#4D4D4D"/>
<ellipse cx="77.9395" cy="52.1191" rx="5.46" ry="8.58" fill="#4D4D4D"/>
<ellipse cx="78.3299" cy="49.3892" rx="1.95" ry="2.73" fill="#E6E6E6"/>
<ellipse cx="41.2793" cy="52.1191" rx="5.46" ry="8.58" fill="#4D4D4D"/>
<ellipse rx="1.95" ry="2.73" transform="matrix(-1 0 0 1 40.8889 49.3892)" fill="#E6E6E6"/>
<ellipse cx="60" cy="73.179" rx="14.04" ry="11.7" fill="#E6E6E6"/>
<path d="M65.0205 68.4993C65.0205 68.9149 64.7678 69.536 63.855 70.1445C62.9561 70.7437 61.5992 71.1793 60.0005 71.1793C58.4017 71.1793 57.0448 70.7437 56.146 70.1445C55.2332 69.536 54.9805 68.9149 54.9805 68.4993C54.9805 68.0838 55.2332 67.4627 56.146 66.8542C57.0448 66.255 58.4017 65.8193 60.0005 65.8193C61.5992 65.8193 62.9561 66.255 63.855 66.8542C64.7678 67.4627 65.0205 68.0838 65.0205 68.4993Z" stroke="#4D4D4D" stroke-width="4"/>
<path d="M58.4396 72.3994H61.5596L60.7796 77.0794H59.2196L58.4396 72.3994Z" fill="#4D4D4D"/>
<path d="M50.6396 77.4639C50.6396 76.9439 51.2063 76.605 51.6781 76.8236C52.656 77.2767 54.1422 77.8594 55.3196 77.8594C56.4396 77.8594 57.839 77.3322 58.8145 76.8908C59.5637 76.5517 60.4356 76.5517 61.1848 76.8908C62.1603 77.3322 63.5597 77.8594 64.6796 77.8594C65.8571 77.8594 67.3433 77.2767 68.3212 76.8236C68.793 76.605 69.3596 76.9439 69.3596 77.4639C69.3596 77.7083 69.2286 77.9335 69.0115 78.0457C68.2106 78.4597 66.1907 79.4194 64.6796 79.4194C63.5597 79.4194 62.1603 78.8922 61.1848 78.4508C60.4356 78.1117 59.5637 78.1117 58.8145 78.4508C57.839 78.8922 56.4396 79.4194 55.3196 79.4194C53.8086 79.4194 51.7887 78.4597 50.9878 78.0457C50.7707 77.9335 50.6396 77.7083 50.6396 77.4639Z" fill="#4D4D4D"/>
</svg>
