<svg width="120" height="98" viewBox="0 0 120 98" fill="none" xmlns="http://www.w3.org/2000/svg">
<rect width="120" height="98" fill="black"/>
<path d="M88.5729 35.9326C88.5729 35.9326 93.9999 33.6779 93.9999 27.4045C93.9999 20.0393 89.3482 15 82.3706 15C72.3625 15 72.292 24.3034 72.292 24.3034L88.5729 35.9326Z" fill="#999999"/>
<path d="M90.8992 26.6293C90.8992 30.6795 86.2475 33.6068 86.2475 33.6068L75.3936 25.0787C75.3936 25.0787 76.1679 18.8765 83.1464 18.8765C87.4104 18.8765 90.8992 20.8147 90.8992 26.6293Z" fill="#E6E6E6"/>
<path d="M31.2025 35.9326C31.2025 35.9326 25.7755 33.6779 25.7755 27.4045C25.7755 20.0393 30.4272 15 37.4047 15C47.4129 15 47.4834 24.3034 47.4834 24.3034L31.2025 35.9326Z" fill="#999999"/>
<path d="M28.8762 26.6293C28.8762 30.6795 33.5279 33.6068 33.5279 33.6068L44.3818 25.0787C44.3818 25.0787 43.6074 18.8765 36.629 18.8765C32.365 18.8765 28.8762 20.8147 28.8762 26.6293Z" fill="#E6E6E6"/>
<path d="M94.7753 56.8652C94.7753 73.9922 78.0332 84 59.8876 84C41.7421 84 25 73.9922 25 56.8652C25 35.0865 38.641 21.9775 59.8876 21.9775C81.1343 21.9775 94.7753 35.0865 94.7753 56.8652Z" fill="#999999"/>
<ellipse cx="59.8877" cy="69.2695" rx="6.97753" ry="3.8764" fill="#E6E6E6"/>
<path d="M52.9102 74.954C52.9102 74.1812 53.7715 73.7202 54.4145 74.1489L58.8314 77.0935C59.471 77.5199 60.3043 77.5199 60.944 77.0935L65.1724 74.2745C65.896 73.7921 66.8652 74.3108 66.8652 75.1805V75.1805C66.8652 75.3625 66.7742 75.5325 66.6228 75.6335L60.9971 79.3839C60.3253 79.8318 59.4501 79.8318 58.7783 79.3839L53.341 75.7591C53.0718 75.5796 52.9102 75.2775 52.9102 74.954V74.954Z" fill="#4D4D4D"/>
<path d="M48.2584 60.7417C48.2584 64.5953 46.1758 67.7192 43.6068 67.7192C41.0377 67.7192 38.9551 64.5953 38.9551 60.7417C38.9551 56.8881 41.0377 53.7642 43.6068 53.7642C46.1758 53.7642 48.2584 56.8881 48.2584 60.7417Z" fill="#4D4D4D"/>
<path d="M80.82 60.7417C80.82 64.5953 78.7373 67.7192 76.1683 67.7192C73.5992 67.7192 71.5166 64.5953 71.5166 60.7417C71.5166 56.8881 73.5992 53.7642 76.1683 53.7642C78.7373 53.7642 80.82 56.8881 80.82 60.7417Z" fill="#4D4D4D"/>
</svg>
