<svg width="120" height="98" viewBox="0 0 120 98" fill="none" xmlns="http://www.w3.org/2000/svg">
<path d="M77.3506 18.933C86.5442 15.6808 101.559 11.1237 101.559 11.1237C99.5609 21.7275 95.7223 29.8298 85.1599 32.9897C87.8151 36.912 87.2498 40.4132 87.463 45.155C87.776 52.1169 84.898 56.5842 80.3194 61.8108C76.6259 66.027 71.8442 65.2124 68.2304 69.4981C65.3536 72.9096 65.2875 75.8293 63.1403 79.7478C58.0501 89.0369 55.8232 89.9975 44.6886 89.9975C36.66 89.9975 36.8249 90.2863 31.0671 84.653C28.9792 84.1405 20.7795 79.455 18.6017 70.7793C17.8101 67.6258 17.7889 65.599 18.6017 62.4514C19.3851 59.4176 20.2763 57.6786 22.4193 55.4047C24.2692 53.4417 27.82 54.2412 28.1457 51.561C30.0789 35.649 31.478 29.8162 34.5083 24.6558C36.497 21.3186 38.4405 19.06 41.4279 16.5902V8L48.4562 11.9046C49.7287 11.264 53.9227 11.0624 58.0501 11.0624C62.8748 11.0624 67.5115 11.9969 71.701 14.4058C74.6039 16.0749 75.3983 16.5902 77.3506 18.933Z" fill="#78DD62"/>
<path d="M43.7705 10.7334L46.1133 13.4666L43.7705 15.0285V10.7334Z" fill="#FFD59D"/>
<path d="M41.4277 8L48.4561 11.9046L46.1133 13.4665L41.4277 8Z" fill="#9D5900"/>
<path d="M44.6886 86.7949C55.8232 86.7949 60.9971 82.9693 63.1403 79.748C64.491 77.7178 64.8641 75.7686 65.5914 73.9828C65.5914 73.9828 68.1865 67.2797 66.3216 63.733C63.4584 58.2879 62.6719 58.1261 59.9589 55.4052C51.2355 46.6561 36.7883 49.3894 33.8721 50.9209C30.8758 52.4944 25.6006 53.4796 25.6006 53.4796C24.5315 53.9583 23.409 54.3548 22.4193 55.4049C20.2763 57.6788 19.3851 59.4178 18.6017 62.4516C17.7889 65.5992 17.936 67.597 18.6017 70.7795C19.6819 75.9436 26.0302 83.141 31.0671 84.6532C36.825 86.3818 36.66 86.7949 44.6886 86.7949Z" fill="#FFD59D"/>
<ellipse cx="46.9396" cy="73.2074" rx="4.29511" ry="7.41882" fill="#9D5900"/>
<path d="M27.3836 68.7567C27.3836 72.7518 30.6255 74.8483 28.8244 76.3712C24.8622 78.2748 22.3408 71.9903 22.3408 67.9952C22.3408 64.0001 22.3138 62.665 24.502 62.665C26.6903 62.665 27.3836 64.7615 27.3836 68.7567Z" fill="#9D5900"/>
<path d="M83.5977 31.4278L78.9121 22.0567L96.0925 15.0283C93.5936 22.832 91.0165 27.1327 83.5977 31.4278Z" fill="#FFD59D"/>
<path d="M77.3506 18.9328L101.559 11.1235L101.169 13.4663L77.3506 23.6184V18.9328Z" fill="#9D5900"/>
<path d="M77.3506 32.9898H85.1599C85.1599 32.9898 83.4739 28.5986 82.0362 25.9615C80.4572 23.0651 77.3506 18.9331 77.3506 18.9331V32.9898Z" fill="#78DD62"/>
<ellipse cx="68.7614" cy="38.0655" rx="7.80929" ry="9.76161" transform="rotate(20 68.7614 38.0655)" fill="#FFD59D"/>
<ellipse cx="68.7601" cy="38.0652" rx="5.4665" ry="6.63789" transform="rotate(20 68.7601 38.0652)" fill="#9D5900"/>
<path fill-rule="evenodd" clip-rule="evenodd" d="M29.7529 39.9884C30.7882 33.7749 31.8553 29.9736 33.3621 26.8118C34.0823 26.2353 34.8382 25.9689 35.5691 26.0978C37.9052 26.5097 39.1008 30.8034 38.2395 35.6879C37.3782 40.5724 34.7863 44.1982 32.4502 43.7863C31.1353 43.5545 30.1818 42.0929 29.7529 39.9884Z" fill="#FFD59D"/>
<ellipse cx="34.0091" cy="34.942" rx="1.95232" ry="5.85696" transform="rotate(10 34.0091 34.942)" fill="#9D5900"/>
</svg>
