<svg width="120" height="98" viewBox="0 0 120 98" fill="none" xmlns="http://www.w3.org/2000/svg">
<path d="M77.749 15.8635C73.4769 17.8974 70.7393 24.0403 70.7393 24.0403L87.0952 50.5162C87.0952 50.5162 94.0912 52.3321 98.3886 51.2949C102.093 50.4008 103.79 49.9823 106.177 47.0117C110.178 42.0316 106.956 31.0482 105.398 28.7121C101.314 22.587 102.672 22.4826 96.052 17.0317C91.3562 13.1653 83.2413 13.2486 77.749 15.8635Z" fill="#F993CE"/>
<path fill-rule="evenodd" clip-rule="evenodd" d="M103.354 25.4295C103.127 25.204 102.899 24.9997 102.672 24.8184C99.1654 22.0134 94.8836 19.7568 87.8739 24.0398C80.8642 28.3227 82.4219 35.7203 82.4219 35.7203L87.6481 50.6494C89.3835 51.0487 94.8175 52.1568 98.3883 51.295C102.093 50.4008 103.79 49.9824 106.177 47.0117C106.652 46.4204 107.025 45.7444 107.312 45.0083C107.776 43.5279 108.01 42.1584 108.091 40.8519C108.283 35.8767 106.456 30.2991 105.398 28.7122C104.502 27.3681 103.868 26.3139 103.354 25.4295Z" fill="#003FBF"/>
<path d="M106.177 47.0115C107.543 45.3114 108.067 42.9118 108.103 40.3954C106.716 42.4062 104.017 40.9615 99.5389 38.8351C99.5389 38.8351 104.137 45.8803 101.096 47.4008C97.9815 48.9582 91.7518 45.8434 91.7518 45.8434C91.7518 45.8434 93.2013 48.3389 92.5305 49.737C91.603 51.6705 87.0947 50.516 87.0947 50.516C87.0947 50.516 94.0907 52.3319 98.3881 51.2947C102.093 50.4006 103.79 49.9821 106.177 47.0115Z" fill="#BFD4FF"/>
<path d="M106.177 47.0115C107.543 45.3114 108.067 42.9118 108.103 40.3954C106.716 42.4062 104.017 40.9615 99.5389 38.8351C99.5389 38.8351 104.137 45.8803 101.096 47.4008C97.9815 48.9582 91.7518 45.8434 91.7518 45.8434C91.7518 45.8434 93.2013 48.3389 92.5305 49.737C91.603 51.6705 87.0947 50.516 87.0947 50.516C87.0947 50.516 94.0907 52.3319 98.3881 51.2947C102.093 50.4006 103.79 49.9821 106.177 47.0115Z" fill="#BFD4FF"/>
<path d="M40.3565 15.8635C44.6285 17.8974 47.3662 24.0403 47.3662 24.0403L31.0103 50.5162C31.0103 50.5162 24.0142 52.3321 19.7169 51.2949C16.0121 50.4008 14.3151 49.9823 11.9283 47.0117C7.92698 42.0316 11.1495 31.0482 12.7072 28.7121C16.7915 22.587 15.4332 22.4826 22.0534 17.0317C26.7493 13.1653 34.8642 13.2486 40.3565 15.8635Z" fill="#F993CE"/>
<path fill-rule="evenodd" clip-rule="evenodd" d="M14.7522 25.4291C14.9791 25.2038 15.2069 24.9996 15.4334 24.8184C18.9401 22.0134 23.2219 19.7568 30.2316 24.0398C37.2413 28.3227 35.6836 35.7203 35.6836 35.7203L30.4574 50.6495C28.7217 51.0488 23.288 52.1568 19.7173 51.295C16.0126 50.4008 14.3156 49.9824 11.9288 47.0117C11.4531 46.4197 11.0795 45.7429 10.7931 45.0058C10.3301 43.5294 10.0961 42.1635 10.0151 40.8602C9.82093 35.8829 11.6488 30.3 12.7076 28.7122C13.604 27.3678 14.2383 26.3135 14.7522 25.4291Z" fill="#003FBF"/>
<path d="M11.9288 47.0115C10.5629 45.3114 10.0388 42.9118 10.0028 40.3954C11.3896 42.4062 14.0889 40.9615 18.5666 38.8351C18.5666 38.8351 13.9681 45.8803 17.0092 47.4008C20.124 48.9582 26.3536 45.8434 26.3536 45.8434C26.3536 45.8434 24.9042 48.3389 25.5749 49.737C26.5025 51.6705 31.0107 50.516 31.0107 50.516C31.0107 50.516 24.0147 52.3319 19.7173 51.2947C16.0126 50.4006 14.3156 49.9821 11.9288 47.0115Z" fill="#BFD4FF"/>
<path d="M11.9288 47.0115C10.5629 45.3114 10.0388 42.9118 10.0028 40.3954C11.3896 42.4062 14.0889 40.9615 18.5666 38.8351C18.5666 38.8351 13.9681 45.8803 17.0092 47.4008C20.124 48.9582 26.3536 45.8434 26.3536 45.8434C26.3536 45.8434 24.9042 48.3389 25.5749 49.737C26.5025 51.6705 31.0107 50.516 31.0107 50.516C31.0107 50.516 24.0147 52.3319 19.7173 51.2947C16.0126 50.4006 14.3156 49.9821 11.9288 47.0115Z" fill="#BFD4FF"/>
<path d="M89.6197 52.8518C91.1774 70.0545 84.2389 84 59.2443 84C34.2498 84 26.5324 70.0545 28.0901 52.8518C30.4267 35.6491 40.4806 21.7036 59.2443 21.7036C78.008 21.7036 87.2831 35.6491 89.6197 52.8518Z" fill="#F993CE"/>
<path d="M50.9989 50.2549C51.6903 46.3517 55.0828 43.5073 59.0468 43.5073V43.5073V43.5073C63.0107 43.5073 66.4033 46.3517 67.0947 50.2549L68.69 59.2605C69.7526 65.2592 65.1389 70.762 59.0468 70.762V70.762C52.9547 70.762 48.341 65.2592 49.4036 59.2605L50.9989 50.2549Z" fill="#BFD4FF"/>
<path d="M47.3587 71.1509C47.3587 71.1509 51.6556 76.2125 59.0151 76.2125C66.3746 76.2125 70.6714 71.1509 70.6714 71.1509L71.1174 72.7083C71.1174 72.7083 66.3746 77.7699 59.0151 77.7699C51.6556 77.7699 46.9775 72.7083 46.9775 72.7083L47.3587 71.1509Z" fill="#003FBF"/>
<path d="M69.341 69.0846C69.7265 68.7604 70.3208 68.9076 70.5326 69.3649C70.8891 70.1347 71.4408 71.2081 72.0294 71.911C72.618 72.6139 73.577 73.3447 74.2717 73.8302C74.6844 74.1186 74.7258 74.7307 74.3403 75.0549V75.0549C74.0975 75.2591 73.7524 75.2849 73.4885 75.1092C72.8188 74.6633 71.5548 73.7671 70.8388 72.9121C70.1228 72.0571 69.4616 70.654 69.1397 69.9157C69.0128 69.6248 69.0981 69.2887 69.341 69.0846V69.0846Z" fill="#003FBF"/>
<path d="M48.7518 69.0846C48.3663 68.7604 47.7719 68.9076 47.5601 69.3649C47.2036 70.1347 46.652 71.2081 46.0634 71.911C45.4748 72.6139 44.5158 73.3447 43.8211 73.8302C43.4084 74.1186 43.3669 74.7307 43.7525 75.0549V75.0549C43.9953 75.2591 44.3404 75.2849 44.6043 75.1092C45.274 74.6633 46.538 73.7671 47.254 72.9121C47.9699 72.0571 48.6312 70.654 48.9531 69.9157C49.08 69.6248 48.9946 69.2887 48.7518 69.0846V69.0846Z" fill="#003FBF"/>
<path d="M60.6035 68.4263C60.6035 69.2051 61.2849 69.2051 61.9662 69.205C63.0634 69.205 64.0104 68.8157 64.6917 68.4263C65.3731 68.037 66.0545 67.7291 66.0545 66.8689C66.0545 66.0902 66.0545 65.3115 65.3731 65.3115C64.276 65.3115 63.329 65.6534 62.6476 66.0902C61.9662 66.5271 60.6035 67.1361 60.6035 68.4263Z" fill="#003FBF"/>
<path d="M57.4893 68.4263C57.4893 69.2051 56.8079 69.2051 56.1265 69.205C55.0294 69.205 54.0824 68.8157 53.4011 68.4263C52.7197 68.037 52.0383 67.7291 52.0383 66.8689C52.0383 66.0902 52.0383 65.3115 52.7197 65.3115C53.8168 65.3115 54.7638 65.6534 55.4452 66.0902C56.1265 66.5271 57.4893 67.1361 57.4893 68.4263Z" fill="#003FBF"/>
<ellipse cx="76.5668" cy="51.6839" rx="5.84029" ry="6.61899" fill="#BFD4FF"/>
<ellipse cx="76.5667" cy="51.6833" rx="3.50417" ry="4.28288" fill="#003FBF"/>
<ellipse cx="41.5258" cy="51.6839" rx="5.84029" ry="6.61899" fill="#BFD4FF"/>
<ellipse cx="41.5257" cy="51.6833" rx="3.50417" ry="4.28288" fill="#003FBF"/>
</svg>
