<svg width="120" height="98" viewBox="0 0 120 98" fill="none" xmlns="http://www.w3.org/2000/svg">
<path d="M40.39 21.2333L40.3906 21.2338L40.3911 21.2342L40.3918 21.2347L40.3919 21.2348L40.4075 21.2472L40.4247 21.2615L44.1917 24.4002L48.8271 22.5975V16.7681C48.8193 16.7318 48.8101 16.6898 48.7993 16.6424C48.7532 16.4398 48.6803 16.1422 48.5766 15.782C48.3671 15.054 48.042 14.1062 47.578 13.1781C46.5793 11.1808 45.333 10 43.8175 10C41.9697 10 40.077 10.7688 38.6474 11.9668C37.1919 13.1865 36.4714 14.6202 36.4714 15.7885C36.4714 16.1551 36.609 16.6688 36.9614 17.3214C37.3057 17.9592 37.7899 18.6094 38.316 19.2133C38.8368 19.8113 39.3638 20.3241 39.763 20.6887C39.9613 20.8698 40.1247 21.0113 40.2356 21.1051C40.291 21.152 40.3331 21.1868 40.3596 21.2085L40.3874 21.2311L40.39 21.2333Z" fill="#EDB0B0" stroke="#811D1D" stroke-width="4"/>
<path d="M39.7672 22.0157L39.7675 22.0159L39.7677 22.016L39.7677 22.0161L39.776 22.0226L39.7846 22.0298L44.0046 25.5459L49.8271 23.2816V16.6643C49.8158 16.6086 49.7984 16.5262 49.7744 16.4208C49.7248 16.2023 49.6473 15.8863 49.5376 15.5053C49.3172 14.7397 48.9721 13.7304 48.4724 12.7309C47.4376 10.6613 45.9382 9 43.8175 9C41.7058 9 39.5912 9.87117 38.0051 11.2004C36.406 12.5404 35.4714 14.2308 35.4714 15.7885C35.4714 16.3831 35.6862 17.0646 36.0815 17.7966C36.4727 18.5211 37.0068 19.2329 37.562 19.8702C38.1144 20.5044 38.67 21.0447 39.0887 21.4271C39.2973 21.6177 39.4703 21.7675 39.5896 21.8685C39.6493 21.9189 39.6954 21.9571 39.7258 21.982L39.7592 22.0092L39.7665 22.0151L39.7672 22.0157Z" stroke="#FFD00D" stroke-width="2"/>
<path d="M79.9567 21.2333L79.9561 21.2338L79.9556 21.2342L79.9549 21.2347L79.9547 21.2348L79.9392 21.2472L79.922 21.2615L76.1549 24.4002L71.5195 22.5975V16.7681C71.5274 16.7318 71.5366 16.6898 71.5474 16.6424C71.5934 16.4398 71.6663 16.1422 71.7701 15.782C71.9796 15.054 72.3047 14.1062 72.7687 13.1781C73.7674 11.1808 75.0137 10 76.5291 10C78.377 10 80.2697 10.7688 81.6993 11.9668C83.1548 13.1865 83.8753 14.6202 83.8753 15.7885C83.8753 16.1551 83.7377 16.6688 83.3853 17.3214C83.0409 17.9592 82.5568 18.6094 82.0307 19.2133C81.5098 19.8113 80.9829 20.3241 80.5836 20.6887C80.3854 20.8698 80.222 21.0113 80.111 21.1051C80.0557 21.152 80.0136 21.1868 79.9871 21.2085L79.9593 21.2311L79.9567 21.2333Z" fill="#EDB0B0" stroke="#811D1D" stroke-width="4"/>
<path d="M80.5795 22.0157L80.5792 22.0159L80.579 22.016L80.579 22.0161L80.5707 22.0226L80.5621 22.0298L76.342 25.5459L70.5195 23.2816V16.6643C70.5309 16.6086 70.5483 16.5262 70.5722 16.4208C70.6219 16.2023 70.6994 15.8863 70.8091 15.5053C71.0295 14.7397 71.3745 13.7304 71.8743 12.7309C72.9091 10.6613 74.4084 9 76.5291 9C78.6409 9 80.7555 9.87117 82.3416 11.2004C83.9407 12.5404 84.8753 14.2308 84.8753 15.7885C84.8753 16.3831 84.6605 17.0646 84.2652 17.7966C83.874 18.5211 83.3398 19.2329 82.7847 19.8702C82.2322 20.5044 81.6767 21.0447 81.258 21.4271C81.0494 21.6177 80.8764 21.7675 80.757 21.8685C80.6974 21.9189 80.6513 21.9571 80.6209 21.982L80.5875 22.0092L80.5802 22.0151L80.5795 22.0157Z" stroke="#FFD00D" stroke-width="2"/>
<path d="M95.2212 52.3944C98.8192 52.5709 100.547 52.2591 103.01 50.8367L88.2115 36.0386C88.2115 36.0386 93.6635 36.8175 93.6635 32.9232C88.2115 31.3655 82.9396 15.0098 60.1731 15.0098C37.4066 15.0098 32.1346 31.3655 26.6827 32.9232C26.6827 36.8175 32.1346 36.0386 32.1346 36.0386L17.3365 50.8367C20.4835 52.352 22.1877 52.6665 25.125 52.3944C22.7885 57.8206 20.1532 59.8746 15 64.8559C18.5343 67.6354 20.9849 68.1852 25.9038 67.9713L20.4519 78.8751L38.3654 82.7694H81.9808L99.8942 78.8751L94.4423 67.9713C99.3268 68.3122 101.731 67.6857 105.346 64.8559C99.2064 58.9126 96.3069 56.5515 95.2212 52.3944Z" fill="#811D1D"/>
<path d="M84.3172 47.3315C84.3172 36.3628 81.2959 22.7979 60.1729 22.7979C39.05 22.7979 36.0287 36.3628 36.0287 47.3315L29.7979 59.4253C28.7868 61.6257 28.2402 63.9743 28.2402 66.4132C28.2402 78.8874 42.5371 88.9998 60.1729 88.9998C77.8088 88.9998 92.1056 78.8874 92.1056 66.4132C92.1056 63.9743 91.5591 61.6257 90.5479 59.4253L84.3172 47.3315Z" fill="#FFD00D"/>
<path d="M38.3652 72.4229C38.3652 71.5324 39.9321 71.0402 40.5432 71.6879C43.3643 74.6776 49.2669 78.875 60.1729 78.875C71.079 78.875 76.9816 74.6776 79.8026 71.6879C80.4138 71.0402 81.9806 71.5324 81.9806 72.4229V72.4229C81.9806 72.568 81.9452 72.7069 81.8651 72.8278C81.0412 74.0712 75.6366 81.2115 60.1729 81.2115C44.7092 81.2115 39.3046 74.0712 38.4807 72.8278C38.4006 72.7069 38.3652 72.568 38.3652 72.4229V72.4229Z" fill="#811D1D"/>
<path d="M51.606 58.625C63.164 58.625 57.1826 58.625 68.7406 58.625C72.6348 58.625 77.9761 70.3077 73.4137 70.3077C67.1829 70.3077 53.1636 70.3077 46.9329 70.3077C42.3705 70.3077 47.7117 58.625 51.606 58.625Z" fill="#EDB0B0"/>
<path d="M76.9184 51.3366C78.3276 51.3366 79.5356 50.4544 80.3672 49.1692C81.2021 47.879 81.7021 46.1265 81.7021 44.2164C81.7021 42.3063 81.2021 40.5538 80.3672 39.2636C79.5356 37.9783 78.3276 37.0962 76.9184 37.0962C75.5093 37.0962 74.3013 37.9783 73.4696 39.2636C72.6348 40.5538 72.1348 42.3063 72.1348 44.2164C72.1348 46.1265 72.6348 47.879 73.4696 49.1692C74.3013 50.4544 75.5093 51.3366 76.9184 51.3366Z" fill="#EDB0B0" stroke="#811D1D"/>
<ellipse cx="76.9183" cy="44.2163" rx="2.72596" ry="5.0625" fill="#811D1D"/>
<path d="M44.2065 51.3366C45.6157 51.3366 46.8237 50.4544 47.6553 49.1692C48.4901 47.879 48.9902 46.1265 48.9902 44.2164C48.9902 42.3063 48.4901 40.5538 47.6553 39.2636C46.8237 37.9783 45.6157 37.0962 44.2065 37.0962C42.7974 37.0962 41.5893 37.9783 40.7577 39.2636C39.9229 40.5538 39.4229 42.3063 39.4229 44.2164C39.4229 46.1265 39.9229 47.879 40.7577 49.1692C41.5893 50.4544 42.7974 51.3366 44.2065 51.3366Z" fill="#EDB0B0" stroke="#811D1D"/>
<ellipse cx="44.2064" cy="44.2163" rx="2.72596" ry="5.0625" fill="#811D1D"/>
<path d="M68.7408 70.3078H63.2889C60.9524 70.3078 65.2356 67.1924 67.1831 67.1924C68.7409 67.1924 69.5197 67.9713 69.5197 69.5289C69.5197 70.3078 68.7408 70.3078 68.7408 70.3078Z" fill="#811D1D"/>
<path d="M52.4838 70.3078H57.9357C60.2722 70.3078 55.989 67.1924 54.0415 67.1924C52.4838 67.1924 51.7049 67.9713 51.7049 69.5289C51.7049 70.3078 52.4838 70.3078 52.4838 70.3078Z" fill="#811D1D"/>
</svg>
