<svg width="120" height="98" viewBox="0 0 120 98" fill="none" xmlns="http://www.w3.org/2000/svg">
<path d="M87.6796 55.0687C90.1812 58.2455 91.6034 62.6744 91.6034 66.5513C91.6034 78.876 77.2301 88.8672 59.5 88.8672C41.7698 88.8672 27.3965 78.876 27.3965 66.5513C27.3965 62.6742 28.8189 58.245 31.3207 55.0682C33.3322 26.2233 41.0501 23.2081 48.4082 19.5868C52.5941 17.5267 56.6636 15.5239 59.5001 9C62.3366 15.5239 66.4062 17.5267 70.5919 19.5868C77.9502 23.2081 85.6681 26.2234 87.6796 55.0687Z" fill="#DB6161"/>
<path d="M92.3866 56.7637C90.4526 56.7637 87.6885 55.1977 87.6885 55.1977L83.7734 34.0564C83.7734 34.0564 87.8089 30.9243 90.8205 30.9243C97.4761 30.9243 101.065 37.6918 101 44.2355C100.94 50.1725 98.2591 56.7637 92.3866 56.7637Z" fill="#DB6161"/>
<path d="M88.5263 42.6086C87.9886 42.8006 87.4627 43.0545 87.0109 43.2993C87.0068 42.4162 87.084 41.2935 87.3813 40.1889C87.6922 39.0344 88.2271 37.9588 89.102 37.1744C89.9589 36.4061 91.228 35.8394 93.1692 35.8394C94.4523 35.8394 95.5607 36.7658 96.4013 38.5863C97.2288 40.3787 97.6503 42.7717 97.6503 45.0185C97.6503 47.4465 97.1745 48.9315 96.4588 49.8014C95.7779 50.629 94.7392 51.0656 93.1692 51.0656C91.5027 51.0656 90.3931 50.7469 89.6538 50.3354C88.924 49.9292 88.5016 49.4033 88.2483 48.8856C88.1256 48.6348 88.0405 48.3808 87.9824 48.138C88.3348 48.2516 88.7282 48.3507 89.1326 48.4002C89.8355 48.4863 90.7446 48.4422 91.4886 47.8551C92.2602 47.2462 92.6032 46.2572 92.6032 45.0185C92.6032 44.4223 92.5003 43.8703 92.2402 43.4059C91.9674 42.9188 91.5583 42.5948 91.0831 42.4251C90.2203 42.117 89.2451 42.3519 88.5263 42.6086Z" fill="#FFE886" stroke="#866C00" stroke-width="2"/>
<path d="M26.6144 56.7637C28.5484 56.7637 31.3125 55.1977 31.3125 55.1977L35.2275 34.0564C35.2275 34.0564 31.1921 30.9243 28.1804 30.9243C21.5248 30.9243 17.936 37.6918 18.0013 44.2355C18.0605 50.1725 20.7418 56.7637 26.6144 56.7637Z" fill="#DB6161"/>
<path d="M30.4747 42.6086C31.0123 42.8006 31.5383 43.0545 31.9901 43.2993C31.9942 42.4162 31.917 41.2935 31.6196 40.1889C31.3088 39.0344 30.7739 37.9588 29.899 37.1744C29.042 36.4061 27.7729 35.8394 25.8318 35.8394C24.5487 35.8394 23.4402 36.7658 22.5997 38.5863C21.7722 40.3787 21.3507 42.7717 21.3507 45.0185C21.3507 47.4465 21.8265 48.9315 22.5421 49.8014C23.223 50.629 24.2618 51.0656 25.8318 51.0656C27.4982 51.0656 28.6079 50.7469 29.3472 50.3354C30.0769 49.9292 30.4994 49.4033 30.7526 48.8856C30.8754 48.6348 30.9605 48.3808 31.0186 48.138C30.6662 48.2516 30.2728 48.3507 29.8684 48.4002C29.1655 48.4863 28.2564 48.4422 27.5124 47.8551C26.7408 47.2462 26.3978 46.2572 26.3978 45.0185C26.3978 44.4223 26.5007 43.8703 26.7608 43.4059C27.0335 42.9188 27.4427 42.5948 27.9179 42.4251C28.7807 42.117 29.7558 42.3519 30.4747 42.6086Z" fill="#FFE886" stroke="#866C00" stroke-width="2"/>
<circle cx="75.1612" cy="44.2354" r="7.83011" fill="#FFE886"/>
<circle cx="75.161" cy="44.2357" r="4.69807" fill="#866C00"/>
<circle cx="43.8399" cy="44.2354" r="7.83011" fill="#FFE886"/>
<circle cx="43.8406" cy="44.2357" r="4.69807" fill="#866C00"/>
<rect x="57.9336" y="54.4146" width="3.13205" height="19.5753" fill="#FFE886"/>
<path d="M49.3203 72.4C49.3203 71.1439 50.8054 70.397 51.8678 71.0671C53.9774 72.3977 57.0199 73.9901 59.4995 73.9901C61.979 73.9901 65.0215 72.3977 67.1311 71.0671C68.1935 70.397 69.6786 71.1439 69.6786 72.4V72.4C69.6786 72.9039 69.4286 73.3723 68.9975 73.6332C67.3211 74.6477 62.8854 77.1221 59.4995 77.1221C56.1135 77.1221 51.6778 74.6477 50.0014 73.6332C49.5703 73.3723 49.3203 72.9039 49.3203 72.4V72.4Z" fill="#FFE886"/>
<ellipse cx="59.4994" cy="53.2402" rx="6.26409" ry="1.95753" fill="#866C00"/>
</svg>
