<svg width="120" height="98" viewBox="0 0 120 98" fill="none" xmlns="http://www.w3.org/2000/svg">
<path d="M94.2247 49.5C94.2247 76.3066 75.0757 84 60.1124 84C45.149 84 26 76.3066 26 49.5C26 30.4462 37.3962 15 60.1124 15C82.8285 15 94.2247 30.4462 94.2247 49.5Z" fill="#7FA9FF"/>
<path d="M40.7306 73.1459C54.2813 73.1459 63.989 64.6178 63.989 64.6178C60.0385 58.7621 55.1522 54.9839 46.9328 48.3369H45.3822C31.9139 55.8847 27.5508 60.3538 27.5508 69.2695C29.052 70.1265 31.7316 70.0501 36.0789 70.0448C36.0789 70.0448 37.2418 73.1459 40.7306 73.1459Z" fill="#FCC9E6"/>
<path d="M40.7308 73.1463C54.2815 73.1463 63.9892 64.6182 63.9892 64.6182C63.9892 64.6182 55.589 67.4288 50.0342 68.4946C44.649 69.5278 36.0791 70.0451 36.0791 70.0451C36.0791 70.0451 37.242 73.1463 40.7308 73.1463Z" fill="#BC0A71"/>
<path d="M38.7926 52.2134L36.0791 54.1516C36.0791 54.1516 38.3953 56.1187 39.1802 53.7639C39.5679 52.601 38.7926 52.2134 38.7926 52.2134Z" fill="#BC0A71"/>
<ellipse cx="50.0339" cy="55.3147" rx="2.32584" ry="1.55056" fill="#BC0A71"/>
<ellipse cx="65.1516" cy="48.7248" rx="5.03933" ry="8.91573" fill="#BC0A71"/>
<ellipse cx="63.6013" cy="47.9493" rx="1.9382" ry="2.71348" fill="#FCC9E6"/>
<ellipse cx="34.1402" cy="44.4607" rx="2.71348" ry="8.52809" fill="#BC0A71"/>
<ellipse cx="32.9764" cy="43.0768" rx="1.16292" ry="2.32584" fill="#FCC9E6"/>
</svg>
