<svg width="120" height="98" viewBox="0 0 120 98" fill="none" xmlns="http://www.w3.org/2000/svg">
<path d="M98.033 49.5C98.033 65.7924 96.3547 79 59.6054 79C22.8561 79 21.1777 65.7924 21.1777 49.5C21.1777 33.2076 38.3824 20 59.6054 20C80.8284 20 98.033 33.2076 98.033 49.5Z" fill="#7FA9FF"/>
<path d="M59.9937 73.5657C50.9821 73.5657 38.2625 65.8025 38.2625 65.8025C38.2625 65.8025 37.3115 54.9341 59.9937 54.9341C82.6758 54.9341 81.7248 65.8025 81.7248 65.8025C81.7248 65.8025 69.0052 73.5657 59.9937 73.5657Z" fill="#BBEEB0"/>
<path d="M59.9937 73.5659C50.9798 73.5659 38.2568 65.8027 38.2568 65.8027C38.2568 65.8027 51.0772 72.0133 59.9937 72.0133C68.9102 72.0133 81.7305 65.8027 81.7305 65.8027C81.7305 65.8027 69.0076 73.5659 59.9937 73.5659Z" fill="#2F831C"/>
<ellipse cx="71.5722" cy="59.242" rx="1.94079" ry="1.16447" transform="rotate(30 71.5722 59.242)" fill="#2F831C"/>
<ellipse rx="1.94079" ry="1.16447" transform="matrix(-0.866025 0.5 0.5 0.866025 48.2823 59.242)" fill="#2F831C"/>
<ellipse cx="86.5218" cy="47.1475" rx="10.0921" ry="12.4211" transform="rotate(-20 86.5218 47.1475)" fill="#BBEEB0"/>
<ellipse cx="87.1657" cy="46.7829" rx="7.76316" ry="9.70395" transform="rotate(-20 87.1657 46.7829)" fill="#2F831C"/>
<ellipse rx="10.0921" ry="12.4211" transform="matrix(-0.939693 -0.34202 -0.34202 0.939693 33.7321 47.1475)" fill="#BBEEB0"/>
<ellipse rx="7.76316" ry="9.70395" transform="matrix(-0.939693 -0.34202 -0.34202 0.939693 33.0882 46.7829)" fill="#2F831C"/>
</svg>
