<svg width="120" height="98" viewBox="0 0 120 98" fill="none" xmlns="http://www.w3.org/2000/svg">
<path d="M87.2369 25.2982C87.2369 33.6199 84.1141 46.3772 84.1141 46.3772L63.8159 38.5702C63.8159 38.5702 63.0352 30.517 63.0352 25.2982C63.0351 16.3202 64.2062 5 74.7457 5C85.6148 5 87.2369 16.3202 87.2369 25.2982Z" fill="#FFAA3B"/>
<path d="M67.7197 19.0526C67.7199 26.9795 67.7197 39.3508 67.7197 39.3508L80.211 44.035C80.211 44.035 83.3338 35.483 83.3338 22.1754C83.3338 16.7105 83.3337 10.4648 75.5267 10.4648C69.4329 10.4648 67.7197 14.3684 67.7197 19.0526Z" fill="#FCC9E6"/>
<path d="M32.5883 25.2982C32.5883 33.6199 35.7111 46.3772 35.7111 46.3772L56.0093 38.5702C56.0093 38.5702 56.79 30.517 56.79 25.2982C56.79 16.3202 55.619 5 45.0795 5C34.2104 5 32.5883 16.3202 32.5883 25.2982Z" fill="#FFAA3B"/>
<path d="M52.1055 19.0526C52.1053 26.9795 52.1055 39.3508 52.1055 39.3508L39.6142 44.035C39.6142 44.035 36.4914 35.483 36.4914 22.1754C36.4914 16.7105 36.4915 10.4648 44.2985 10.4648C50.3923 10.4648 52.1055 14.3684 52.1055 19.0526Z" fill="#FCC9E6"/>
<path d="M95.8246 65.8948C95.8246 81.4169 89.1145 94.0001 59.9123 94.0001C30.7101 94.0001 24 81.4169 24 65.8948C24 52.7148 40.0785 37.7896 59.9123 37.7896C79.7461 37.7896 95.8246 52.7148 95.8246 65.8948Z" fill="#FFAA3B"/>
<ellipse cx="43.1713" cy="59.2586" rx="5.85526" ry="9.75877" transform="rotate(10 43.1713 59.2586)" fill="#FCC9E6"/>
<ellipse cx="43.171" cy="59.2588" rx="4.29386" ry="6.63596" transform="rotate(10 43.171 59.2588)" fill="#BC0A71"/>
<ellipse rx="5.85526" ry="9.75877" transform="matrix(-0.984808 0.173648 0.173648 0.984808 76.8297 59.2586)" fill="#FCC9E6"/>
<ellipse rx="4.29386" ry="6.63596" transform="matrix(-0.984808 0.173648 0.173648 0.984808 76.8299 59.2588)" fill="#BC0A71"/>
<path fill-rule="evenodd" clip-rule="evenodd" d="M67.72 72.5307C67.72 74.2304 65.0379 75.6481 61.4744 75.9736V80.6854C62.9547 81.3168 65.204 82.0951 66.9393 81.8992C68.9366 81.6736 71.1821 79.7475 72.5853 78.3348C73.0674 77.8493 73.9656 78.187 73.9656 78.8712C73.9656 79.0607 73.8938 79.2405 73.7578 79.3723C72.9186 80.1858 69.693 83.1496 66.9393 83.4606C64.9523 83.6849 62.2916 82.632 60.8829 81.9848C60.2692 81.7029 59.5568 81.7029 58.9431 81.9848C57.5344 82.632 54.8736 83.6849 52.8867 83.4606C50.133 83.1496 46.9074 80.1858 46.0682 79.3723C45.9321 79.2405 45.8604 79.0607 45.8604 78.8712C45.8604 78.187 46.7585 77.8493 47.2407 78.3348C48.6439 79.7475 50.8894 81.6736 52.8867 81.8992C54.622 82.0951 56.8713 81.3168 58.3516 80.6854V75.9736C54.7881 75.6481 52.106 74.2304 52.106 72.5307C52.106 70.5905 55.6013 69.0176 59.913 69.0176C64.2247 69.0176 67.72 70.5905 67.72 72.5307Z" fill="#BC0A71"/>
<ellipse cx="57.9615" cy="72.1405" rx="1.95175" ry="1.5614" fill="#FCC9E6"/>
</svg>
