<svg width="120" height="98" viewBox="0 0 120 98" fill="none" xmlns="http://www.w3.org/2000/svg">
<path d="M86.124 33.4032C77.1247 28.2071 71.4295 26.5675 60.2866 25.5737C56.1509 20.372 54.1271 17.1074 51.6742 9.91475C48.4854 14.5626 48.743 18.0903 50.1083 24.7908C45.4105 24.7908 41.4958 25.5737 39.147 27.1396C33.4442 20.3337 30.567 15.5987 25.8368 6C25.8368 6 21.1391 15.0039 21.1391 21.659C21.1391 37.2297 24.2709 41.2327 24.2709 41.2327C24.2709 41.2327 17.7518 53.2758 18.0073 61.5894C18.5004 77.6336 28.5759 92.9074 44.6276 92.9074C55.9803 92.9074 65.3757 84.295 72.8138 84.295C86.4502 84.295 96.3023 73.6599 96.3023 58.4576C96.3023 45.539 90.8217 37.318 90.8217 37.318C90.8217 37.318 93.5057 37.4922 94.7364 36.535C98.2596 33.7947 101 25.6136 101 21.659C101 17.3528 96.3023 11.4806 96.3023 11.4806C90.0279 16.4333 88.1915 21.8483 86.124 33.4032Z" fill="#A06FCE"/>
<path d="M44.6279 92.9073C55.9806 92.9073 63.0198 81.946 73.597 81.946V81.1631C57.1477 81.1631 61.0625 89.7755 44.6279 89.7755C31.8826 89.7755 28.9615 84.2949 28.9615 84.2949H26.333C30.8623 89.5349 37.0853 92.9073 44.6279 92.9073Z" fill="#14767C"/>
<path d="M90.5569 18.095C91.9517 15.5638 93.7638 13.4843 96.3024 11.4805C96.3024 11.4805 101 17.3526 101 21.6588C101 25.6134 98.2597 33.7945 94.7365 36.5349C88.387 32.2362 87.3913 26.936 88.7831 22.1494C89.1927 20.7406 89.8092 19.3762 90.5569 18.095Z" fill="#9FEBF0"/>
<path d="M99.4272 23.2248C99.4272 27.6026 94.7295 33.4031 94.7295 33.4031C94.7295 33.4031 91.5977 29.8798 91.5977 24.0077C91.5977 18.9185 95.5124 16.1782 95.5124 16.1782C95.5124 16.1782 99.4272 18.5271 99.4272 23.2248Z" fill="#14767C"/>
<path d="M39.1475 27.1396C33.4448 20.3337 30.5676 15.5987 25.8374 6C25.8374 6 21.1396 15.0039 21.1396 21.659C21.1396 37.2297 24.2715 41.2327 24.2715 41.2327C24.2715 41.2327 25.6684 44.3645 27.396 44.3645C30.5278 44.3645 41.4891 39.6668 41.4891 32.6203C41.4891 28.7269 39.1475 27.1396 39.1475 27.1396Z" fill="#14767C"/>
<ellipse cx="86.1171" cy="56.109" rx="6.2636" ry="10.1783" fill="#9FEBF0"/>
<ellipse cx="88.0738" cy="56.1086" rx="4.30622" ry="7.04655" fill="#14767C"/>
</svg>
