<svg width="120" height="98" viewBox="0 0 120 98" fill="none" xmlns="http://www.w3.org/2000/svg">
<path d="M77.3028 7C66.7524 6.99998 68.7062 17.1597 68.7062 17.1597L83.5549 25.7563C83.5549 25.7563 89.0255 23.4117 89.0255 17.1597C89.0255 11.1016 83.3609 7.00001 77.3028 7Z" fill="#FFD00D"/>
<path d="M77.3022 10.126C70.2685 10.126 71.8316 17.9411 71.8316 17.9411L81.2097 23.4117C81.2097 23.4117 85.1173 19.5203 85.1173 16.3781C85.1173 12.4705 81.2106 10.126 77.3022 10.126Z" fill="#14767C"/>
<path d="M42.9159 7C53.4663 6.99998 51.5126 17.1597 51.5126 17.1597L36.6638 25.7563C36.6638 25.7563 31.1932 23.4117 31.1932 17.1597C31.1932 11.1016 36.8579 7.00001 42.9159 7Z" fill="#FFD00D"/>
<path d="M42.9156 10.126C49.9492 10.126 48.3862 17.9411 48.3862 17.9411L39.008 23.4117C39.008 23.4117 35.1005 19.5203 35.1005 16.3781C35.1005 12.4705 39.0071 10.126 42.9156 10.126Z" fill="#14767C"/>
<path d="M68.7059 16.3782C65.4192 15.6288 63.4803 15.5967 60.1092 15.5967C56.7382 15.5967 54.7993 15.6288 51.5126 16.3782C44.7206 17.9268 41.2375 20.5193 35.8824 24.9748C29.1723 30.5577 22.5966 42.9496 22.5966 42.9496L14 46.8572L24.1597 52.3278L15.563 57.7984L24.9412 62.4874L21.0336 66.395L32.7563 74.9916L46.042 85.1513C46.042 85.1513 47.7818 91.4034 60.1092 91.4034C72.4367 91.4034 74.1765 85.1513 74.1765 85.1513L87.4622 74.9916L99.1849 66.395L96.0588 62.4874L104.655 57.7984L96.8403 52.3278L107 46.8572L97.6218 42.9496C97.6218 42.9496 91.0462 30.5577 84.3361 24.9748C78.981 20.5193 75.4979 17.9268 68.7059 16.3782Z" fill="#FFD00D"/>
<circle cx="78.8659" cy="43.7311" r="7.31513" fill="#9FEBF0" stroke="#14767C"/>
<circle cx="78.4751" cy="43.3403" r="4.29832" fill="#14767C"/>
<circle r="7.31513" transform="matrix(-1 0 0 1 42.9163 43.7311)" fill="#9FEBF0" stroke="#14767C"/>
<circle r="4.29832" transform="matrix(-1 0 0 1 43.3071 43.3403)" fill="#14767C"/>
<path d="M74.1766 85.1515C61.6724 85.1515 60.1093 80.4624 60.1093 80.4624C60.1093 80.4624 58.5463 85.1515 46.0421 85.1515C36.6639 85.1515 31.1933 78.5035 31.1934 70.3027C31.1934 56.6263 46.3077 49.9834 60.1093 49.9834C73.911 49.9834 89.0253 57.017 89.0253 70.3027C89.0253 78.5035 83.5547 85.1515 74.1766 85.1515Z" fill="#9FEBF0"/>
<path d="M60.8907 51.5464C56.222 51.5464 49.168 52.3483 49.168 53.8909C49.168 57.7985 55.5518 60.9245 60.8907 60.9245C66.2295 60.9245 72.6133 57.7985 72.6133 53.8909C72.6133 52.3483 65.5593 51.5464 60.8907 51.5464Z" fill="#14767C"/>
<ellipse cx="60.891" cy="54.2814" rx="3.90756" ry="1.95378" fill="#9FEBF0"/>
<circle cx="79.647" cy="63.2686" r="1.56303" fill="#14767C"/>
<circle cx="85.1177" cy="67.9576" r="1.56303" fill="#14767C"/>
<circle cx="78.8658" cy="72.6465" r="1.56303" fill="#14767C"/>
<circle cx="72.6138" cy="68.7393" r="1.56303" fill="#14767C"/>
<circle cx="48.3863" cy="68.7393" r="1.56303" fill="#14767C"/>
<circle cx="35.8824" cy="67.9576" r="1.56303" fill="#14767C"/>
<circle cx="41.3531" cy="63.2686" r="1.56303" fill="#14767C"/>
<circle cx="42.1343" cy="72.6465" r="1.56303" fill="#14767C"/>
</svg>
