<svg width="120" height="98" viewBox="0 0 120 98" fill="none" xmlns="http://www.w3.org/2000/svg">
<path d="M72.3157 3L62.9823 33.3333H59.8712H55.9823L41.2045 3L38.8712 38.7778C34.9823 40.7222 29.5379 57.4444 29.5379 61.3333L20.9823 67.5556C20.9823 67.5556 11.2602 69.5 14.7601 73.7778C11.2601 85.4444 21.7601 84.6667 21.7601 84.6667C21.7601 84.6667 22.1068 89.3333 29.5379 89.3333H42.7601C42.7601 89.3333 49.5197 94 54.4268 94C61.4268 94 71.5379 89.3333 71.5379 89.3333H102.649L89.4268 69.1111H104.982L84.7601 41.8889L72.3157 3Z" fill="#78DD62"/>
<path d="M41.4371 39.811L41.427 38.04L43.3966 15.0616L51.0934 34.3037V37.2321L41.4371 39.811Z" fill="#003FBF" stroke="#BFD4FF" stroke-width="2"/>
<path d="M71.9283 14.4587L75.9825 43.5139V44.7513L65.5381 38.2235V34.2684L71.9283 14.4587Z" fill="#003FBF" stroke="#BFD4FF" stroke-width="2"/>
<path d="M102.649 89.3335L89.4268 69.1113C89.4268 50.8335 68.4268 33.3335 62.9823 33.3335H59.8712H55.9823C49.7601 33.3335 42.3712 37.0279 38.8712 38.7779C34.9823 40.7224 29.5379 57.4446 29.5379 61.3335L20.9823 67.5557C20.9823 67.5557 11.2602 69.5002 14.7601 73.7779C11.2601 85.4446 21.7601 84.6668 21.7601 84.6668C21.7601 84.6668 22.1068 89.3335 29.5379 89.3335H42.7601C42.7601 89.3335 49.5197 94.0002 54.4268 94.0002C61.4268 94.0002 71.5379 89.3335 71.5379 89.3335H102.649Z" fill="#78DD62"/>
<path d="M54.4268 94C61.4268 94 71.538 89.3333 71.538 89.3333C71.538 89.3333 73.8639 84.2427 73.8889 80.7778C73.9444 73.1007 59.7884 66 48.2223 66C36.5556 66 28 70.6667 28 70.6667L14.7602 73.7778C11.2602 85.4444 21.7602 84.6667 21.7602 84.6667C21.7602 84.6667 22.1069 89.3333 29.538 89.3333H42.7602C42.7602 89.3333 49.5198 94 54.4268 94Z" fill="#BFD4FF"/>
<path d="M62.2044 80.7779V81.5557C62.2044 81.5557 43.9266 85.4446 32.6489 85.4446C27.9822 85.4446 24.2878 85.0557 21.76 84.6668C18.6489 84.6668 17.8711 83.889 17.8711 83.889V83.1112H20.2044C19.9588 78.8135 19.7017 76.7196 18.6489 74.5557H21.76C21.3142 78.4204 21.676 79.6299 22.5378 83.1112C30.3332 85.4122 47.0378 82.7223 62.2044 80.7779Z" fill="#003FBF"/>
<path d="M20.9823 67.5557C20.9823 67.5557 11.2602 69.5001 14.7601 73.7779C14.7601 73.7779 16.3157 75.3334 21.7601 75.3334C25.2601 75.3334 29.5379 74.209 29.5379 70.6668C29.5379 67.5557 20.9823 67.5557 20.9823 67.5557Z" fill="#003FBF"/>
<path d="M105 69.1114L95.6666 56.667C95.6666 56.667 97.0249 61.728 95.6666 64.4448C94.3082 67.1615 89.4443 69.1114 89.4443 69.1114H105Z" fill="#BFD4FF"/>
<path d="M94.4998 76.8892L102.666 89.3336H87.8887C87.8887 89.3336 91.0742 87.2733 92.7498 84.6669C94.4998 81.9447 94.4998 76.8892 94.4998 76.8892Z" fill="#BFD4FF"/>
<path d="M70.0555 67.3591C72.0473 67.0079 73.3623 65.3966 74.0498 63.6021C74.7498 61.7751 74.9294 59.4883 74.5174 57.1515C74.1053 54.8146 73.1544 52.7272 71.8718 51.2498C70.612 49.7986 68.8252 48.7343 66.8333 49.0855C64.8415 49.4367 63.5265 51.048 62.839 52.8425C62.139 54.6695 61.9594 56.9563 62.3714 59.2931C62.7835 61.63 63.7344 63.7174 65.017 65.1949C66.2769 66.646 68.0637 67.7103 70.0555 67.3591Z" fill="#BFD4FF" stroke="#003FBF" stroke-width="3"/>
<ellipse cx="68.0548" cy="58.611" rx="2.72222" ry="5.05556" transform="rotate(-10 68.0548 58.611)" fill="#003FBF"/>
</svg>
